<svg width="2408" height="47" viewBox="0 0 2408 47" fill="none" xmlns="http://www.w3.org/2000/svg">
<path d="M2289.5 0.158392C2292.39 0.0271885 2296.41 0.494779 2299.82 0.476001C2314 0.400235 2319.25 0.676431 2332.09 0.654965C2351.09 0.702651 2407.49 -1.49638 2407.6 2.03975C2407.6 2.03984 2407.6 2.03993 2407.6 2.04002C2407.61 2.07535 2407.6 2.11125 2407.59 2.14775C2407.41 2.84097 2402.63 3.73972 2401.95 4.53692C2401.26 5.33433 2401.96 10.3345 2395.12 10.8165C2385.23 11.4904 2361.44 10.7828 2356.17 10.9426C2352.55 11.0609 2348.13 11.6093 2343.51 11.7812C2328.63 12.3301 2320.85 12.1232 2307.45 13.5594C2302.06 12.9844 2296.7 12.4034 2291.32 11.8175C2284.36 12.2083 2273.7 11.4631 2269.46 11.5522C2265.96 11.6263 2263.95 12.1619 2260.3 12.2199C2256.26 12.2872 2249.94 11.7861 2242.55 11.9288C2230.37 12.1594 2228.28 13.5186 2220.95 13.7431C2213.41 13.975 2201.62 13.3243 2191.98 13.8871C2190.76 14.0465 2189.6 14.2057 2188.37 14.3661C2189.28 14.6921 2190.09 15.0192 2190.97 15.3459C2188.36 15.4566 2186.4 15.3063 2184.62 15.1537C2183.05 15.0314 2181.6 14.9073 2179.57 14.9275C2174.34 14.9803 2171.67 15.6745 2168.14 15.7337C2165.27 15.782 2161.36 15.3381 2157.61 15.4668C2152.16 15.658 2153.4 16.3819 2150.47 16.6174C2149.37 16.62 2134.52 17.7523 2128.49 18.3196C2128.46 18.3209 2128.38 18.325 2128.35 18.3258C2127.3 18.3809 2126.61 18.4179 2126.42 18.426C2117.21 18.82 2116.34 17.8448 2108.95 18.1484C2088.49 19.0506 2067.35 21.5856 2048.2 22.7355C2039.64 23.2725 2030.68 23.5235 2022.17 23.568C2035.52 20.5995 2005.76 19.2437 2016.98 23.1231C2011.87 22.9159 2007.67 23.1512 2003.36 23.4023C1999.69 23.6199 1995.95 23.8532 1991.78 23.8013C1985.98 23.7271 1981.97 23.1844 1973.68 23.2451C1958.97 23.3564 1942.92 25.0094 1938.68 22.0712C1921.44 22.6114 1906.5 21.511 1900.28 24.0906C1895.83 24.2387 1884.44 22.6469 1879.46 22.4072C1876.56 22.2695 1861.59 21.8733 1849.25 21.4889C1841.52 21.2535 1834.87 21.0066 1832.6 20.9409C1826.65 20.7833 1816.25 20.4189 1811.26 20.4344C1804.96 20.4802 1800.47 22.8781 1789.57 19.389C1786.87 19.3694 1784.54 19.3699 1782.43 19.372C1774.42 19.3881 1769.57 19.2521 1760.08 19.0165C1757.89 18.9652 1757.67 18.5004 1756.38 18.5113C1753.76 18.5347 1749.3 18.9311 1744.63 19.0541C1736.95 19.2572 1732.54 18.3938 1733.43 19.8728C1728.36 20.2456 1723.3 20.6399 1718.24 21.0466C1716.45 20.8113 1714.68 20.5767 1712.87 20.3441C1710.18 20.7462 1707.46 21.1514 1704.76 21.5553C1707.88 19.2844 1688.79 21.1647 1695.04 22.2194C1688.62 22.1191 1682.18 21.9966 1675.72 21.7608C1672.25 21.6328 1668.8 21.5103 1665.37 21.3931C1666.7 18.8882 1643.74 21.4175 1645.73 22.7428C1644.59 22.761 1643.46 22.7798 1642.34 22.799C1632.48 22.3297 1623.44 23.0697 1611.42 22.962C1599.38 22.8657 1600.54 22.6038 1596.83 21.5813C1594 21.7373 1591.18 21.8967 1588.36 22.0593C1576.17 25.0716 1575.73 21.8358 1561.57 22.5524C1558.67 22.6964 1555.19 23.0824 1550.92 23.8533C1545.62 22.9765 1535.46 24.1899 1525.21 25.1096C1519.73 25.5874 1514.3 26.3643 1509.7 27.0866C1508.17 27.3263 1508.2 27.7046 1506.18 28.0605C1501.26 28.9092 1488.49 30.1347 1489.07 31.2905C1484.62 31.5236 1480.16 31.7503 1475.69 31.9515C1472.11 32.6248 1468.49 33.2851 1464.91 33.9196C1464.97 34.2978 1465.03 34.676 1465.1 35.0542C1457.65 34.6124 1446.22 36.2558 1440.5 36.4403C1439.34 36.4793 1439.12 35.9731 1435.55 36.1334C1433.14 36.2368 1429.46 36.5515 1425.8 36.8227C1423.35 37.0051 1420.93 37.1846 1418.95 37.2788C1417.11 38.016 1415.27 38.7563 1413.43 39.4982C1404.76 40.5501 1401.57 39.2762 1396.43 39.5758C1395.52 39.6533 1378.68 41.0401 1377.76 41.1065C1370.35 41.8283 1372.52 43.1501 1350.95 43.9075C1347.1 44.0279 1344 43.6963 1340.51 43.8061C1334.38 44.0311 1315.9 45.523 1314.51 46.4824C1310.01 45.8553 1301 45.8904 1293.25 45.9085C1288.23 45.9223 1283.62 45.9582 1281.33 45.8414C1279.6 45.7506 1279.11 44.9949 1273.74 44.8796C1269.34 44.7863 1258.04 45.4891 1252.44 45.4294C1246.54 45.3635 1244.41 44.7396 1241.76 44.7134C1239.22 44.6893 1236.97 45.2206 1233.53 45.2402C1222.87 45.2919 1213.22 44.5131 1204.79 44.5336C1192.61 44.5612 1181.85 46.1139 1171.65 46.7971C1169.13 46.6994 1166.62 46.3716 1163.98 46.367C1140.55 46.3042 1114.95 46.0763 1090.26 45.2372C1080.3 44.8866 1070.54 44.458 1061.11 43.9791C1045.8 43.2404 1008.01 39.2108 1017.95 43.1835C1012.6 43.4392 974.285 40.503 966.987 40.5815C966.105 40.5678 965.242 40.5649 964.395 40.5706C958.237 40.6111 953.106 41.0191 948.025 40.9438C930.582 40.6736 918.316 39.9091 897.115 39.8314C891.638 39.8122 885.757 40.3727 882.522 40.2702C878.625 40.1448 874.447 39.3135 869.402 39.1316C861.646 38.8544 849.579 38.6302 838.902 38.5045C833.05 38.4339 827.546 38.3792 823.45 38.2967C821.313 38.2529 820.616 37.6226 817.587 37.4024C805.848 36.5435 792.661 36.5391 794.978 38.5432C779.917 37.3238 765.968 38.2884 751.981 38.256C742.764 38.2299 731.207 38.1345 718.834 37.9241C701.541 37.8377 682.323 36.1623 666.989 36.0689C657.691 36.0414 649.37 35.9925 642.84 36.0409C626.561 36.1329 626.925 37.0294 603.074 35.4298C597.781 35.0746 592.531 34.6605 586.121 34.2567C575.184 33.5653 564.923 32.3591 555.743 32.5667C552.27 32.6424 549.02 32.8866 545.879 33.3951C529.116 32.7171 515.746 32.8612 503.366 30.9134C501.872 31.2913 500.395 31.6688 498.934 32.0459C496.88 32.0125 494.811 31.9772 492.771 31.9411C492.131 31.5375 491.494 31.1338 490.862 30.7301C476.187 30.2939 457.418 31.3395 444.993 30.9148C439.892 30.7496 432.815 30.446 424.951 30.1728C400.078 28.9806 367.337 26.7928 351.835 26.7295C351.515 26.7213 351.201 26.7132 350.892 26.7053C340.4 26.4469 339.843 27.2971 333.823 25.6221C331.49 25.7579 329.143 25.8959 326.783 26.0358C325.318 26.4238 323.866 26.8122 322.383 27.2017C308.939 27.3457 292.939 26.9813 280.111 27.1969C263.852 27.4704 241.904 28.3774 222.22 29.0023C213.597 29.2771 205.388 29.5296 198.285 29.6534C192.415 29.7465 185.073 29.3984 179.283 29.7224C172.727 30.0729 170.012 30.9616 164.022 31.4084C162.333 31.5315 160.417 31.626 158.051 31.6719C139.785 31.9027 105.679 32.0469 88.237 32.7998C83.0731 33.0093 80.6477 33.5485 77.0546 33.6693C75.9409 33.706 74.8188 33.7376 73.7341 33.7634C60.2303 34.0834 48.7571 34.2036 35.5007 34.9759C20.1226 33.8423 21.4272 32.2376 16.6705 30.6584C13.0625 29.4672 1.97848 26.6916 0.404313 25.6287C-0.715676 24.8855 3.45503 23.9262 1.86782 23.1085C20.2532 22.4232 27.9892 23.0866 42.9412 24.1327C53.1858 24.0382 63.3896 23.9255 73.6244 23.7959C90.8069 23.5334 108.208 22.4773 125.594 21.8105C128.138 22.1602 130.652 22.5153 133.195 22.875C133.195 22.876 133.195 22.877 133.195 22.8779C143.824 23.0353 148.309 21.789 154.03 21.4062C157.158 21.2011 160.429 21.0184 163.891 20.861C180.016 20.055 200.274 18.0978 221.899 17.5907C264.723 16.3376 313.391 16.1978 351.831 16.4413C360.834 16.5136 369.268 16.6896 376.955 16.9381C385.995 17.0665 409.221 18.3706 425.218 18.8673C432.486 19.0876 438.299 19.4023 441.038 19.7104C443.368 19.9764 443.975 20.686 446.409 20.7954C468.368 21.1064 490.232 21.2763 512.156 21.2586C526.573 21.8607 541.147 22.188 555.815 22.3215C587.099 22.6476 618.505 23.9359 649.308 24.4431C655.246 24.551 661.182 24.6297 667.116 24.6737C684.912 24.9456 701.722 26.4032 719.018 26.4165C759.05 26.8298 799.122 26.5657 839.072 26.9912C881.149 27.5445 922.868 29.375 964.503 29.7063C981.394 29.863 998.216 30.5591 1014.97 31.398C1038.3 32.6001 1067.75 33.5404 1090.55 34.4325C1090.6 34.4345 1090.64 34.4365 1090.69 34.4384C1100.14 34.8158 1104.11 35.9977 1116.66 35.3333C1116.79 35.633 1116.92 35.9328 1117.05 36.2325C1127.98 35.9951 1134.96 35.3639 1147.23 35.3429C1157.56 35.3388 1184.89 35.2737 1194.02 35.3472C1198.76 35.3884 1196.99 35.9517 1201.41 35.9321C1208.98 35.8959 1225.11 35.0409 1235.55 34.9687C1245 34.9074 1260.94 35.424 1268.21 35.2683C1276.34 35.0973 1284.71 34.8598 1293.15 34.6155C1311.99 34.072 1331.4 33.2598 1350.52 32.5805C1358.17 32.322 1368.07 32.4708 1370.45 32.2961C1375.13 31.9607 1376.45 31.1642 1379.62 30.8546C1392.12 29.6569 1410.17 28.4236 1425.09 27.4956C1429.18 27.2452 1432.91 26.984 1436.28 26.6999C1465.16 24.6542 1494.17 19.0999 1524.74 16.8551C1536.59 16.1617 1548.75 14.3651 1561.24 13.8982C1571.78 13.4809 1582.36 13.0785 1592.77 12.7621C1615.13 12.0554 1647.73 11.2448 1675.63 11.1725C1687.9 11.1143 1699.38 10.7667 1708.58 10.6441C1715.02 10.551 1713.33 11.3732 1718.73 11.2069C1724.73 11.0256 1727.96 10.4225 1730.77 10.309C1742.8 9.80621 1763.85 9.20124 1782.53 9.36471C1794.12 9.43972 1804.61 10.1409 1811.51 10.5887C1814.96 10.829 1817.46 11.5185 1819.54 11.5847C1820.57 11.6185 1822.98 11.2855 1826.27 11.3319C1834.5 11.4474 1842.01 11.5161 1849.37 11.5835C1867.99 11.7411 1884.84 11.9734 1905.42 12.1259C1936.15 12.3321 1969.65 12.1347 2003.22 11.6574C2029.62 11.3015 2055.92 10.0878 2081.24 8.49923C2093.78 7.7399 2102.5 8.39581 2104.26 8.28567C2108.14 8.03917 2110.59 7.08083 2118.46 6.5163C2121.51 6.30212 2124.63 6.11951 2127.91 5.96423L2127.82 5.96849C2145.43 4.23903 2166.22 4.31299 2184.5 4.10697C2191.65 4.04165 2198.51 3.96508 2204.71 3.81695C2217.01 3.52532 2233.85 2.39378 2245.92 2.06819C2255.56 1.81595 2278.34 1.98735 2282.6 1.48534C2285.21 1.18539 2286.4 0.304747 2289.5 0.158392ZM1964.85 22.6179C1966.55 21.229 1948.5 22.4394 1955.28 23.1618C1956.8 23.3257 1964.4 22.9804 1964.85 22.6179ZM1120.04 43.7224C1120.2 44.12 1120.36 44.5175 1120.52 44.9151C1122.92 44.7754 1125.27 44.6324 1127.65 44.4873C1126.31 44.2383 1124.99 43.9887 1123.67 43.7383C1122.46 43.7337 1121.24 43.7283 1120.04 43.7224Z" fill="white"/>
</svg>
