<?xml version="1.0" encoding="UTF-8"?>
<svg id="Layer_2" xmlns="http://www.w3.org/2000/svg" viewBox="0 0 108.36 108.29">
  <defs>
    <style>
      .cls-1 {
        fill: #231f20;
      }
    </style>
  </defs>
  <g id="Layer_1-2" data-name="Layer_1">
    <g>
      <path class="cls-1" d="M75.53,8.5c.45.34.74.75.88,1.21.13.47.1.93-.11,1.4-.31.69-.8,1.12-1.48,1.31-.68.19-1.37.12-2.07-.19l-2.15-.96,3.36-7.55,2.09.93c.73.32,1.23.74,1.49,1.24.27.5.27,1.04.01,1.63-.16.36-.42.62-.78.79s-.78.23-1.25.17v.02ZM71.82,10.89l1,.44c.58.26,1.1.33,1.56.22.46-.11.79-.4.99-.86.22-.49.22-.94,0-1.36-.22-.42-.64-.77-1.28-1.05l-.93-.41-1.34,3.02ZM73.51,7.11l1.03.46c1.07.48,1.78.33,2.12-.43.16-.35.14-.68-.04-.98-.18-.3-.53-.57-1.04-.8l-1.08-.48-1,2.24Z"/>
      <path class="cls-1" d="M80.71,16.7l-3.64-2.33,4.46-6.96,3.61,2.31-.45.71-2.8-1.79-1.38,2.16,2.69,1.72-.45.71-2.69-1.72-1.72,2.69,2.83,1.81-.45.71Z"/>
      <path class="cls-1" d="M86.74,20.95c-.84-.07-1.56-.38-2.18-.92-.81-.71-1.18-1.52-1.12-2.43.06-.91.56-1.9,1.48-2.95.89-1.02,1.79-1.64,2.69-1.85.9-.21,1.77.05,2.6.78.3.26.56.56.79.89.23.33.38.64.44.93l-.74.36c-.21-.6-.56-1.11-1.05-1.54-.57-.5-1.18-.66-1.82-.49-.65.17-1.36.71-2.15,1.6-1.51,1.73-1.7,3.09-.57,4.08.43.37.83.56,1.2.58l1.34-1.53-1.12-.98.55-.63,1.84,1.61-2.19,2.5Z"/>
      <path class="cls-1" d="M90.38,25.97l-2.42-2.87.64-.54.92,1.09,5.03-4.26-.92-1.09.64-.54,2.43,2.87-.64.54-.89-1.05-5.03,4.26.89,1.05-.64.54Z"/>
      <path class="cls-1" d="M94.54,32.27l-.56-.91,4-5.95-5.56,3.42-.5-.82,7.04-4.34.56.91-3.95,5.93,5.51-3.39.5.8-7.04,4.34Z"/>
      <path class="cls-1" d="M103.24,42.65c.01.57-.12,1.05-.41,1.44-.28.39-.67.66-1.17.78-.73.19-1.37.07-1.94-.35s-.94-1-1.13-1.74l-.58-2.28,8.01-2.04.57,2.22c.2.77.18,1.42-.05,1.94s-.65.86-1.27,1.02c-.38.1-.75.06-1.11-.12-.36-.18-.66-.47-.91-.88h-.02ZM99.06,41.23l.27,1.06c.16.62.42,1.07.79,1.36.37.29.8.37,1.29.25.52-.13.87-.41,1.07-.84s.2-.98.03-1.65l-.25-.99-3.2.82ZM103.08,40.2l.28,1.09c.29,1.14.84,1.6,1.66,1.4.37-.09.62-.31.75-.64.13-.33.12-.77-.02-1.31l-.29-1.15-2.37.6Z"/>
      <path class="cls-1" d="M100.01,51.79l-.43-4.3,8.23-.82.42,4.26-.83.08-.33-3.31-2.55.25.31,3.18-.83.08-.31-3.18-3.18.31.33,3.34-.83.08Z"/>
      <path class="cls-1" d="M100.41,59.18c-.46-.7-.67-1.46-.63-2.28.05-1.07.46-1.87,1.21-2.39.75-.52,1.83-.74,3.23-.67,1.35.07,2.39.39,3.12.96.73.57,1.06,1.41,1.01,2.52-.02.4-.09.79-.21,1.17-.12.39-.27.69-.45.92l-.74-.35c.34-.53.53-1.13.56-1.78.04-.76-.21-1.34-.75-1.74-.54-.4-1.4-.63-2.59-.69-2.29-.11-3.48.58-3.55,2.08-.03.57.07,1,.29,1.3l2.04.1.07-1.49.83.04-.12,2.45-3.32-.17Z"/>
      <path class="cls-1" d="M98.74,65.12l.75-3.68.82.17-.28,1.4,6.46,1.31.28-1.4.82.17-.75,3.68-.82-.17.27-1.34-6.46-1.31-.27,1.34-.82-.17Z"/>
      <path class="cls-1" d="M96.37,72.29l.37-1,7.15-.54-6.13-2.25.33-.9,7.76,2.85-.37,1.01-7.1.57,6.07,2.23-.32.89-7.76-2.85Z"/>
      <path class="cls-1" d="M93.62,85.53c-.44.36-.9.55-1.38.57-.48.02-.93-.12-1.34-.43-.6-.46-.91-1.03-.93-1.74-.02-.7.2-1.36.66-1.97l1.43-1.87,6.57,5.02-1.39,1.82c-.48.63-1,1.02-1.55,1.17-.55.14-1.08.02-1.58-.36-.31-.24-.51-.55-.59-.94-.08-.39-.04-.81.13-1.26h-.02ZM92.14,81.37l-.66.87c-.39.51-.58.99-.58,1.47,0,.47.2.86.6,1.17.43.33.87.43,1.32.32.46-.11.9-.45,1.32-1l.62-.81-2.63-2.01ZM95.43,83.89l-.68.89c-.71.93-.74,1.66-.07,2.17.3.23.63.3.96.19.34-.1.68-.38,1.02-.82l.72-.94-1.95-1.49Z"/>
      <path class="cls-1" d="M84.43,88.69l3.11-3,5.74,5.95-3.08,2.98-.58-.6,2.39-2.31-1.78-1.84-2.3,2.22-.58-.6,2.3-2.22-2.22-2.3-2.41,2.33-.58-.6Z"/>
      <path class="cls-1" d="M78.89,93.58c.26-.8.73-1.43,1.4-1.91.88-.62,1.75-.8,2.62-.53s1.72.98,2.53,2.12c.79,1.1,1.18,2.12,1.18,3.04,0,.93-.45,1.71-1.36,2.35-.32.23-.68.42-1.05.56-.38.14-.71.22-1,.22l-.18-.8c.63-.06,1.21-.29,1.75-.67.62-.44.92-.99.9-1.66-.02-.67-.37-1.49-1.06-2.46-1.33-1.87-2.61-2.37-3.84-1.5-.46.33-.74.67-.84,1.04l1.18,1.66,1.21-.86.48.68-2,1.42-1.93-2.71Z"/>
      <path class="cls-1" d="M73.18,95.95l3.35-1.69.38.75-1.27.64,2.97,5.88,1.27-.64.38.75-3.35,1.69-.38-.75,1.22-.62-2.97-5.88-1.22.62-.38-.75Z"/>
      <path class="cls-1" d="M66.1,98.53l1.01-.33,4.85,5.28-2.04-6.2.91-.3,2.58,7.86-1.02.33-4.84-5.22,2.02,6.15-.9.29-2.58-7.86Z"/>
      <path class="cls-1" d="M53.98,104.57c-.55-.12-.99-.36-1.31-.73-.32-.37-.48-.81-.49-1.32-.01-.75.25-1.35.79-1.81s1.19-.69,1.95-.7l2.35-.04.13,8.27-2.29.04c-.8.01-1.42-.15-1.88-.49s-.69-.83-.7-1.47c0-.39.12-.74.37-1.05.25-.31.61-.54,1.06-.68v-.02ZM56.32,100.84l-1.09.02c-.64.01-1.14.16-1.51.46-.37.29-.55.69-.54,1.2,0,.54.2.95.57,1.23.37.29.91.42,1.6.41l1.02-.02-.05-3.3ZM56.39,104.98l-1.12.02c-1.18.02-1.76.45-1.74,1.29,0,.38.16.67.45.87.29.2.72.3,1.28.29l1.18-.02-.04-2.45Z"/>
      <path class="cls-1" d="M45.79,99.32l4.28.57-1.1,8.19-4.25-.57.11-.83,3.29.44.34-2.54-3.16-.42.11-.83,3.17.43.42-3.17-3.33-.45.11-.83Z"/>
      <path class="cls-1" d="M38.54,98c.79-.29,1.58-.31,2.36-.08,1.03.3,1.71.88,2.04,1.73.33.85.29,1.96-.1,3.3-.38,1.3-.93,2.24-1.66,2.81s-1.62.7-2.69.39c-.38-.11-.75-.27-1.09-.48-.35-.21-.61-.42-.79-.65l.52-.64c.44.45.98.77,1.61.96.73.21,1.35.1,1.86-.32s.94-1.21,1.27-2.36c.64-2.2.25-3.52-1.2-3.94-.54-.16-.99-.16-1.33-.02l-.57,1.96,1.43.42-.23.8-2.35-.69.93-3.19Z"/>
      <path class="cls-1" d="M33.14,94.98l3.4,1.59-.35.76-1.29-.6-2.78,5.98,1.29.6-.35.76-3.4-1.59.35-.76,1.24.58,2.78-5.98-1.24-.58.35-.76Z"/>
      <path class="cls-1" d="M26.72,91.01l.89.59-1.14,7.08,3.61-5.44.8.53-4.58,6.89-.89-.59,1.1-7.03-3.58,5.39-.79-.52,4.58-6.89Z"/>
      <path class="cls-1" d="M14.47,85.25c-.25-.51-.33-1-.24-1.48.09-.48.33-.88.73-1.2.58-.47,1.22-.64,1.91-.5.69.14,1.28.51,1.76,1.1l1.49,1.82-6.4,5.23-1.45-1.77c-.5-.62-.76-1.21-.78-1.78-.01-.57.23-1.06.72-1.46.3-.25.65-.37,1.05-.36.4,0,.8.15,1.19.41h.02ZM15.65,87.4l-.71-.87c-.74-.91-1.44-1.1-2.09-.57-.3.24-.43.54-.41.89.02.35.21.75.57,1.18l.75.92,1.9-1.55ZM18.86,84.78l-.69-.84c-.4-.49-.83-.79-1.29-.9-.46-.11-.88,0-1.27.32-.41.34-.62.74-.61,1.21s.23.97.67,1.51l.64.79,2.56-2.09Z"/>
      <path class="cls-1" d="M13.53,75.59l2.2,3.72-7.11,4.21-2.18-3.69.72-.43,1.69,2.86,2.2-1.3-1.63-2.75.72-.43,1.63,2.75,2.75-1.63-1.71-2.89.72-.43Z"/>
      <path class="cls-1" d="M10.07,69.07c.71.44,1.22,1.04,1.53,1.8.4,1,.37,1.89-.1,2.67s-1.35,1.44-2.65,1.97c-1.26.51-2.34.65-3.24.44-.9-.22-1.56-.84-1.97-1.87-.15-.37-.25-.75-.3-1.15-.05-.4-.04-.74.02-1.03h.82c-.08.64,0,1.26.24,1.86.28.7.75,1.12,1.41,1.26s1.53-.02,2.64-.46c2.13-.86,2.91-1.99,2.35-3.38-.21-.52-.48-.88-.81-1.06l-1.89.76.56,1.38-.77.31-.92-2.27,3.09-1.25Z"/>
      <path class="cls-1" d="M9.1,62.98l.86,3.66-.82.19-.33-1.39-6.42,1.52.33,1.39-.82.19-.86-3.65.82-.19.32,1.33,6.42-1.52-.32-1.33.82-.19Z"/>
      <path class="cls-1" d="M8.24,55.46l.09,1.06-6.26,3.49,6.51-.53.08.96-8.24.67-.09-1.07,6.21-3.49-6.45.53-.08-.94,8.24-.67Z"/>
      <path class="cls-1" d="M5.16,42.27c.24-.51.58-.88,1.01-1.1.43-.22.89-.28,1.39-.17.73.16,1.26.56,1.57,1.19.32.63.39,1.32.23,2.06l-.51,2.29-8.07-1.78.49-2.24c.17-.78.48-1.35.92-1.71s.97-.48,1.59-.34c.38.08.69.29.93.61.24.32.38.72.41,1.19h.02ZM4.2,44.53l.24-1.1c.25-1.15-.03-1.81-.85-1.99-.37-.08-.69,0-.95.23-.26.24-.45.63-.57,1.17l-.26,1.16,2.39.53ZM8.25,45.42l.24-1.06c.14-.62.1-1.15-.1-1.57-.2-.43-.55-.69-1.04-.8-.52-.12-.97-.03-1.33.27s-.62.78-.77,1.46l-.22,1,3.23.71Z"/>
      <path class="cls-1" d="M12.16,35.57l-1.56,4.03-7.71-2.98,1.54-4,.78.3-1.2,3.1,2.39.92,1.15-2.98.78.3-1.15,2.98,2.98,1.15,1.21-3.13.78.3Z"/>
      <path class="cls-1" d="M15.15,28.79c.09.83-.06,1.61-.47,2.32-.53.93-1.26,1.46-2.16,1.58s-1.97-.17-3.19-.87c-1.18-.67-1.96-1.43-2.34-2.27s-.3-1.74.25-2.71c.2-.35.44-.66.72-.95.28-.29.56-.49.82-.62l.5.65c-.54.32-.98.77-1.31,1.34-.38.66-.42,1.29-.12,1.89s.96,1.2,1.99,1.79c1.99,1.14,3.36,1.06,4.11-.24.28-.49.39-.92.33-1.29l-1.77-1.01-.74,1.29-.72-.41,1.22-2.13,2.89,1.65Z"/>
      <path class="cls-1" d="M19.34,24.24l-2.33,2.94-.66-.52.88-1.12-5.16-4.1-.88,1.12-.66-.52,2.33-2.94.66.52-.85,1.07,5.16,4.1.85-1.07.66.52Z"/>
      <path class="cls-1" d="M24.68,18.93l-.78.73-6.62-2.75,4.45,4.77-.7.66-5.64-6.04.78-.73,6.59,2.7-4.41-4.73.69-.64,5.64,6.04Z"/>
      <path class="cls-1" d="M33.13,8.34c.55-.12,1.05-.09,1.49.11.44.2.78.53,1,.99.33.68.34,1.33.04,1.97-.3.64-.79,1.12-1.48,1.46l-2.12,1.02-3.6-7.44,2.06-1c.72-.35,1.35-.46,1.91-.34s.97.47,1.25,1.04c.17.35.2.72.1,1.11-.1.39-.33.74-.68,1.06v.02ZM30.76,8.98l1.01-.49c1.06-.51,1.4-1.15,1.04-1.9-.17-.34-.42-.55-.77-.6s-.78.03-1.28.28l-1.07.52,1.07,2.21ZM32.57,12.71l.98-.47c.57-.28.96-.63,1.17-1.05.21-.42.21-.86-.01-1.31-.23-.48-.58-.77-1.04-.88-.46-.1-1,0-1.63.3l-.92.44,1.44,2.97Z"/>
      <path class="cls-1" d="M42.74,9.67l-4.13,1.27-2.44-7.9,4.09-1.26.25.8-3.17.98.75,2.45,3.05-.94.25.8-3.05.94.94,3.05,3.21-.99.25.8Z"/>
      <path class="cls-1" d="M49.9,7.83c-.6.59-1.3.95-2.11,1.07-1.06.16-1.92-.08-2.58-.72s-1.09-1.65-1.29-3.04c-.2-1.34-.09-2.42.33-3.25s1.18-1.32,2.28-1.48c.39-.06.79-.07,1.19-.02.4.04.73.13.99.26l-.2.79c-.59-.23-1.21-.29-1.86-.2-.75.11-1.27.47-1.56,1.07-.29.6-.34,1.49-.17,2.67.34,2.27,1.25,3.3,2.74,3.08.56-.08.97-.26,1.22-.54l-.3-2.02-1.47.22-.12-.82,2.42-.36.49,3.29Z"/>
      <path class="cls-1" d="M56.03,8.33l-3.76-.06v-.84s1.44.02,1.44.02l.11-6.59-1.42-.02v-.84s3.77.06,3.77.06v.84s-1.38-.02-1.38-.02l-.11,6.59,1.37.02v.84Z"/>
      <path class="cls-1" d="M63.57,9.19l-1.05-.16-1.95-6.9-.98,6.45-.95-.14,1.24-8.17,1.06.16,1.97,6.84.97-6.4.93.14-1.24,8.17Z"/>
    </g>
  </g>
</svg>