<svg width="93" height="82" viewBox="0 0 93 82" fill="none" xmlns="http://www.w3.org/2000/svg">
<path d="M30.2437 1.68154C34.1107 0.0534579 40.1425 -0.493188 45.4566 1.41396C53.1176 3.95499 61.3113 7.75807 66.2329 10.1327C70.9419 12.4925 71.5437 11.4976 77.2261 17.3466C78.4499 18.6863 79.5831 20.1146 80.9019 21.9022C84.0475 26.1761 85.0034 30.9573 88.3911 33.828C88.9441 35.5008 89.4158 37.0683 89.7837 38.5839C90.5021 41.6274 91.137 44.6221 90.479 47.6522C90.9674 48.0478 91.4525 48.4587 91.9321 48.8886C92.0495 49.5776 92.1533 50.2787 92.2388 50.994C91.8755 51.2577 91.5094 51.5172 91.1411 51.7704C91.2948 54.2853 91.7381 57.2919 91.1899 60.7548C90.7364 64.1801 88.5553 68.0547 85.9233 69.8544C85.3819 70.2486 84.8014 70.6195 84.1274 70.9833C77.3272 74.7859 63.1121 78.8952 57.3003 79.581C54.0687 80.0332 54.0279 80.8636 51.8862 79.5243C51.1945 79.7702 50.4928 80.0091 49.7896 80.2392C49.3954 80.6799 48.996 81.1179 48.5855 81.5536C44.3575 82.1745 39.1843 81.9015 34.9585 81.5692C29.4591 81.2308 20.3712 79.892 14.6255 73.4696C13.4156 72.1776 11.78 70.4283 10.6548 68.8603C9.52646 67.3239 8.63077 64.9563 7.56104 63.4003C6.03249 61.0982 4.50041 61.2031 2.87354 57.7274C1.51558 54.7463 0.454 49.7201 1.18604 44.8407C1.83689 39.9387 4.07742 35.7964 5.52686 33.2313C5.75466 32.8229 5.93387 32.4546 6.08546 32.1132C6.51984 31.1499 6.72146 30.4095 7.26417 29.6444C10.4308 25.324 13.7663 22.7909 17.6108 19.6728C17.7078 19.6461 17.8034 19.6219 17.897 19.5976C18.963 16.7523 19.6442 14.1324 17.9771 14.1044C20.6711 10.0623 23.4253 5.19874 28.3452 2.5751C28.956 2.24094 29.5894 1.94031 30.2437 1.68154ZM56.9927 18.4472C57.1612 19.2919 57.2992 20.0493 57.4058 20.5614C57.6405 21.0926 58.043 22.8548 58.3726 25.0253C58.5028 25.0019 58.6291 24.9826 58.7505 24.9677C58.8795 24.9488 59.0065 24.9336 59.1245 24.9228C61.5434 24.7471 62.4018 25.5128 63.5483 25.6981C64.6388 25.9678 65.9016 25.4785 68.0669 27.0468C69.1564 27.881 70.1506 29.3944 70.4321 30.8417C70.8881 33.5452 70.7411 36.1139 70.9692 38.3349C71.0347 38.9748 71.1323 39.6058 71.2476 40.2304C71.9884 40.7752 72.7535 41.2163 73.4497 41.4599L72.9273 41.3622C74.5437 41.8312 75.4799 41.7842 74.9507 42.4364C74.7255 42.7778 74.4895 43.4135 74.6489 43.7782C74.7864 44.1576 75.1349 44.3015 75.5191 44.4403L75.6196 44.4765C75.9422 44.5886 76.2877 44.7161 76.564 44.9716C76.8502 45.2191 76.9845 45.6245 77.1607 45.9735C77.3343 46.3249 78.2316 47.4796 78.6411 48.8563C79.0928 50.1995 78.6115 52.016 76.8726 52.4677C75.3973 52.8459 73.6556 52.7648 72.0415 52.4657C70.9581 57.4509 68.5859 62.4306 65.4165 66.7187C70.1328 64.9279 77.094 61.7846 78.7993 61.2929C78.8038 61.292 78.8085 61.2917 78.813 61.2909C79.2335 61.2764 79.7053 61.7837 80.0835 61.5331C82.9134 58.9708 82.1167 52.7817 80.3442 47.1796C80.0856 45.392 79.6879 43.5808 79.2144 41.6884C76.902 31.7559 68.1077 24.3681 58.7466 19.371C58.167 19.0555 57.5819 18.7484 56.9927 18.4472ZM38.1694 54.5194C39.3134 57.0309 40.5434 59.6561 41.9165 62.0507C42.5655 63.2246 43.5276 64.2898 44.6441 65.1649C44.6987 65.1241 44.7573 65.0778 44.8179 65.0214C45.7097 64.1173 45.6586 63.2308 45.9351 62.7323C46.7447 61.6797 47.2924 59.6325 47.6812 57.1737C46.8764 56.891 46.2123 56.5225 45.4399 56.4735C45.255 56.4543 43.4397 56.3129 41.7749 55.8427C40.2708 55.4504 38.8534 54.7889 38.6958 54.7206C38.5086 54.6439 38.3341 54.5784 38.1694 54.5194ZM66.3013 62.5468C65.8777 62.8063 65.4483 63.0605 65.023 63.2938C64.826 63.6236 64.6199 63.9558 64.4116 64.2812C64.7703 64.4566 65.1296 64.6313 65.4907 64.8026C65.7899 64.0493 66.0537 63.3079 66.3013 62.5468ZM14.0942 37.1903C12.2761 40.0919 11.2507 43.1447 11.2241 46.2128C10.7668 46.7611 10.3395 47.368 9.95167 48.0224H9.94874C9.73201 50.7165 11.2929 51.5512 11.9976 52.7333C13.2527 54.8259 14.8773 56.9891 16.9995 59.4149C16.0041 55.5225 15.6037 52.0043 14.7095 46.8466C14.4254 45.1317 13.6138 43.2892 13.5982 42.2499C13.579 40.9975 14.279 39.6586 14.3589 38.0624C14.3783 37.6401 14.3994 37.1778 14.4224 36.6845C14.3097 36.8521 14.2001 37.0206 14.0942 37.1903ZM49.4956 39.6571C47.2069 41.3694 44.9718 43.4318 42.5855 45.7255C42.583 45.7164 42.5751 45.7067 42.5552 45.703C42.5278 45.689 42.419 45.6501 42.2407 45.5624C42.0332 45.3594 41.9013 45.4593 41.9058 45.5985C41.904 45.7398 41.9952 45.9043 42.0659 45.9501C42.5687 46.2676 43.1455 45.7639 43.6079 45.8739C43.9071 45.9444 44.2411 46.0282 44.603 46.1112C45.3023 46.2729 46.12 46.4197 46.8169 46.4628C47.5061 46.5278 48.063 46.3876 47.9019 46.5409C47.9583 46.5862 48.1316 46.5697 48.4009 46.2362C48.483 46.1361 48.5642 46.0105 48.646 45.869C48.716 44.544 48.7808 43.3401 48.854 42.3495C48.96 41.3345 49.564 40.5886 49.564 39.9735C49.5642 39.8933 49.5361 39.7872 49.4956 39.6571ZM42.5855 45.7255C42.5889 45.7383 42.5795 45.7505 42.563 45.7479C42.5706 45.7406 42.5779 45.7328 42.5855 45.7255ZM37.9761 13.0194C37.6562 13.2154 37.1843 13.5748 36.7642 14.0145C31.9377 18.818 31.662 28.1152 32.9341 36.6942C33.005 36.5836 33.0783 36.4713 33.1519 36.3563C33.3003 36.3329 33.451 36.3033 33.604 36.2685C34.9589 36.1006 36.458 35.1686 38.0855 34.0243C38.774 33.0407 39.2643 32.188 39.2095 31.8124C41.4518 31.2408 45.936 28.2793 48.4478 27.2753C47.8404 24.4093 46.6961 21.7667 44.6821 19.0517C42.9867 16.8211 40.7578 14.8913 37.9761 13.0194ZM60.6509 33.3798C60.6561 33.3786 60.6613 33.377 60.6665 33.3759C60.6521 33.3331 60.638 33.2904 60.6235 33.2479C60.6309 33.2913 60.6404 33.3352 60.6509 33.3798Z" fill="#FF2B2B"/>
</svg>
