<svg width="91" height="80" viewBox="0 0 91 80" fill="none" xmlns="http://www.w3.org/2000/svg">
<path d="M51.4401 0.0390089C52.4505 0.0353851 53.5254 0.0726057 54.6334 0.162056C61.4734 0.18347 72.8308 -0.294303 82.1012 9.77729C86.3825 15.1353 88.9516 21.5755 89.5162 25.6455C89.874 27.8619 90.0289 29.2843 90.1071 30.3818C90.2031 31.8165 90.1638 32.5956 89.1715 34.3994C89.3278 35.5163 89.466 36.6613 89.5641 37.8408C89.9257 38.5844 90.272 39.3544 90.5934 40.1591C90.4602 43.8817 89.1081 48.795 86.3795 52.7412C87.9356 53.1647 89.5297 54.0739 89.3034 56.4052C89.2123 57.0245 89.0509 57.7421 88.7955 58.5156C88.7505 58.6426 88.6011 59.0115 88.5387 59.1318C86.5054 63.3563 81.9597 70.2539 80.2623 72.7499C80.0386 73.1064 79.2895 73.8676 78.9254 74.0781C78.7195 74.1937 78.5205 74.3064 78.3785 74.3915C76.7902 75.3453 74.9375 76.7414 72.695 77.621C65.3734 80.2154 60.953 80.2832 53.2741 79.291C52.4431 78.8015 51.653 78.2732 50.8942 77.707C49.5241 76.5802 48.1567 75.439 46.7887 74.2773C43.7379 73.1613 39.7472 70.1325 38.0035 69.2255C37.4042 68.9181 36.8671 68.7373 36.3375 68.5712C33.0985 68.6744 29.9556 68.4542 27.066 67.9404C26.8257 67.9011 26.5855 67.8589 26.3453 67.8193C24.7382 67.9699 23.0183 68.0368 19.9596 67.2812C17.9592 66.7863 15.3887 65.7415 12.8473 64.1337C10.0173 62.7341 7.85918 60.892 5.97328 57.8554C5.84072 57.6072 5.71575 57.362 5.59535 57.1201C5.28574 56.6372 4.99278 56.1391 4.72523 55.622C2.04953 50.3851 2.21533 45.7604 2.75453 41.8447C1.73359 40.0554 0.883646 38.9137 0.40394 37.2324C0.147336 36.2922 0.0505268 35.088 0.0201511 33.8281C-0.0283598 32.6926 0.0124798 31.4454 0.123667 30.1923C0.771141 26.0165 0.0875015 26.6672 0.851206 24.5048C0.959909 24.2374 1.83684 22.4621 3.17933 20.7949C3.86044 19.8292 4.81245 18.7958 5.82777 17.8193C5.8218 17.6567 5.81365 17.4941 5.80335 17.332C6.49641 15.3126 7.1977 13.4132 7.9391 11.6191C8.62306 10.1981 9.50802 6.4432 13.0709 3.69233C16.6435 1.07818 19.9959 1.1654 22.3307 1.4687C23.0539 1.61283 23.7615 1.78287 24.4557 1.98334C25.1023 1.56639 25.7703 1.14788 26.4293 0.729439C27.3615 0.704351 28.2767 0.677752 29.2203 0.650337C29.5188 1.03392 29.816 1.41824 30.1119 1.8017C33.8246 1.7919 38.0905 1.22454 42.153 0.728462C43.1491 0.513169 44.2191 0.421664 45.358 0.356392C47.4295 0.138048 49.3864 -0.0132885 51.1159 0.000922928C51.221 0.0156465 51.3293 0.0268145 51.4401 0.0390089ZM69.2448 50.624C68.7146 50.8937 68.1723 51.1584 67.6129 51.4121C66.8084 52.8013 65.8667 54.2882 64.7321 55.7773C66.2019 55.2181 67.7325 54.4198 69.2711 53.4599C69.3272 52.5519 69.3161 51.6028 69.2448 50.624ZM33.2203 50.5439C31.2071 50.9755 28.9779 51.0678 26.7633 50.6669C26.7058 50.895 26.6484 51.1233 26.5914 51.3515C27.7281 52.0492 28.8768 52.7254 29.9938 53.3681C30.9836 53.2942 31.9984 53.1525 32.9948 52.9257C33.0845 52.1554 33.1741 51.3318 33.2555 50.5449C33.2438 50.5444 33.232 50.5444 33.2203 50.5439ZM78.7575 42.0537C78.5387 42.4352 78.2949 42.812 78.0231 43.1787C78.1651 43.7142 78.3393 44.2789 78.5221 44.7831C78.7487 44.2267 78.9438 43.6389 79.1071 43.0224C78.9952 42.6814 78.8767 42.3487 78.7575 42.0537ZM57.7047 29.4296C56.9636 29.8908 56.2418 30.3969 55.5387 30.9365C55.8262 33.9291 56.0652 37.0134 56.0963 40.2607C56.0988 41.2233 56.0852 42.1975 56.0328 43.2031C56.4342 43.1635 56.8424 43.1246 57.2565 43.082C57.8468 43.0312 58.4383 42.9393 59.0338 42.8124C60.153 40.4951 61.1107 38.0191 61.9127 35.5419C62.0301 35.157 62.1342 34.7591 62.2291 34.3505C60.842 32.7348 59.3059 31.1064 57.7047 29.4296ZM79.6364 40.2314C79.4839 40.6046 79.3146 40.9845 79.1246 41.3652C79.1994 41.5782 79.2728 41.7923 79.3434 42.0078C79.4615 41.4343 79.5585 40.8412 79.6364 40.2314ZM54.2135 34.1943C54.0315 34.8383 53.8459 35.481 53.6539 36.1191C53.7021 36.6847 53.7458 37.2503 53.7838 37.8164C54.1746 37.7171 54.5652 37.6163 54.9557 37.5146C54.7257 36.3905 54.475 35.2845 54.2135 34.1943ZM28.8375 31.2871C28.5585 31.7232 28.2942 32.1851 28.0485 32.6572C28.7504 33.1724 29.4921 33.6717 30.2535 34.1425C30.2768 34.1574 31.8272 34.267 33.945 33.5937C32.7 32.8692 30.6048 31.9941 28.8375 31.2871ZM39.8434 26.1865C38.7226 26.213 38.1498 26.8023 37.2047 26.915C36.5128 27.0065 35.7566 27.1199 35.0133 27.2636C35.3022 27.7411 35.5801 28.2391 35.8082 28.7382C36.6082 30.37 36.615 31.8337 36.2555 32.247C35.8769 32.716 35.066 32.9251 34.5524 33.3847C36.0615 32.8399 37.359 31.8886 38.1481 30.8437C38.8484 29.9298 39.3814 28.6339 39.734 26.7929C39.7613 26.6516 39.7856 26.52 39.8063 26.3984C39.8213 26.3243 39.8321 26.253 39.8434 26.1865ZM40.4469 26.2353C40.5257 26.3227 40.609 26.4073 40.6969 26.4726C40.9527 26.6709 41.1567 26.7145 41.2116 26.6845C41.3051 26.6439 41.0826 26.4839 40.8746 26.3896C40.7268 26.3203 40.5737 26.2675 40.4469 26.2353Z" fill="#65F99B"/>
</svg>
