<svg width="202" height="203" viewBox="0 0 202 203" fill="none" xmlns="http://www.w3.org/2000/svg">
<path d="M88.8565 48.6377C89.7711 48.151 90.6484 48.3303 90.957 48.4229C91.3843 48.554 91.5211 48.6489 91.6924 48.7452C91.8658 48.8507 91.9395 48.9075 92.0322 48.9776C92.3717 49.2458 92.5054 49.3982 92.666 49.5684C92.9476 49.8779 93.1516 50.144 93.3447 50.4073C93.7278 50.9343 94.0379 51.4325 94.3232 51.9483C94.9022 52.9961 95.3262 54.0497 95.6035 55.2227C95.6151 55.2758 95.0055 55.5589 95.0332 55.6622C95.0633 55.7689 95.0995 55.8602 95.1357 55.9395C95.1841 55.888 95.2327 55.8376 95.2774 55.7852C95.7622 55.2376 96.0716 54.7602 96.291 54.337C96.2786 54.3903 96.2664 54.4437 96.2549 54.4971C96.1843 54.8317 96.7421 54.619 96.6758 55.1172C96.6308 55.4597 96.5959 55.8551 96.5586 56.2803C96.8701 56.2245 97.2329 56.1683 97.6533 56.169C98.0347 56.1768 97.0714 57.5324 97.001 57.6348C96.8875 57.8148 96.6225 57.9855 96.3672 58.128C96.3458 58.2879 96.3217 58.4476 96.2959 58.6065C97.0669 58.365 98.4121 57.6828 98.6787 58.1114C98.6865 58.1344 98.1185 58.3693 98.1006 58.4551C98.0435 58.7228 98.3532 58.7661 98.2803 59.046C98.0946 59.6671 96.8102 60.6363 97.9629 60.7344C98.1103 60.7437 99.6363 59.6518 99.9121 60.2735C100.028 60.5327 100.665 61.5201 100.741 61.8809C100.815 62.2365 100.177 62.3475 100.167 62.3819C99.943 63.5521 99.4863 63.4349 98.708 64.4288C97.935 65.424 100.273 63.8716 100.638 63.8711C100.997 63.8625 100.769 64.7589 100.657 65.0186C100.545 65.2758 100.112 65.2988 100.075 65.4893C99.8478 66.7557 101.485 65.136 102.028 65.1768C103.305 65.2591 101.832 66.8482 101.992 67.5167C102.038 67.701 102.369 67.3311 102.49 67.4483C102.968 67.922 102.609 68.5892 103.492 68.9131C103.615 68.9586 104.626 68.878 104.573 69.3477C104.562 69.4287 104.517 69.5274 104.426 69.6475C104.339 69.7609 103.816 69.8934 103.854 70.1856C103.906 70.6171 104.2 71.3371 104.566 71.6153C104.841 71.8276 105.386 71.0745 105.366 71.5596C105.357 71.7765 104.756 71.7412 104.774 72.128C104.794 72.5154 105.259 73.2573 105.44 73.5294C105.624 73.8039 106.087 73.3209 106.14 73.3194C106.436 73.3301 107.032 73.722 107.063 73.7735C108.573 76.1624 108.973 78.9669 110.696 81.1504C110.83 81.3213 111.344 80.8487 111.37 80.8711C111.994 81.3591 110.137 81.7887 109.88 82.545C111.031 81.7704 110.972 82.1616 111.373 82.5362C111.565 82.7128 111.957 82.3201 112.016 82.3116C112.905 82.2113 112.134 82.9737 111.983 83.1417C111.43 83.7597 112.371 83.5112 112.003 83.9278C111.638 84.3419 110.771 84.4082 111.037 84.835C111.535 84.7018 112.456 83.7161 112.833 83.9356C114.247 84.7519 114.754 87.5807 115.254 88.6202C115.755 89.6616 116.026 89.9362 116.216 90.6016C116.561 91.8063 117.158 90.9333 117.922 91.3516C118.686 91.7704 116.471 92.6736 116.089 93.0284C115.708 93.3811 116.215 93.2117 116.044 93.4688C115.872 93.7258 115.428 93.6593 115.498 93.9795C115.568 94.2994 116.783 94.5645 117.295 94.3838C118.381 94.003 119.198 93.0666 119.265 93.9844C119.268 94.0376 118.655 94.2267 118.694 94.4141C119.024 95.8941 119.766 97.1884 120.144 98.6377C120.194 98.8372 119.512 99.0428 119.533 99.1631C119.77 100.417 120.551 99.449 122 99.3428C120.445 100.106 119.728 100.962 120.188 101.745C120.463 102.216 121.06 101.747 121.697 101.775C121.889 101.783 121.646 102.383 121.985 102.26C123.097 101.86 124.021 100.88 124.062 101.948C124.058 101.997 123.451 102.212 123.491 102.353C123.748 103.266 124.844 102.737 125.481 103.511C125.98 104.114 126.064 105.686 126.416 106.502C124.744 107.486 125.558 107.976 126.879 107.575C127.13 108.097 127.511 108.582 127.643 109.158C127.687 109.355 127.141 109.538 127.102 109.59C126.479 110.399 127.721 109.94 127.829 110.02C128.947 110.911 128.667 112.354 130.16 112.96C130.217 112.979 131.404 112.349 130.74 113.149C130.693 113.203 129.95 113.16 130.221 113.698C130.485 114.228 130.469 115.596 131.43 115.977C131.666 116.074 132.868 115.95 132.35 116.743C132.279 116.85 131.917 116.999 131.773 117.178C131.319 117.751 132.557 117.164 131.721 118.018C130.889 118.878 130.477 119.87 131.592 120.169C131.625 120.179 132.651 119.791 132.777 120.029C132.976 120.411 133.096 121.041 133.327 121.409C133.442 121.591 133.942 121.127 133.974 121.15C135.042 122.186 135.052 123.352 135.628 124.797C135.698 124.973 136.247 125.125 136.508 125.442C136.646 125.614 136.71 125.828 136.598 126.112C136.234 127.035 133.104 128.228 134.486 128.984C135.053 129.309 138.959 127.691 137.646 129.686C139.111 131.042 139.109 133.141 140.781 134.37C140.859 134.427 141.981 134.025 142.082 134.217C142.224 134.492 141.851 134.922 141.934 135.121C142.278 135.977 143.116 136.428 143.521 137.2C143.678 137.496 143.142 137.703 143.323 138.046C143.517 138.406 144.273 138.211 144.268 138.865C144.254 139.349 143.205 140.521 143.347 141.063C144.617 140.273 144.78 140.582 145.478 140.927C145.609 140.988 145.973 140.592 146.058 140.607C146.409 140.654 146.182 141.093 146.545 141.113C146.634 141.12 147.063 140.844 147.16 140.835C148.003 140.747 147.392 141.903 147.292 142.113C146.89 142.879 147.556 142.681 147.485 143.112C147.419 143.55 146.835 143.35 146.899 143.772C146.982 144.408 147.404 145.045 147.667 145.534C147.671 145.543 147.684 145.564 147.688 145.571C147.776 145.716 147.854 145.873 147.914 146.028C148.013 146.284 148.575 145.861 148.605 145.891C149.016 146.468 148.432 147.24 149.834 147.365C146.446 148.398 150.25 147.706 149.658 148.784C149.609 148.869 147.964 149.098 147.696 148.862C147.429 148.633 147.895 148.172 147.461 147.889C147.354 147.802 145.75 147.7 145.65 147.699C144.859 147.558 147.215 146.815 147.334 146.732C147.993 146.378 147.86 146.163 147.56 146.106C147.256 146.04 146.805 146.16 146.737 146.16C146.735 146.16 146.733 146.159 146.731 146.159C146.721 146.139 146.685 146.082 146.676 146.062C145.985 145.893 145.841 145.091 145.172 144.767C144.73 144.549 143.359 145.419 143.204 145.1C142.71 144.063 144.385 142.484 142.154 142.663C141.673 142.693 140.32 143.871 141.033 142.405C141.087 142.321 141.812 141.097 140.953 141.254C140.844 141.272 140.41 141.554 140.341 141.528C139.886 141.341 140.101 140.913 139.7 140.653C139.304 140.401 138.775 140.118 138.668 139.622C138.604 139.325 139.206 138.475 139.336 138.237C139.707 137.552 138.531 137.775 139.099 137.131C139.671 136.486 140.987 136.217 141.102 135.395C139.95 136.09 138.752 136.778 137.586 137.465C136.874 136.242 136.497 134.816 135.703 133.647C135.601 133.498 135.084 134.035 134.958 133.885C134.454 133.289 134.511 132.4 133.912 131.819C133.431 131.346 132.426 131.172 131.905 130.691C132.972 129.544 132.091 129.008 131.8 128.314C131.795 128.301 131.789 128.288 131.784 128.274C131.698 128.039 132.057 127.839 132.08 127.618C132.155 126.788 131.156 127.763 130.877 127.717C129.676 127.5 132.281 125.859 131.727 125.095C131.693 125.057 129.98 125.379 129.85 125.368C129.008 125.267 130.293 124.997 130.226 124.653C130.104 124.026 130.208 123.445 129.437 123.101C129.208 122.999 128.077 123.104 128.541 122.345C128.602 122.245 129.08 121.989 129.085 121.936C129.141 121.008 127.675 121.875 126.952 121.797C126.228 121.716 126.881 120.523 127.101 120.231C127.664 119.47 127.564 120.272 127.647 120.245C128.641 119.909 128.238 119.582 128.115 119.213C129.516 118.301 129.155 117.898 127.982 118.833C127.855 118.936 128.141 119.109 128.115 119.213C126.543 119.782 126.051 119.375 127.035 118.042C127.494 117.414 128.358 117.225 127.621 116.6C127.287 116.315 126.386 117.047 125.927 116.894C124.888 116.56 125.232 115.056 124.647 114.415C124.433 114.179 124.052 114.765 123.887 114.615C123.448 114.219 123.588 113.537 123.089 113.18C123.04 113.15 122.544 113.596 122.445 113.449C121.684 112.336 121.442 111.118 120.725 109.906C120.381 109.327 119.439 108.468 119.142 107.833C118.618 106.726 118.667 104.95 117.93 104.176C117.453 103.672 116.964 104.139 116.429 104.122C115.394 104.09 116.218 102.433 116.356 102.194C116.37 102.196 116.797 102.603 116.925 102.166C117.431 101.652 116.382 102.188 116.356 102.194C116.444 102.037 115.971 100.963 115.744 100.829C115.62 100.757 115.121 101.139 115.066 101.095C113.784 100.046 112.842 98.7857 112.279 97.2803C112.281 97.2478 112.896 96.926 112.881 96.8594C112.675 95.913 111.64 95.8498 110.817 95.4649C109.992 95.0757 109.83 94.4739 110.63 93.4747C110.21 93.0669 110.24 92.0865 110.275 91.5196C110.31 90.9519 109.11 91.5949 109.065 91.5733C107.66 90.9017 107.951 89.8716 107.363 88.6524C107.09 88.0779 106.268 87.0887 105.788 86.5752C105.409 86.173 105.511 85.7236 105.078 85.3956C105.02 85.3518 104.539 85.7177 104.505 85.7149C103.595 85.6044 105.004 85.0768 105.172 84.8419C105.782 83.9879 106.095 83.5119 105.334 83.1192C105.159 83.0293 103.081 83.7063 102.82 83.5127C102.484 83.2579 103.218 82.9975 102.848 82.7364C102.816 82.7136 102.415 82.9609 102.302 82.7305C101.776 81.6714 101.353 80.4237 100.689 79.4004C100.599 79.2579 100.067 79.8258 99.9258 79.626C99.27 78.6963 98.6574 77.61 98.3965 76.4835C98.3323 76.2016 98.8699 76.0827 98.9736 75.9522C99.5958 75.1572 98.1608 75.4157 98.0957 75.3575C97.5711 74.8966 97.2397 74.3549 96.9971 73.8223C96.4799 72.6993 96.2673 71.5072 95.2324 70.5411C95.1684 70.4837 94.3253 70.4724 94.1221 70.1456C94.0544 70.2113 93.9837 70.278 93.9063 70.3419C93.8549 70.3856 93.2593 69.9565 93.1758 70.3702C93.0406 71.0517 92.4433 71.8205 92.8232 72.6856C92.9381 72.9426 94.1175 73.1294 93.2315 73.502C93.046 73.5822 91.646 73.2438 92.7891 74.002C92.8987 74.0757 93.4509 74.5142 93.6768 74.9444C93.8439 75.243 93.8373 75.537 93.3584 75.6758C93.0597 75.7623 91.8516 75.9222 91.9932 76.2354C92.0179 76.2778 92.6733 76.2148 92.7022 76.4581C92.796 77.2829 92.6013 78.1615 92.6826 79.0147C92.705 79.2474 93.4106 79.0062 93.4229 79.3506C93.4557 80.3103 93.1263 81.4238 92.793 82.293C92.6692 82.6114 92.1585 82.3076 92.0947 82.3223C91.0763 82.5718 92.344 82.9885 92.4014 83.129C92.739 84.0112 92.0456 84.5092 92.1006 85.2833C92.1148 85.4951 92.754 85.4376 92.8037 85.4864C93.2834 85.9891 92.2153 85.5147 92.0547 85.7618C91.603 86.4464 91.5322 87.307 91.5059 88.0626C91.4967 88.3426 92.2587 88.135 92.2432 88.3848C92.1575 89.8797 91.8707 91.406 91.2715 92.7803C91.1572 93.0401 90.6282 92.7922 90.4932 92.8301C89.5534 93.093 90.6776 93.8407 90.7744 93.9864C91.2152 94.6537 90.6934 94.8159 90.71 95.3565C90.8 97.9942 90.0248 101.127 89.4795 103.528C88.7722 106.658 87.8962 109.04 87.6035 112.078C87.5842 112.271 88.348 112.183 88.3408 112.351C88.2152 114.507 87.6271 116.577 87.5352 118.743C87.5262 118.922 88.2605 118.768 88.2695 119.058C88.2927 119.654 88.1514 120.375 87.8447 120.93C87.6963 121.201 87.1517 120.731 87.0147 121.006C86.6939 121.647 86.5436 122.347 86.5566 123.054C86.5643 123.354 87.3413 123.014 87.2949 123.397C86.9958 125.993 86.7543 128.549 85.4531 131.031C85.3619 131.203 83.8893 131.154 84.1123 131.576C84.5109 131.663 84.9855 131.729 85.4141 131.804C85.1941 134.489 84.6072 137.108 84.0596 139.729C83.8281 140.845 83.608 141.926 83.4209 143.033C83.3942 143.194 84.2034 143.029 84.1553 143.341C83.8793 145.126 83.8315 146.902 82.79 148.613C82.6875 148.781 81.3528 148.477 81.4736 149.054C81.4963 149.157 81.5537 149.984 81.8135 150.243C81.855 150.278 82.5052 150.229 82.4844 150.49C82.3473 152.01 81.9528 153.584 81.3135 155.059C81.2102 155.289 80.5821 154.922 80.5029 155.084C79.938 156.28 80.2124 157.731 79.3535 158.878C78.7731 159.644 77.6873 159.09 76.4649 159.277C76.2931 159.302 76.1561 159.792 75.4951 159.665C73.8327 159.35 72.0791 158.711 70.3008 158.402C69.9195 158.331 70.1812 159.055 69.3535 158.471C69.2993 158.427 69.0961 157.918 68.8066 157.752C68.6076 157.633 67.9122 157.611 67.669 157.407C67.4248 157.208 68.0197 157.17 67.7441 156.87C67.4644 156.567 66.6816 156.518 66.6836 156.029C66.6955 154.886 67.1844 153.336 67.6865 152.157C67.8427 151.791 68.2287 152.052 68.3565 151.794C68.6017 151.31 68.4753 150.786 68.752 150.293C68.8448 150.136 69.4749 150.449 69.5576 150.281C70.0073 149.335 69.9837 148.366 70.2783 147.385C71.2048 144.286 71.9284 141.21 72.6055 138.052C72.9908 136.261 73.3586 134.453 73.7373 132.615C74.0801 130.947 74.9727 129.026 74.959 127.247C74.9562 127.043 74.3575 127.078 74.3135 127.033C73.6629 126.331 74.8123 126.698 75.0254 126.329C75.8687 124.849 76.1692 123.135 76.1592 121.598C76.1528 120.943 74.9028 121.416 75.6445 120.87C75.6948 120.832 76.2918 121.082 76.3828 120.917C76.5879 120.544 76.5844 119.774 76.6777 119.472C76.861 118.887 76.8679 118.796 76.9551 118.235C77.0796 117.471 77.5175 116.601 77.4941 115.76C77.4873 115.58 76.8191 115.722 76.751 115.426C76.6831 115.13 76.8432 114.394 77.0283 114.167C77.2138 113.939 77.6976 114.116 77.8184 114.088C78.8361 113.862 77.621 112.813 77.6035 112.697C77.3257 110.607 78.3334 108.988 78.5996 107.099C78.8002 105.664 78.7667 104.095 78.9951 102.734C79.2694 101.116 79.8083 99.7876 79.9736 98.1973C79.9918 98.0298 79.2173 98.1187 79.2373 97.9141C79.457 95.7406 79.8434 93.6017 80.6533 91.5186C80.7352 91.3097 81.3524 91.6813 81.4736 91.4786C82.1988 90.2428 83.7907 88.3309 81.0469 87.1358C81.2841 86.2654 81.5555 85.1795 82.2432 84.4708C82.6862 84.0122 83.3301 84.6132 83.1162 83.9307C83.0687 83.7769 82.4165 83.8751 82.3926 83.6514C82.2918 82.7151 82.6353 81.7549 82.4385 80.8184C82.3965 80.6289 81.8291 80.5986 81.7354 80.5333C80.9775 79.9954 82.4348 79.4467 82.5547 79.3086C83.4547 78.2338 83.2921 77.3093 83.4697 76.1905C83.5108 75.9316 82.7148 76.1306 82.7275 75.878C82.7729 75.074 82.896 74.2134 83.1016 73.4346C83.2272 72.9461 83.3822 72.4768 83.5723 72.0333C83.6878 71.7686 84.2938 72.1129 84.3818 71.9913C84.7629 71.4429 83.5723 71.1255 83.9141 70.6016C83.9846 70.4909 84.5245 70.6361 84.5879 70.6231C85.5824 70.4246 84.2832 69.9331 84.2666 69.8379C84.0217 68.6648 85.5242 68.1477 85.4775 67.0586C85.471 66.924 84.7347 67.1198 84.7588 66.7481C84.9119 64.3085 85.466 61.7994 86.3662 59.4922C86.5047 59.1371 86.989 59.475 87.0566 59.461C88.1142 59.2408 86.8052 58.7811 86.7715 58.6563C86.7364 58.5003 86.7385 58.3516 86.7588 58.2081C86.3148 57.7659 85.9651 57.282 85.7051 56.8516C85.5634 56.6152 85.4391 56.3878 85.4307 56.2979C85.442 56.2656 85.4374 56.2414 85.7246 56.4688C85.8019 56.5283 85.8922 56.5995 86.0762 56.7325C86.1645 56.7957 86.2681 56.867 86.3926 56.9463C86.5458 57.0449 86.7502 57.1689 87.0068 57.2989C87.0089 57.2999 87.0116 57.3008 87.0137 57.3018C87.1093 56.8882 87.045 56.4887 86.2949 56.043C86.8526 54.1712 86.887 52.8228 87.5029 50.253C87.5723 50.0447 87.6773 49.7965 87.8643 49.5235C88.0339 49.2653 88.4099 48.8663 88.8565 48.6377ZM76.5391 157.234C76.5076 157.231 76.4097 157.586 76.4395 157.597C77.1502 157.929 77.3448 157.225 76.5391 157.234ZM149.636 150.293C150.155 150.023 150.715 149.952 150.979 150.247L150.975 150.18C151.105 150.295 151.17 150.478 151.142 150.742C151.114 151.014 150.193 150.272 149.977 150.635C149.59 151.345 151.399 151.531 150.605 152.056C150.538 152.112 150.092 152.272 149.606 152.17C149.129 152.093 148.67 151.91 148.666 151.863C148.667 151.864 148.669 151.866 148.67 151.866C148.594 151.174 149.085 150.586 149.635 150.28L149.636 150.293ZM145.753 142.952C146.022 142.53 145.246 142.318 144.912 142.847C144.651 143.285 145.422 143.486 145.753 142.952ZM141.847 138.482C142.185 137.465 139.261 139.189 140.234 139.441C140.29 139.456 141.825 138.543 141.847 138.482ZM138.04 133.876C138.63 132.827 137.115 133.328 136.631 134.094C136.144 134.852 137.864 134.199 138.04 133.876ZM126.379 106.54C127.228 106.47 127.544 106.818 126.879 107.573C126.727 107.223 126.534 106.888 126.379 106.54ZM110.422 88.9629C110.759 88.2552 108.673 89.4289 109.405 89.5381C109.443 89.542 110.406 88.9986 110.422 88.9629ZM112.598 86.9444C111.849 87.1728 112.157 87.8046 112.759 87.2725C112.781 87.2487 112.629 86.9354 112.598 86.9444ZM100.997 68.129C101.024 68.1045 100.924 67.8742 100.754 67.9815C100.204 68.3275 100.539 68.5328 100.997 68.129ZM88.8291 57.6534C88.6915 57.6428 88.5207 57.7091 88.3369 57.8077C88.6201 57.8841 88.9426 57.9536 89.3106 57.9981C89.3163 57.9988 89.3223 57.9984 89.3281 57.9991C89.2212 57.8143 89.0599 57.6754 88.8291 57.6534ZM94.126 54.0294C92.8592 54.3632 93.6474 55.8 94.542 54.7872C94.5952 54.744 94.1868 54.0072 94.126 54.0294ZM96.7803 52.9307C96.79 52.9525 96.8083 52.9832 96.7256 53.296C96.6174 53.6083 96.4916 53.9501 96.291 54.337C96.3649 54.0195 96.4545 53.7069 96.5498 53.4268C96.6064 53.2578 96.662 53.1126 96.7149 53.0059C96.7406 52.9555 96.7661 52.9195 96.7803 52.9307Z" fill="#FA8282"/>
<path d="M136.095 104.389C136.057 103.629 136.473 104.713 136.545 104.904C136.817 105.624 136.742 104.962 136.892 105.237C137.042 105.512 136.978 105.906 137.119 106.063C137.409 106.388 137.671 106.256 137.906 106.235C137.998 106.224 137.81 105.576 137.817 105.55C137.842 105.516 137.873 105.505 137.904 105.506C138.062 105.511 138.283 105.787 138.114 104.664C139.028 108.056 138.147 104.309 138.553 104.931C138.587 104.987 139.04 106.579 139.01 106.838C138.979 107.096 138.722 106.626 138.685 107.024C138.681 107.121 138.839 108.674 138.829 108.773C138.778 109.537 138.259 107.109 138.224 106.977C138.193 106.866 138.166 106.774 138.141 106.698C137.857 105.811 137.966 107.246 137.939 107.36C137.814 107.924 137.57 107.615 137.466 108.021C137.398 108.284 137.706 109.88 137.612 109.849C137.295 109.745 136.714 107.552 136.846 109.534C136.875 109.958 137.316 111.678 136.803 110.361C136.774 110.278 136.332 109.067 136.418 109.876C136.428 109.979 136.542 110.481 136.537 110.528C136.492 110.827 136.34 110.439 136.267 110.658C136.203 110.875 136.13 111.194 135.964 111.053C135.862 110.969 135.544 110.054 135.452 109.832C135.189 109.195 135.331 110.307 135.076 109.521C134.816 108.732 134.659 107.477 134.354 107C134.66 108.31 134.965 109.656 135.269 110.974C134.879 111.018 134.401 110.687 134.03 110.84C133.985 110.863 134.206 111.55 134.162 111.59C133.974 111.754 133.657 111.303 133.488 111.557C133.352 111.757 133.351 112.547 133.215 112.78C132.766 111.448 132.618 111.803 132.413 111.814C132.394 111.815 132.374 111.812 132.354 111.805C132.274 111.775 132.177 111.375 132.095 111.258C131.788 110.824 132.21 112.12 132.213 112.341C132.216 113.281 131.442 110.304 131.2 110.443C131.186 110.45 131.427 112.083 131.431 112.187C131.453 112.869 131.264 111.64 131.143 111.546C130.922 111.374 130.704 111.026 130.631 111.541C130.61 111.693 130.729 112.719 130.419 111.983C130.378 111.887 130.25 111.364 130.23 111.332C129.887 110.874 130.308 112.525 130.332 113.115C130.354 113.705 129.871 112.616 129.748 112.298C129.427 111.475 129.73 111.914 129.714 111.83C129.519 110.823 129.427 111.028 129.3 110.972C128.864 109.359 128.742 109.494 129.171 110.92C129.218 111.075 129.26 110.903 129.3 110.972C129.622 112.582 129.51 112.828 128.948 111.392C128.683 110.718 128.552 109.888 128.375 110.251C128.295 110.416 128.628 111.515 128.607 111.846C128.559 112.598 127.982 111.641 127.788 111.865C127.717 111.947 127.961 112.535 127.918 112.612C127.803 112.819 127.544 112.398 127.448 112.674C127.44 112.701 127.641 113.327 127.594 113.349C127.24 113.521 126.81 113.198 126.417 113.289C126.228 113.333 125.982 113.773 125.769 113.754C125.399 113.724 124.74 112.906 124.509 113.207C124.359 113.401 124.569 114.028 124.602 114.483C124.668 115.367 123.995 113.931 123.896 113.707C123.893 113.7 124.015 113.507 123.842 113.202C123.613 112.535 123.896 113.697 123.896 113.707C123.832 113.563 123.47 113.503 123.437 113.642C123.42 113.717 123.597 114.316 123.586 114.345C123.294 114.999 122.9 115.267 122.385 115.101C122.374 115.09 122.21 114.419 122.185 114.396C121.851 114.163 121.906 115.032 121.823 115.578C121.741 116.124 121.531 116.004 121.102 114.876C120.981 115.063 120.619 114.61 120.407 114.333C120.195 114.057 120.52 115.377 120.515 115.406C120.372 116.332 119.967 115.634 119.563 115.614C119.371 115.602 119.066 115.885 118.912 116.079C118.788 116.235 118.616 115.951 118.527 116.184C118.516 116.219 118.686 116.797 118.686 116.821C118.712 117.562 118.416 116.11 118.317 115.862C117.958 114.962 117.756 114.485 117.669 114.975C117.648 115.087 118.05 117.186 117.994 117.329C117.922 117.51 117.773 116.761 117.704 116.969C117.698 116.986 117.816 117.441 117.741 117.44C117.389 117.438 116.96 117.265 116.624 117.399C116.578 117.416 116.823 118.125 116.759 118.161C116.462 118.328 116.102 118.39 115.701 118.131C115.602 118.064 115.522 117.545 115.467 117.398C115.139 116.514 115.321 117.865 115.304 117.905C115.225 118.053 115.135 118.134 115.039 118.173C114.612 118.341 114.059 117.732 113.692 118.312C113.667 118.354 113.759 119.84 113.356 118.644C113.328 118.565 112.916 117.342 113.024 118.22C113.031 118.275 113.253 118.902 113.118 118.865C112.987 118.828 112.887 119.305 112.558 118.636C112.452 118.425 112.034 117.206 112.114 118.237C112.121 118.309 112.399 120.618 111.954 119.084C111.881 118.831 111.515 117.184 111.523 118.07C111.525 118.242 111.673 118.593 111.632 118.844C111.571 119.23 111.278 118.833 111.266 119.606C111.264 119.743 111.386 120.891 111.089 120.066C111.042 119.937 110.949 119.381 110.88 119.332C110.55 119.096 110.354 119.525 110.005 119.203C109.882 119.09 109.734 118.19 109.584 117.973C109.434 117.756 109.189 117.57 109.176 117.998C109.164 118.427 109.585 119.819 109.459 119.968C108.906 120.605 108.091 119.91 107.428 119.93C107.331 119.933 107.521 120.422 107.386 120.463C106.883 120.614 106.124 121.286 105.434 120.313C104.881 119.534 105.171 118.775 104.822 118.487C104.653 118.35 104.891 120.028 104.873 120.087C104.692 120.683 104.307 120.007 104.079 120.296C104.071 120.306 104.07 120.332 104.074 120.368C104.094 120.554 104.24 121.016 104.204 121.053C104.06 121.208 103.8 120.956 103.649 121.049C103.581 121.092 103.714 121.596 103.637 121.575C103.452 121.526 103.255 121.346 102.986 120.906C102.961 120.866 102.91 120.21 102.785 120.215C102.579 120.224 102.231 119.81 102.12 120.349C102.088 120.511 102.354 121.673 102.027 120.903C101.958 120.742 101.67 119.338 101.787 120.583C101.807 120.792 101.905 122.481 101.527 121.465C101.427 121.197 101.07 120.076 101.032 120.273C101.028 120.304 101.216 120.918 101.165 120.995C100.979 121.253 100.726 121.243 100.533 121.494C100.483 121.563 100.727 122.186 100.648 122.268C100.43 122.491 100.067 122.402 99.7692 122.259C99.6586 122.204 99.5972 121.654 99.5768 121.598C99.245 120.677 99.4802 121.971 99.4625 122.054C99.3459 122.552 99.0325 121.993 98.8649 122.2C98.8197 122.258 99.0025 122.854 99.0045 122.912C99.0141 123.471 98.8414 122.356 98.7389 122.253C98.4508 121.961 98.2303 122.065 98.0406 122.192C97.9709 122.24 98.2257 122.925 98.1617 122.961C97.7827 123.18 97.3457 123.214 96.8561 122.922C96.7635 122.865 96.6773 122.311 96.6315 122.19C96.3118 121.349 96.4451 122.571 96.4371 122.692C96.4002 123.247 96.2187 122.783 96.0963 122.908C95.5025 123.528 94.5625 123.428 93.8571 123.402C92.9408 123.372 92.1433 123.034 91.3824 123.39C91.3343 123.411 91.5837 124.11 91.5465 124.142C91.0362 124.471 90.4125 124.349 89.9332 124.718C89.8955 124.749 90.1613 125.403 90.1051 125.472C89.9903 125.618 89.7987 125.637 89.5895 125.466C89.4864 125.383 89.403 124.776 89.3024 124.706C89.0664 124.542 88.8763 124.549 88.7408 124.712C88.6851 124.783 89.0129 125.434 88.9235 125.472C88.4177 125.698 87.9634 125.956 87.3131 125.635C87.1658 125.583 87.0116 125.511 86.8492 125.413C86.7791 125.371 86.2279 124.013 86.2242 124.312C86.3581 124.697 86.5246 125.146 86.6725 125.555C85.7401 126.15 84.5668 126.047 83.5192 126.357C83.4759 126.37 83.822 127.07 83.7399 127.099C83.2532 127.27 82.8616 127.648 82.0905 127.114C82.0141 127.061 81.5577 125.774 81.4869 126.021C81.4722 126.068 81.3158 126.321 81.3658 126.619C81.3736 126.664 81.6385 127.244 81.5739 127.29C81.1921 127.537 80.6933 127.569 80.1051 127.368C80.0109 127.333 79.8562 126.668 79.7877 126.638C79.2887 126.433 79.0722 127.067 78.2623 126.661C77.6535 126.394 77.5381 125.21 77.0153 124.136C76.9843 124.058 76.8529 124.035 76.6832 123.935C76.582 123.887 76.4612 123.817 76.3678 123.711C76.2459 123.604 76.1564 123.456 76.1744 123.288C76.2734 122.446 76.5839 121.602 76.6129 120.696C76.6774 119.797 76.5476 118.873 76.8102 117.988C76.8452 117.897 77.0468 117.85 77.486 117.93C77.9323 118.015 79.1384 118.404 79.9606 119.714C80.6733 120.923 80.5854 121.683 80.7115 121.782C80.7584 121.834 80.8333 121.757 80.8854 121.406C80.9101 121.054 81.0219 120.377 80.3942 119.163C80.3492 119.084 80.2013 118.836 79.9244 118.519C79.7865 118.362 79.6161 118.191 79.4205 118.025C79.2417 117.873 79.0682 117.744 78.8727 117.618C78.4974 117.371 78.0308 117.172 77.7389 117.069C77.4586 116.966 77.2027 116.894 76.985 116.841C76.2275 116.655 76.03 116.566 75.9039 116.411C75.7426 116.21 75.9015 115.498 75.5778 115.26C75.299 115.019 75.2795 115.613 75.1178 115.312C74.9735 115.004 74.7574 114.257 74.6862 114.182C74.5966 113.995 75.1051 114.055 75.5055 114.232C75.6324 114.288 75.7307 114.703 75.8278 114.757C76.0231 114.86 76.0743 114.619 76.2809 114.752C76.3494 114.8 76.528 115.448 76.5944 115.482C76.9674 115.659 77.1525 115.407 77.4811 115.435C79.0773 115.586 80.5274 115.307 82.0231 115.077C82.4196 115.017 83.0041 115.247 83.4196 115.103C83.521 115.068 83.6144 115.013 83.6949 114.932C83.7436 114.877 83.5107 114.342 83.5045 114.289C83.4398 113.522 83.7812 114.663 83.9498 114.771C84.6256 115.195 85.1468 115.078 85.5172 114.72C85.6753 114.565 85.1308 113.511 85.5201 114.076C85.5466 114.114 85.6893 114.726 85.7604 114.773C85.9206 114.88 86.1069 114.704 86.2125 114.724C86.4149 114.764 86.4399 114.75 86.6051 114.707C86.8347 114.653 87.1847 114.872 87.3834 114.666C87.4254 114.62 87.1756 114.025 87.2262 113.895C87.2776 113.767 87.5075 113.756 87.6227 113.88C87.7376 114.004 87.8472 114.498 87.8922 114.605C88.2683 115.512 88.1403 114.143 88.1637 114.101C88.5932 113.387 89.2961 113.992 89.8385 113.843C90.2479 113.728 90.6239 113.366 91.025 113.298C91.5024 113.219 91.9838 113.454 92.4205 113.282C92.466 113.263 92.2258 112.548 92.2819 112.524C92.8809 112.282 93.5186 112.209 94.2545 112.554C94.3283 112.591 94.4059 113.251 94.4889 113.325C94.9953 113.762 95.8914 114.891 95.443 112.033C95.7247 112.081 96.0612 112.12 96.4235 112.632C96.6563 112.961 96.6816 113.697 96.7897 113.355C96.8142 113.279 96.6159 112.676 96.6637 112.608C96.8698 112.322 97.1929 112.456 97.3746 112.078C97.4108 112 97.2671 111.451 97.2584 111.349C97.1932 110.516 97.7075 111.798 97.776 111.884C98.286 112.523 98.4658 112.182 98.7858 112.126C98.8578 112.11 98.601 111.395 98.6647 111.354C99.0061 111.163 99.4001 111.138 99.8317 111.384C99.9275 111.44 100.003 112.087 100.056 112.147C100.293 112.401 100.053 111.201 100.272 111.421C100.318 111.468 100.425 112.011 100.445 112.068C100.758 112.977 100.533 111.638 100.551 111.602C100.773 111.132 101.295 112.461 101.55 112.196C101.58 112.163 101.34 111.5 101.432 111.447C101.585 111.363 101.748 111.3 101.909 111.26C102.441 111.127 103.034 111.207 103.646 111.503C103.77 111.564 103.813 112.094 103.835 112.156C104.17 113.12 103.937 111.781 103.96 111.721C104.147 111.299 104.653 112.354 104.484 110.731C105.762 111.019 106.716 109.883 108.151 111.054C108.169 111.067 108.288 111.727 108.323 111.751C108.748 112.042 108.458 111.04 108.407 109.746C108.395 109.421 108.902 110.884 108.943 110.99C109.09 111.383 109.25 112.369 109.287 112.443C109.583 113.023 108.833 109.814 109.04 109.765C109.047 109.768 109.154 110.367 109.185 110.422C109.282 110.594 109.283 110.347 109.381 110.538C109.609 110.982 110.015 112.533 109.991 111.582C109.987 111.457 109.531 109.644 109.738 109.687C109.818 109.707 110.14 109.599 110.257 109.695C110.376 109.791 110.452 110.39 110.464 110.417C110.898 111.134 110.877 111.479 111.274 112.598C111.671 113.711 110.989 110.991 110.967 110.675C110.948 110.359 111.279 110.956 111.379 111.167C111.477 111.379 111.509 111.764 111.58 111.881C112.046 112.638 111.372 110.499 111.354 110.046C111.308 108.973 111.959 110.955 112.195 111.107C112.259 111.147 112.105 110.698 112.14 110.643C112.284 110.436 112.538 111.04 112.604 110.411C112.617 110.307 112.475 109.056 112.803 109.919C112.85 110.043 112.932 110.558 113.037 110.651C113.082 110.691 113.133 110.725 113.186 110.747C113.313 110.804 113.449 110.793 113.507 110.651C113.568 110.504 113.255 109.702 113.435 109.931C113.515 110.034 113.542 110.541 113.681 110.692C113.818 110.844 114.056 110.761 114.146 110.721C114.233 110.679 114.025 110.069 114.021 110.021C114.004 109.768 114.102 109.42 114.118 109.417C114.883 109.141 115.882 110.011 116.558 109.463C116.611 109.418 116.4 108.77 116.407 108.757C116.541 108.427 116.834 110.227 117.13 110.778C116.761 109.442 116.908 109.662 117.015 109.477C117.066 109.387 116.894 108.878 116.886 108.823C116.785 108.007 117.124 109.007 117.196 109.211C117.463 109.96 117.302 109.035 117.482 109.535C117.661 110.032 117.75 110.813 117.886 110.768C117.8 110.277 117.371 109.051 117.423 108.819C117.623 107.946 118.62 108.737 118.969 108.755C119.314 108.774 119.396 108.657 119.628 108.782C120.045 109.007 119.679 108.11 119.776 107.629C119.874 107.148 120.372 109.464 120.532 109.948C120.69 110.432 120.59 109.918 120.698 110.179C120.805 110.439 120.814 110.793 120.926 110.873C121.039 110.952 121.046 110.015 120.942 109.492C120.72 108.385 120.314 107.269 120.647 107.611C120.666 107.632 120.782 108.243 120.848 108.292C121.369 108.65 121.793 108.57 122.299 108.875C122.369 108.918 122.496 109.596 122.539 109.633C122.984 109.974 122.569 108.876 122.422 107.574C122.82 109.254 123.189 110.248 123.444 110.191C123.597 110.157 123.379 109.436 123.342 108.896C123.331 108.735 123.57 109.206 123.5 108.858C123.269 107.721 122.838 106.494 123.229 106.924C123.247 106.944 123.372 107.568 123.422 107.595C123.74 107.77 123.463 106.591 123.702 106.376C123.889 106.208 124.462 106.821 124.738 106.873C125.226 108.751 125.344 108.26 125.099 106.941C125.274 106.952 125.426 106.835 125.629 106.973C125.698 107.022 125.805 107.572 125.827 107.629C126.171 108.52 125.912 107.252 125.932 107.187C126.178 106.61 126.734 107.483 126.848 106.457C126.85 106.411 126.534 105.115 126.877 106.038C126.9 106.102 126.937 106.726 127.117 106.728C127.294 106.731 127.799 107.346 127.871 106.682C127.889 106.52 127.758 105.426 128.088 106.223C128.132 106.331 128.213 106.71 128.29 106.912C128.533 107.556 128.229 106.229 128.603 107.327C128.978 108.425 129.372 109.218 129.404 108.385C129.404 108.354 129.19 107.301 129.269 107.298C129.396 107.295 129.619 107.469 129.739 107.431C129.795 107.411 129.591 106.772 129.598 106.758C129.906 106.291 130.336 106.797 130.826 106.939C130.893 106.959 130.91 106.443 131.047 106.45C131.096 106.452 131.159 106.516 131.244 106.685C131.605 107.41 132.245 110.643 132.428 109.789C132.505 109.446 131.678 105.348 132.483 107.377C132.89 106.723 133.645 107.676 134.003 106.803C134.019 106.763 133.825 105.615 133.884 105.614C133.974 105.619 134.148 106.137 134.217 106.158C134.504 106.259 134.637 105.748 134.895 105.763C134.996 105.768 135.09 106.322 135.207 106.328C135.321 106.334 135.234 105.593 135.463 105.908C135.637 106.149 136.081 107.603 136.262 107.744C135.948 106.282 136.054 106.29 136.157 105.864C136.176 105.782 136.028 105.281 136.032 105.216C136.041 104.939 136.2 105.346 136.203 105.048C136.204 104.976 136.1 104.476 136.095 104.389ZM77.7789 123.594C77.77 123.564 77.6425 123.572 77.649 123.602C77.8111 124.348 78.0778 124.328 77.7789 123.594ZM119.454 113.096C119.167 112.495 119.753 114.815 119.74 114.226C119.738 114.193 119.47 113.132 119.454 113.096ZM112.477 112.24C112.466 112.206 112.389 112.193 112.438 112.388C112.597 113.017 112.652 112.815 112.477 112.24ZM108.031 111.75C108.011 111.685 107.77 111.674 107.776 111.736C107.923 112.975 108.412 113.002 108.031 111.75ZM118.658 110.333C118.647 110.303 118.542 110.299 118.547 110.33C118.686 111.079 118.899 111.087 118.658 110.333ZM133.974 108.934C133.566 107.948 133.826 109.481 134.132 110.245C134.438 111.008 134.097 109.233 133.974 108.934ZM135.42 107.798C135.047 107.03 135.79 110.34 135.826 109.628C135.827 109.583 135.443 107.851 135.42 107.798ZM136.852 106.624C136.703 106.186 136.644 106.739 136.832 107.283C136.982 107.721 137.036 107.169 136.852 106.624ZM124.755 106.922C124.666 106.155 124.771 106.035 125.099 106.941C124.981 106.92 124.872 106.94 124.755 106.922ZM138.718 103.489C138.809 103.521 138.829 104.391 138.997 104.603C139.318 104.985 138.884 103.275 139.367 104.108C139.453 104.256 139.732 105.814 139.722 105.911C139.237 105.932 138.252 103.302 138.718 103.489Z" fill="#FA8282"/>
<path d="M98.0546 1.00843C99.7036 0.445109 99.637 2.93641 99.7021 3.08362C100.453 4.64941 102.408 3.20967 102.892 3.15784C105.084 2.91293 106.833 3.52196 108.663 3.42542C109.86 3.367 110.235 1.78324 111.148 1.98597C111.851 2.14308 112.429 2.39783 112.939 2.67835C114.663 3.62857 115.526 4.76028 118.281 3.96351C119.048 3.76896 118.973 1.82054 120.924 4.00354C121.068 4.14231 122.246 5.99491 123.458 5.66858C123.613 5.62708 123.825 5.1551 123.994 5.18421C124.464 5.27006 124.815 5.43778 125.154 5.6305C125.622 5.89663 126.058 6.20645 126.72 6.39905C127.854 6.72899 129.239 7.0863 130.342 7.84046C131.007 8.29415 131.476 9.61757 131.705 10.0016C132.344 11.096 133.88 10.6422 134.084 11.6823C134.286 12.7267 132.55 13.2268 133.834 14.5172C134.525 13.3618 135.309 12.2156 136.041 11.0739C137.453 11.8547 138.823 12.7055 140.187 13.5905C142.104 14.8334 144.039 16.1649 146.023 17.5123C146.445 17.7977 146.434 16.9058 146.899 17.2008C148.868 18.465 150.104 20.118 151.992 21.4313C152.123 21.522 152.26 21.6108 152.4 21.6989C153.801 22.5703 155.546 23.229 156.915 24.2086C156.734 26.1019 159.093 27.5227 160.442 28.9703C160.915 29.4759 160.6 29.7456 160.867 30.1783C161.874 31.8046 162.176 30.2245 162.693 30.4176C164.911 31.2695 162.917 33.614 164.791 35.3619C164.819 35.3882 165.021 35.4082 165.302 35.4254C166.031 35.4712 167.304 35.5203 167.474 35.5895C168.988 36.1946 167.236 36.1636 167.792 36.9157C168.803 38.2976 169.311 39.4184 170.989 40.609C171.477 40.9507 173.181 41.3738 173.287 42.7604C173.301 42.9418 172.828 43.22 172.879 43.3326C173.815 45.3422 175.178 44.3394 176.394 44.9733C176.778 45.1762 177.059 45.5373 177.264 45.9557C177.7 46.8512 177.77 48.0012 177.737 48.3492C177.619 49.6772 176.981 47.9474 176.878 47.9557C175.676 48.0518 176.632 49.0458 177.171 49.9469C175.904 51.0438 176.821 52.1641 177.732 50.8776C177.83 50.7339 177.231 50.1605 177.171 49.9469C179.035 49.731 180.165 50.9633 179.893 53.3014C179.758 54.3946 178.638 54.1988 180.266 56.1334C180.999 57.0182 181.731 56.0267 182.54 56.7213C184.18 58.1359 184.861 60.7914 185.88 62.7809C186.011 63.037 186.15 63.2849 186.298 63.5162C186.767 64.2547 186.917 63.2067 187.257 63.7037C188.161 65.0294 188.381 66.4935 189.3 67.8239C189.384 67.9443 189.822 67.3356 190.048 67.7819C191.769 71.174 192.69 74.3902 194.049 78.109C194.527 79.4155 195.421 81.4266 196.042 83.1832C196.276 83.8408 196.474 84.4612 196.606 84.9869C197.465 88.3345 197.497 92.635 198.276 95.4381C198.783 97.2743 199.348 96.7479 199.937 97.4772C201.083 98.8993 199.948 101.935 199.75 102.329C199.742 102.323 199.362 100.741 199.15 101.65C198.522 102.248 199.744 102.31 199.75 102.329C199.641 102.596 199.874 105.871 200.045 106.513C200.146 106.861 200.75 106.607 200.791 106.791C200.813 106.891 200.834 106.991 200.855 107.09C201.755 111.368 201.991 115.804 201.465 120.226C201.447 120.305 200.757 120.148 200.726 120.333C200.263 122.914 200.947 124.644 201.18 126.874C201.198 127.052 201.211 127.227 201.221 127.397C201.327 129.364 200.814 130.943 199.492 131.913C199.32 133.596 198.191 135.838 197.47 137.049C196.755 138.26 197.969 138.872 197.957 139C197.688 141.412 196.933 142.996 196.021 144.637C195.452 145.655 194.813 146.698 194.141 147.981C193.313 149.576 191.872 152.796 191.078 154.55C190.457 155.941 189.732 156.584 189.219 157.897C189.148 158.075 189.769 158.209 189.761 158.271C189.608 159.992 188.7 158.599 188.311 158.745C186.891 159.271 186.099 159.62 185.446 161.557C185.374 161.767 185.578 162.372 185.776 163.04C186.001 163.806 186.214 164.66 186.019 165.086C185.533 166.123 185.131 165.347 184.621 166.443C184.576 166.536 184.981 166.783 184.538 167.39C182.706 169.941 180.165 172.656 177.893 174.937C177.651 175.183 177.409 175.431 177.17 175.677C176.828 176.025 177.801 176.112 177.312 176.625C175.018 179.032 172.195 181.464 169.372 183.161C168.676 183.576 168.764 182.854 168.532 182.834C167.129 182.716 166.704 184.684 166.504 184.853C166.445 184.904 166.386 184.955 166.327 185.005C161.812 188.783 157.499 189.843 152.565 192.968C152.516 193 152.423 193.104 152.299 193.248C151.754 193.899 150.233 195.49 148.833 194.922C148.71 194.882 147.105 194.13 146.335 195.286C146.287 195.358 147.232 195.762 145.905 196.095C144.581 196.424 142.706 197.32 140.982 196.937C140.678 196.872 140.11 196.534 139.45 196.46C138.921 196.398 138.326 196.511 137.757 197.089C137.679 197.184 135.839 199.878 134.741 198.455C134.565 198.218 134.402 196.538 132.812 197.694C132.508 197.917 133.178 198.184 132.338 198.567C131.047 199.156 129.183 199.003 127.628 199.998C127.357 200.174 126.277 201.493 125.152 200.772C124.977 200.659 125.194 200.06 124.659 200.071C122.115 200.118 119.52 200.813 116.899 200.679C115.973 200.631 116.352 199.681 115.383 199.525C115.366 199.522 115.348 199.519 115.331 199.516C114.346 199.367 112.477 199.292 111.531 199.762C110.566 200.242 111.747 201.624 110.253 201.831C103.735 202.712 97.2331 201.874 90.7519 201.411C90.1774 201.369 90.2188 201.55 90.0468 201.69C89.9283 201.785 89.7114 201.861 89.1328 201.83C83.9376 201.63 74.6292 200.899 70.3007 198.779C70.2784 198.768 70.2554 198.758 70.2334 198.748C66.8163 197.091 71.4851 197.436 68.831 196.474C67.5648 196.01 65.7357 197.289 65.3974 197.255C62.1287 196.963 60.1713 195.594 57.3203 194.861C56.7293 194.706 57.0701 195.55 56.5654 195.408C55.4787 195.105 54.4124 194.606 53.373 194.122C52.7638 193.838 52.1634 193.559 51.5683 193.327C50.8468 193.046 50.768 193.581 50.1279 193.253C48.5987 192.468 47.324 191.602 46.0898 190.406C45.981 190.298 47.168 190.187 46.082 189.59C44.464 188.7 42.7397 187.239 40.8007 186.429C40.629 186.358 40.4548 186.292 40.2783 186.231C39.635 186.009 38.9744 187.01 38.1953 185.538C38.0318 185.226 39.1346 184.24 37.0527 184.358C36.7123 184.389 33.3843 184.159 32.8681 182.443C32.7303 181.994 32.6672 180.495 31.914 180.157C31.8083 180.114 31.7744 180.894 31.1982 180.536C30.4483 180.063 29.7154 179.541 28.9902 178.997C27.763 178.076 26.5559 177.092 25.3105 176.168C24.7807 175.774 25.0784 176.923 24.2998 176.315C22.1547 174.643 19.8029 172.125 18.1181 169.957C17.4983 169.157 18.3757 169.306 18.3701 169.211C18.3541 168.817 18.2481 168.55 18.0937 168.365C17.6535 167.836 16.7989 167.965 16.5673 167.779C14.6397 166.195 13.9966 164.317 12.5917 162.569C12.2063 162.082 11.9363 162.797 11.8203 162.727C10.6449 161.958 12.114 162.131 11.7705 161.387C11.0897 159.893 10.2293 158.387 9.38765 156.94C9.06817 156.392 8.74464 155.851 8.42964 155.322C8.02074 154.634 7.81242 155.772 7.4521 155.147C5.88265 152.377 4.37749 149.571 3.27241 145.666C2.92189 144.339 2.69703 143.083 2.54585 141.873C2.44514 141.02 3.10321 141.434 3.19234 141.235C3.82196 139.883 2.35543 138.412 2.18355 138.025C1.40254 136.321 1.81729 135.573 1.56734 134.043C1.03118 130.716 0.80205 127.077 0.764601 123.48C0.632053 118.765 1.42605 113.665 2.16987 109.993C2.53924 108.114 2.93152 106.378 3.33003 104.691C4.8204 98.4522 6.30953 93.0806 7.6562 86.6686C7.76585 86.153 6.92276 86.5046 7.00776 86.0582C8.04567 80.8218 9.46894 75.779 10.748 70.5016C10.884 69.9458 11.0168 69.3964 11.1484 68.8463C11.2692 68.3514 10.3929 68.8653 10.5634 68.0709C10.9131 66.4315 11.5706 64.3558 12.4521 62.6149C12.8805 61.7771 13.0069 63.1625 13.4306 62.3151C14.3922 60.3723 15.7189 57.8831 16.957 55.9557C17.4657 55.144 16.0439 55.9073 16.7548 54.8903C17.0608 54.4568 17.3559 54.0524 17.6406 53.6657C21.5818 48.317 25.8913 43.3284 31.1757 39.1744C31.4509 38.9588 31.7321 38.7419 32.0117 38.5319C32.4265 38.2204 33.7614 38.968 34.3486 38.027C34.1285 37.6756 33.7974 37.3306 33.5253 36.9899C38.5517 32.0653 43.9016 27.7732 49.5078 23.6432C52.4476 21.4887 55.5148 19.3622 58.7626 17.358C59.1609 17.1126 58.0598 16.8827 58.8349 16.403C59.9615 15.7089 61.0876 15.0334 62.2001 14.3951C65.3106 12.6219 68.8507 10.5692 73.3984 9.59339C73.8706 9.49581 74.0591 10.3336 74.8925 10.3473C75.1089 10.3551 75.371 10.3038 75.7031 10.1627C75.9725 10.029 78.3334 9.24346 78.8876 8.83948C78.962 8.77735 78.3894 8.2463 79.165 8.06507C83.6952 7.03921 88.3273 6.7782 92.6484 6.9762C93.3482 7.01071 92.6366 7.72041 93.1318 7.75159C96.6181 7.96962 100.374 7.45784 103.632 8.15589C105.807 8.62977 104.957 9.78268 106.069 10.9762C106.222 11.1438 107.56 11.2235 107.596 11.8991C107.697 13.5956 106.986 15.4186 107.17 17.2301C107.205 17.6187 108.968 17.2806 107.893 18.1705C107.816 18.2292 106.549 18.4873 106.228 18.7946C106.007 19.0065 106.365 19.7042 105.92 19.9694C105.477 20.2347 105.014 19.6441 104.284 19.9537C103.552 20.269 103.852 21.0524 102.421 21.1139C99.1085 21.2493 94.8199 21.0699 91.6171 20.9635C90.6078 20.9308 91.0933 20.4758 90.3925 20.4391C89.0284 20.3718 87.8035 20.6944 86.4834 20.6549C86.0463 20.6405 86.5014 19.908 86.039 19.9098C83.5024 19.932 81.2236 20.5142 78.9189 21.0153C78.6869 21.0661 78.4535 21.1198 78.2285 21.1744C75.1643 21.8971 71.9195 23.5111 68.414 25.3502C64.274 27.4779 60.4447 29.9806 56.5576 32.8229C53.0539 35.3835 49.5895 38.1123 46.1914 40.9489C43.9461 42.8248 41.2839 44.8624 38.9072 47.0407C37.6629 48.1804 36.4913 49.3652 35.4863 50.57C35.1461 50.9799 35.793 51.1505 35.7597 51.2575C35.2337 52.918 34.7154 51.7276 33.9013 52.3883C31.1641 54.6248 28.6117 57.5255 26.6015 60.3991C26.2425 60.911 25.9142 61.4041 25.6298 61.8727C24.8749 63.1741 26.6547 62.5835 25.3466 63.4323C25.2574 63.495 24.9059 62.8623 24.6474 63.1666C24.0498 63.843 23.4407 65.4838 23.1367 66.1901C22.5364 67.534 22.4705 67.7837 22.0302 69.1774C21.651 70.3901 21.1354 71.7522 20.7011 73.1598C20.4563 73.9514 20.2348 74.7695 20.0849 75.5621C19.9976 76.0332 20.7746 75.584 20.6953 76.3375C20.613 77.0974 20.0767 79.0251 19.7695 79.6481C19.4622 80.2676 19.0415 79.8697 18.9003 79.9576C17.7164 80.6867 18.4887 83.2688 18.4541 83.5651C17.7532 89.0049 15.9753 93.405 14.9033 98.4166C14.3316 101.103 13.8713 103.95 13.4111 106.647C13.219 107.773 13.0276 108.873 12.8291 109.926C12.032 114.214 11.1474 117.684 11.206 121.715C11.2115 122.146 11.9648 121.643 11.9746 122.166C11.9822 122.532 11.9928 122.901 12.0039 123.277C12.1729 128.64 12.3705 133.955 12.8759 139.046C12.9338 139.593 12.1433 139.03 12.165 139.589C12.2096 140.551 12.2586 141.671 12.4375 142.787C12.8931 145.589 14.439 148.706 16.9472 149.024C17.3706 149.927 17.8545 150.91 18.3193 151.906C18.9334 153.231 19.5273 154.551 19.9013 155.74C20.3293 157.067 18.9988 156.382 20.1923 157.589C20.4627 157.857 20.7039 157.099 21.0683 157.523C22.3753 159.042 23.6106 160.805 25.0742 162.217C25.3259 162.461 25.5853 162.695 25.8505 162.914C26.2188 163.215 26.5483 162.735 26.7128 162.763C28.0564 163.009 28.3875 165.273 28.624 165.636C30.3574 168.349 32.3194 169.67 34.5927 171.538C34.7563 171.671 34.8553 171.659 34.9287 171.589C34.9505 171.569 34.9698 171.543 34.9882 171.514C35.0695 171.389 35.1288 171.212 35.2548 171.181C35.3159 171.167 35.3935 171.186 35.496 171.262C38.2104 173.293 41.0157 175.357 43.6572 177.433C44.2439 177.896 43.3194 178.078 43.583 178.328C44.2102 178.912 44.7767 178.939 45.3378 178.989C45.8297 179.032 46.3175 179.093 46.8574 179.555C47.1023 179.762 46.6685 180.151 46.6875 180.233C46.9919 181.521 48.356 180.734 48.5683 180.818C51.308 181.87 52.3432 183.963 55.0488 184.92C55.3696 185.028 54.9465 184.087 55.8281 184.429C56.2328 184.585 56.6395 184.739 57.0498 184.892C61.9113 186.703 67.1348 188.321 72.208 189.799C72.9096 190.004 73.6082 190.205 74.3027 190.403C75.2564 190.672 74.4697 191.058 74.5156 191.134C75.3362 192.322 76.2318 191.094 76.5546 191.097C79.1128 191.159 81.3475 192.592 83.249 191.169C85.6762 191.563 88.1306 191.809 90.5957 191.968C98.6329 192.484 106.626 192.106 114.692 192.38C114.982 192.39 115.273 192.401 115.564 192.413C115.702 192.418 115.521 193.106 115.797 193.111C119.129 193.152 118.394 192.173 120.395 190.651C120.895 190.269 122.749 191.576 122.914 191.667C123.507 192.005 123.085 193.069 123.276 193.124C124.859 193.541 124.153 190.315 126.14 190.017C126.202 190.016 126.032 190.653 126.208 190.687C126.756 190.796 127.234 190.478 127.776 190.604C129.013 190.897 129.699 192.411 131.325 191.187C131.532 191.028 130.868 189.248 132.656 189.02C133.367 188.936 136.48 188.317 137.371 188.256C137.59 188.243 137.724 188.274 137.806 188.331C137.958 188.432 137.93 188.615 137.891 188.752C137.864 188.847 137.833 188.92 137.853 188.924C137.879 188.928 137.903 188.931 137.928 188.934C140.348 189.232 139.546 189.74 140.975 190.623C142.428 191.496 141.461 188.838 141.849 188.422C142.244 188.014 144.041 188.193 144.518 188.263C144.991 188.347 144.609 188.878 145.012 188.88C147.713 188.794 145.555 187.194 146.131 186.49C146.768 185.662 147.602 185.526 148.53 185.518C149.486 185.514 150.519 185.655 151.386 185.322C151.848 185.143 151.272 184.909 151.638 184.668C153.078 183.715 154.31 183.781 155.715 182.287C155.95 182.041 156.663 180.173 158.003 180.422C158.196 180.458 158.117 181.117 158.803 180.829C159.715 180.447 161.184 179.626 162.102 178.868C162.216 178.774 162.321 178.682 162.416 178.592C163.052 177.989 161.752 177.864 162.786 177.453C163.246 177.266 162.811 178.198 163.656 177.808C164.504 177.427 166.331 175.976 166.996 175.39C167.665 174.81 166.875 174.624 166.902 174.545C167.075 174.081 168.127 172.749 168.233 172.648C169.506 171.483 170.757 170.336 171.985 169.182C175.138 166.289 177.86 163.198 180.175 159.542C180.859 158.468 181.509 157.352 182.111 156.202C182.381 155.687 181.597 155.675 181.632 155.593C182.377 153.742 183.166 156.002 184.388 155.095C183.084 154.582 183.713 153.997 184.261 152.699C184.522 152.073 183.875 152.135 183.856 152.054C183.624 150.791 184.874 150.687 185.15 150.63C186.163 150.421 185.674 149.344 186.352 149.192C187.027 149.035 187.234 150.322 187.851 149.117C187.583 148.555 185.975 148.841 186.255 147.842C186.752 146.055 187.915 143.788 189.054 141.568C190.323 139.117 191.512 136.688 192.019 135.178C192.971 132.311 193.038 131.323 193.549 129.62C194.258 127.067 193.584 127.281 193.25 126.331C193.175 126.124 193.114 125.859 193.079 125.5C192.874 123.486 195.111 124.697 195.65 124.467C196.187 124.235 195.699 123.868 196.012 123.538C196.324 123.207 196.595 124.015 196.779 123.182C196.971 122.34 196.22 119.966 195.696 119.65C194.598 118.972 193.383 119.93 193.876 117.786C193.904 117.661 194.514 118.086 194.591 117.608C195.093 114.344 195.069 110.931 195.062 107.589C195.062 107.034 195.061 106.478 195.064 105.926C195.068 105.392 195.806 105.791 195.815 105.478C195.882 102.207 194.85 103.489 193.328 101.943C195.088 102.088 196.017 100.964 195.606 98.5153C195.353 97.0485 194.654 97.435 193.954 96.6002C193.744 96.3513 194.044 95.2287 193.658 95.1149C192.393 94.7462 191.34 95.9599 191.307 93.4293C191.306 93.3173 192.002 93.5157 191.955 93.1383C191.64 90.6958 190.395 90.7002 189.563 88.2213C189.309 87.4766 189.103 86.4758 188.898 85.3971C188.572 83.6617 188.232 81.7181 187.8 80.3326C189.645 79.7162 188.429 77.7404 186.846 77.4098C186.327 75.9714 185.608 74.4878 185.164 73.066C185.011 72.5783 185.658 72.6469 185.688 72.5641C186.14 71.2628 184.67 71.2053 184.482 70.9332C183.186 68.9776 182.51 67.0294 181.491 65.2047C180.939 64.2168 180.286 63.272 179.383 62.4108C179.29 62.3232 178.036 62.8459 178.409 61.5612C178.435 61.4742 179.548 62.1248 178.752 60.7233C177.962 59.3278 176.912 56.3591 175.115 54.8658C174.682 54.5001 173.01 54.0144 173.061 52.6276C173.07 52.4407 173.477 52.3444 173.527 52.0465C173.678 51.0857 172.358 51.5888 172.809 50.2516C172.921 49.9164 172.985 49.5455 172.985 49.1598C172.985 48.0036 172.408 46.6805 170.861 45.7057C170.796 45.6627 169.617 45.9156 169.178 45.3551C168.476 44.4553 167.587 43.0769 166.779 42.194C166.393 41.7715 166.141 42.4937 166.065 42.4283C164.564 41.0689 163.433 39.7976 162.287 38.4342C161.263 37.2172 160.228 35.9327 158.899 34.5035C158.384 33.9454 156.181 33.1347 155.592 31.6188C154.935 29.9538 158.387 28.624 155.077 26.7125C153.879 26.0236 150.448 27.4567 149.27 25.4049C149.123 25.1512 149.012 24.8489 148.937 24.4801C145.257 21.9656 142.204 18.9469 138.234 17.0006C137.57 16.6697 136.883 16.3666 136.169 16.0983C135.944 16.0129 134.738 16.6788 134.264 16.4039C133.561 15.9935 133.422 15.3024 132.925 14.9967C130.842 13.7041 128.639 13.0959 126.566 11.9821C125.778 11.5613 126.307 11.1943 125.362 10.6959C124.629 10.3116 123.882 10.4387 123.054 10.0836C122.808 9.97848 122.56 9.83453 122.3 9.62561C121.428 8.92659 121.035 7.07819 119.632 6.37366C119.061 7.76373 118.12 7.35232 116.303 7.29163C115.954 7.28217 116.179 7.87611 116.009 7.89808C115.324 8.00235 114.839 7.45272 114.174 7.61292C114.015 7.6522 113.906 8.15101 113.77 8.21155C113.19 8.47942 112.537 8.25075 111.988 7.92737C111.448 7.60765 111.012 7.19382 110.885 7.07093C109.89 6.13002 109.258 6.70122 108.444 6.26917C107.628 5.83795 108.977 5.67091 107.996 5.33362C105.96 4.6355 103.248 4.33766 101.114 4.05042C100.261 3.93891 100.761 4.68741 100.637 4.68714C98.8628 4.64246 97.1468 3.73322 96.0429 4.99476C95.4089 2.4388 95.1102 3.62324 94.1416 4.21643C93.7366 4.46133 93.2262 4.60743 92.5039 4.36292C92.3118 4.29399 92.1328 2.62264 92.9277 2.42249C93.3121 2.32803 93.769 2.41609 94.2705 2.50452C94.81 2.60021 95.3915 2.69533 95.9697 2.54944C96.2272 2.48115 97.8421 1.07977 98.0546 1.00843ZM113.131 193.281C113.073 193.221 110.903 193.315 110.836 193.378C109.778 194.699 114.202 194.514 113.131 193.281ZM151.969 186.335C151.935 186.313 151.314 186.598 151.419 186.77C151.755 187.328 152.522 186.723 151.969 186.335ZM194.035 142.257C192.959 143.12 195.077 144.247 195.079 142.785C195.073 142.711 194.09 142.212 194.035 142.257ZM191.12 141.769C191.096 141.777 190.941 142.09 190.822 142.347C190.748 142.509 190.689 142.647 190.695 142.662C190.912 143.01 191.2 142.858 191.369 142.589C191.581 142.25 191.609 141.738 191.12 141.769ZM186.847 77.4147C187.175 78.3673 187.531 79.3149 187.836 80.2799C186.77 79.5931 186.258 78.5217 186.847 77.4147ZM143.647 16.5866C143.108 15.2732 141.367 16.3368 141.618 16.8629C142.405 18.5822 144.159 17.894 143.647 16.5866ZM101.744 11.2252C102.269 10.4719 100.342 10.3857 100.745 11.1813C100.769 11.2126 101.719 11.2556 101.744 11.2252ZM128.037 8.27308C127.917 8.25693 126.99 9.79327 127.063 9.88343C128.307 11.4315 130.092 8.53249 128.037 8.27308ZM112.561 4.76526C111.919 4.66254 111.158 4.9282 111.588 5.42054C111.756 5.6138 112.076 5.71047 112.388 5.72425C112.97 5.75074 113.551 5.50339 113.171 5.0553C113.035 4.89969 112.813 4.8058 112.561 4.76526ZM84.6523 3.21058C88.7492 3.0127 91.0219 5.90016 86.8662 5.67347C86.1006 5.64987 88.4685 4.71245 87.4892 4.49866C85.6451 4.11166 84.6265 5.9835 82.6904 5.2389C82.3363 5.10148 84.4118 3.21151 84.6591 3.20569C84.6569 3.20718 84.6545 3.20909 84.6523 3.21058Z" fill="#FA8282"/>
</svg>
