<svg width="202" height="203" viewBox="0 0 202 203" fill="none" xmlns="http://www.w3.org/2000/svg">
<path d="M76.8565 48.6377C77.7711 48.151 78.6484 48.3303 78.957 48.4229C79.3843 48.554 79.5211 48.6489 79.6924 48.7452C79.8658 48.8507 79.9395 48.9075 80.0322 48.9776C80.3717 49.2458 80.5054 49.3982 80.666 49.5684C80.9476 49.8779 81.1516 50.144 81.3447 50.4073C81.7278 50.9343 82.0379 51.4325 82.3232 51.9483C82.9022 52.9961 83.3262 54.0497 83.6035 55.2227C83.6151 55.2758 83.0055 55.5589 83.0332 55.6622C83.0633 55.7689 83.0995 55.8602 83.1357 55.9395C83.1841 55.888 83.2327 55.8376 83.2774 55.7852C83.7622 55.2376 84.0716 54.7602 84.291 54.337C84.2786 54.3903 84.2664 54.4437 84.2549 54.4971C84.1843 54.8317 84.7421 54.619 84.6758 55.1172C84.6308 55.4597 84.5959 55.8551 84.5586 56.2803C84.8701 56.2245 85.2329 56.1683 85.6533 56.169C86.0347 56.1768 85.0714 57.5324 85.001 57.6348C84.8875 57.8148 84.6225 57.9855 84.3672 58.128C84.3458 58.2879 84.3217 58.4476 84.2959 58.6065C85.0669 58.365 86.4121 57.6828 86.6787 58.1114C86.6865 58.1344 86.1185 58.3693 86.1006 58.4551C86.0435 58.7228 86.3532 58.7661 86.2803 59.046C86.0946 59.6671 84.8102 60.6363 85.9629 60.7344C86.1103 60.7437 87.6363 59.6518 87.9121 60.2735C88.0275 60.5327 88.665 61.5201 88.7412 61.8809C88.8146 62.2365 88.1767 62.3475 88.167 62.3819C87.943 63.5521 87.4863 63.4349 86.708 64.4288C85.935 65.424 88.2725 63.8716 88.6377 63.8711C88.9966 63.8625 88.7686 64.7589 88.6572 65.0186C88.5449 65.2758 88.1123 65.2988 88.0752 65.4893C87.8478 66.7557 89.4849 65.136 90.0283 65.1768C91.3052 65.2591 89.8318 66.8482 89.9922 67.5167C90.0383 67.701 90.3689 67.3311 90.4902 67.4483C90.9684 67.922 90.6092 68.5892 91.4922 68.9131C91.6147 68.9586 92.626 68.878 92.5732 69.3477C92.5619 69.4287 92.5166 69.5274 92.4258 69.6475C92.3391 69.7609 91.8157 69.8934 91.8535 70.1856C91.9061 70.6171 92.2004 71.3371 92.5664 71.6153C92.841 71.8276 93.3864 71.0745 93.3662 71.5596C93.357 71.7765 92.7556 71.7412 92.7744 72.128C92.7938 72.5154 93.259 73.2573 93.4404 73.5294C93.6239 73.8039 94.0868 73.3209 94.1397 73.3194C94.4362 73.3301 95.0317 73.722 95.0625 73.7735C96.5729 76.1624 96.9728 78.9669 98.6963 81.1504C98.8302 81.3213 99.3436 80.8487 99.3701 80.8711C99.9944 81.3591 98.1365 81.7887 97.8799 82.545C99.0315 81.7704 98.9724 82.1616 99.3731 82.5362C99.5652 82.7128 99.9567 82.3201 100.016 82.3116C100.905 82.2113 100.134 82.9737 99.9834 83.1417C99.4297 83.7597 100.371 83.5112 100.003 83.9278C99.6381 84.3419 98.7705 84.4082 99.0371 84.835C99.5353 84.7018 100.456 83.7161 100.833 83.9356C102.247 84.7519 102.754 87.5807 103.254 88.6202C103.755 89.6616 104.026 89.9362 104.216 90.6016C104.561 91.8063 105.158 90.9333 105.922 91.3516C106.686 91.7704 104.471 92.6736 104.089 93.0284C103.708 93.3811 104.215 93.2117 104.044 93.4688C103.872 93.7258 103.428 93.6593 103.498 93.9795C103.568 94.2994 104.783 94.5645 105.295 94.3838C106.381 94.003 107.198 93.0666 107.265 93.9844C107.268 94.0376 106.655 94.2267 106.694 94.4141C107.024 95.8941 107.766 97.1884 108.144 98.6377C108.194 98.8372 107.512 99.0428 107.533 99.1631C107.77 100.417 108.551 99.449 110 99.3428C108.445 100.106 107.728 100.962 108.188 101.745C108.463 102.216 109.06 101.747 109.697 101.775C109.889 101.783 109.646 102.383 109.985 102.26C111.097 101.86 112.021 100.88 112.062 101.948C112.058 101.997 111.451 102.212 111.491 102.353C111.748 103.266 112.844 102.737 113.481 103.511C113.98 104.114 114.064 105.686 114.416 106.502C112.744 107.486 113.558 107.976 114.879 107.575C115.13 108.097 115.511 108.582 115.643 109.158C115.687 109.355 115.141 109.538 115.102 109.59C114.479 110.399 115.721 109.94 115.829 110.02C116.947 110.911 116.667 112.354 118.16 112.96C118.217 112.979 119.404 112.349 118.74 113.149C118.693 113.203 117.95 113.16 118.221 113.698C118.485 114.228 118.469 115.596 119.43 115.977C119.666 116.074 120.868 115.95 120.35 116.743C120.279 116.85 119.917 116.999 119.773 117.178C119.319 117.751 120.557 117.164 119.721 118.018C118.889 118.878 118.477 119.87 119.592 120.169C119.625 120.179 120.651 119.791 120.777 120.029C120.976 120.411 121.096 121.041 121.327 121.409C121.442 121.591 121.942 121.127 121.974 121.15C123.042 122.186 123.052 123.352 123.628 124.797C123.698 124.973 124.247 125.125 124.508 125.442C124.646 125.614 124.71 125.828 124.598 126.112C124.234 127.035 121.104 128.228 122.486 128.984C123.053 129.309 126.959 127.691 125.646 129.686C127.111 131.042 127.109 133.141 128.781 134.37C128.859 134.427 129.981 134.025 130.082 134.217C130.224 134.492 129.851 134.922 129.934 135.121C130.278 135.977 131.116 136.428 131.521 137.2C131.678 137.496 131.142 137.703 131.323 138.046C131.517 138.406 132.273 138.211 132.268 138.865C132.254 139.349 131.205 140.521 131.347 141.063C132.617 140.273 132.78 140.582 133.478 140.927C133.609 140.988 133.973 140.592 134.058 140.607C134.409 140.654 134.182 141.093 134.545 141.113C134.634 141.12 135.063 140.844 135.16 140.835C136.003 140.747 135.392 141.903 135.292 142.113C134.89 142.879 135.556 142.681 135.485 143.112C135.419 143.55 134.835 143.35 134.899 143.772C134.982 144.408 135.404 145.045 135.667 145.534C135.671 145.543 135.684 145.564 135.688 145.571C135.776 145.716 135.854 145.873 135.914 146.028C136.013 146.284 136.575 145.861 136.605 145.891C137.016 146.468 136.432 147.24 137.834 147.365C134.446 148.398 138.25 147.706 137.658 148.784C137.609 148.869 135.964 149.098 135.696 148.862C135.429 148.633 135.895 148.172 135.461 147.889C135.354 147.802 133.75 147.7 133.65 147.699C132.859 147.558 135.215 146.815 135.334 146.732C135.993 146.378 135.86 146.163 135.56 146.106C135.256 146.04 134.805 146.16 134.737 146.16C134.735 146.16 134.733 146.159 134.731 146.159C134.721 146.139 134.685 146.082 134.676 146.062C133.985 145.893 133.841 145.091 133.172 144.767C132.73 144.549 131.359 145.419 131.204 145.1C130.71 144.063 132.385 142.484 130.154 142.663C129.673 142.693 128.32 143.871 129.033 142.405C129.087 142.321 129.812 141.097 128.953 141.254C128.844 141.272 128.41 141.554 128.341 141.528C127.886 141.341 128.101 140.913 127.7 140.653C127.304 140.401 126.775 140.118 126.668 139.622C126.604 139.325 127.206 138.475 127.336 138.237C127.707 137.552 126.531 137.775 127.099 137.131C127.671 136.486 128.987 136.217 129.102 135.395C127.95 136.09 126.752 136.778 125.586 137.465C124.874 136.242 124.497 134.816 123.703 133.647C123.601 133.498 123.084 134.035 122.958 133.885C122.454 133.289 122.511 132.4 121.912 131.819C121.431 131.346 120.426 131.172 119.905 130.691C120.972 129.544 120.091 129.008 119.8 128.314C119.795 128.301 119.789 128.288 119.784 128.274C119.698 128.039 120.057 127.839 120.08 127.618C120.155 126.788 119.156 127.763 118.877 127.717C117.676 127.5 120.281 125.859 119.727 125.095C119.693 125.057 117.98 125.379 117.85 125.368C117.008 125.267 118.293 124.997 118.226 124.653C118.104 124.026 118.208 123.445 117.437 123.101C117.208 122.999 116.077 123.104 116.541 122.345C116.602 122.245 117.08 121.989 117.085 121.936C117.141 121.008 115.675 121.875 114.952 121.797C114.228 121.716 114.881 120.523 115.101 120.231C115.664 119.47 115.564 120.272 115.647 120.245C116.641 119.909 116.238 119.582 116.115 119.213C117.516 118.301 117.155 117.898 115.982 118.833C115.855 118.936 116.141 119.109 116.115 119.213C114.543 119.782 114.051 119.375 115.035 118.042C115.494 117.414 116.358 117.225 115.621 116.6C115.287 116.315 114.386 117.047 113.927 116.894C112.888 116.56 113.232 115.056 112.647 114.415C112.433 114.179 112.052 114.765 111.887 114.615C111.448 114.219 111.588 113.537 111.089 113.18C111.04 113.15 110.544 113.596 110.445 113.449C109.684 112.336 109.442 111.118 108.725 109.906C108.381 109.327 107.439 108.468 107.142 107.833C106.618 106.726 106.667 104.95 105.93 104.176C105.453 103.672 104.964 104.139 104.429 104.122C103.394 104.09 104.218 102.433 104.356 102.194C104.37 102.196 104.797 102.603 104.925 102.166C105.431 101.652 104.382 102.188 104.356 102.194C104.444 102.037 103.971 100.963 103.744 100.829C103.62 100.757 103.121 101.139 103.066 101.095C101.784 100.046 100.842 98.7857 100.279 97.2803C100.281 97.2478 100.896 96.926 100.881 96.8594C100.675 95.913 99.6401 95.8498 98.8174 95.4649C97.9924 95.0757 97.8301 94.4739 98.6299 93.4747C98.2096 93.0669 98.2398 92.0865 98.2754 91.5196C98.3098 90.9519 97.1097 91.5949 97.0654 91.5733C95.6604 90.9017 95.9511 89.8716 95.3633 88.6524C95.0895 88.0779 94.2681 87.0887 93.7881 86.5752C93.4086 86.173 93.5113 85.7236 93.0781 85.3956C93.0195 85.3518 92.5392 85.7177 92.5049 85.7149C91.5949 85.6044 93.0041 85.0768 93.1719 84.8419C93.7821 83.9879 94.095 83.5119 93.334 83.1192C93.1592 83.0293 91.0812 83.7063 90.8203 83.5127C90.4842 83.2579 91.2184 82.9975 90.8477 82.7364C90.8165 82.7136 90.4149 82.9609 90.3018 82.7305C89.7758 81.6714 89.3527 80.4237 88.6895 79.4004C88.5988 79.2579 88.0669 79.8258 87.9258 79.626C87.27 78.6963 86.6574 77.61 86.3965 76.4835C86.3323 76.2016 86.8699 76.0827 86.9736 75.9522C87.5958 75.1572 86.1608 75.4157 86.0957 75.3575C85.5711 74.8966 85.2397 74.3549 84.9971 73.8223C84.4799 72.6993 84.2673 71.5072 83.2324 70.5411C83.1684 70.4837 82.3253 70.4724 82.1221 70.1456C82.0544 70.2113 81.9837 70.278 81.9063 70.3419C81.8549 70.3856 81.2593 69.9565 81.1758 70.3702C81.0406 71.0517 80.4433 71.8205 80.8232 72.6856C80.9381 72.9426 82.1175 73.1294 81.2315 73.502C81.046 73.5822 79.646 73.2438 80.7891 74.002C80.8987 74.0757 81.4509 74.5142 81.6768 74.9444C81.8439 75.243 81.8373 75.537 81.3584 75.6758C81.0597 75.7623 79.8516 75.9222 79.9932 76.2354C80.0179 76.2778 80.6733 76.2148 80.7022 76.4581C80.796 77.2829 80.6013 78.1615 80.6826 79.0147C80.705 79.2474 81.4106 79.0062 81.4229 79.3506C81.4557 80.3103 81.1263 81.4238 80.793 82.293C80.6692 82.6114 80.1585 82.3076 80.0947 82.3223C79.0763 82.5718 80.344 82.9885 80.4014 83.129C80.739 84.0112 80.0456 84.5092 80.1006 85.2833C80.1148 85.4951 80.754 85.4376 80.8037 85.4864C81.2834 85.9891 80.2153 85.5147 80.0547 85.7618C79.603 86.4464 79.5322 87.307 79.5059 88.0626C79.4967 88.3426 80.2587 88.135 80.2432 88.3848C80.1575 89.8797 79.8707 91.406 79.2715 92.7803C79.1572 93.0401 78.6282 92.7922 78.4932 92.8301C77.5534 93.093 78.6776 93.8407 78.7744 93.9864C79.2152 94.6537 78.6934 94.8159 78.71 95.3565C78.8 97.9942 78.0248 101.127 77.4795 103.528C76.7722 106.658 75.8962 109.04 75.6035 112.078C75.5842 112.271 76.348 112.183 76.3408 112.351C76.2152 114.507 75.6271 116.577 75.5352 118.743C75.5262 118.922 76.2605 118.768 76.2695 119.058C76.2927 119.654 76.1514 120.375 75.8447 120.93C75.6963 121.201 75.1517 120.731 75.0147 121.006C74.6939 121.647 74.5436 122.347 74.5566 123.054C74.5643 123.354 75.3413 123.014 75.2949 123.397C74.9958 125.993 74.7543 128.549 73.4531 131.031C73.3619 131.203 71.8893 131.154 72.1123 131.576C72.5109 131.663 72.9855 131.729 73.4141 131.804C73.1941 134.489 72.6072 137.108 72.0596 139.729C71.8281 140.845 71.608 141.926 71.4209 143.033C71.3942 143.194 72.2034 143.029 72.1553 143.341C71.8793 145.126 71.8315 146.902 70.79 148.613C70.6875 148.781 69.3528 148.477 69.4736 149.054C69.4963 149.157 69.5537 149.984 69.8135 150.243C69.855 150.278 70.5052 150.229 70.4844 150.49C70.3473 152.01 69.9528 153.584 69.3135 155.059C69.2102 155.289 68.5821 154.922 68.5029 155.084C67.938 156.28 68.2124 157.731 67.3535 158.878C66.7731 159.644 65.6873 159.09 64.4648 159.277C64.2931 159.302 64.1561 159.792 63.4951 159.665C61.8327 159.35 60.0791 158.711 58.3008 158.402C57.9195 158.331 58.1812 159.055 57.3535 158.471C57.2993 158.427 57.0961 157.918 56.8066 157.752C56.6076 157.633 55.9122 157.611 55.6689 157.407C55.4247 157.208 56.0197 157.17 55.7441 156.87C55.4644 156.567 54.6816 156.518 54.6836 156.029C54.6955 154.886 55.1844 153.336 55.6865 152.157C55.8427 151.791 56.2287 152.052 56.3564 151.794C56.6017 151.31 56.4753 150.786 56.752 150.293C56.8448 150.136 57.4749 150.449 57.5576 150.281C58.0073 149.335 57.9837 148.366 58.2783 147.385C59.2048 144.286 59.9284 141.21 60.6055 138.052C60.9908 136.261 61.3586 134.453 61.7373 132.615C62.08 130.947 62.9727 129.026 62.959 127.247C62.9562 127.043 62.3575 127.078 62.3135 127.033C61.6629 126.331 62.8123 126.698 63.0254 126.329C63.8687 124.849 64.1692 123.135 64.1592 121.598C64.1528 120.943 62.9028 121.416 63.6445 120.87C63.6948 120.832 64.2918 121.082 64.3828 120.917C64.5879 120.544 64.5844 119.774 64.6777 119.472C64.861 118.887 64.8679 118.796 64.9551 118.235C65.0796 117.471 65.5175 116.601 65.4941 115.76C65.4873 115.58 64.8191 115.722 64.751 115.426C64.6831 115.13 64.8432 114.394 65.0283 114.167C65.2138 113.939 65.6976 114.116 65.8184 114.088C66.8361 113.862 65.621 112.813 65.6035 112.697C65.3257 110.607 66.3334 108.988 66.5996 107.099C66.8002 105.664 66.7667 104.095 66.9951 102.734C67.2694 101.116 67.8083 99.7876 67.9736 98.1973C67.9918 98.0298 67.2173 98.1187 67.2373 97.9141C67.457 95.7406 67.8434 93.6017 68.6533 91.5186C68.7352 91.3097 69.3524 91.6813 69.4736 91.4786C70.1988 90.2428 71.7907 88.3309 69.0469 87.1358C69.2841 86.2654 69.5555 85.1795 70.2432 84.4708C70.6862 84.0122 71.3301 84.6132 71.1162 83.9307C71.0687 83.7769 70.4165 83.8751 70.3926 83.6514C70.2918 82.7151 70.6353 81.7549 70.4385 80.8184C70.3965 80.6289 69.8291 80.5986 69.7354 80.5333C68.9775 79.9954 70.4348 79.4467 70.5547 79.3086C71.4547 78.2338 71.2921 77.3093 71.4697 76.1905C71.5108 75.9316 70.7148 76.1306 70.7275 75.878C70.7729 75.074 70.896 74.2134 71.1016 73.4346C71.2272 72.9461 71.3822 72.4768 71.5723 72.0333C71.6878 71.7686 72.2938 72.1129 72.3818 71.9913C72.7629 71.4429 71.5723 71.1255 71.9141 70.6016C71.9846 70.4909 72.5245 70.6361 72.5879 70.6231C73.5824 70.4246 72.2832 69.9331 72.2666 69.8379C72.0217 68.6648 73.5242 68.1477 73.4775 67.0586C73.471 66.924 72.7347 67.1198 72.7588 66.7481C72.9119 64.3085 73.466 61.7994 74.3662 59.4922C74.5047 59.1371 74.989 59.475 75.0566 59.461C76.1142 59.2408 74.8052 58.7811 74.7715 58.6563C74.7364 58.5003 74.7385 58.3516 74.7588 58.2081C74.3148 57.7659 73.9651 57.282 73.7051 56.8516C73.5634 56.6152 73.4391 56.3878 73.4307 56.2979C73.442 56.2656 73.4374 56.2414 73.7246 56.4688C73.8019 56.5283 73.8922 56.5995 74.0762 56.7325C74.1645 56.7957 74.2681 56.867 74.3926 56.9463C74.5458 57.0449 74.7502 57.1689 75.0068 57.2989C75.0089 57.2999 75.0116 57.3008 75.0137 57.3018C75.1093 56.8882 75.045 56.4887 74.2949 56.043C74.8526 54.1712 74.887 52.8228 75.5029 50.253C75.5723 50.0447 75.6773 49.7965 75.8643 49.5235C76.0339 49.2653 76.4099 48.8663 76.8565 48.6377ZM64.5391 157.234C64.5076 157.231 64.4097 157.586 64.4395 157.597C65.1501 157.929 65.3448 157.225 64.5391 157.234ZM137.636 150.293C138.155 150.023 138.715 149.952 138.979 150.247L138.975 150.18C139.105 150.295 139.17 150.478 139.142 150.742C139.114 151.014 138.193 150.272 137.977 150.635C137.59 151.345 139.399 151.531 138.605 152.056C138.538 152.112 138.092 152.272 137.606 152.17C137.129 152.093 136.67 151.91 136.666 151.863C136.667 151.864 136.669 151.866 136.67 151.866C136.594 151.174 137.085 150.586 137.635 150.28L137.636 150.293ZM133.753 142.952C134.022 142.53 133.246 142.318 132.912 142.847C132.651 143.285 133.422 143.486 133.753 142.952ZM129.847 138.482C130.185 137.465 127.261 139.189 128.234 139.441C128.29 139.456 129.825 138.543 129.847 138.482ZM126.04 133.876C126.63 132.827 125.115 133.328 124.631 134.094C124.144 134.852 125.864 134.199 126.04 133.876ZM114.379 106.54C115.228 106.47 115.544 106.818 114.879 107.573C114.727 107.223 114.534 106.888 114.379 106.54ZM98.4219 88.9629C98.7587 88.2552 96.6728 89.4289 97.4053 89.5381C97.4432 89.542 98.4059 88.9986 98.4219 88.9629ZM100.598 86.9444C99.8494 87.1728 100.157 87.8046 100.759 87.2725C100.781 87.2487 100.629 86.9354 100.598 86.9444ZM88.9971 68.129C89.024 68.1045 88.9243 67.8742 88.7539 67.9815C88.2044 68.3275 88.5394 68.5328 88.9971 68.129ZM76.8291 57.6534C76.6915 57.6428 76.5207 57.7091 76.3369 57.8077C76.6201 57.8841 76.9426 57.9536 77.3106 57.9981C77.3163 57.9988 77.3223 57.9984 77.3281 57.9991C77.2212 57.8143 77.0599 57.6754 76.8291 57.6534ZM82.126 54.0294C80.8592 54.3632 81.6474 55.8 82.542 54.7872C82.5952 54.744 82.1868 54.0072 82.126 54.0294ZM84.7803 52.9307C84.79 52.9525 84.8083 52.9832 84.7256 53.296C84.6174 53.6083 84.4916 53.9501 84.291 54.337C84.3649 54.0195 84.4545 53.7069 84.5498 53.4268C84.6064 53.2578 84.662 53.1126 84.7149 53.0059C84.7406 52.9555 84.7661 52.9195 84.7803 52.9307Z" fill="#FA8282"/>
<path d="M124.095 104.389C124.057 103.629 124.473 104.713 124.545 104.904C124.817 105.624 124.742 104.962 124.892 105.237C125.042 105.512 124.978 105.906 125.119 106.063C125.409 106.388 125.671 106.256 125.906 106.235C125.998 106.224 125.81 105.576 125.817 105.55C125.842 105.516 125.873 105.505 125.904 105.506C126.062 105.511 126.283 105.787 126.114 104.664C127.028 108.056 126.147 104.309 126.553 104.931C126.587 104.987 127.04 106.579 127.01 106.838C126.979 107.096 126.722 106.626 126.685 107.024C126.681 107.121 126.839 108.674 126.829 108.773C126.778 109.537 126.259 107.109 126.224 106.977C126.193 106.866 126.166 106.774 126.141 106.698C125.857 105.811 125.966 107.246 125.939 107.36C125.814 107.924 125.57 107.615 125.466 108.021C125.398 108.284 125.706 109.88 125.612 109.849C125.295 109.745 124.714 107.552 124.846 109.534C124.875 109.958 125.316 111.678 124.803 110.361C124.774 110.278 124.332 109.067 124.418 109.876C124.428 109.979 124.542 110.481 124.537 110.528C124.492 110.827 124.34 110.439 124.267 110.658C124.203 110.875 124.13 111.194 123.964 111.053C123.862 110.969 123.544 110.054 123.452 109.832C123.189 109.195 123.331 110.307 123.076 109.521C122.816 108.732 122.659 107.477 122.354 107C122.66 108.31 122.965 109.656 123.269 110.974C122.879 111.018 122.401 110.687 122.03 110.84C121.985 110.863 122.206 111.55 122.162 111.59C121.974 111.754 121.657 111.303 121.488 111.557C121.352 111.757 121.351 112.547 121.215 112.78C120.766 111.448 120.618 111.803 120.413 111.814C120.394 111.815 120.374 111.812 120.354 111.805C120.274 111.775 120.177 111.375 120.095 111.258C119.788 110.824 120.21 112.12 120.213 112.341C120.216 113.281 119.442 110.304 119.2 110.443C119.186 110.45 119.427 112.083 119.431 112.187C119.453 112.869 119.264 111.64 119.143 111.546C118.922 111.374 118.704 111.026 118.631 111.541C118.61 111.693 118.729 112.719 118.419 111.983C118.378 111.887 118.25 111.364 118.23 111.332C117.887 110.874 118.308 112.525 118.332 113.115C118.354 113.705 117.871 112.616 117.748 112.298C117.427 111.475 117.73 111.914 117.714 111.83C117.519 110.823 117.427 111.028 117.3 110.972C116.864 109.359 116.742 109.494 117.171 110.92C117.218 111.075 117.26 110.903 117.3 110.972C117.622 112.582 117.51 112.828 116.948 111.392C116.683 110.718 116.552 109.888 116.375 110.251C116.295 110.416 116.628 111.515 116.607 111.846C116.559 112.598 115.982 111.641 115.788 111.865C115.717 111.947 115.961 112.535 115.918 112.612C115.803 112.819 115.544 112.398 115.448 112.674C115.44 112.701 115.641 113.327 115.594 113.349C115.24 113.521 114.81 113.198 114.417 113.289C114.228 113.333 113.982 113.773 113.769 113.754C113.399 113.724 112.74 112.906 112.509 113.207C112.359 113.401 112.569 114.028 112.602 114.483C112.668 115.367 111.995 113.931 111.896 113.707C111.893 113.7 112.015 113.507 111.842 113.202C111.613 112.535 111.896 113.697 111.896 113.707C111.832 113.563 111.47 113.503 111.437 113.642C111.42 113.717 111.597 114.316 111.586 114.345C111.294 114.999 110.9 115.267 110.385 115.101C110.374 115.09 110.21 114.419 110.185 114.396C109.851 114.163 109.906 115.032 109.823 115.578C109.741 116.124 109.531 116.004 109.102 114.876C108.981 115.063 108.619 114.61 108.407 114.333C108.195 114.057 108.52 115.377 108.515 115.406C108.372 116.332 107.967 115.634 107.563 115.614C107.371 115.602 107.066 115.885 106.912 116.079C106.788 116.235 106.616 115.951 106.527 116.184C106.516 116.219 106.686 116.797 106.686 116.821C106.712 117.562 106.416 116.11 106.317 115.862C105.958 114.962 105.756 114.485 105.669 114.975C105.648 115.087 106.05 117.186 105.994 117.329C105.922 117.51 105.773 116.761 105.704 116.969C105.698 116.986 105.816 117.441 105.741 117.44C105.389 117.438 104.96 117.265 104.624 117.399C104.578 117.416 104.823 118.125 104.759 118.161C104.462 118.328 104.102 118.39 103.701 118.131C103.602 118.064 103.522 117.545 103.467 117.398C103.139 116.514 103.321 117.865 103.304 117.905C103.225 118.053 103.135 118.134 103.039 118.173C102.612 118.341 102.059 117.732 101.692 118.312C101.667 118.354 101.759 119.84 101.356 118.644C101.328 118.565 100.916 117.342 101.024 118.22C101.031 118.275 101.253 118.902 101.118 118.865C100.987 118.828 100.887 119.305 100.558 118.636C100.452 118.425 100.034 117.206 100.114 118.237C100.121 118.309 100.399 120.618 99.9537 119.084C99.8809 118.831 99.5151 117.184 99.5231 118.07C99.5254 118.242 99.6733 118.593 99.6324 118.844C99.5707 119.23 99.2779 118.833 99.2662 119.606C99.2644 119.743 99.3859 120.891 99.0885 120.066C99.042 119.937 98.9493 119.381 98.8795 119.332C98.5499 119.096 98.3544 119.525 98.0055 119.203C97.8819 119.09 97.7335 118.19 97.5836 117.973C97.4338 117.756 97.1885 117.57 97.1764 117.998C97.1643 118.427 97.5847 119.819 97.4586 119.968C96.9055 120.605 96.0912 119.91 95.4283 119.93C95.3311 119.933 95.5209 120.422 95.3864 120.463C94.8832 120.614 94.1244 121.286 93.4342 120.313C92.8814 119.534 93.1713 118.775 92.8219 118.487C92.6531 118.35 92.8911 120.028 92.8727 120.087C92.6917 120.683 92.3074 120.007 92.0787 120.296C92.071 120.306 92.0698 120.332 92.0739 120.368C92.0945 120.554 92.2395 121.016 92.2037 121.053C92.0598 121.208 91.7998 120.956 91.649 121.049C91.5814 121.092 91.7142 121.596 91.6373 121.575C91.4524 121.526 91.2545 121.346 90.986 120.906C90.9614 120.866 90.9105 120.21 90.7848 120.215C90.5794 120.224 90.231 119.81 90.1198 120.349C90.088 120.511 90.3541 121.673 90.027 120.903C89.958 120.742 89.6702 119.338 89.7867 120.583C89.8066 120.792 89.9045 122.481 89.527 121.465C89.4269 121.197 89.0696 120.076 89.0319 120.273C89.0278 120.304 89.2157 120.918 89.1647 120.995C88.9791 121.253 88.7258 121.243 88.5328 121.494C88.4831 121.563 88.7273 122.186 88.6481 122.268C88.4296 122.491 88.0675 122.402 87.7692 122.259C87.6586 122.204 87.5972 121.654 87.5768 121.598C87.245 120.677 87.4802 121.971 87.4625 122.054C87.3459 122.552 87.0325 121.993 86.8649 122.2C86.8197 122.258 87.0025 122.854 87.0045 122.912C87.0141 123.471 86.8414 122.356 86.7389 122.253C86.4508 121.961 86.2303 122.065 86.0406 122.192C85.9709 122.24 86.2257 122.925 86.1617 122.961C85.7827 123.18 85.3457 123.214 84.8561 122.922C84.7635 122.865 84.6773 122.311 84.6315 122.19C84.3118 121.349 84.4451 122.571 84.4371 122.692C84.4002 123.247 84.2187 122.783 84.0963 122.908C83.5025 123.528 82.5625 123.428 81.8571 123.402C80.9408 123.372 80.1433 123.034 79.3824 123.39C79.3343 123.411 79.5837 124.11 79.5465 124.142C79.0362 124.471 78.4125 124.349 77.9332 124.718C77.8955 124.749 78.1613 125.403 78.1051 125.472C77.9903 125.618 77.7987 125.637 77.5895 125.466C77.4864 125.383 77.403 124.776 77.3024 124.706C77.0664 124.542 76.8763 124.549 76.7408 124.712C76.6851 124.783 77.0129 125.434 76.9235 125.472C76.4177 125.698 75.9634 125.956 75.3131 125.635C75.1658 125.583 75.0116 125.511 74.8492 125.413C74.7791 125.371 74.2279 124.013 74.2242 124.312C74.3581 124.697 74.5246 125.146 74.6725 125.555C73.7401 126.15 72.5668 126.047 71.5192 126.357C71.4759 126.37 71.822 127.07 71.7399 127.099C71.2532 127.27 70.8616 127.648 70.0905 127.114C70.0141 127.061 69.5577 125.774 69.4869 126.021C69.4722 126.068 69.3158 126.321 69.3658 126.619C69.3736 126.664 69.6385 127.244 69.5739 127.29C69.1921 127.537 68.6933 127.569 68.1051 127.368C68.0109 127.333 67.8562 126.668 67.7877 126.638C67.2887 126.433 67.0722 127.067 66.2623 126.661C65.6535 126.394 65.5381 125.21 65.0153 124.136C64.9843 124.058 64.8529 124.035 64.6832 123.935C64.582 123.887 64.4612 123.817 64.3678 123.711C64.2459 123.604 64.1564 123.456 64.1744 123.288C64.2734 122.446 64.5839 121.602 64.6129 120.696C64.6774 119.797 64.5476 118.873 64.8102 117.988C64.8452 117.897 65.0468 117.85 65.486 117.93C65.9323 118.015 67.1384 118.404 67.9606 119.714C68.6733 120.923 68.5854 121.683 68.7115 121.782C68.7584 121.834 68.8333 121.757 68.8854 121.406C68.9101 121.054 69.0219 120.377 68.3942 119.163C68.3492 119.084 68.2013 118.836 67.9244 118.519C67.7865 118.362 67.6161 118.191 67.4205 118.025C67.2417 117.873 67.0682 117.744 66.8727 117.618C66.4974 117.371 66.0308 117.172 65.7389 117.069C65.4586 116.966 65.2027 116.894 64.985 116.841C64.2275 116.655 64.03 116.566 63.9039 116.411C63.7426 116.21 63.9015 115.498 63.5778 115.26C63.299 115.019 63.2795 115.613 63.1178 115.312C62.9735 115.004 62.7574 114.257 62.6862 114.182C62.5966 113.995 63.1051 114.055 63.5055 114.232C63.6324 114.288 63.7307 114.703 63.8278 114.757C64.0231 114.86 64.0743 114.619 64.2809 114.752C64.3494 114.8 64.528 115.448 64.5944 115.482C64.9673 115.659 65.1525 115.407 65.4811 115.435C67.0773 115.586 68.5274 115.307 70.0231 115.077C70.4196 115.017 71.0041 115.247 71.4196 115.103C71.521 115.068 71.6144 115.013 71.6949 114.932C71.7436 114.877 71.5107 114.342 71.5045 114.289C71.4398 113.522 71.7812 114.663 71.9498 114.771C72.6256 115.195 73.1468 115.078 73.5172 114.72C73.6753 114.565 73.1308 113.511 73.5201 114.076C73.5466 114.114 73.6893 114.726 73.7604 114.773C73.9206 114.88 74.1069 114.704 74.2125 114.724C74.4149 114.764 74.4399 114.75 74.6051 114.707C74.8347 114.653 75.1847 114.872 75.3834 114.666C75.4254 114.62 75.1756 114.025 75.2262 113.895C75.2776 113.767 75.5075 113.756 75.6227 113.88C75.7376 114.004 75.8472 114.498 75.8922 114.605C76.2683 115.512 76.1403 114.143 76.1637 114.101C76.5932 113.387 77.2961 113.992 77.8385 113.843C78.2479 113.728 78.6239 113.366 79.025 113.298C79.5024 113.219 79.9838 113.454 80.4205 113.282C80.466 113.263 80.2258 112.548 80.2819 112.524C80.8809 112.282 81.5186 112.209 82.2545 112.554C82.3283 112.591 82.4059 113.251 82.4889 113.325C82.9953 113.762 83.8914 114.891 83.443 112.033C83.7247 112.081 84.0612 112.12 84.4235 112.632C84.6563 112.961 84.6816 113.697 84.7897 113.355C84.8142 113.279 84.6159 112.676 84.6637 112.608C84.8698 112.322 85.1929 112.456 85.3746 112.078C85.4108 112 85.2671 111.451 85.2584 111.349C85.1932 110.516 85.7075 111.798 85.776 111.884C86.286 112.523 86.4658 112.182 86.7858 112.126C86.8578 112.11 86.601 111.395 86.6647 111.354C87.0061 111.163 87.4001 111.138 87.8317 111.384C87.9275 111.44 88.0029 112.087 88.0563 112.147C88.2926 112.401 88.0526 111.201 88.2721 111.421C88.3181 111.468 88.425 112.011 88.4449 112.068C88.7581 112.977 88.5325 111.638 88.5514 111.602C88.7734 111.132 89.295 112.461 89.5504 112.196C89.5802 112.163 89.3399 111.5 89.4323 111.447C89.5851 111.363 89.7477 111.3 89.9088 111.26C90.4408 111.127 91.0343 111.207 91.6461 111.503C91.7695 111.564 91.8134 112.094 91.8346 112.156C92.1698 113.12 91.9373 111.781 91.9596 111.721C92.1468 111.299 92.6535 112.354 92.484 110.731C93.7615 111.019 94.7162 109.883 96.151 111.054C96.169 111.067 96.2875 111.727 96.3229 111.751C96.7482 112.042 96.4582 111.04 96.4069 109.746C96.3945 109.421 96.9023 110.884 96.943 110.99C97.0901 111.383 97.2503 112.369 97.2867 112.443C97.5828 113.023 96.8326 109.814 97.0397 109.765C97.0474 109.768 97.1543 110.367 97.1852 110.422C97.2818 110.594 97.2828 110.347 97.3815 110.538C97.6087 110.982 98.0148 112.533 97.9908 111.582C97.9872 111.457 97.5315 109.644 97.7379 109.687C97.8185 109.707 98.1402 109.599 98.2574 109.695C98.3763 109.791 98.4517 110.39 98.4645 110.417C98.8976 111.134 98.8773 111.479 99.274 112.598C99.6708 113.711 98.9889 110.991 98.9674 110.675C98.9481 110.359 99.2794 110.956 99.3785 111.167C99.4768 111.379 99.5094 111.764 99.5797 111.881C100.046 112.638 99.3719 110.499 99.3541 110.046C99.308 108.973 99.9593 110.955 100.195 111.107C100.259 111.147 100.105 110.698 100.14 110.643C100.284 110.436 100.538 111.04 100.604 110.411C100.617 110.307 100.475 109.056 100.803 109.919C100.85 110.043 100.932 110.558 101.037 110.651C101.082 110.691 101.133 110.725 101.186 110.747C101.313 110.804 101.449 110.793 101.507 110.651C101.568 110.504 101.255 109.702 101.435 109.931C101.515 110.034 101.542 110.541 101.681 110.692C101.818 110.844 102.056 110.761 102.146 110.721C102.233 110.679 102.025 110.069 102.021 110.021C102.004 109.768 102.102 109.42 102.118 109.417C102.883 109.141 103.882 110.011 104.558 109.463C104.611 109.418 104.4 108.77 104.407 108.757C104.541 108.427 104.834 110.227 105.13 110.778C104.761 109.442 104.908 109.662 105.015 109.477C105.066 109.387 104.894 108.878 104.886 108.823C104.785 108.007 105.124 109.007 105.196 109.211C105.463 109.96 105.302 109.035 105.482 109.535C105.661 110.032 105.75 110.813 105.886 110.768C105.8 110.277 105.371 109.051 105.423 108.819C105.623 107.946 106.62 108.737 106.969 108.755C107.314 108.774 107.396 108.657 107.628 108.782C108.045 109.007 107.679 108.11 107.776 107.629C107.874 107.148 108.372 109.464 108.532 109.948C108.69 110.432 108.59 109.918 108.698 110.179C108.805 110.439 108.814 110.793 108.926 110.873C109.039 110.952 109.046 110.015 108.942 109.492C108.72 108.385 108.314 107.269 108.647 107.611C108.666 107.632 108.782 108.243 108.848 108.292C109.369 108.65 109.793 108.57 110.299 108.875C110.369 108.918 110.496 109.596 110.539 109.633C110.984 109.974 110.569 108.876 110.422 107.574C110.82 109.254 111.189 110.248 111.444 110.191C111.597 110.157 111.379 109.436 111.342 108.896C111.331 108.735 111.57 109.206 111.5 108.858C111.269 107.721 110.838 106.494 111.229 106.924C111.247 106.944 111.372 107.568 111.422 107.595C111.74 107.77 111.463 106.591 111.702 106.376C111.889 106.208 112.462 106.821 112.738 106.873C113.226 108.751 113.344 108.26 113.099 106.941C113.274 106.952 113.426 106.835 113.629 106.973C113.698 107.022 113.805 107.572 113.827 107.629C114.171 108.52 113.912 107.252 113.932 107.187C114.178 106.61 114.734 107.483 114.848 106.457C114.85 106.411 114.534 105.115 114.877 106.038C114.9 106.102 114.937 106.726 115.117 106.728C115.294 106.731 115.799 107.346 115.871 106.682C115.889 106.52 115.758 105.426 116.088 106.223C116.132 106.331 116.213 106.71 116.29 106.912C116.533 107.556 116.229 106.229 116.603 107.327C116.978 108.425 117.372 109.218 117.404 108.385C117.404 108.354 117.19 107.301 117.269 107.298C117.396 107.295 117.619 107.469 117.739 107.431C117.795 107.411 117.591 106.772 117.598 106.758C117.906 106.291 118.336 106.797 118.826 106.939C118.893 106.959 118.91 106.443 119.047 106.45C119.096 106.452 119.159 106.516 119.244 106.685C119.605 107.41 120.245 110.643 120.428 109.789C120.505 109.446 119.678 105.348 120.483 107.377C120.89 106.723 121.645 107.676 122.003 106.803C122.019 106.763 121.825 105.615 121.884 105.614C121.974 105.619 122.148 106.137 122.217 106.158C122.504 106.259 122.637 105.748 122.895 105.763C122.996 105.768 123.09 106.322 123.207 106.328C123.321 106.334 123.234 105.593 123.463 105.908C123.637 106.149 124.081 107.603 124.262 107.744C123.948 106.282 124.054 106.29 124.157 105.864C124.176 105.782 124.028 105.281 124.032 105.216C124.041 104.939 124.2 105.346 124.203 105.048C124.204 104.976 124.1 104.476 124.095 104.389ZM65.7789 123.594C65.77 123.564 65.6425 123.572 65.649 123.602C65.8111 124.348 66.0778 124.328 65.7789 123.594ZM107.454 113.096C107.167 112.495 107.753 114.815 107.74 114.226C107.738 114.193 107.47 113.132 107.454 113.096ZM100.477 112.24C100.466 112.206 100.389 112.193 100.438 112.388C100.597 113.017 100.652 112.815 100.477 112.24ZM96.0309 111.75C96.0107 111.685 95.7701 111.674 95.776 111.736C95.9228 112.975 96.4115 113.002 96.0309 111.75ZM106.658 110.333C106.647 110.303 106.542 110.299 106.547 110.33C106.686 111.079 106.899 111.087 106.658 110.333ZM121.974 108.934C121.566 107.948 121.826 109.481 122.132 110.245C122.438 111.008 122.097 109.233 121.974 108.934ZM123.42 107.798C123.047 107.03 123.79 110.34 123.826 109.628C123.827 109.583 123.443 107.851 123.42 107.798ZM124.852 106.624C124.703 106.186 124.644 106.739 124.832 107.283C124.982 107.721 125.036 107.169 124.852 106.624ZM112.755 106.922C112.666 106.155 112.771 106.035 113.099 106.941C112.981 106.92 112.872 106.94 112.755 106.922ZM126.718 103.489C126.809 103.521 126.829 104.391 126.997 104.603C127.318 104.985 126.884 103.275 127.367 104.108C127.453 104.256 127.732 105.814 127.722 105.911C127.237 105.932 126.252 103.302 126.718 103.489Z" fill="#FA8282"/>
<path d="M158.739 64.4004C158.585 63.6602 159.063 64.7119 159.146 64.8955C159.463 65.5909 159.298 64.9474 159.454 65.21C159.61 65.4734 159.63 65.8605 159.762 66.0088C160.035 66.3146 160.208 66.171 160.374 66.1406C160.439 66.1256 160.182 65.4928 160.186 65.4756C160.261 65.2696 160.621 65.9124 160.262 64.6016C161.466 67.9 160.233 64.2528 160.639 64.8565C160.672 64.9055 161.22 66.4716 161.242 66.7227C161.263 66.9725 161.013 66.5098 161.054 66.8965C161.065 66.99 161.45 68.497 161.465 68.5928C161.581 69.3303 160.783 66.9809 160.734 66.8535C160.204 65.4803 160.6 67.1148 160.601 67.2363C160.609 67.7922 160.367 67.5048 160.351 67.9082C160.341 68.1701 160.834 69.7173 160.75 69.6924C160.469 69.6093 159.697 67.4783 160.082 69.418C160.163 69.832 160.749 71.5099 160.157 70.2324C160.118 70.1496 159.61 68.9745 159.783 69.7666C159.805 69.8673 159.961 70.3601 159.963 70.4053C159.968 70.698 159.79 70.3224 159.762 70.5381C159.735 70.7538 159.717 71.067 159.566 70.9307C159.475 70.8493 159.112 69.9528 159.013 69.7354C158.732 69.1103 158.975 70.2017 158.683 69.4297C158.391 68.6536 158.117 67.4229 157.831 66.9512C158.221 68.2384 158.614 69.5618 159.003 70.8574C158.697 70.9012 158.285 70.5719 158.011 70.7158C157.978 70.7376 158.22 71.4167 158.189 71.4551C158.057 71.614 157.768 71.163 157.654 71.4092C157.568 71.603 157.636 72.3815 157.549 72.6074C157.036 71.1543 156.976 71.7139 156.787 71.6221C156.721 71.5903 156.613 71.194 156.539 71.0752C156.264 70.6376 156.7 71.9276 156.72 72.1445C156.8 73.07 155.952 70.1143 155.781 70.2383C155.772 70.2439 156.084 71.8548 156.095 71.9629C156.161 72.6358 155.924 71.418 155.822 71.3203C155.637 71.1415 155.447 70.7882 155.426 71.292C155.42 71.4415 155.584 72.4555 155.293 71.7158C155.255 71.619 155.119 71.0955 155.101 71.0654C154.803 70.5977 155.242 72.2435 155.299 72.8262C155.355 73.4085 154.906 72.3105 154.791 71.9902C154.49 71.1627 154.753 71.6126 154.735 71.5283C154.52 70.5255 154.462 70.7231 154.361 70.6602C153.923 69.0481 153.841 69.1735 154.259 70.6016C154.304 70.7573 154.326 70.5914 154.361 70.6602C154.712 72.2633 154.638 72.5002 154.117 71.0527C153.873 70.3744 153.722 69.5492 153.611 69.8936C153.56 70.0496 153.88 71.1544 153.882 71.4785C153.884 72.2166 153.389 71.2368 153.252 71.4443C153.201 71.5205 153.417 72.1154 153.387 72.1885C153.308 72.3844 153.089 71.9523 153.027 72.2168C153.022 72.2415 153.205 72.871 153.171 72.8926C152.901 73.0377 152.553 72.6879 152.251 72.7471C152.106 72.776 151.927 73.1911 151.761 73.1543C151.469 73.095 150.941 72.2317 150.769 72.5078C150.656 72.6854 150.829 73.3228 150.862 73.7754C150.925 74.6523 150.379 73.1756 150.302 72.9443C150.299 72.9367 150.391 72.7579 150.254 72.4414C150.067 71.76 150.302 72.941 150.302 72.9443C150.292 72.9175 150.275 72.8924 150.254 72.8701C150.221 72.8665 150.124 72.9064 150.092 72.9014C150.002 72.7966 149.822 72.7454 149.802 72.8535C149.788 72.9259 149.91 73.5394 149.901 73.5654C149.684 74.171 149.394 74.3838 149.021 74.1533C149.013 74.1419 148.9 73.4519 148.883 73.4336C148.642 73.1618 148.674 74.0237 148.608 74.5508C148.543 75.0777 148.392 74.9322 148.091 73.7676C148.001 73.9369 147.74 73.4452 147.588 73.1455C147.435 72.846 147.66 74.1856 147.657 74.2149C147.545 75.1093 147.254 74.3701 146.959 74.2998C146.817 74.2645 146.593 74.5051 146.477 74.6768C146.386 74.8143 146.263 74.5132 146.195 74.7315C146.186 74.7607 146.307 75.3552 146.306 75.3789C146.318 76.1125 146.114 74.6448 146.044 74.3887C145.789 73.4573 145.646 72.9629 145.577 73.4346C145.561 73.5455 145.834 75.6565 145.794 75.793C145.74 75.963 145.638 75.2065 145.585 75.4024C145.58 75.4185 145.663 75.8832 145.607 75.8721C145.348 75.8263 145.034 75.6028 144.788 75.6934C144.754 75.704 144.927 76.4334 144.88 76.4609C144.659 76.5894 144.394 76.6076 144.103 76.3027C144.031 76.2253 143.978 75.7028 143.939 75.5518C143.704 74.6379 143.829 76.0035 143.815 76.0322C143.502 76.7517 142.971 75.5883 142.635 76.2412C142.617 76.2792 142.673 77.7546 142.387 76.5283C142.366 76.4426 142.077 75.1939 142.149 76.0713C142.154 76.1275 142.312 76.7698 142.214 76.7188C142.115 76.6668 142.044 77.1259 141.806 76.4277C141.731 76.2067 141.437 74.9578 141.486 75.9844C141.491 76.0559 141.681 78.3665 141.365 76.8027C141.313 76.5452 141.057 74.8768 141.058 75.7529C141.059 75.9228 141.165 76.2864 141.134 76.5293C141.085 76.9039 140.874 76.4802 140.862 77.2432C140.86 77.3783 140.94 78.5246 140.728 77.6777C140.695 77.5443 140.631 76.9864 140.581 76.9297C140.34 76.6612 140.195 77.0642 139.938 76.709C139.848 76.5839 139.746 75.6785 139.637 75.4482C139.527 75.2182 139.348 75.008 139.334 75.4307C139.32 75.8539 139.618 77.2771 139.52 77.4092C139.094 77.9829 138.476 77.2121 137.96 77.1582C137.883 77.1501 138.016 77.6567 137.908 77.6816C137.51 77.7768 136.875 78.352 136.383 77.3027C135.989 76.4623 136.255 75.7493 135.996 75.4199C135.873 75.2629 135.975 76.9478 135.957 77.0068C135.782 77.5731 135.517 76.8531 135.329 77.1074C135.29 77.1614 135.417 77.8337 135.383 77.8711C135.265 78.0046 135.089 77.7194 134.97 77.7891C134.917 77.8222 134.988 78.3405 134.931 78.3066C134.796 78.2316 134.661 78.0257 134.482 77.5537C134.466 77.5094 134.464 76.8578 134.37 76.8438C134.215 76.8244 133.98 76.3648 133.865 76.8799C133.831 77.0347 133.964 78.2212 133.762 77.4141C133.719 77.2433 133.589 75.8192 133.599 77.0635C133.602 77.2714 133.573 78.9543 133.349 77.8955C133.291 77.6166 133.092 76.4585 133.052 76.6484C133.047 76.6835 133.149 77.3125 133.105 77.3799C132.947 77.6076 132.758 77.5592 132.595 77.7783C132.554 77.8347 132.677 78.4179 132.635 78.541C132.552 78.503 132.467 78.4483 132.389 78.3857C132.309 78.3199 132.268 77.7693 132.254 77.7109C132.018 76.7632 132.182 78.0676 132.168 78.1475C132.078 78.6264 131.851 78.0383 131.726 78.2236C131.692 78.2732 131.822 78.8857 131.823 78.9434C131.825 79.496 131.708 78.3752 131.634 78.2617C131.425 77.9403 131.261 78.0186 131.119 78.1231C131.068 78.1637 131.249 78.8676 131.201 78.8955C130.921 79.0684 130.594 79.0513 130.235 78.7051C130.167 78.6386 130.11 78.0812 130.078 77.957C129.853 77.0885 129.934 78.3107 129.927 78.4297C129.891 78.9725 129.762 78.4935 129.67 78.6016C129.219 79.1426 128.514 78.9296 127.983 78.8145C127.295 78.6671 126.697 78.2292 126.104 78.4717C126.067 78.4876 126.233 79.2121 126.202 79.2354C125.796 79.4876 125.318 79.2758 124.916 79.5645C124.884 79.5913 125.056 80.271 125.008 80.3311C124.908 80.4574 124.755 80.4456 124.595 80.2451C124.517 80.1484 124.49 79.5393 124.415 79.4541C124.238 79.2548 124.085 79.2311 123.965 79.3672C123.914 79.4284 124.129 80.1206 124.053 80.1426C123.539 80.3062 123.041 80.5207 122.345 79.6973C122.297 79.6382 122.004 78.2046 121.976 78.4951C122.043 78.8965 122.128 79.3676 122.203 79.7959C121.477 80.1649 120.632 79.803 119.847 79.8691C119.817 79.8796 120.012 80.6242 119.95 80.6348C119.59 80.69 119.274 80.9677 118.765 80.2783C118.715 80.2095 118.479 78.8653 118.408 79.0889C118.395 79.1296 118.267 79.3396 118.281 79.6387C118.284 79.6836 118.432 80.3032 118.385 80.333C118.096 80.4866 117.755 80.4037 117.377 80.0801C117.316 80.0251 117.239 79.3495 117.194 79.3057C116.882 78.9992 116.709 79.559 116.356 79.001C116.121 78.6243 115.947 77.4615 115.637 76.3447C115.593 76.1872 115.491 76.1809 115.354 75.5225C115.01 73.867 114.695 72.0418 114.323 70.2783C114.243 69.8986 114.19 70.3352 114.086 69.3994C114.079 69.3364 114.116 69.012 114.079 68.6953C114.053 68.4762 113.889 67.8118 113.869 67.5283C113.849 67.2453 114.001 67.7993 113.996 67.4629C113.988 67.1231 113.811 66.366 113.909 66.252C114.144 65.993 114.534 66.144 114.864 66.3916C114.965 66.4686 115.004 66.8928 115.077 66.9649C115.219 67.1053 115.288 66.8802 115.436 67.0518C115.485 67.1112 115.567 67.7794 115.615 67.8262C115.88 68.0772 116.05 67.871 116.29 67.9707C117.471 68.4636 118.55 68.5205 119.659 68.6299C120.028 68.6647 120.558 69.1883 120.871 68.8613C120.907 68.8212 120.779 68.2504 120.778 68.1982C120.773 67.4438 120.942 68.6203 121.051 68.7627C121.484 69.3195 121.854 69.309 122.129 69.0293C122.245 68.908 121.908 67.7798 122.155 68.4033C122.172 68.4473 122.248 69.0677 122.296 69.127C122.404 69.2602 122.541 69.1227 122.614 69.1602C122.755 69.2356 122.776 69.2252 122.892 69.2119C123.053 69.1991 123.298 69.4722 123.445 69.3027C123.476 69.2648 123.318 68.6415 123.357 68.5234C123.396 68.4059 123.559 68.4324 123.637 68.5723C123.716 68.7122 123.78 69.2124 123.809 69.3252C124.053 70.2735 124.001 68.9108 124.017 68.874C124.338 68.2407 124.828 68.9365 125.222 68.8672C125.518 68.8132 125.798 68.5078 126.087 68.4941C126.435 68.4796 126.776 68.7745 127.097 68.6602C127.131 68.6489 126.966 67.9108 127.007 67.8955C127.441 67.7334 127.904 67.7401 128.437 68.168C128.49 68.2139 128.541 68.8734 128.6 68.957C128.963 69.4487 129.612 70.6678 129.306 67.7949C129.511 67.8754 129.758 67.9528 130.017 68.499C130.185 68.8509 130.197 69.5804 130.279 69.2549C130.297 69.1807 130.158 68.5671 130.193 68.5039C130.344 68.2448 130.583 68.4137 130.717 68.0615C130.744 67.9884 130.642 67.4306 130.637 67.3281C130.595 66.4985 130.964 67.8203 131.012 67.9141C131.068 68.0176 131.118 68.0985 131.164 68.1611C131.195 68.1452 131.303 68.1529 131.335 68.1387C131.571 68.5079 131.709 68.2837 131.903 68.2783C131.955 68.2744 131.813 67.5272 131.861 67.499C132.114 67.3625 132.391 67.3981 132.687 67.7041C132.753 67.7739 132.773 68.422 132.808 68.4902C132.964 68.7749 132.853 67.5561 132.999 67.8057C133.029 67.858 133.079 68.4098 133.091 68.4697C133.27 69.411 133.175 68.0581 133.189 68.0264C133.37 67.5941 133.682 68.9816 133.878 68.7568C133.901 68.7285 133.758 68.0384 133.828 68.001C134.3 67.7491 134.837 67.8766 135.4 68.3691C135.487 68.445 135.502 68.9738 135.515 69.0381C135.726 70.035 135.598 68.679 135.616 68.625C135.762 68.2336 136.099 69.3399 136.013 67.7158C136.916 68.1612 137.602 67.1424 138.638 68.4531C138.651 68.4681 138.733 69.1303 138.759 69.1611C139.068 69.4946 138.863 68.472 138.833 67.1875C138.825 66.8664 139.187 68.3609 139.217 68.4746C139.322 68.8781 139.432 69.8683 139.459 69.9482C139.671 70.5546 139.144 67.2993 139.296 67.2744C139.302 67.2818 139.375 67.8802 139.397 67.9395C139.467 68.1203 139.468 67.8766 139.54 68.0762C139.705 68.5396 139.989 70.1168 139.98 69.1738C139.978 69.0473 139.658 67.209 139.807 67.2744C139.867 67.3021 140.103 67.2322 140.189 67.3408C140.276 67.4492 140.326 68.047 140.336 68.0762C140.646 68.8332 140.63 69.1709 140.912 70.3203C141.194 71.4655 140.715 68.7027 140.702 68.3877C140.689 68.0737 140.929 68.7008 141 68.9209C141.07 69.1412 141.092 69.5256 141.142 69.6484C141.475 70.4502 141 68.2611 140.991 67.8115C140.968 66.7477 141.427 68.7769 141.599 68.9561C141.646 69.0041 141.537 68.5424 141.563 68.4932C141.667 68.3051 141.854 68.9301 141.904 68.3184C141.912 68.2158 141.825 66.9674 142.056 67.8574C142.09 67.9865 142.145 68.5013 142.22 68.6065C142.334 68.7639 142.504 68.8493 142.565 68.6631C142.61 68.5242 142.389 67.6984 142.517 67.9443C142.575 68.0545 142.591 68.5579 142.691 68.7246C142.791 68.8906 142.966 68.8384 143.031 68.8096C143.096 68.7805 142.949 68.1514 142.946 68.1055C142.936 67.8537 143.013 67.5234 143.024 67.5215C143.587 67.3432 144.31 68.3238 144.811 67.8682C144.85 67.8336 144.705 67.1778 144.707 67.1543C144.808 66.8457 145.007 68.6548 145.22 69.2344C144.961 67.8731 145.067 68.1078 145.147 67.9395C145.186 67.8571 145.063 67.3333 145.058 67.2783C144.992 66.4628 145.23 67.4897 145.282 67.6992C145.472 68.4698 145.362 67.5391 145.489 68.0537C145.616 68.5648 145.674 69.3457 145.774 69.3184C145.716 68.8247 145.412 67.5616 145.453 67.3408C145.607 66.507 146.334 67.4093 146.588 67.4717C146.842 67.5335 146.903 67.4299 147.071 67.582C147.376 67.8569 147.117 66.926 147.194 66.4649C147.272 66.0037 147.612 68.3478 147.723 68.8447C147.834 69.3406 147.766 68.8219 147.842 69.0918C147.918 69.3622 147.92 69.7136 148.002 69.8057C148.083 69.8968 148.098 68.976 148.028 68.4482C147.879 67.33 147.594 66.1786 147.836 66.5576C147.85 66.5802 147.927 67.1986 147.975 67.2539C148.352 67.6735 148.665 67.649 149.032 68.0147C149.083 68.0659 149.167 68.7528 149.198 68.791C149.323 68.9438 149.355 68.8658 149.344 68.6367C149.318 68.2762 149.163 67.5486 149.076 66.7568C149.409 68.4503 149.704 69.4672 149.894 69.4365C150.008 69.4187 149.827 68.686 149.785 68.1514C149.772 67.9915 149.962 68.4779 149.9 68.1289C149.696 66.9877 149.342 65.7385 149.638 66.2002C149.652 66.2223 149.765 66.8478 149.802 66.8789C150.041 67.0822 149.795 65.896 149.957 65.708C150.083 65.5609 150.524 66.2177 150.727 66.293C151.17 68.1818 151.239 67.7085 150.994 66.3916C151.12 66.4174 151.227 66.3144 151.38 66.4668C151.433 66.5188 151.541 67.0711 151.56 67.1289C151.86 68.0356 151.602 66.7587 151.614 66.7031C151.762 66.1568 152.22 67.0579 152.239 66.0586C152.238 66.0171 151.921 64.7154 152.231 65.6494C152.253 65.714 152.321 66.3293 152.452 66.3447C152.583 66.3605 152.992 67.0009 153.001 66.3535C153.004 66.1973 152.827 65.1128 153.126 65.918C153.166 66.028 153.253 66.404 153.324 66.6074C153.551 67.2564 153.228 65.9327 153.586 67.0352C153.944 68.1375 154.295 68.9404 154.26 68.1231C154.258 68.095 154.019 67.0468 154.076 67.0479C154.168 67.0522 154.348 67.2364 154.435 67.2051C154.475 67.1859 154.273 66.555 154.276 66.5371C154.46 66.097 154.82 66.6172 155.197 66.7803C155.267 66.8111 155.175 65.8869 155.482 66.5508C155.819 67.2773 156.604 70.4757 156.668 69.6426C156.696 69.3078 155.667 65.2577 156.472 67.2764C156.705 66.6493 157.38 67.603 157.544 66.7529C157.551 66.7152 157.266 65.5844 157.31 65.5869C157.378 65.5933 157.57 66.1024 157.624 66.125C157.851 66.2269 157.88 65.7295 158.073 65.7451C158.146 65.7498 158.292 66.2944 158.38 66.2998C158.467 66.3042 158.298 65.5814 158.512 65.8897C158.674 66.1261 159.211 67.5432 159.374 67.6777C158.924 66.2518 159.008 66.2571 159.016 65.8399C159.017 65.758 158.832 65.2718 158.825 65.208C158.791 64.9381 158.967 65.3335 158.924 65.042C158.913 64.9718 158.757 64.4862 158.739 64.4004ZM132.635 78.541C132.708 78.5747 132.78 78.5953 132.847 78.5908L132.485 78.6387C132.536 78.627 132.584 78.6023 132.627 78.5586C132.631 78.5547 132.632 78.5484 132.635 78.541ZM115.968 75.9434C115.96 75.9127 115.882 75.8967 115.887 75.9277C115.995 76.6809 116.151 76.7126 115.968 75.9434ZM141.797 70.1074C141.789 70.0727 141.732 70.0504 141.766 70.2481C141.877 70.8877 141.919 70.6949 141.797 70.1074ZM157.766 68.8428C157.347 67.8668 157.714 69.3766 158.03 70.1328C158.347 70.8875 157.894 69.139 157.766 68.8428ZM138.546 69.1289C138.531 69.0632 138.358 69.026 138.361 69.0879C138.458 70.3294 138.814 70.4082 138.546 69.1289ZM158.735 67.7393C158.354 66.9865 159.342 70.2325 159.283 69.5322C159.278 69.4877 158.757 67.7829 158.735 67.7393ZM146.263 68.9697C146.358 69.7244 146.513 69.7588 146.344 68.9863C146.336 68.9558 146.26 68.9391 146.263 68.9697ZM159.655 66.5664C159.473 66.143 159.515 66.6856 159.742 67.2119C159.925 67.6352 159.882 67.0928 159.655 66.5664ZM150.742 66.3418C150.642 65.5807 150.71 65.4723 150.993 66.3906C150.906 66.3591 150.828 66.3696 150.742 66.3418ZM160.626 63.4473C160.701 63.4822 160.793 64.335 160.946 64.5498C161.227 64.9404 160.745 63.246 161.185 64.0918C161.266 64.2476 161.639 65.8684 161.621 65.875C161.621 65.8738 161.62 65.8723 161.62 65.8711C161.285 65.8504 160.216 63.2554 160.626 63.4473Z" fill="#FA8282"/>
<path d="M98.0546 1.00843C99.7036 0.445109 99.637 2.93641 99.7021 3.08362C100.453 4.64941 102.408 3.20967 102.892 3.15784C105.084 2.91293 106.833 3.52196 108.663 3.42542C109.86 3.367 110.235 1.78324 111.148 1.98597C111.851 2.14308 112.429 2.39783 112.939 2.67835C114.663 3.62857 115.526 4.76028 118.281 3.96351C119.048 3.76896 118.973 1.82054 120.924 4.00354C121.068 4.14231 122.246 5.99491 123.458 5.66858C123.613 5.62708 123.825 5.1551 123.994 5.18421C124.464 5.27006 124.815 5.43778 125.154 5.6305C125.622 5.89663 126.058 6.20645 126.72 6.39905C127.854 6.72899 129.239 7.0863 130.342 7.84046C131.007 8.29415 131.476 9.61757 131.705 10.0016C132.344 11.096 133.88 10.6422 134.084 11.6823C134.286 12.7267 132.55 13.2268 133.834 14.5172C134.525 13.3618 135.309 12.2156 136.041 11.0739C137.453 11.8547 138.823 12.7055 140.187 13.5905C142.104 14.8334 144.039 16.1649 146.023 17.5123C146.445 17.7977 146.434 16.9058 146.899 17.2008C148.868 18.465 150.104 20.118 151.992 21.4313C152.123 21.522 152.26 21.6108 152.4 21.6989C153.801 22.5703 155.546 23.229 156.915 24.2086C156.734 26.1019 159.093 27.5227 160.442 28.9703C160.915 29.4759 160.6 29.7456 160.867 30.1783C161.874 31.8046 162.176 30.2245 162.693 30.4176C164.911 31.2695 162.917 33.614 164.791 35.3619C164.819 35.3882 165.021 35.4082 165.302 35.4254C166.031 35.4712 167.304 35.5203 167.474 35.5895C168.988 36.1946 167.236 36.1636 167.792 36.9157C168.803 38.2976 169.311 39.4184 170.989 40.609C171.477 40.9507 173.181 41.3738 173.287 42.7604C173.301 42.9418 172.828 43.22 172.879 43.3326C173.815 45.3422 175.178 44.3394 176.394 44.9733C176.778 45.1762 177.059 45.5373 177.264 45.9557C177.7 46.8512 177.77 48.0012 177.737 48.3492C177.619 49.6772 176.981 47.9474 176.878 47.9557C175.676 48.0518 176.632 49.0458 177.171 49.9469C175.904 51.0438 176.821 52.1641 177.732 50.8776C177.83 50.7339 177.231 50.1605 177.171 49.9469C179.035 49.731 180.165 50.9633 179.893 53.3014C179.758 54.3946 178.638 54.1988 180.266 56.1334C180.999 57.0182 181.731 56.0267 182.54 56.7213C184.18 58.1359 184.861 60.7914 185.88 62.7809C186.011 63.037 186.15 63.2849 186.298 63.5162C186.767 64.2547 186.917 63.2067 187.257 63.7037C188.161 65.0294 188.381 66.4935 189.3 67.8239C189.384 67.9443 189.822 67.3356 190.048 67.7819C191.769 71.174 192.69 74.3902 194.049 78.109C194.527 79.4155 195.421 81.4266 196.042 83.1832C196.276 83.8408 196.474 84.4612 196.606 84.9869C197.465 88.3345 197.497 92.635 198.276 95.4381C198.783 97.2743 199.348 96.7479 199.937 97.4772C201.083 98.8993 199.948 101.935 199.75 102.329C199.742 102.323 199.362 100.741 199.15 101.65C198.522 102.248 199.744 102.31 199.75 102.329C199.641 102.596 199.874 105.871 200.045 106.513C200.146 106.861 200.75 106.607 200.791 106.791C200.813 106.891 200.834 106.991 200.855 107.09C201.755 111.368 201.991 115.804 201.465 120.226C201.447 120.305 200.757 120.148 200.726 120.333C200.263 122.914 200.947 124.644 201.18 126.874C201.198 127.052 201.211 127.227 201.221 127.397C201.327 129.364 200.814 130.943 199.492 131.913C199.32 133.596 198.191 135.838 197.47 137.049C196.755 138.26 197.969 138.872 197.957 139C197.688 141.412 196.933 142.996 196.021 144.637C195.452 145.655 194.813 146.698 194.141 147.981C193.313 149.576 191.872 152.796 191.078 154.55C190.457 155.941 189.732 156.584 189.219 157.897C189.148 158.075 189.769 158.209 189.761 158.271C189.608 159.992 188.7 158.599 188.311 158.745C186.891 159.271 186.099 159.62 185.446 161.557C185.374 161.767 185.578 162.372 185.776 163.04C186.001 163.806 186.214 164.66 186.019 165.086C185.533 166.123 185.131 165.347 184.621 166.443C184.576 166.536 184.981 166.783 184.538 167.39C182.706 169.941 180.165 172.656 177.893 174.937C177.651 175.183 177.409 175.431 177.17 175.677C176.828 176.025 177.801 176.112 177.312 176.625C175.018 179.032 172.195 181.464 169.372 183.161C168.676 183.576 168.764 182.854 168.532 182.834C167.129 182.716 166.704 184.684 166.504 184.853C166.445 184.904 166.386 184.955 166.327 185.005C161.812 188.783 157.499 189.843 152.565 192.968C152.516 193 152.423 193.104 152.299 193.248C151.754 193.899 150.233 195.49 148.833 194.922C148.71 194.882 147.105 194.13 146.335 195.286C146.287 195.358 147.232 195.762 145.905 196.095C144.581 196.424 142.706 197.32 140.982 196.937C140.678 196.872 140.11 196.534 139.45 196.46C138.921 196.398 138.326 196.511 137.757 197.089C137.679 197.184 135.839 199.878 134.741 198.455C134.565 198.218 134.402 196.538 132.812 197.694C132.508 197.917 133.178 198.184 132.338 198.567C131.047 199.156 129.183 199.003 127.628 199.998C127.357 200.174 126.277 201.493 125.152 200.772C124.977 200.659 125.194 200.06 124.659 200.071C122.115 200.118 119.52 200.813 116.899 200.679C115.973 200.631 116.352 199.681 115.383 199.525C115.366 199.522 115.348 199.519 115.331 199.516C114.346 199.367 112.477 199.292 111.531 199.762C110.566 200.242 111.747 201.624 110.253 201.831C103.735 202.712 97.2331 201.874 90.7519 201.411C90.1774 201.369 90.2188 201.55 90.0468 201.69C89.9283 201.785 89.7114 201.861 89.1328 201.83C83.9376 201.63 74.6292 200.899 70.3007 198.779C70.2784 198.768 70.2554 198.758 70.2334 198.748C66.8163 197.091 71.4851 197.436 68.831 196.474C67.5648 196.01 65.7357 197.289 65.3974 197.255C62.1287 196.963 60.1713 195.594 57.3203 194.861C56.7293 194.706 57.0701 195.55 56.5654 195.408C55.4787 195.105 54.4124 194.606 53.373 194.122C52.7638 193.838 52.1634 193.559 51.5683 193.327C50.8468 193.046 50.768 193.581 50.1279 193.253C48.5987 192.468 47.324 191.602 46.0898 190.406C45.981 190.298 47.168 190.187 46.082 189.59C44.464 188.7 42.7397 187.239 40.8007 186.429C40.629 186.358 40.4548 186.292 40.2783 186.231C39.635 186.009 38.9744 187.01 38.1953 185.538C38.0318 185.226 39.1346 184.24 37.0527 184.358C36.7123 184.389 33.3843 184.159 32.8681 182.443C32.7303 181.994 32.6672 180.495 31.914 180.157C31.8083 180.114 31.7744 180.894 31.1982 180.536C30.4483 180.063 29.7154 179.541 28.9902 178.997C27.763 178.076 26.5559 177.092 25.3105 176.168C24.7807 175.774 25.0784 176.923 24.2998 176.315C22.1547 174.643 19.8029 172.125 18.1181 169.957C17.4983 169.157 18.3757 169.306 18.3701 169.211C18.3541 168.817 18.2481 168.55 18.0937 168.365C17.6535 167.836 16.7989 167.965 16.5673 167.779C14.6397 166.195 13.9966 164.317 12.5917 162.569C12.2063 162.082 11.9363 162.797 11.8203 162.727C10.6449 161.958 12.114 162.131 11.7705 161.387C11.0897 159.893 10.2293 158.387 9.38765 156.94C9.06817 156.392 8.74464 155.851 8.42964 155.322C8.02074 154.634 7.81242 155.772 7.4521 155.147C5.88265 152.377 4.37749 149.571 3.27241 145.666C2.92189 144.339 2.69703 143.083 2.54585 141.873C2.44514 141.02 3.10321 141.434 3.19234 141.235C3.82196 139.883 2.35543 138.412 2.18355 138.025C1.40254 136.321 1.81729 135.573 1.56734 134.043C1.03118 130.716 0.80205 127.077 0.764601 123.48C0.632053 118.765 1.42605 113.665 2.16987 109.993C2.53924 108.114 2.93152 106.378 3.33003 104.691C4.8204 98.4522 6.30953 93.0806 7.6562 86.6686C7.76585 86.153 6.92276 86.5046 7.00776 86.0582C8.04567 80.8218 9.46894 75.779 10.748 70.5016C10.884 69.9458 11.0168 69.3964 11.1484 68.8463C11.2692 68.3514 10.3929 68.8653 10.5634 68.0709C10.9131 66.4315 11.5706 64.3558 12.4521 62.6149C12.8805 61.7771 13.0069 63.1625 13.4306 62.3151C14.3922 60.3723 15.7189 57.8831 16.957 55.9557C17.4657 55.144 16.0439 55.9073 16.7548 54.8903C17.0608 54.4568 17.3559 54.0524 17.6406 53.6657C21.5818 48.317 25.8913 43.3284 31.1757 39.1744C31.4509 38.9588 31.7321 38.7419 32.0117 38.5319C32.4265 38.2204 33.7614 38.968 34.3486 38.027C34.1285 37.6756 33.7974 37.3306 33.5253 36.9899C38.5517 32.0653 43.9016 27.7732 49.5078 23.6432C52.4476 21.4887 55.5148 19.3622 58.7626 17.358C59.1609 17.1126 58.0598 16.8827 58.8349 16.403C59.9615 15.7089 61.0876 15.0334 62.2001 14.3951C65.3106 12.6219 68.8507 10.5692 73.3984 9.59339C73.8706 9.49581 74.0591 10.3336 74.8925 10.3473C75.1089 10.3551 75.371 10.3038 75.7031 10.1627C75.9725 10.029 78.3334 9.24346 78.8876 8.83948C78.962 8.77735 78.3894 8.2463 79.165 8.06507C83.6952 7.03921 88.3273 6.7782 92.6484 6.9762C93.3482 7.01071 92.6366 7.72041 93.1318 7.75159C96.6181 7.96962 100.374 7.45784 103.632 8.15589C105.807 8.62977 104.957 9.78268 106.069 10.9762C106.222 11.1438 107.56 11.2235 107.596 11.8991C107.697 13.5956 106.986 15.4186 107.17 17.2301C107.205 17.6187 108.968 17.2806 107.893 18.1705C107.816 18.2292 106.549 18.4873 106.228 18.7946C106.007 19.0065 106.365 19.7042 105.92 19.9694C105.477 20.2347 105.014 19.6441 104.284 19.9537C103.552 20.269 103.852 21.0524 102.421 21.1139C99.1085 21.2493 94.8199 21.0699 91.6171 20.9635C90.6078 20.9308 91.0933 20.4758 90.3925 20.4391C89.0284 20.3718 87.8035 20.6944 86.4834 20.6549C86.0463 20.6405 86.5014 19.908 86.039 19.9098C83.5024 19.932 81.2236 20.5142 78.9189 21.0153C78.6869 21.0661 78.4535 21.1198 78.2285 21.1744C75.1643 21.8971 71.9195 23.5111 68.414 25.3502C64.274 27.4779 60.4447 29.9806 56.5576 32.8229C53.0539 35.3835 49.5895 38.1123 46.1914 40.9489C43.9461 42.8248 41.2839 44.8624 38.9072 47.0407C37.6629 48.1804 36.4913 49.3652 35.4863 50.57C35.1461 50.9799 35.793 51.1505 35.7597 51.2575C35.2337 52.918 34.7154 51.7276 33.9013 52.3883C31.1641 54.6248 28.6117 57.5255 26.6015 60.3991C26.2425 60.911 25.9142 61.4041 25.6298 61.8727C24.8749 63.1741 26.6547 62.5835 25.3466 63.4323C25.2574 63.495 24.9059 62.8623 24.6474 63.1666C24.0498 63.843 23.4407 65.4838 23.1367 66.1901C22.5364 67.534 22.4705 67.7837 22.0302 69.1774C21.651 70.3901 21.1354 71.7522 20.7011 73.1598C20.4563 73.9514 20.2348 74.7695 20.0849 75.5621C19.9976 76.0332 20.7746 75.584 20.6953 76.3375C20.613 77.0974 20.0767 79.0251 19.7695 79.6481C19.4622 80.2676 19.0415 79.8697 18.9003 79.9576C17.7164 80.6867 18.4887 83.2688 18.4541 83.5651C17.7532 89.0049 15.9753 93.405 14.9033 98.4166C14.3316 101.103 13.8713 103.95 13.4111 106.647C13.219 107.773 13.0276 108.873 12.8291 109.926C12.032 114.214 11.1474 117.684 11.206 121.715C11.2115 122.146 11.9648 121.643 11.9746 122.166C11.9822 122.532 11.9928 122.901 12.0039 123.277C12.1729 128.64 12.3705 133.955 12.8759 139.046C12.9338 139.593 12.1433 139.03 12.165 139.589C12.2096 140.551 12.2586 141.671 12.4375 142.787C12.8931 145.589 14.439 148.706 16.9472 149.024C17.3706 149.927 17.8545 150.91 18.3193 151.906C18.9334 153.231 19.5273 154.551 19.9013 155.74C20.3293 157.067 18.9988 156.382 20.1923 157.589C20.4627 157.857 20.7039 157.099 21.0683 157.523C22.3753 159.042 23.6106 160.805 25.0742 162.217C25.3259 162.461 25.5853 162.695 25.8505 162.914C26.2188 163.215 26.5483 162.735 26.7128 162.763C28.0564 163.009 28.3875 165.273 28.624 165.636C30.3574 168.349 32.3194 169.67 34.5927 171.538C34.7563 171.671 34.8553 171.659 34.9287 171.589C34.9505 171.569 34.9698 171.543 34.9882 171.514C35.0695 171.389 35.1288 171.212 35.2548 171.181C35.3159 171.167 35.3935 171.186 35.496 171.262C38.2104 173.293 41.0157 175.357 43.6572 177.433C44.2439 177.896 43.3194 178.078 43.583 178.328C44.2102 178.912 44.7767 178.939 45.3378 178.989C45.8297 179.032 46.3175 179.093 46.8574 179.555C47.1023 179.762 46.6685 180.151 46.6875 180.233C46.9919 181.521 48.356 180.734 48.5683 180.818C51.308 181.87 52.3432 183.963 55.0488 184.92C55.3696 185.028 54.9465 184.087 55.8281 184.429C56.2328 184.585 56.6395 184.739 57.0498 184.892C61.9113 186.703 67.1348 188.321 72.208 189.799C72.9096 190.004 73.6082 190.205 74.3027 190.403C75.2564 190.672 74.4697 191.058 74.5156 191.134C75.3362 192.322 76.2318 191.094 76.5546 191.097C79.1128 191.159 81.3475 192.592 83.249 191.169C85.6762 191.563 88.1306 191.809 90.5957 191.968C98.6329 192.484 106.626 192.106 114.692 192.38C114.982 192.39 115.273 192.401 115.564 192.413C115.702 192.418 115.521 193.106 115.797 193.111C119.129 193.152 118.394 192.173 120.395 190.651C120.895 190.269 122.749 191.576 122.914 191.667C123.507 192.005 123.085 193.069 123.276 193.124C124.859 193.541 124.153 190.315 126.14 190.017C126.202 190.016 126.032 190.653 126.208 190.687C126.756 190.796 127.234 190.478 127.776 190.604C129.013 190.897 129.699 192.411 131.325 191.187C131.532 191.028 130.868 189.248 132.656 189.02C133.367 188.936 136.48 188.317 137.371 188.256C137.59 188.243 137.724 188.274 137.806 188.331C137.958 188.432 137.93 188.615 137.891 188.752C137.864 188.847 137.833 188.92 137.853 188.924C137.879 188.928 137.903 188.931 137.928 188.934C140.348 189.232 139.546 189.74 140.975 190.623C142.428 191.496 141.461 188.838 141.849 188.422C142.244 188.014 144.041 188.193 144.518 188.263C144.991 188.347 144.609 188.878 145.012 188.88C147.713 188.794 145.555 187.194 146.131 186.49C146.768 185.662 147.602 185.526 148.53 185.518C149.486 185.514 150.519 185.655 151.386 185.322C151.848 185.143 151.272 184.909 151.638 184.668C153.078 183.715 154.31 183.781 155.715 182.287C155.95 182.041 156.663 180.173 158.003 180.422C158.196 180.458 158.117 181.117 158.803 180.829C159.715 180.447 161.184 179.626 162.102 178.868C162.216 178.774 162.321 178.682 162.416 178.592C163.052 177.989 161.752 177.864 162.786 177.453C163.246 177.266 162.811 178.198 163.656 177.808C164.504 177.427 166.331 175.976 166.996 175.39C167.665 174.81 166.875 174.624 166.902 174.545C167.075 174.081 168.127 172.749 168.233 172.648C169.506 171.483 170.757 170.336 171.985 169.182C175.138 166.289 177.86 163.198 180.175 159.542C180.859 158.468 181.509 157.352 182.111 156.202C182.381 155.687 181.597 155.675 181.632 155.593C182.377 153.742 183.166 156.002 184.388 155.095C183.084 154.582 183.713 153.997 184.261 152.699C184.522 152.073 183.875 152.135 183.856 152.054C183.624 150.791 184.874 150.687 185.15 150.63C186.163 150.421 185.674 149.344 186.352 149.192C187.027 149.035 187.234 150.322 187.851 149.117C187.583 148.555 185.975 148.841 186.255 147.842C186.752 146.055 187.915 143.788 189.054 141.568C190.323 139.117 191.512 136.688 192.019 135.178C192.971 132.311 193.038 131.323 193.549 129.62C194.258 127.067 193.584 127.281 193.25 126.331C193.175 126.124 193.114 125.859 193.079 125.5C192.874 123.486 195.111 124.697 195.65 124.467C196.187 124.235 195.699 123.868 196.012 123.538C196.324 123.207 196.595 124.015 196.779 123.182C196.971 122.34 196.22 119.966 195.696 119.65C194.598 118.972 193.383 119.93 193.876 117.786C193.904 117.661 194.514 118.086 194.591 117.608C195.093 114.344 195.069 110.931 195.062 107.589C195.062 107.034 195.061 106.478 195.064 105.926C195.068 105.392 195.806 105.791 195.815 105.478C195.882 102.207 194.85 103.489 193.328 101.943C195.088 102.088 196.017 100.964 195.606 98.5153C195.353 97.0485 194.654 97.435 193.954 96.6002C193.744 96.3513 194.044 95.2287 193.658 95.1149C192.393 94.7462 191.34 95.9599 191.307 93.4293C191.306 93.3173 192.002 93.5157 191.955 93.1383C191.64 90.6958 190.395 90.7002 189.563 88.2213C189.309 87.4766 189.103 86.4758 188.898 85.3971C188.572 83.6617 188.232 81.7181 187.8 80.3326C189.645 79.7162 188.429 77.7404 186.846 77.4098C186.327 75.9714 185.608 74.4878 185.164 73.066C185.011 72.5783 185.658 72.6469 185.688 72.5641C186.14 71.2628 184.67 71.2053 184.482 70.9332C183.186 68.9776 182.51 67.0294 181.491 65.2047C180.939 64.2168 180.286 63.272 179.383 62.4108C179.29 62.3232 178.036 62.8459 178.409 61.5612C178.435 61.4742 179.548 62.1248 178.752 60.7233C177.962 59.3278 176.912 56.3591 175.115 54.8658C174.682 54.5001 173.01 54.0144 173.061 52.6276C173.07 52.4407 173.477 52.3444 173.527 52.0465C173.678 51.0857 172.358 51.5888 172.809 50.2516C172.921 49.9164 172.985 49.5455 172.985 49.1598C172.985 48.0036 172.408 46.6805 170.861 45.7057C170.796 45.6627 169.617 45.9156 169.178 45.3551C168.476 44.4553 167.587 43.0769 166.779 42.194C166.393 41.7715 166.141 42.4937 166.065 42.4283C164.564 41.0689 163.433 39.7976 162.287 38.4342C161.263 37.2172 160.228 35.9327 158.899 34.5035C158.384 33.9454 156.181 33.1347 155.592 31.6188C154.935 29.9538 158.387 28.624 155.077 26.7125C153.879 26.0236 150.448 27.4567 149.27 25.4049C149.123 25.1512 149.012 24.8489 148.937 24.4801C145.257 21.9656 142.204 18.9469 138.234 17.0006C137.57 16.6697 136.883 16.3666 136.169 16.0983C135.944 16.0129 134.738 16.6788 134.264 16.4039C133.561 15.9935 133.422 15.3024 132.925 14.9967C130.842 13.7041 128.639 13.0959 126.566 11.9821C125.778 11.5613 126.307 11.1943 125.362 10.6959C124.629 10.3116 123.882 10.4387 123.054 10.0836C122.808 9.97848 122.56 9.83453 122.3 9.62561C121.428 8.92659 121.035 7.07819 119.632 6.37366C119.061 7.76373 118.12 7.35232 116.303 7.29163C115.954 7.28217 116.179 7.87611 116.009 7.89808C115.324 8.00235 114.839 7.45272 114.174 7.61292C114.015 7.6522 113.906 8.15101 113.77 8.21155C113.19 8.47942 112.537 8.25075 111.988 7.92737C111.448 7.60765 111.012 7.19382 110.885 7.07093C109.89 6.13002 109.258 6.70122 108.444 6.26917C107.628 5.83795 108.977 5.67091 107.996 5.33362C105.96 4.6355 103.248 4.33766 101.114 4.05042C100.261 3.93891 100.761 4.68741 100.637 4.68714C98.8628 4.64246 97.1468 3.73322 96.0429 4.99476C95.4089 2.4388 95.1102 3.62324 94.1416 4.21643C93.7366 4.46133 93.2262 4.60743 92.5039 4.36292C92.3118 4.29399 92.1328 2.62264 92.9277 2.42249C93.3121 2.32803 93.769 2.41609 94.2705 2.50452C94.81 2.60021 95.3915 2.69533 95.9697 2.54944C96.2272 2.48115 97.8421 1.07977 98.0546 1.00843ZM113.131 193.281C113.073 193.221 110.903 193.315 110.836 193.378C109.778 194.699 114.202 194.514 113.131 193.281ZM151.969 186.335C151.935 186.313 151.314 186.598 151.419 186.77C151.755 187.328 152.522 186.723 151.969 186.335ZM194.035 142.257C192.959 143.12 195.077 144.247 195.079 142.785C195.073 142.711 194.09 142.212 194.035 142.257ZM191.12 141.769C191.096 141.777 190.941 142.09 190.822 142.347C190.748 142.509 190.689 142.647 190.695 142.662C190.912 143.01 191.2 142.858 191.369 142.589C191.581 142.25 191.609 141.738 191.12 141.769ZM186.847 77.4147C187.175 78.3673 187.531 79.3149 187.836 80.2799C186.77 79.5931 186.258 78.5217 186.847 77.4147ZM143.647 16.5866C143.108 15.2732 141.367 16.3368 141.618 16.8629C142.405 18.5822 144.159 17.894 143.647 16.5866ZM101.744 11.2252C102.269 10.4719 100.342 10.3857 100.745 11.1813C100.769 11.2126 101.719 11.2556 101.744 11.2252ZM128.037 8.27308C127.917 8.25693 126.99 9.79327 127.063 9.88343C128.307 11.4315 130.092 8.53249 128.037 8.27308ZM112.561 4.76526C111.919 4.66254 111.158 4.9282 111.588 5.42054C111.756 5.6138 112.076 5.71047 112.388 5.72425C112.97 5.75074 113.551 5.50339 113.171 5.0553C113.035 4.89969 112.813 4.8058 112.561 4.76526ZM84.6523 3.21058C88.7492 3.0127 91.0219 5.90016 86.8662 5.67347C86.1006 5.64987 88.4685 4.71245 87.4892 4.49866C85.6451 4.11166 84.6265 5.9835 82.6904 5.2389C82.3363 5.10148 84.4118 3.21151 84.6591 3.20569C84.6569 3.20718 84.6545 3.20909 84.6523 3.21058Z" fill="#FA8282"/>
</svg>
