<svg width="202" height="203" viewBox="0 0 202 203" fill="none" xmlns="http://www.w3.org/2000/svg">
<path d="M81.0088 54.8034C81.9235 54.3167 82.8007 54.4959 83.1094 54.5886C83.5366 54.7197 83.6735 54.8145 83.8447 54.9108C84.0181 55.0164 84.0919 55.0731 84.1846 55.1432C84.524 55.4114 84.6577 55.5638 84.8184 55.7341C85.0999 56.0436 85.3039 56.3097 85.4971 56.5729C85.8802 57.1 86.1902 57.5981 86.4756 58.1139C87.0546 59.1618 87.4785 60.2154 87.7559 61.3884C87.7675 61.4414 87.1578 61.7246 87.1856 61.8278C87.2156 61.9346 87.2518 62.0259 87.2881 62.1052C87.3364 62.0537 87.385 62.0032 87.4297 61.9509C87.9145 61.4033 88.2239 60.9259 88.4434 60.5026C88.431 60.5559 88.4187 60.6093 88.4072 60.6628C88.3366 60.9974 88.8945 60.7847 88.8281 61.2829C88.7831 61.6253 88.7482 62.0207 88.7109 62.446C89.0225 62.3901 89.3853 62.3339 89.8057 62.3346C90.1871 62.3425 89.2238 63.6981 89.1533 63.8005C89.0399 63.9805 88.7748 64.1511 88.5195 64.2936C88.4981 64.4536 88.474 64.6133 88.4482 64.7721C89.2193 64.5306 90.5644 63.8484 90.8311 64.277C90.8389 64.3001 90.2708 64.5349 90.2529 64.6208C90.1958 64.8884 90.5056 64.9317 90.4326 65.2116C90.247 65.8328 88.9625 66.8019 90.1152 66.9001C90.2627 66.9093 91.7886 65.8174 92.0645 66.4391C92.1799 66.6983 92.8174 67.6858 92.8936 68.0466C92.9669 68.4021 92.3291 68.5132 92.3193 68.5475C92.0954 69.7178 91.6386 69.6005 90.8604 70.5944C90.0873 71.5897 92.4249 70.0372 92.79 70.0368C93.1489 70.0281 92.921 70.9246 92.8096 71.1843C92.6973 71.4415 92.2647 71.4645 92.2275 71.655C92.0001 72.9213 93.6372 71.3016 94.1807 71.3425C95.4575 71.4247 93.9842 73.0139 94.1445 73.6823C94.1906 73.8667 94.5213 73.4968 94.6426 73.6139C95.1207 74.0876 94.7616 74.7549 95.6445 75.0788C95.767 75.1243 96.7784 75.0437 96.7256 75.5134C96.7143 75.5943 96.669 75.693 96.5781 75.8132C96.4914 75.9265 95.968 76.059 96.0059 76.3512C96.0585 76.7828 96.3528 77.5027 96.7188 77.7809C96.9933 77.9932 97.5388 77.2402 97.5186 77.7253C97.5094 77.9422 96.9079 77.9069 96.9268 78.2936C96.9462 78.6811 97.4113 79.423 97.5928 79.695C97.7762 79.9696 98.2391 79.4866 98.292 79.485C98.5885 79.4957 99.184 79.8877 99.2149 79.9391C100.725 82.3281 101.125 85.1326 102.849 87.3161C102.983 87.487 103.496 87.0143 103.522 87.0368C104.147 87.5248 102.289 87.9543 102.032 88.7106C103.184 87.9361 103.125 88.3272 103.525 88.7018C103.717 88.8784 104.109 88.4858 104.168 88.4772C105.057 88.377 104.287 89.1394 104.136 89.3073C103.582 89.9253 104.523 89.6769 104.155 90.0934C103.79 90.5076 102.923 90.5739 103.189 91.0007C103.688 90.8675 104.608 89.8817 104.985 90.1012C106.399 90.9175 106.907 93.7463 107.406 94.7858C107.907 95.8272 108.178 96.1018 108.368 96.7673C108.713 97.9719 109.31 97.0989 110.074 97.5173C110.839 97.9361 108.623 98.8392 108.241 99.194C107.86 99.5468 108.368 99.3774 108.196 99.6345C108.024 99.8914 107.581 99.8249 107.65 100.145C107.72 100.465 108.935 100.73 109.447 100.549C110.533 100.169 111.351 99.2322 111.417 100.15C111.42 100.203 110.808 100.392 110.847 100.58C111.176 102.06 111.919 103.354 112.296 104.803C112.347 105.003 111.665 105.208 111.686 105.329C111.923 106.583 112.703 105.615 114.152 105.508C112.598 106.272 111.88 107.127 112.34 107.911C112.615 108.382 113.213 107.913 113.85 107.941C114.041 107.949 113.798 108.548 114.138 108.425C115.25 108.026 116.173 107.045 116.214 108.114C116.211 108.163 115.603 108.377 115.644 108.518C115.901 109.432 116.996 108.902 117.634 109.676C118.132 110.28 118.217 111.852 118.568 112.668C116.896 113.652 117.711 114.142 119.031 113.741C119.282 114.263 119.663 114.748 119.795 115.324C119.84 115.521 119.293 115.703 119.254 115.756C118.631 116.565 119.874 116.106 119.981 116.185C121.099 117.077 120.819 118.519 122.313 119.126C122.369 119.145 123.557 118.514 122.893 119.315C122.846 119.369 122.103 119.325 122.373 119.864C122.638 120.394 122.621 121.761 123.582 122.142C123.818 122.24 125.02 122.116 124.502 122.909C124.431 123.016 124.069 123.165 123.926 123.343C123.472 123.917 124.709 123.33 123.873 124.183C123.041 125.043 122.629 126.036 123.744 126.335C123.777 126.344 124.804 125.956 124.93 126.195C125.128 126.577 125.248 127.207 125.479 127.575C125.594 127.756 126.094 127.293 126.126 127.316C127.195 128.351 127.204 129.518 127.78 130.963C127.85 131.139 128.4 131.291 128.66 131.608C128.799 131.779 128.862 131.994 128.75 132.278C128.386 133.2 125.257 134.394 126.639 135.15C127.205 135.474 131.112 133.857 129.799 135.851C131.263 137.207 131.261 139.307 132.934 140.536C133.012 140.593 134.133 140.191 134.234 140.383C134.376 140.658 134.003 141.087 134.086 141.287C134.431 142.143 135.268 142.594 135.674 143.366C135.831 143.661 135.294 143.869 135.476 144.212C135.67 144.572 136.425 144.377 136.42 145.031C136.407 145.515 135.358 146.686 135.499 147.228C136.769 146.439 136.933 146.748 137.63 147.092C137.762 147.154 138.125 146.758 138.21 146.772C138.561 146.819 138.334 147.259 138.697 147.279C138.786 147.286 139.215 147.009 139.313 147.001C140.155 146.913 139.544 148.068 139.444 148.279C139.042 149.045 139.708 148.846 139.638 149.278C139.571 149.716 138.987 149.515 139.052 149.937C139.134 150.574 139.557 151.211 139.819 151.7C139.823 151.708 139.837 151.729 139.841 151.737C139.928 151.881 140.006 152.038 140.066 152.194C140.165 152.45 140.728 152.027 140.757 152.056C141.168 152.634 140.584 153.406 141.986 153.531C138.598 154.564 142.403 153.872 141.811 154.95C141.761 155.035 140.116 155.263 139.849 155.028C139.582 154.799 140.048 154.337 139.613 154.054C139.507 153.968 137.903 153.865 137.803 153.865C137.011 153.724 139.368 152.981 139.486 152.897C140.145 152.543 140.012 152.328 139.712 152.271C139.409 152.206 138.957 152.325 138.89 152.326C138.888 152.326 138.886 152.325 138.884 152.325C138.873 152.305 138.837 152.248 138.828 152.227C138.138 152.059 137.993 151.257 137.324 150.932C136.883 150.714 135.511 151.585 135.356 151.265C134.863 150.229 136.538 148.65 134.307 148.829C133.825 148.858 132.472 150.037 133.186 148.571C133.239 148.487 133.964 147.263 133.105 147.42C132.996 147.438 132.562 147.719 132.493 147.694C132.038 147.507 132.253 147.079 131.853 146.819C131.457 146.567 130.927 146.283 130.82 145.788C130.756 145.49 131.359 144.641 131.488 144.403C131.86 143.718 130.683 143.94 131.251 143.297C131.824 142.652 133.139 142.382 133.254 141.56C132.103 142.256 130.904 142.944 129.738 143.631C129.026 142.407 128.649 140.981 127.855 139.812C127.753 139.664 127.236 140.201 127.11 140.05C126.606 139.454 126.663 138.566 126.064 137.985C125.584 137.512 124.578 137.338 124.058 136.857C125.124 135.709 124.243 135.174 123.952 134.479C123.947 134.466 123.941 134.453 123.937 134.44C123.85 134.205 124.21 134.004 124.232 133.784C124.307 132.953 123.308 133.929 123.029 133.883C121.828 133.666 124.433 132.024 123.879 131.26C123.845 131.222 122.132 131.545 122.002 131.534C121.161 131.433 122.445 131.163 122.378 130.819C122.256 130.192 122.36 129.611 121.589 129.266C121.36 129.165 120.229 129.27 120.693 128.51C120.755 128.411 121.233 128.155 121.237 128.101C121.293 127.174 119.827 128.04 119.104 127.963C118.381 127.882 119.033 126.689 119.253 126.397C119.816 125.636 119.717 126.438 119.8 126.411C120.793 126.075 120.39 125.747 120.268 125.379C121.668 124.466 121.307 124.064 120.135 124.999C120.007 125.102 120.294 125.274 120.268 125.379C118.695 125.948 118.204 125.541 119.188 124.208C119.646 123.579 120.51 123.391 119.773 122.765C119.439 122.48 118.539 123.213 118.079 123.059C117.04 122.725 117.384 121.221 116.8 120.581C116.586 120.345 116.204 120.931 116.039 120.781C115.6 120.384 115.74 119.703 115.241 119.345C115.193 119.316 114.696 119.761 114.598 119.615C113.836 118.502 113.594 117.284 112.877 116.072C112.534 115.493 111.591 114.634 111.294 113.999C110.77 112.891 110.819 111.116 110.082 110.341C109.605 109.838 109.116 110.305 108.581 110.288C107.546 110.256 108.37 108.598 108.509 108.36C108.523 108.362 108.949 108.768 109.077 108.332C109.583 107.818 108.534 108.354 108.509 108.36C108.596 108.203 108.124 107.128 107.896 106.995C107.772 106.923 107.273 107.304 107.219 107.26C105.936 106.211 104.994 104.951 104.432 103.446C104.433 103.413 105.049 103.092 105.033 103.025C104.827 102.079 103.792 102.015 102.97 101.631C102.145 101.241 101.982 100.64 102.782 99.6403C102.362 99.2326 102.392 98.2521 102.428 97.6852C102.462 97.1175 101.262 97.7606 101.218 97.7389C99.8128 97.0673 100.103 96.0372 99.5156 94.818C99.2419 94.2436 98.4204 93.2544 97.9404 92.7409C97.5609 92.3387 97.6636 91.8892 97.2305 91.5612C97.1719 91.5175 96.6915 91.8833 96.6572 91.8805C95.7473 91.77 97.1565 91.2424 97.3242 91.0075C97.9344 90.1535 98.2473 89.6775 97.4863 89.2848C97.3115 89.195 95.2336 89.872 94.9727 89.6784C94.6366 89.4235 95.3708 89.1631 95 88.902C94.9688 88.8793 94.5672 89.1266 94.4541 88.8962C93.9281 87.837 93.505 86.5893 92.8418 85.5661C92.7511 85.4236 92.2193 85.9915 92.0781 85.7917C91.4224 84.8619 90.8097 83.7757 90.5488 82.6491C90.4846 82.3672 91.0222 82.2484 91.126 82.1179C91.7482 81.3229 90.3132 81.5813 90.2481 81.5231C89.7234 81.0622 89.392 80.5206 89.1494 79.988C88.6322 78.8649 88.4197 77.6728 87.3848 76.7067C87.3208 76.6493 86.4776 76.6381 86.2744 76.3112C86.2067 76.377 86.1361 76.4436 86.0586 76.5075C86.0073 76.5513 85.4116 76.1222 85.3281 76.5358C85.1929 77.2173 84.5956 77.9862 84.9756 78.8512C85.0905 79.1082 86.2699 79.2951 85.3838 79.6677C85.1984 79.7478 83.7983 79.4094 84.9414 80.1677C85.0511 80.2413 85.6032 80.6798 85.8291 81.11C85.9963 81.4087 85.9896 81.7027 85.5107 81.8415C85.212 81.928 84.0039 82.0878 84.1455 82.4011C84.1702 82.4434 84.8256 82.3804 84.8545 82.6237C84.9483 83.4486 84.7536 84.3272 84.835 85.1804C84.8573 85.413 85.5629 85.1719 85.5752 85.5163C85.608 86.476 85.2786 87.5894 84.9453 88.4587C84.8216 88.777 84.3108 88.4733 84.2471 88.488C83.2287 88.7374 84.4963 89.1541 84.5537 89.2946C84.8913 90.1769 84.1979 90.6749 84.2529 91.4489C84.2672 91.6607 84.9063 91.6032 84.9561 91.652C85.4358 92.1548 84.3676 91.6804 84.207 91.9274C83.7553 92.612 83.6846 93.4727 83.6582 94.2282C83.6491 94.5082 84.4111 94.3007 84.3955 94.5505C84.3098 96.0454 84.023 97.5716 83.4238 98.946C83.3096 99.2057 82.7806 98.9578 82.6455 98.9958C81.7058 99.2586 82.8299 100.006 82.9268 100.152C83.3676 100.819 82.8458 100.982 82.8623 101.522C82.9524 104.16 82.1771 107.292 81.6318 109.694C80.9246 112.823 80.0486 115.205 79.7559 118.244C79.7365 118.437 80.5004 118.348 80.4932 118.516C80.3675 120.673 79.7795 122.743 79.6875 124.909C79.6785 125.088 80.4129 124.933 80.4219 125.223C80.4451 125.82 80.3037 126.541 79.9971 127.095C79.8487 127.367 79.3041 126.897 79.167 127.172C78.8463 127.813 78.6959 128.513 78.709 129.219C78.7167 129.52 79.4936 129.179 79.4473 129.562C79.1482 132.158 78.9067 134.715 77.6055 137.197C77.5142 137.369 76.0416 137.32 76.2647 137.742C76.6632 137.829 77.1378 137.895 77.5664 137.969C77.3464 140.655 76.7596 143.274 76.2119 145.894C75.9804 147.01 75.7603 148.092 75.5732 149.199C75.5466 149.36 76.3557 149.195 76.3076 149.507C76.0317 151.291 75.9839 153.067 74.9424 154.779C74.8399 154.947 73.5052 154.642 73.626 155.219C73.6486 155.322 73.706 156.15 73.9658 156.409C74.0074 156.444 74.6576 156.395 74.6367 156.656C74.4996 158.176 74.1052 159.749 73.4658 161.224C73.3626 161.455 72.7344 161.088 72.6553 161.25C72.0904 162.446 72.3648 163.897 71.5059 165.044C70.9254 165.81 69.8396 165.255 68.6172 165.443C68.4455 165.468 68.3084 165.958 67.6475 165.831C65.9851 165.515 64.2315 164.876 62.4531 164.568C62.0718 164.497 62.3336 165.221 61.5059 164.636C61.4517 164.593 61.2485 164.084 60.959 163.918C60.7599 163.798 60.0645 163.777 59.8213 163.573C59.5771 163.374 60.1721 163.336 59.8965 163.036C59.6167 162.733 58.8339 162.684 58.8359 162.195C58.8478 161.051 59.3368 159.501 59.8389 158.323C59.995 157.956 60.381 158.218 60.5088 157.96C60.754 157.476 60.6277 156.952 60.9043 156.459C60.9971 156.301 61.6273 156.615 61.71 156.447C62.1596 155.501 62.1361 154.532 62.4307 153.55C63.3571 150.452 64.0808 147.375 64.7578 144.217C65.1431 142.426 65.511 140.619 65.8897 138.781C66.2324 137.113 67.125 135.191 67.1113 133.413C67.1086 133.209 66.5098 133.244 66.4658 133.199C65.8153 132.497 66.9647 132.864 67.1777 132.495C68.021 131.015 68.3215 129.301 68.3115 127.763C68.3052 127.109 67.0551 127.581 67.7969 127.036C67.8472 126.998 68.4441 127.247 68.5352 127.083C68.7402 126.71 68.7367 125.94 68.8301 125.637C69.0134 125.053 69.0202 124.961 69.1074 124.401C69.232 123.636 69.6699 122.767 69.6465 121.925C69.6397 121.745 68.9715 121.887 68.9033 121.591C68.8354 121.295 68.9956 120.559 69.1807 120.333C69.3662 120.105 69.85 120.281 69.9707 120.254C70.9885 120.028 69.7734 118.979 69.7559 118.863C69.4781 116.773 70.4857 115.153 70.752 113.264C70.9525 111.829 70.9191 110.261 71.1475 108.9C71.4217 107.281 71.9607 105.953 72.126 104.363C72.1441 104.195 71.3697 104.284 71.3897 104.08C71.6093 101.906 71.9957 99.7674 72.8057 97.6843C72.8876 97.4754 73.5048 97.847 73.626 97.6442C74.3512 96.4085 75.943 94.4965 73.1992 93.3014C73.4365 92.431 73.7079 91.3452 74.3955 90.6364C74.8386 90.1778 75.4825 90.7788 75.2686 90.0964C75.2211 89.9426 74.5689 90.0408 74.5449 89.8171C74.4441 88.8808 74.7877 87.9205 74.5908 86.9841C74.5488 86.7946 73.9814 86.7642 73.8877 86.6989C73.1298 86.161 74.5872 85.6123 74.707 85.4743C75.6071 84.3995 75.4445 83.475 75.6221 82.3561C75.6632 82.0973 74.8671 82.2963 74.8799 82.0436C74.9253 81.2397 75.0483 80.379 75.2539 79.6003C75.3795 79.1118 75.5346 78.6424 75.7246 78.1989C75.8401 77.9342 76.4462 78.2785 76.5342 78.1569C76.9152 77.6086 75.7247 77.2912 76.0664 76.7673C76.137 76.6566 76.6768 76.8017 76.7402 76.7887C77.7347 76.5902 76.4356 76.0987 76.419 76.0036C76.174 74.8304 77.6766 74.3133 77.6299 73.2243C77.6233 73.0896 76.887 73.2854 76.9111 72.9137C77.0642 70.4742 77.6184 67.965 78.5186 65.6579C78.6571 65.3028 79.1413 65.6406 79.209 65.6266C80.2666 65.4064 78.9576 64.9467 78.9238 64.822C78.8888 64.666 78.8909 64.5172 78.9111 64.3737C78.4671 63.9315 78.1174 63.4476 77.8574 63.0173C77.7157 62.7808 77.5915 62.5535 77.583 62.4636C77.5944 62.4313 77.5897 62.407 77.877 62.6345C77.9543 62.6939 78.0446 62.7652 78.2285 62.8981C78.3169 62.9613 78.4204 63.0327 78.5449 63.112C78.6981 63.2105 78.9026 63.3345 79.1592 63.4645C79.1613 63.4656 79.1639 63.4664 79.166 63.4675C79.2617 63.0538 79.1973 62.6543 78.4473 62.2087C79.0049 60.3368 79.0393 58.9885 79.6553 56.4186C79.7246 56.2103 79.8296 55.9621 80.0166 55.6891C80.1862 55.431 80.5623 55.032 81.0088 54.8034ZM68.6914 163.4C68.66 163.397 68.5621 163.752 68.5918 163.762C69.3025 164.095 69.4972 163.391 68.6914 163.4ZM141.788 156.459C142.307 156.188 142.867 156.117 143.131 156.413L143.127 156.345C143.257 156.46 143.322 156.643 143.294 156.908C143.266 157.179 142.345 156.438 142.129 156.8C141.742 157.51 143.552 157.697 142.757 158.221C142.69 158.277 142.245 158.438 141.759 158.336C141.281 158.259 140.822 158.076 140.818 158.029C140.82 158.03 140.821 158.031 140.822 158.032C140.746 157.339 141.238 156.752 141.787 156.446L141.788 156.459ZM137.905 149.118C138.175 148.695 137.398 148.483 137.064 149.012C136.803 149.45 137.575 149.652 137.905 149.118ZM133.999 144.648C134.338 143.63 131.414 145.355 132.387 145.607C132.442 145.622 133.977 144.708 133.999 144.648ZM130.192 140.042C130.783 138.992 129.267 139.494 128.783 140.259C128.296 141.018 130.017 140.365 130.192 140.042ZM118.531 112.706C119.381 112.635 119.696 112.984 119.031 113.739C118.879 113.389 118.686 113.054 118.531 112.706ZM102.574 95.1286C102.911 94.4209 100.825 95.5945 101.558 95.7038C101.595 95.7077 102.558 95.1643 102.574 95.1286ZM104.75 93.11C104.002 93.3385 104.309 93.9702 104.911 93.4382C104.934 93.4144 104.781 93.101 104.75 93.11ZM93.1494 74.2946C93.1764 74.2702 93.0767 74.0399 92.9063 74.1471C92.3568 74.4931 92.6918 74.6984 93.1494 74.2946ZM80.9815 63.819C80.8438 63.8084 80.673 63.8748 80.4893 63.9733C80.7725 64.0498 81.0949 64.1192 81.4629 64.1637C81.4687 64.1645 81.4746 64.164 81.4805 64.1647C81.3736 63.98 81.2122 63.8411 80.9815 63.819ZM86.2783 60.195C85.0116 60.5289 85.7997 61.9657 86.6943 60.9528C86.7475 60.9096 86.3391 60.1728 86.2783 60.195ZM88.9326 59.0964C88.9424 59.1181 88.9607 59.1489 88.8779 59.4616C88.7698 59.774 88.644 60.1157 88.4434 60.5026C88.5173 60.1851 88.6069 59.8726 88.7022 59.5925C88.7588 59.4235 88.8143 59.2783 88.8672 59.1716C88.893 59.1211 88.9184 59.0851 88.9326 59.0964Z" fill="#FA8282"/>
<path d="M128.248 110.554C128.209 109.794 128.626 110.879 128.697 111.07C128.969 111.79 128.894 111.128 129.045 111.403C129.195 111.678 129.13 112.072 129.271 112.229C129.562 112.554 129.823 112.422 130.058 112.401C130.151 112.389 129.962 111.742 129.969 111.715C129.994 111.681 130.025 111.67 130.056 111.671C130.214 111.677 130.435 111.952 130.266 110.83C131.181 114.222 130.299 110.475 130.706 111.096C130.739 111.152 131.192 112.745 131.163 113.003C131.131 113.262 130.874 112.792 130.838 113.19C130.833 113.287 130.991 114.839 130.981 114.939C130.93 115.703 130.411 113.275 130.377 113.143C130.346 113.032 130.318 112.939 130.294 112.864C130.009 111.976 130.118 113.412 130.091 113.526C129.967 114.089 129.723 113.781 129.619 114.187C129.551 114.45 129.858 116.046 129.764 116.014C129.448 115.911 128.867 113.717 128.999 115.7C129.028 116.123 129.469 117.843 128.956 116.527C128.926 116.443 128.484 115.232 128.57 116.042C128.581 116.144 128.694 116.646 128.689 116.694C128.645 116.992 128.492 116.605 128.42 116.824C128.355 117.041 128.283 117.36 128.117 117.218C128.014 117.134 127.696 116.219 127.604 115.998C127.341 115.361 127.484 116.472 127.228 115.687C126.969 114.898 126.811 113.643 126.506 113.166C126.812 114.475 127.118 115.821 127.422 117.139C127.031 117.184 126.553 116.853 126.182 117.005C126.138 117.028 126.359 117.716 126.314 117.755C126.127 117.92 125.809 117.469 125.64 117.722C125.504 117.923 125.504 118.713 125.368 118.946C124.918 117.613 124.771 117.969 124.565 117.98C124.546 117.981 124.527 117.978 124.506 117.97C124.427 117.94 124.33 117.541 124.248 117.423C123.94 116.99 124.363 118.286 124.365 118.506C124.369 119.447 123.595 116.47 123.352 116.609C123.339 116.615 123.58 118.249 123.584 118.353C123.605 119.035 123.417 117.805 123.296 117.711C123.074 117.54 122.857 117.192 122.784 117.707C122.763 117.859 122.882 118.885 122.571 118.149C122.53 118.053 122.403 117.529 122.382 117.498C122.039 117.04 122.46 118.691 122.484 119.281C122.506 119.871 122.024 118.782 121.9 118.463C121.579 117.641 121.882 118.08 121.866 117.996C121.671 116.988 121.58 117.193 121.453 117.137C121.017 115.524 120.894 115.66 121.323 117.085C121.37 117.241 121.412 117.069 121.453 117.137C121.774 118.748 121.663 118.994 121.1 117.557C120.836 116.884 120.704 116.054 120.527 116.417C120.447 116.582 120.781 117.681 120.759 118.011C120.711 118.763 120.134 117.806 119.94 118.031C119.869 118.113 120.113 118.701 120.07 118.778C119.956 118.984 119.696 118.564 119.6 118.839C119.592 118.867 119.793 119.493 119.747 119.514C119.393 119.686 118.962 119.364 118.569 119.455C118.38 119.499 118.134 119.939 117.922 119.919C117.552 119.89 116.892 119.071 116.662 119.373C116.511 119.566 116.721 120.193 116.755 120.649C116.82 121.532 116.147 120.096 116.048 119.873C116.045 119.865 116.167 119.672 115.995 119.368C115.766 118.701 116.048 119.862 116.048 119.873C115.984 119.728 115.622 119.669 115.589 119.807C115.572 119.883 115.75 120.481 115.738 120.51C115.446 121.165 115.052 121.433 114.538 121.266C114.527 121.256 114.362 120.585 114.338 120.562C114.003 120.329 114.058 121.197 113.975 121.744C113.893 122.29 113.683 122.169 113.255 121.042C113.133 121.228 112.771 120.776 112.559 120.499C112.347 120.222 112.672 121.543 112.668 121.572C112.525 122.498 112.119 121.8 111.715 121.78C111.524 121.768 111.218 122.051 111.064 122.245C110.941 122.401 110.768 122.117 110.679 122.35C110.668 122.384 110.838 122.963 110.839 122.987C110.864 123.728 110.568 122.276 110.469 122.028C110.111 121.127 109.908 120.651 109.821 121.14C109.8 121.253 110.202 123.351 110.146 123.495C110.075 123.676 109.926 122.926 109.856 123.134C109.85 123.151 109.969 123.606 109.893 123.606C109.541 123.603 109.112 123.431 108.776 123.565C108.73 123.581 108.975 124.291 108.912 124.327C108.614 124.494 108.255 124.556 107.853 124.296C107.755 124.23 107.674 123.711 107.62 123.564C107.291 122.68 107.473 124.031 107.457 124.071C107.377 124.219 107.287 124.3 107.191 124.338C106.764 124.507 106.212 123.897 105.844 124.478C105.819 124.52 105.912 126.005 105.508 124.81C105.481 124.731 105.069 123.508 105.176 124.385C105.183 124.44 105.405 125.068 105.27 125.031C105.139 124.994 105.039 125.47 104.711 124.801C104.604 124.591 104.187 123.372 104.266 124.403C104.274 124.475 104.551 126.783 104.106 125.25C104.033 124.997 103.667 123.35 103.675 124.236C103.678 124.408 103.826 124.759 103.785 125.009C103.723 125.395 103.43 124.999 103.419 125.772C103.417 125.909 103.538 127.056 103.241 126.232C103.194 126.103 103.102 125.547 103.032 125.498C102.702 125.262 102.507 125.691 102.158 125.369C102.034 125.256 101.886 124.355 101.736 124.138C101.586 123.922 101.341 123.735 101.329 124.164C101.317 124.592 101.737 125.985 101.611 126.133C101.058 126.771 100.244 126.076 99.5807 126.095C99.4834 126.099 99.6733 126.588 99.5387 126.628C99.0355 126.78 98.2768 127.451 97.5865 126.479C97.0337 125.7 97.3236 124.941 96.9742 124.653C96.8054 124.516 97.0434 126.194 97.025 126.252C96.844 126.849 96.4597 126.172 96.2311 126.461C96.2233 126.471 96.2222 126.497 96.2262 126.534C96.2468 126.72 96.3919 127.182 96.3561 127.218C96.2121 127.374 95.9522 127.122 95.8014 127.214C95.7338 127.258 95.8665 127.762 95.7897 127.741C95.6048 127.691 95.4068 127.512 95.1383 127.072C95.1137 127.032 95.0628 126.376 94.9371 126.38C94.7317 126.39 94.3833 125.976 94.2721 126.514C94.2404 126.677 94.5064 127.839 94.1793 127.069C94.1104 126.907 93.8226 125.504 93.9391 126.749C93.9589 126.957 94.0569 128.647 93.6793 127.63C93.5793 127.363 93.2219 126.241 93.1842 126.439C93.1801 126.47 93.3681 127.083 93.317 127.161C93.1314 127.419 92.8782 127.408 92.6852 127.66C92.6355 127.728 92.8796 128.352 92.8004 128.433C92.5819 128.657 92.2198 128.568 91.9215 128.424C91.8109 128.37 91.7496 127.82 91.7291 127.763C91.3973 126.842 91.6325 128.136 91.6149 128.219C91.4982 128.717 91.1849 128.158 91.0172 128.366C90.972 128.424 91.1549 129.02 91.1569 129.078C91.1665 129.636 90.9938 128.522 90.8912 128.419C90.6031 128.126 90.3826 128.23 90.193 128.358C90.1233 128.406 90.378 129.091 90.3141 129.127C89.9351 129.346 89.498 129.38 89.0084 129.087C88.9158 129.031 88.8296 128.476 88.7838 128.356C88.4641 127.514 88.5974 128.736 88.5895 128.858C88.5525 129.413 88.371 128.948 88.2487 129.074C87.6548 129.694 86.7148 129.593 86.0094 129.568C85.0931 129.537 84.2957 129.2 83.5348 129.555C83.4867 129.577 83.736 130.276 83.6989 130.307C83.1886 130.636 82.5649 130.515 82.0856 130.883C82.0478 130.915 82.3137 131.568 82.2574 131.637C82.1427 131.784 81.951 131.802 81.7418 131.631C81.6388 131.549 81.5553 130.942 81.4547 130.872C81.2187 130.707 81.0286 130.715 80.8932 130.877C80.8375 130.949 81.1652 131.6 81.0758 131.637C80.57 131.864 80.1158 132.122 79.4655 131.8C79.3181 131.749 79.164 131.676 79.0016 131.579C78.9314 131.536 78.3803 130.178 78.3766 130.478C78.5105 130.862 78.6769 131.311 78.8248 131.72C77.8924 132.316 76.7191 132.212 75.6715 132.523C75.6282 132.536 75.9744 133.236 75.8922 133.264C75.4055 133.435 75.0139 133.814 74.2428 133.28C74.1665 133.226 73.71 131.94 73.6393 132.187C73.6245 132.233 73.4682 132.487 73.5182 132.785C73.5259 132.83 73.7909 133.41 73.7262 133.456C73.3444 133.703 72.8457 133.734 72.2574 133.534C72.1633 133.499 72.0085 132.834 71.9401 132.803C71.441 132.598 71.2245 133.233 70.4147 132.827C69.8058 132.56 69.6905 131.376 69.1676 130.301C69.1366 130.224 69.0053 130.2 68.8356 130.101C68.7343 130.053 68.6136 129.983 68.5201 129.877C68.3983 129.769 68.3087 129.621 68.3268 129.454C68.4258 128.612 68.7362 127.768 68.7653 126.862C68.8297 125.963 68.6999 125.039 68.9625 124.154C68.9975 124.063 69.1991 124.015 69.6383 124.095C70.0847 124.18 71.2907 124.57 72.1129 125.879C72.8257 127.089 72.7377 127.849 72.8639 127.948C72.9108 128 72.9856 127.923 73.0377 127.572C73.0624 127.22 73.1742 126.543 72.5465 125.329C72.5016 125.249 72.3536 125.001 72.0768 124.685C71.9388 124.528 71.7685 124.356 71.5729 124.191C71.394 124.039 71.2205 123.91 71.025 123.784C70.6497 123.537 70.1832 123.338 69.8912 123.235C69.6109 123.132 69.3551 123.06 69.1373 123.006C68.3799 122.82 68.1823 122.732 68.0563 122.577C67.8949 122.376 68.0539 121.663 67.7301 121.425C67.4514 121.185 67.4319 121.778 67.2701 121.478C67.1259 121.169 66.9098 120.422 66.8385 120.347C66.749 120.16 67.2574 120.221 67.6578 120.398C67.7847 120.453 67.883 120.868 67.9801 120.922C68.1754 121.026 68.2266 120.785 68.4332 120.918C68.5017 120.966 68.6803 121.614 68.7467 121.648C69.1197 121.825 69.3048 121.573 69.6334 121.601C71.2296 121.751 72.6798 121.473 74.1754 121.243C74.5719 121.182 75.1564 121.413 75.5719 121.269C75.6734 121.234 75.7667 121.179 75.8473 121.097C75.896 121.043 75.6631 120.507 75.6569 120.455C75.5921 119.688 75.9336 120.829 76.1022 120.937C76.7779 121.36 77.2991 121.243 77.6696 120.885C77.8277 120.73 77.2831 119.676 77.6725 120.242C77.699 120.28 77.8417 120.891 77.9127 120.939C78.073 121.045 78.2593 120.87 78.3649 120.889C78.5673 120.93 78.5922 120.916 78.7574 120.873C78.987 120.818 79.3371 121.038 79.5358 120.832C79.5777 120.786 79.3279 120.191 79.3785 120.061C79.4299 119.932 79.6598 119.921 79.775 120.045C79.8899 120.17 79.9996 120.664 80.0446 120.771C80.4206 121.678 80.2926 120.309 80.316 120.267C80.7455 119.553 81.4485 120.157 81.9908 120.008C82.4002 119.894 82.7762 119.532 83.1774 119.463C83.6547 119.385 84.1362 119.62 84.5729 119.448C84.6183 119.428 84.3781 118.713 84.4342 118.69C85.0332 118.448 85.671 118.375 86.4069 118.719C86.4807 118.757 86.5583 119.416 86.6412 119.491C87.1476 119.927 88.0438 121.057 87.5953 118.199C87.8771 118.247 88.2136 118.286 88.5758 118.797C88.8087 119.127 88.834 119.863 88.942 119.521C88.9666 119.445 88.7682 118.842 88.816 118.774C89.0222 118.487 89.3452 118.622 89.527 118.244C89.5631 118.165 89.4195 117.617 89.4108 117.514C89.3456 116.682 89.8598 117.964 89.9283 118.049C90.4383 118.689 90.6181 118.348 90.9381 118.292C91.0102 118.276 90.7533 117.561 90.817 117.52C91.1584 117.328 91.5524 117.303 91.984 117.549C92.0799 117.606 92.1553 118.253 92.2086 118.313C92.445 118.566 92.205 117.366 92.4244 117.586C92.4705 117.634 92.5773 118.176 92.5973 118.234C92.9105 119.142 92.6849 117.803 92.7037 117.768C92.9257 117.297 93.4473 118.626 93.7028 118.362C93.7325 118.329 93.4922 117.665 93.5846 117.613C93.7374 117.529 93.9 117.466 94.0612 117.425C94.5932 117.293 95.1866 117.373 95.7985 117.669C95.9218 117.729 95.9658 118.26 95.9869 118.322C96.3221 119.286 96.0896 117.947 96.1119 117.886C96.2992 117.465 96.8058 118.52 96.6364 116.897C97.9139 117.185 98.8685 116.048 100.303 117.219C100.321 117.233 100.44 117.893 100.475 117.917C100.901 118.208 100.611 117.205 100.559 115.912C100.547 115.587 101.055 117.049 101.095 117.156C101.242 117.549 101.403 118.535 101.439 118.609C101.735 119.189 100.985 115.979 101.192 115.93C101.2 115.934 101.307 116.533 101.338 116.587C101.434 116.76 101.435 116.512 101.534 116.704C101.761 117.148 102.167 118.699 102.143 117.748C102.14 117.623 101.684 115.81 101.89 115.853C101.971 115.872 102.293 115.764 102.41 115.861C102.529 115.957 102.604 116.555 102.617 116.583C103.05 117.3 103.03 117.644 103.426 118.763C103.823 119.877 103.141 117.157 103.12 116.84C103.1 116.524 103.432 117.121 103.531 117.333C103.629 117.544 103.662 117.93 103.732 118.046C104.199 118.804 103.524 116.665 103.506 116.211C103.46 115.139 104.112 117.121 104.347 117.273C104.411 117.313 104.258 116.863 104.293 116.809C104.436 116.601 104.69 117.205 104.756 116.577C104.769 116.473 104.627 115.221 104.956 116.085C105.003 116.209 105.084 116.723 105.189 116.817C105.234 116.857 105.286 116.89 105.339 116.913C105.466 116.97 105.601 116.959 105.66 116.817C105.72 116.67 105.407 115.868 105.588 116.096C105.667 116.199 105.695 116.707 105.834 116.858C105.97 117.01 106.208 116.927 106.298 116.886C106.385 116.845 106.178 116.234 106.173 116.187C106.156 115.934 106.254 115.586 106.27 115.583C107.036 115.307 108.034 116.177 108.711 115.628C108.763 115.584 108.553 114.936 108.559 114.922C108.693 114.593 108.986 116.393 109.282 116.944C108.913 115.608 109.06 115.828 109.168 115.643C109.219 115.553 109.046 115.044 109.039 114.989C108.938 114.173 109.276 115.173 109.348 115.377C109.616 116.126 109.455 115.2 109.634 115.701C109.813 116.197 109.902 116.979 110.039 116.933C109.953 116.443 109.524 115.217 109.576 114.985C109.775 114.112 110.773 114.903 111.122 114.92C111.467 114.939 111.549 114.823 111.78 114.948C112.198 115.173 111.831 114.275 111.928 113.794C112.027 113.314 112.525 115.629 112.684 116.114C112.843 116.598 112.743 116.083 112.85 116.344C112.958 116.605 112.966 116.959 113.079 117.039C113.192 117.117 113.199 116.18 113.094 115.658C112.873 114.551 112.466 113.435 112.799 113.777C112.819 113.797 112.934 114.408 113.001 114.458C113.522 114.816 113.945 114.736 114.452 115.041C114.522 115.083 114.648 115.762 114.691 115.798C115.136 116.139 114.722 115.042 114.574 113.74C114.972 115.419 115.341 116.414 115.596 116.357C115.749 116.323 115.532 115.601 115.495 115.062C115.484 114.9 115.722 115.372 115.652 115.024C115.422 113.887 114.99 112.659 115.381 113.089C115.399 113.11 115.525 113.734 115.574 113.76C115.893 113.936 115.615 112.756 115.854 112.542C116.041 112.374 116.614 112.987 116.89 113.039C117.378 114.916 117.497 114.426 117.252 113.107C117.426 113.118 117.578 113 117.781 113.138C117.85 113.188 117.957 113.738 117.979 113.794C118.323 114.686 118.065 113.418 118.085 113.353C118.331 112.776 118.887 113.649 119.001 112.623C119.002 112.576 118.686 111.28 119.029 112.204C119.052 112.268 119.09 112.892 119.269 112.894C119.446 112.897 119.951 113.511 120.023 112.847C120.041 112.686 119.91 111.592 120.24 112.388C120.284 112.497 120.366 112.875 120.442 113.078C120.686 113.722 120.381 112.394 120.755 113.493C121.13 114.591 121.525 115.383 121.556 114.55C121.557 114.519 121.342 113.466 121.422 113.463C121.548 113.46 121.772 113.634 121.891 113.596C121.948 113.576 121.744 112.938 121.751 112.923C122.058 112.456 122.488 112.963 122.978 113.105C123.046 113.124 123.062 112.609 123.199 112.616C123.248 112.618 123.312 112.682 123.396 112.851C123.758 113.576 124.398 116.809 124.581 115.955C124.658 115.612 123.831 111.513 124.635 113.543C125.042 112.888 125.797 113.842 126.155 112.968C126.171 112.928 125.977 111.781 126.037 111.78C126.126 111.785 126.3 112.303 126.37 112.324C126.656 112.424 126.79 111.914 127.047 111.928C127.148 111.933 127.242 112.488 127.359 112.494C127.473 112.499 127.387 111.759 127.615 112.074C127.79 112.314 128.234 113.769 128.415 113.91C128.1 112.448 128.206 112.456 128.309 112.03C128.328 111.947 128.181 111.447 128.184 111.381C128.194 111.105 128.352 111.512 128.355 111.213C128.356 111.141 128.252 110.641 128.248 110.554ZM69.9313 129.759C69.9224 129.729 69.7949 129.738 69.8014 129.768C69.9634 130.514 70.2301 130.493 69.9313 129.759ZM111.606 119.261C111.32 118.661 111.905 120.98 111.892 120.392C111.89 120.358 111.622 119.298 111.606 119.261ZM104.63 118.406C104.619 118.372 104.541 118.358 104.59 118.553C104.749 119.183 104.804 118.981 104.63 118.406ZM100.183 117.916C100.163 117.851 99.9225 117.84 99.9283 117.902C100.075 119.141 100.564 119.168 100.183 117.916ZM110.81 116.499C110.8 116.469 110.695 116.465 110.7 116.496C110.839 117.244 111.051 117.252 110.81 116.499ZM126.127 115.099C125.719 114.114 125.979 115.647 126.285 116.411C126.59 117.174 126.25 115.398 126.127 115.099ZM127.572 113.963C127.199 113.196 127.942 116.506 127.978 115.794C127.98 115.749 127.595 114.016 127.572 113.963ZM129.005 112.79C128.856 112.352 128.797 112.905 128.984 113.449C129.134 113.886 129.188 113.335 129.005 112.79ZM116.907 113.087C116.818 112.321 116.923 112.201 117.252 113.107C117.133 113.085 117.024 113.105 116.907 113.087ZM130.871 109.655C130.961 109.687 130.981 110.557 131.149 110.769C131.471 111.151 131.036 109.441 131.519 110.274C131.605 110.422 131.885 111.979 131.875 112.077C131.389 112.098 130.404 109.467 130.871 109.655Z" fill="#FA8282"/>
<path d="M137.526 62.9734C137.789 63.1035 137.663 63.4254 137.443 63.7283C137.375 63.8242 136.963 63.9271 136.897 63.9959C136.768 64.1292 136.991 64.14 136.834 64.2889C136.781 64.339 136.132 64.5205 136.09 64.5681C135.864 64.8242 136.075 64.912 135.997 65.1267C135.599 66.1398 135.63 67.0095 135.616 67.9138C135.615 68.2216 135.144 68.7279 135.493 68.9236C135.535 68.9439 136.082 68.736 136.132 68.7254C136.868 68.5784 135.731 68.9328 135.603 69.0457C135.096 69.4925 135.142 69.7932 135.437 69.9529C135.565 70.0224 136.638 69.542 136.051 69.8572C136.01 69.8791 135.41 70.0557 135.357 70.1053C135.237 70.2171 135.384 70.3019 135.354 70.368C135.294 70.4976 135.304 70.5074 135.328 70.5984C135.354 70.7236 135.109 70.9691 135.288 71.0555C135.329 71.0733 135.924 70.8279 136.042 70.8377C136.16 70.8472 136.15 70.9871 136.02 71.073C135.89 71.1611 135.407 71.308 135.3 71.3523C134.397 71.7246 135.72 71.4231 135.759 71.4295C136.408 71.5652 135.774 72.091 135.878 72.3885C135.96 72.6165 136.284 72.7805 136.325 73.0056C136.37 73.2758 136.12 73.6174 136.26 73.8426C136.274 73.867 136.978 73.5924 136.997 73.6219C137.196 73.9348 137.238 74.3095 136.872 74.8123C136.834 74.8634 136.191 75.0336 136.117 75.0974C135.673 75.4834 134.552 76.244 137.323 75.4324C137.264 75.6099 137.213 75.8202 136.706 76.1365C136.381 76.3403 135.67 76.4936 135.997 76.4959C136.07 76.4961 136.657 76.2624 136.721 76.2791C136.99 76.352 136.848 76.5696 137.205 76.6062C137.28 76.6127 137.811 76.4225 137.912 76.3972C138.717 76.1988 137.464 76.7551 137.378 76.8123C136.743 77.2409 137.069 77.2921 137.111 77.4715C137.12 77.5136 137.824 77.22 137.859 77.2517C138.031 77.4197 138.042 77.653 137.791 77.9646C137.733 78.0347 137.107 78.2028 137.048 78.2469C136.797 78.4387 137.962 78.0649 137.743 78.241C137.697 78.2775 137.169 78.4464 137.113 78.4695C136.23 78.8306 137.514 78.444 137.557 78.4451C138.004 78.4883 136.704 79.0583 136.952 79.1648C136.983 79.1771 137.631 78.9038 137.678 78.9519C137.994 79.2785 137.947 79.7363 137.546 80.3006C137.485 80.3878 136.971 80.5161 136.911 80.5408C135.97 80.9294 137.271 80.5303 137.327 80.533C137.728 80.5682 136.695 81.0728 138.264 80.6531C137.951 81.478 139.03 81.8197 137.873 82.9295C137.86 82.9429 137.22 83.1448 137.197 83.1707C136.907 83.4842 137.88 83.1114 139.129 82.8289C139.443 82.7581 138.024 83.3509 137.917 83.3972C137.535 83.5628 136.582 83.8513 136.507 83.8885C135.939 84.1801 139.054 83.1032 139.097 83.2215C139.093 83.227 138.513 83.4069 138.459 83.4363C138.291 83.5284 138.53 83.4821 138.342 83.5799C137.908 83.8055 136.4 84.3466 137.319 84.1531C137.438 84.1277 139.202 83.5037 139.155 83.6394C139.134 83.6931 139.228 83.8683 139.131 83.9597C139.035 84.0504 138.457 84.2079 138.428 84.2215C137.721 84.6189 137.39 84.6722 136.297 85.1228C135.209 85.5721 137.854 84.6495 138.162 84.5769C138.467 84.5052 137.88 84.8215 137.672 84.9207C137.464 85.0199 137.091 85.1112 136.976 85.1756C136.227 85.5984 138.316 84.7928 138.754 84.699C139.792 84.4766 137.854 85.239 137.698 85.4119C137.658 85.4568 138.096 85.2816 138.147 85.2928C138.341 85.3393 137.748 85.6094 138.35 85.533C138.449 85.5203 139.662 85.2114 138.815 85.5672C138.692 85.6185 138.194 85.761 138.099 85.8416C137.956 85.9624 137.889 86.1155 138.077 86.1297C138.216 86.1394 139.002 85.8063 138.775 85.9558C138.673 86.0229 138.181 86.1304 138.028 86.243C137.875 86.3551 137.944 86.4867 137.978 86.534C138.016 86.5791 138.616 86.3435 138.659 86.3338C138.904 86.2797 139.233 86.2777 139.236 86.2869C139.46 86.7033 138.569 87.4737 139.058 87.7888C139.096 87.8132 139.725 87.5752 139.747 87.573C140.057 87.5972 138.308 88.0892 137.759 88.366C139.067 87.9086 138.846 88.0379 139.018 88.0711C139.103 88.0861 139.603 87.8918 139.656 87.8777C140.447 87.6743 139.464 88.0547 139.264 88.1346C138.527 88.4283 139.427 88.1691 138.935 88.366C138.447 88.5613 137.689 88.7509 137.724 88.8269C138.201 88.6895 139.41 88.2143 139.629 88.2068C140.043 88.1925 140.046 88.3723 139.941 88.5838C139.95 88.5941 139.954 88.6384 139.962 88.6492C139.85 88.8593 139.627 89.0932 139.603 89.2C139.557 89.413 139.661 89.4408 139.523 89.6033C139.271 89.8923 140.171 89.5433 140.628 89.5359C141.085 89.5283 138.802 90.154 138.32 90.3181C137.839 90.4817 138.345 90.3483 138.083 90.45C137.822 90.5515 137.478 90.6071 137.392 90.6863C137.307 90.7655 138.213 90.6362 138.728 90.5017C139.818 90.2133 140.932 89.8097 140.574 90.0623C140.548 90.0781 139.949 90.233 139.898 90.2801C139.51 90.6497 139.551 90.8892 139.216 91.2449C139.169 91.2935 138.498 91.4672 138.463 91.4978C138.097 91.8163 139.193 91.4089 140.465 91.1346C138.807 91.6137 137.814 91.9749 137.849 92.1267C137.872 92.2155 138.586 91.9816 139.111 91.8836C139.269 91.8539 138.793 92.0655 139.135 91.9734C140.255 91.6724 141.478 91.2381 141.029 91.5349C141.004 91.5494 140.395 91.7136 140.365 91.7469C140.169 91.9621 141.332 91.6326 141.522 91.7459C141.67 91.8353 141.03 92.2686 140.958 92.4471C139.102 93.0111 139.567 93.014 140.863 92.6756C140.837 92.7787 140.941 92.8609 140.791 93.0027C140.741 93.0516 140.198 93.1956 140.14 93.2176C139.248 93.5551 140.504 93.214 140.559 93.2185C141.096 93.2802 140.21 93.7547 141.192 93.6697C141.227 93.6669 142.52 93.2839 141.596 93.6277C141.532 93.6512 140.925 93.7625 140.91 93.8738C140.894 93.9873 140.257 94.3701 140.896 94.3269C141.05 94.3156 142.121 94.0766 141.324 94.3914C141.215 94.434 140.843 94.5377 140.641 94.6131C139.998 94.8543 141.307 94.4757 140.215 94.864C139.124 95.252 138.326 95.6066 139.129 95.5047C139.153 95.5024 140.189 95.2181 140.192 95.2644C140.186 95.3422 140.001 95.5048 140.029 95.5721C140.043 95.6037 140.666 95.3909 140.69 95.3894C141.119 95.5077 140.597 95.8426 140.422 96.1619C140.388 96.2175 141.303 96.0869 140.637 96.3807C139.908 96.7035 136.725 97.5494 137.541 97.5418C137.869 97.534 141.903 96.4605 139.875 97.2303C140.479 97.3875 139.496 97.9682 140.314 98.0652C140.35 98.07 141.489 97.8146 141.483 97.8533C141.469 97.9111 140.952 98.0719 140.925 98.118C140.804 98.3037 141.289 98.3295 141.252 98.4939C141.239 98.5559 140.685 98.6573 140.666 98.7254C140.648 98.7884 141.386 98.6965 141.05 98.8514C140.794 98.9724 139.306 99.266 139.135 99.3279C140.618 99.1373 140.595 99.1891 140.997 99.2615C141.076 99.2763 141.59 99.213 141.656 99.2185C141.665 99.2194 141.674 99.2205 141.681 99.2215L141.676 99.1795C141.894 99.1827 141.51 99.2732 141.794 99.2615C141.865 99.2582 142.368 99.1774 142.455 99.1687C143.203 99.0858 142.085 99.3513 141.894 99.4158C141.163 99.6314 141.818 99.5175 141.538 99.6297C141.261 99.7528 140.879 99.7676 140.72 99.8787C140.395 100.12 140.544 100.308 140.587 100.466C140.608 100.529 141.21 100.216 141.232 100.217C141.426 100.232 140.85 100.693 142.06 100.073C139.055 101.89 142.384 99.9571 141.844 100.413C141.799 100.451 140.444 101.408 140.201 101.482C139.954 101.551 140.338 101.188 139.96 101.293C139.873 101.329 138.431 101.923 138.329 101.931C137.567 102.06 139.798 100.967 139.92 100.908C141.222 100.225 139.638 100.772 139.503 100.748C138.926 100.726 139.199 100.428 138.788 100.351C138.522 100.298 136.936 100.65 136.957 100.518C137.022 100.147 138.648 99.7822 137.916 99.7098C137.927 99.6711 137.882 99.5485 137.895 99.5105C137.77 99.5197 137.571 99.5363 137.278 99.5672C137.205 99.5738 137.092 99.5881 136.962 99.6023C137.261 99.5533 137.507 99.5084 137.035 99.574C136.981 99.5822 136.81 99.6104 136.656 99.6365C136.538 99.65 136.42 99.663 136.316 99.6756C136.357 99.661 136.404 99.644 136.306 99.6502C136.108 99.6653 135.813 99.6956 135.975 99.616C136.072 99.5682 137 99.308 137.226 99.2342C137.875 99.0238 136.781 99.2445 137.571 99.0105C138.364 98.7702 139.601 98.5307 140.093 98.2967C138.791 98.6316 137.453 98.9729 136.143 99.3103C136.145 99.1297 136.51 98.8194 136.394 98.6316C136.378 98.6087 135.69 98.8346 135.656 98.8152C135.513 98.7335 135.977 98.4867 135.746 98.4236C135.563 98.3754 134.797 98.486 134.582 98.4432C136.038 97.9398 135.493 97.9402 135.594 97.7879C135.629 97.7344 136.023 97.6187 136.143 97.5516C136.586 97.3048 135.301 97.7457 135.086 97.7801C134.176 97.9247 137.116 97.0167 136.999 96.8933C136.973 96.8919 135.396 97.2704 135.294 97.2869C134.632 97.3977 135.837 97.1072 135.937 97.0193C136.119 96.856 136.474 96.6802 135.981 96.7078C135.835 96.717 134.832 96.9353 135.569 96.6404C135.665 96.6021 136.181 96.4493 136.213 96.4324C136.683 96.1584 135.053 96.6533 134.48 96.7527C133.907 96.8517 134.998 96.3963 135.316 96.2771C136.136 95.9647 135.689 96.2097 135.77 96.1883C136.76 95.9239 136.569 95.899 136.633 95.8142C138.228 95.3164 138.107 95.2622 136.694 95.7283C136.539 95.7794 136.703 95.78 136.633 95.8142C135.05 96.2423 134.821 96.2116 136.253 95.658C136.925 95.3986 137.739 95.1995 137.403 95.1463C137.25 95.1215 136.158 95.4836 135.84 95.5174C135.115 95.5918 136.088 95.1061 135.885 95.0183C135.811 94.9862 135.223 95.2196 135.152 95.2039C134.962 95.1627 135.387 94.9417 135.129 94.9246C135.105 94.9231 134.48 95.1356 134.463 95.1101C134.326 94.9202 134.671 94.6056 134.615 94.3806C134.586 94.2697 134.18 94.1809 134.215 94.0496C134.273 93.819 135.116 93.2988 134.844 93.2019C134.668 93.1365 134.044 93.3517 133.6 93.4353C132.74 93.5956 134.183 92.9854 134.409 92.8943C134.416 92.8914 134.593 92.9381 134.902 92.7908C135.568 92.5574 134.412 92.8945 134.409 92.8943C134.554 92.8355 134.641 92.6069 134.509 92.6053C134.437 92.605 133.842 92.7973 133.816 92.7937C133.202 92.6966 132.979 92.5075 133.179 92.1609C133.19 92.1527 133.862 91.958 133.878 91.9412C134.131 91.705 133.286 91.8616 132.763 91.8865C132.241 91.9118 132.374 91.7648 133.5 91.3455C133.328 91.2979 133.798 91.0166 134.083 90.8484C134.367 90.6817 133.072 91.0594 133.036 91.0633C132.531 91.0862 132.543 90.9833 132.656 90.8435L132.718 91.0369C132.801 90.9296 132.94 90.7992 132.958 90.6912C132.981 90.5712 132.727 90.4353 132.549 90.3748C132.407 90.3277 132.69 90.1742 132.471 90.1609C132.442 90.159 131.871 90.3647 131.848 90.3689C131.133 90.514 132.549 90.0795 132.793 89.9763C133.681 89.6014 134.152 89.3959 133.686 89.4295C133.578 89.4377 131.539 90.0463 131.401 90.0398C131.23 90.0286 131.96 89.8064 131.764 89.8006C131.748 89.7999 131.304 89.9513 131.307 89.906C131.329 89.6908 131.52 89.3998 131.411 89.2234C131.391 89.2016 130.701 89.4727 130.67 89.4412C130.526 89.2924 130.487 89.0909 130.758 88.8025C130.827 88.7311 131.332 88.5895 131.476 88.5301C132.347 88.1699 131.026 88.5282 130.997 88.5232C130.266 88.4153 131.356 87.7792 130.688 87.6433C130.649 87.6367 129.216 87.9721 130.384 87.5066C130.462 87.4755 131.658 87.0011 130.808 87.2312C130.752 87.2468 130.141 87.4957 130.183 87.409C130.224 87.3222 129.771 87.3592 130.428 87.0359C130.635 86.9339 131.827 86.4545 130.83 86.7C130.754 86.7195 128.532 87.3312 130.023 86.7722C130.269 86.68 131.87 86.1454 131.016 86.3221C130.851 86.3567 130.506 86.5134 130.266 86.5379C129.896 86.5761 130.289 86.3261 129.544 86.4724C129.412 86.4987 128.304 86.7969 129.108 86.4597C129.234 86.4069 129.773 86.2426 129.823 86.1922C130.06 85.9517 129.652 85.9236 129.972 85.6541C130.084 85.559 130.955 85.2918 131.168 85.1599C131.381 85.0286 131.566 84.842 131.154 84.9197C130.74 84.9975 129.386 85.5274 129.247 85.4803C128.645 85.273 129.33 84.6485 129.322 84.2361C129.321 84.1757 128.845 84.3878 128.808 84.3113C128.671 84.0277 128.038 83.6829 128.995 83.0672C129.761 82.5767 130.487 82.6173 130.774 82.3445C130.908 82.2144 129.288 82.6767 129.229 82.6765C128.658 82.673 129.323 82.3125 129.052 82.2244C128.996 82.2063 128.359 82.46 128.318 82.4422C128.173 82.3833 128.426 82.1834 128.343 82.1092C128.304 82.0766 127.814 82.2514 127.836 82.2019C127.891 82.082 128.072 81.9304 128.505 81.6844C128.545 81.6619 129.179 81.5059 129.179 81.4314C129.178 81.3106 129.589 81.0245 129.074 81.0574C128.919 81.0685 127.788 81.4529 128.541 81.1062C128.699 81.0336 130.062 80.5925 128.859 80.8992C128.659 80.9499 127.024 81.3332 128.017 80.909C128.279 80.7971 129.371 80.3664 129.181 80.3816C129.147 80.3867 128.552 80.6168 128.481 80.6004C128.239 80.538 128.258 80.3835 128.021 80.3113C127.954 80.2943 127.349 80.5605 127.272 80.5271C127.063 80.4335 127.16 80.1956 127.308 79.9861C127.366 79.9084 127.896 79.767 127.952 79.7439C128.851 79.3682 127.595 79.757 127.516 79.7615C127.04 79.7839 127.59 79.4871 127.395 79.4207C127.342 79.4024 126.758 79.6279 126.703 79.6394C126.164 79.7481 127.245 79.4351 127.348 79.3523C127.639 79.1193 127.547 79.0024 127.43 78.909C127.386 78.8749 126.715 79.159 126.684 79.1258C126.487 78.9365 126.468 78.6649 126.769 78.3074C126.828 78.2395 127.364 78.0863 127.483 78.0359C128.307 77.6851 127.123 77.9897 127.006 78.0066C126.473 78.0839 126.928 77.8874 126.813 77.8347C126.236 77.5669 126.377 76.9668 126.434 76.5086C126.511 75.9285 126.877 75.358 126.583 74.9256C126.565 74.8973 125.873 75.1691 125.847 75.1482C125.56 74.8641 125.723 74.4401 125.403 74.1668C125.378 74.1443 124.726 74.412 124.662 74.3846C124.529 74.3273 124.527 74.2021 124.707 74.0349C124.796 73.9535 125.388 73.8198 125.463 73.742C125.641 73.5602 125.649 73.4293 125.505 73.3572C125.442 73.3271 124.784 73.6304 124.755 73.573C124.548 73.1893 124.294 72.8299 125.033 72.1033C125.084 72.054 126.462 71.5548 126.175 71.5857C125.789 71.7129 125.336 71.8679 124.924 72.0066C124.496 71.4795 124.779 70.7344 124.645 70.1004C124.635 70.0768 123.919 70.3684 123.905 70.3201C123.816 70.0257 123.52 69.8245 124.151 69.282C124.213 69.2295 125.51 68.8026 125.288 68.7869C125.248 68.7865 125.029 68.71 124.737 68.7732C124.693 68.7831 124.097 69.0121 124.065 68.9763C123.893 68.7722 123.945 68.4721 124.23 68.0994C124.277 68.0395 124.935 67.8626 124.974 67.8181C125.251 67.5135 124.689 67.4625 125.205 67.0652C125.558 66.8097 126.687 66.4808 127.758 66.0418C127.909 65.9791 127.908 65.8924 128.543 65.6765C130.144 65.131 131.912 64.5789 133.617 63.993C133.983 63.8656 133.557 63.91 134.464 63.6648C134.525 63.6478 134.843 63.6165 135.151 63.534C135.364 63.4763 136.004 63.2371 136.28 63.1726C136.554 63.1068 136.024 63.3249 136.349 63.2547C136.68 63.1871 137.411 62.9201 137.526 62.9734ZM141.163 101.603C141.014 101.241 143.23 99.5107 143.051 99.7908C143.028 99.852 142.324 100.315 142.155 100.507C141.876 100.891 143.207 99.7383 142.577 100.442C142.474 100.584 141.179 101.635 141.161 101.605C141.162 101.605 141.163 101.604 141.163 101.603ZM140.178 99.74C140.62 99.6121 140.079 99.5945 139.526 99.7449C139.082 99.8746 139.63 99.9116 140.178 99.74ZM136.316 99.6756C136.3 99.6811 136.287 99.6879 136.282 99.6912C135.757 99.7436 135.955 99.7191 136.316 99.6756ZM136.38 99.6834C136.29 99.6963 136.272 99.697 136.282 99.6912C136.315 99.6878 136.352 99.6845 136.392 99.6805C136.387 99.6813 136.383 99.683 136.38 99.6834ZM136.962 99.6023C136.755 99.6363 136.523 99.6724 136.486 99.6726C135.337 99.7906 136.343 99.67 136.962 99.6023ZM138.247 98.3308C139.238 97.9577 137.728 98.3217 136.96 98.6033C136.194 98.8837 137.945 98.4421 138.247 98.3308ZM140.91 92.4646C141.659 92.3022 141.766 92.3477 140.863 92.6756C140.893 92.6016 140.883 92.539 140.91 92.4646ZM134.533 90.2801C134.228 90.3771 134.018 90.4585 134.239 90.4246C134.249 90.4229 134.38 90.3814 134.549 90.3318L134.533 90.2801ZM135.358 90.0935C135.623 89.98 135.331 90.0461 134.967 90.1492L134.984 90.2039C135.18 90.1454 135.343 90.0994 135.358 90.0935ZM138.108 89.158C137.646 89.2938 137.468 89.3965 137.589 89.3826L137.583 89.364C137.654 89.3587 137.824 89.3173 138.098 89.2254C138.108 89.2219 138.116 89.2127 138.122 89.2019C138.131 89.1793 138.128 89.1521 138.108 89.158ZM136.593 85.7908C136.627 85.7784 136.643 85.728 136.453 85.7937C135.839 86.0056 136.032 86.0018 136.593 85.7908ZM137.222 82.8347C136.023 83.1681 135.988 83.4708 137.204 82.993C137.266 82.9681 137.282 82.8191 137.222 82.8347ZM128.185 66.1814C127.454 66.3929 127.436 66.5317 128.176 66.2527C128.207 66.2442 128.215 66.1721 128.185 66.1814Z" fill="#FA8282"/>
<path d="M156.391 77.509C156.237 76.7689 156.715 77.8206 156.799 78.0042C157.116 78.6995 156.95 78.056 157.106 78.3186C157.263 78.582 157.283 78.9691 157.414 79.1174C157.687 79.4232 157.86 79.2796 158.026 79.2493C158.091 79.2342 157.834 78.6014 157.839 78.5842C157.913 78.3782 158.273 79.0211 157.915 77.7102C159.118 81.0086 157.886 77.3615 158.292 77.9651C158.324 78.0141 158.873 79.5802 158.894 79.8313C158.915 80.0812 158.665 79.6184 158.707 80.0051C158.718 80.0987 159.102 81.6056 159.117 81.7014C159.234 82.4389 158.435 80.0895 158.387 79.9622C157.856 78.5889 158.252 80.2235 158.254 80.345C158.262 80.9008 158.019 80.6134 158.004 81.0169C157.993 81.2788 158.487 82.8259 158.402 82.801C158.121 82.7179 157.349 80.587 157.734 82.5266C157.816 82.9407 158.401 84.6185 157.809 83.3411C157.771 83.2582 157.263 82.0832 157.435 82.8753C157.457 82.9759 157.614 83.4688 157.615 83.5139C157.62 83.8067 157.442 83.4311 157.415 83.6467C157.387 83.8624 157.37 84.1756 157.219 84.0393C157.127 83.958 156.764 83.0614 156.666 82.844C156.385 82.219 156.628 83.3104 156.336 82.5383C156.043 81.7623 155.769 80.5315 155.483 80.0598C155.873 81.3471 156.267 82.6705 156.655 83.9661C156.349 84.0099 155.938 83.6806 155.663 83.8245C155.63 83.8463 155.873 84.5253 155.842 84.5637C155.709 84.7226 155.42 84.2716 155.306 84.5178C155.22 84.7117 155.288 85.4901 155.201 85.7161C154.688 84.2629 154.628 84.8226 154.439 84.7307C154.374 84.6989 154.265 84.3027 154.191 84.1838C153.917 83.7462 154.352 85.0363 154.372 85.2532C154.452 86.1787 153.604 83.223 153.433 83.3469C153.424 83.3526 153.737 84.9635 153.747 85.0715C153.814 85.7445 153.576 84.5267 153.474 84.429C153.29 84.2502 153.099 83.8968 153.078 84.4006C153.073 84.5501 153.237 85.5642 152.945 84.8245C152.907 84.7277 152.771 84.2041 152.754 84.1741C152.455 83.7063 152.895 85.3521 152.951 85.9348C153.007 86.5172 152.558 85.4192 152.443 85.0989C152.143 84.2713 152.405 84.7212 152.387 84.637C152.172 83.6342 152.114 83.8318 152.013 83.7688C151.575 82.1568 151.493 82.2822 151.911 83.7102C151.957 83.8659 151.978 83.7 152.013 83.7688C152.364 85.3719 152.29 85.6088 151.769 84.1614C151.526 83.4831 151.375 82.6578 151.263 83.0022C151.212 83.1582 151.532 84.2631 151.534 84.5872C151.537 85.3252 151.042 84.3454 150.904 84.553C150.853 84.6291 151.07 85.224 151.04 85.2971C150.96 85.493 150.742 85.061 150.679 85.3254C150.674 85.3502 150.857 85.9796 150.823 86.0012C150.554 86.1463 150.205 85.7965 149.903 85.8557C149.758 85.8846 149.579 86.2998 149.413 86.2629C149.121 86.2036 148.593 85.3403 148.422 85.6165C148.309 85.7941 148.481 86.4314 148.514 86.884C148.577 87.7609 148.031 86.2842 147.954 86.053C147.951 86.0454 148.043 85.8665 147.906 85.5501C147.72 84.8686 147.955 86.0497 147.954 86.053C147.945 86.0261 147.927 86.001 147.906 85.9788C147.873 85.9751 147.777 86.015 147.744 86.01C147.655 85.9053 147.475 85.854 147.454 85.9622C147.44 86.0345 147.563 86.648 147.553 86.6741C147.336 87.2797 147.046 87.4924 146.674 87.262C146.666 87.2505 146.552 86.5605 146.535 86.5422C146.294 86.2704 146.326 87.1323 146.261 87.6594C146.196 88.1863 146.045 88.0408 145.743 86.8762C145.654 87.0455 145.393 86.5539 145.24 86.2542C145.087 85.9547 145.313 87.2942 145.309 87.3235C145.197 88.218 144.907 87.4787 144.611 87.4085C144.47 87.3732 144.246 87.6137 144.13 87.7854C144.039 87.9229 143.915 87.6218 143.847 87.8401C143.838 87.8694 143.959 88.4638 143.959 88.4876C143.97 89.2212 143.766 87.7534 143.696 87.4973C143.441 86.566 143.298 86.0716 143.229 86.5432C143.214 86.6541 143.486 88.7652 143.446 88.9016C143.393 89.0717 143.29 88.3151 143.237 88.511C143.232 88.5272 143.316 88.9919 143.26 88.9807C143 88.935 142.687 88.7115 142.44 88.802C142.406 88.8127 142.579 89.542 142.532 89.5696C142.311 89.6981 142.046 89.7162 141.756 89.4114C141.684 89.334 141.63 88.8115 141.592 88.6604C141.356 87.7465 141.481 89.1121 141.468 89.1409C141.154 89.8604 140.623 88.6969 140.287 89.3499C140.269 89.3879 140.326 90.8632 140.039 89.637C140.018 89.5512 139.73 88.3026 139.802 89.1799C139.806 89.2361 139.964 89.8785 139.866 89.8274C139.767 89.7754 139.696 90.2345 139.459 89.5364C139.383 89.3153 139.089 88.0664 139.138 89.093C139.143 89.1646 139.333 91.4752 139.017 89.9114C138.965 89.6538 138.71 87.9854 138.711 88.8616C138.711 89.0314 138.817 89.395 138.786 89.6379C138.738 90.0125 138.526 89.5888 138.514 90.3518C138.513 90.487 138.593 91.6332 138.381 90.7864C138.347 90.653 138.284 90.0951 138.233 90.0383C137.992 89.7699 137.847 90.1729 137.591 89.8176C137.5 89.6926 137.398 88.7872 137.289 88.5569C137.179 88.3268 137 88.1167 136.986 88.5393C136.972 88.9625 137.27 90.3858 137.173 90.5178C136.746 91.0915 136.128 90.3207 135.612 90.2669C135.536 90.2587 135.668 90.7653 135.56 90.7903C135.162 90.8854 134.527 91.4607 134.035 90.4114C133.641 89.5709 133.907 88.8579 133.648 88.5286C133.525 88.3715 133.627 90.0564 133.609 90.1155C133.434 90.6818 133.17 89.9618 132.981 90.2161C132.942 90.2701 133.069 90.9423 133.035 90.9797C132.918 91.1132 132.741 90.828 132.622 90.8977C132.569 90.9309 132.64 91.4491 132.584 91.4153C132.449 91.3402 132.313 91.1343 132.135 90.6624C132.118 90.618 132.117 89.9665 132.022 89.9524C131.867 89.933 131.632 89.4734 131.517 89.9885C131.484 90.1434 131.616 91.3298 131.414 90.5227C131.371 90.3519 131.241 88.9278 131.252 90.1721C131.254 90.38 131.225 92.063 131.002 91.0042C130.943 90.7252 130.745 89.5672 130.704 89.7571C130.7 89.7921 130.801 90.4211 130.758 90.4885C130.599 90.7162 130.41 90.6679 130.247 90.887C130.206 90.9434 130.329 91.5266 130.287 91.6497C130.204 91.6117 130.12 91.557 130.042 91.4944C129.961 91.4286 129.921 90.8779 129.906 90.8196C129.671 89.8719 129.834 91.1762 129.82 91.2561C129.73 91.7351 129.504 91.147 129.379 91.3323C129.344 91.3819 129.474 91.9944 129.475 92.052C129.477 92.6046 129.36 91.4838 129.286 91.3704C129.077 91.0489 128.914 91.1272 128.771 91.2317C128.72 91.2724 128.901 91.9763 128.853 92.0042C128.573 92.177 128.246 92.1599 127.887 91.8137C127.82 91.7472 127.763 91.1899 127.73 91.0657C127.505 90.1972 127.587 91.4193 127.579 91.5383C127.543 92.0811 127.415 91.6021 127.322 91.7102C126.871 92.2513 126.166 92.0383 125.636 91.9231C124.947 91.7757 124.349 91.3378 123.757 91.5803C123.719 91.5963 123.885 92.3207 123.854 92.344C123.448 92.5962 122.97 92.3845 122.568 92.6731C122.537 92.6999 122.708 93.3796 122.66 93.4397C122.56 93.5661 122.407 93.5543 122.247 93.3538C122.17 93.2571 122.143 92.648 122.067 92.5628C121.891 92.3635 121.737 92.3397 121.617 92.4758C121.566 92.537 121.781 93.2292 121.705 93.2512C121.191 93.4149 120.694 93.6294 119.998 92.8059C119.949 92.7469 119.657 91.3133 119.629 91.6038C119.695 92.0052 119.781 92.4762 119.855 92.9045C119.129 93.2736 118.285 92.9117 117.5 92.9778C117.469 92.9883 117.665 93.7328 117.602 93.7434C117.243 93.7987 116.927 94.0764 116.418 93.387C116.368 93.3182 116.131 91.974 116.06 92.1975C116.048 92.2383 115.919 92.4483 115.933 92.7473C115.936 92.7923 116.084 93.4118 116.037 93.4417C115.748 93.5952 115.407 93.5124 115.029 93.1887C114.968 93.1337 114.891 92.4581 114.846 92.4143C114.534 92.1078 114.361 92.6677 114.009 92.1096C113.773 91.733 113.6 90.5701 113.29 89.4534C113.246 89.2959 113.143 89.2896 113.007 88.6311C112.662 86.9756 112.348 85.1505 111.975 83.387C111.895 83.0072 111.843 83.4438 111.738 82.5081C111.731 82.4451 111.768 82.1206 111.731 81.804C111.705 81.5849 111.541 80.9205 111.521 80.637C111.502 80.3539 111.653 80.908 111.648 80.5715C111.641 80.2317 111.464 79.4746 111.561 79.3606C111.797 79.1016 112.186 79.2526 112.516 79.5003C112.618 79.5773 112.656 80.0014 112.729 80.0735C112.872 80.2139 112.941 79.9888 113.089 80.1604C113.138 80.2199 113.219 80.8881 113.267 80.9348C113.533 81.1859 113.702 80.9797 113.942 81.0794C115.123 81.5722 116.202 81.6291 117.311 81.7385C117.681 81.7734 118.21 82.2969 118.523 81.97C118.559 81.9299 118.432 81.359 118.43 81.3069C118.426 80.5525 118.594 81.7289 118.703 81.8713C119.136 82.4281 119.506 82.4177 119.781 82.1379C119.897 82.0166 119.56 80.8884 119.807 81.512C119.825 81.5559 119.9 82.1763 119.948 82.2356C120.056 82.3689 120.193 82.2313 120.266 82.2688C120.407 82.3442 120.428 82.3338 120.545 82.3206C120.706 82.3078 120.95 82.5808 121.097 82.4114C121.128 82.3734 120.971 81.7501 121.01 81.6321C121.049 81.5146 121.212 81.5411 121.29 81.6809C121.368 81.8208 121.433 82.321 121.462 82.4338C121.705 83.3822 121.653 82.0195 121.67 81.9827C121.991 81.3493 122.48 82.0452 122.875 81.9758C123.17 81.9218 123.451 81.6164 123.739 81.6028C124.087 81.5882 124.428 81.8832 124.75 81.7688C124.783 81.7575 124.618 81.0195 124.659 81.0042C125.094 80.8421 125.556 80.8487 126.09 81.2766C126.143 81.3226 126.193 81.982 126.253 82.0657C126.616 82.5574 127.264 83.7765 126.959 80.9036C127.163 80.984 127.411 81.0614 127.67 81.6077C127.837 81.9595 127.849 82.689 127.931 82.3635C127.95 82.2893 127.81 81.6757 127.845 81.6126C127.997 81.3535 128.236 81.5224 128.369 81.1702C128.396 81.097 128.294 80.5392 128.289 80.4368C128.247 79.6071 128.616 80.929 128.665 81.0227C128.72 81.1262 128.77 81.2072 128.816 81.2698C128.847 81.2538 128.955 81.2615 128.987 81.2473C129.223 81.6165 129.361 81.3923 129.555 81.387C129.608 81.3831 129.466 80.6359 129.513 80.6077C129.767 80.4712 130.043 80.5067 130.34 80.8128C130.406 80.8826 130.425 81.5307 130.461 81.5989C130.617 81.8836 130.506 80.6648 130.651 80.9143C130.682 80.9666 130.732 81.5184 130.743 81.5784C130.922 82.5196 130.827 81.1668 130.842 81.135C131.022 80.7028 131.334 82.0903 131.53 81.8655C131.553 81.8371 131.41 81.1471 131.48 81.1096C131.952 80.8577 132.489 80.9852 133.053 81.4778C133.139 81.5537 133.155 82.0825 133.168 82.1467C133.378 83.1436 133.251 81.7877 133.268 81.7337C133.414 81.3423 133.752 82.4486 133.666 80.8245C134.568 81.2698 135.254 80.251 136.291 81.5618C136.304 81.5768 136.385 82.239 136.411 82.2698C136.72 82.6033 136.515 81.5806 136.485 80.2962C136.478 79.9751 136.839 81.4695 136.869 81.5833C136.974 81.9868 137.085 82.9769 137.111 83.0569C137.324 83.6632 136.797 80.4079 136.948 80.3831C136.954 80.3904 137.027 80.9889 137.05 81.0481C137.119 81.2289 137.12 80.9852 137.192 81.1848C137.357 81.6482 137.642 83.2254 137.633 82.2825C137.63 82.1559 137.31 80.3176 137.46 80.3831C137.52 80.4107 137.755 80.3408 137.842 80.4495C137.928 80.5579 137.979 81.1557 137.988 81.1848C138.298 81.9419 138.282 82.2796 138.564 83.429C138.846 84.5741 138.368 81.8113 138.354 81.4963C138.341 81.1824 138.582 81.8095 138.652 82.0295C138.722 82.2498 138.744 82.6343 138.795 82.7571C139.128 83.5589 138.652 81.3698 138.643 80.9202C138.62 79.8563 139.079 81.8855 139.252 82.0647C139.298 82.1127 139.19 81.6511 139.216 81.6018C139.319 81.4138 139.506 82.0387 139.556 81.427C139.565 81.3244 139.477 80.076 139.709 80.9661C139.742 81.0952 139.797 81.6099 139.873 81.7151C139.986 81.8725 140.157 81.958 140.218 81.7717C140.262 81.6328 140.041 80.807 140.17 81.053C140.227 81.1632 140.243 81.6666 140.344 81.8333C140.444 81.9993 140.618 81.947 140.683 81.9182C140.748 81.8892 140.601 81.2601 140.598 81.2141C140.589 80.9624 140.665 80.6321 140.677 80.6301C141.239 80.4519 141.962 81.4324 142.464 80.9768C142.503 80.9423 142.357 80.2864 142.359 80.2629C142.46 79.9543 142.659 81.7634 142.872 82.343C142.614 80.9817 142.719 81.2164 142.8 81.0481C142.838 80.9657 142.716 80.4419 142.711 80.387C142.644 79.5715 142.883 80.5983 142.934 80.8079C143.124 81.5784 143.014 80.6477 143.141 81.1624C143.268 81.6735 143.326 82.4544 143.427 82.427C143.368 81.9334 143.065 80.6702 143.105 80.4495C143.259 79.6157 143.986 80.5179 144.24 80.5803C144.494 80.6421 144.555 80.5386 144.723 80.6907C145.028 80.9655 144.769 80.0346 144.846 79.5735C144.925 79.1123 145.264 81.4564 145.376 81.9534C145.486 82.4493 145.418 81.9305 145.494 82.2004C145.57 82.4709 145.572 82.8222 145.654 82.9143C145.736 83.0055 145.751 82.0846 145.68 81.5569C145.531 80.4386 145.246 79.2872 145.488 79.6663C145.502 79.6888 145.579 80.3072 145.628 80.3626C146.005 80.7821 146.317 80.7576 146.684 81.1233C146.735 81.1745 146.819 81.8615 146.85 81.8997C146.976 82.0525 147.008 81.9744 146.996 81.7454C146.97 81.3848 146.815 80.6572 146.728 79.8655C147.061 81.5589 147.356 82.5758 147.547 82.5452C147.66 82.5273 147.48 81.7946 147.437 81.26C147.425 81.1001 147.615 81.5866 147.553 81.2376C147.348 80.0963 146.994 78.8471 147.291 79.3088C147.304 79.331 147.417 79.9564 147.454 79.9876C147.693 80.1908 147.447 79.0046 147.609 78.8167C147.736 78.6696 148.176 79.3264 148.38 79.4016C148.822 81.2905 148.892 80.8171 148.646 79.5003C148.772 79.5261 148.879 79.423 149.032 79.5754C149.085 79.6274 149.194 80.1797 149.213 80.2376C149.513 81.1443 149.254 79.8673 149.266 79.8118C149.414 79.2654 149.873 80.1666 149.891 79.1672C149.891 79.1257 149.574 77.824 149.884 78.7581C149.905 78.8226 149.973 79.438 150.104 79.4534C150.235 79.4692 150.644 80.1096 150.653 79.4622C150.656 79.306 150.479 78.2215 150.778 79.0266C150.819 79.1367 150.906 79.5126 150.976 79.7161C151.203 80.3651 150.88 79.0413 151.238 80.1438C151.596 81.2461 151.948 82.0491 151.912 81.2317C151.91 81.2036 151.671 80.1555 151.728 80.1565C151.82 80.1608 152 80.345 152.088 80.3137C152.128 80.2946 151.926 79.6637 151.928 79.6458C152.112 79.2056 152.472 79.7259 152.849 79.8889C152.919 79.9197 152.828 78.9955 153.135 79.6594C153.472 80.3859 154.256 83.5844 154.32 82.7512C154.349 82.4164 153.32 78.3663 154.125 80.385C154.358 79.7579 155.032 80.7117 155.196 79.8616C155.204 79.8238 154.918 78.693 154.963 78.6956C155.03 78.7019 155.222 79.211 155.276 79.2337C155.503 79.3355 155.532 78.8382 155.725 78.8538C155.799 78.8585 155.944 79.4031 156.032 79.4085C156.12 79.4129 155.951 78.6901 156.164 78.9983C156.326 79.2347 156.864 80.6519 157.026 80.7864C156.577 79.3604 156.66 79.3658 156.669 78.9485C156.67 78.8666 156.485 78.3804 156.477 78.3167C156.443 78.0468 156.62 78.4421 156.576 78.1506C156.566 78.0804 156.409 77.5948 156.391 77.509ZM130.287 91.6497C130.36 91.6833 130.432 91.704 130.5 91.6995L130.137 91.7473C130.188 91.7357 130.236 91.7109 130.279 91.6672C130.283 91.6634 130.284 91.657 130.287 91.6497ZM113.62 89.052C113.612 89.0214 113.535 89.0054 113.539 89.0364C113.648 89.7895 113.803 89.8212 113.62 89.052ZM139.449 83.2161C139.441 83.1813 139.385 83.159 139.419 83.3567C139.53 83.9963 139.572 83.8036 139.449 83.2161ZM155.419 81.9514C155 80.9755 155.366 82.4853 155.682 83.2415C155.999 83.9961 155.547 82.2476 155.419 81.9514ZM136.198 82.2376C136.183 82.1718 136.01 82.1346 136.013 82.1965C136.111 83.4381 136.467 83.5168 136.198 82.2376ZM156.387 80.8479C156.007 80.0952 156.994 83.3412 156.935 82.6409C156.931 82.5963 156.41 80.8915 156.387 80.8479ZM143.916 82.0784C144.011 82.8331 144.165 82.8675 143.996 82.095C143.988 82.0644 143.913 82.0478 143.916 82.0784ZM157.307 79.6751C157.125 79.2517 157.167 79.7942 157.394 80.3206C157.578 80.7439 157.535 80.2015 157.307 79.6751ZM148.394 79.4504C148.294 78.6894 148.362 78.5809 148.645 79.4993C148.559 79.4677 148.481 79.4783 148.394 79.4504ZM158.278 76.5559C158.353 76.5909 158.445 77.4436 158.598 77.6585C158.88 78.0491 158.397 76.3547 158.838 77.2004C158.919 77.3563 159.292 78.977 159.273 78.9837C159.273 78.9824 159.272 78.981 159.272 78.9797C158.938 78.9591 157.868 76.364 158.278 76.5559Z" fill="#FA8282"/>
<path d="M97.9492 1.00843C99.5981 0.445109 99.5315 2.93641 99.5966 3.08362C100.347 4.64941 102.302 3.20967 102.786 3.15784C104.979 2.91293 106.728 3.52196 108.558 3.42542C109.754 3.367 110.129 1.78324 111.043 1.98597C111.746 2.14308 112.324 2.39783 112.834 2.67835C114.558 3.62857 115.42 4.76028 118.176 3.96351C118.942 3.76896 118.867 1.82054 120.818 4.00354C120.962 4.14231 122.141 5.99491 123.352 5.66858C123.508 5.62708 123.72 5.1551 123.889 5.18421C124.359 5.27006 124.709 5.43778 125.049 5.6305C125.516 5.89663 125.953 6.20645 126.614 6.39905C127.749 6.72899 129.133 7.0863 130.236 7.84046C130.902 8.29415 131.371 9.61757 131.6 10.0016C132.239 11.096 133.775 10.6422 133.978 11.6823C134.18 12.7267 132.444 13.2268 133.728 14.5172C134.42 13.3618 135.203 12.2156 135.936 11.0739C137.348 11.8547 138.718 12.7055 140.082 13.5905C141.998 14.8334 143.933 16.1649 145.918 17.5123C146.339 17.7977 146.329 16.9058 146.794 17.2008C148.762 18.465 149.999 20.118 151.887 21.4313C152.018 21.522 152.154 21.6108 152.295 21.6989C153.695 22.5703 155.441 23.229 156.81 24.2086C156.629 26.1019 158.988 27.5227 160.337 28.9703C160.81 29.4759 160.495 29.7456 160.762 30.1783C161.769 31.8046 162.071 30.2245 162.588 30.4176C164.806 31.2695 162.811 33.614 164.686 35.3619C164.713 35.3882 164.916 35.4082 165.196 35.4254C165.925 35.4712 167.199 35.5203 167.368 35.5895C168.883 36.1946 167.131 36.1636 167.686 36.9157C168.697 38.2976 169.206 39.4184 170.884 40.609C171.372 40.9507 173.076 41.3738 173.182 42.7604C173.196 42.9418 172.723 43.22 172.773 43.3326C173.71 45.3422 175.072 44.3394 176.288 44.9733C176.673 45.1762 176.954 45.5373 177.158 45.9557C177.595 46.8512 177.665 48.0012 177.632 48.3492C177.513 49.6772 176.876 47.9474 176.772 47.9557C175.571 48.0518 176.526 49.0458 177.065 49.9469C175.798 51.0438 176.715 52.1641 177.627 50.8776C177.725 50.7339 177.126 50.1605 177.065 49.9469C178.93 49.731 180.06 50.9633 179.787 53.3014C179.652 54.3946 178.533 54.1988 180.16 56.1334C180.893 57.0182 181.625 56.0267 182.435 56.7213C184.074 58.1359 184.756 60.7914 185.774 62.7809C185.906 63.037 186.045 63.2849 186.192 63.5162C186.662 64.2547 186.811 63.2067 187.151 63.7037C188.056 65.0294 188.275 66.4935 189.194 67.8239C189.278 67.9443 189.716 67.3356 189.942 67.7819C191.663 71.174 192.585 74.3902 193.943 78.109C194.422 79.4155 195.316 81.4266 195.936 83.1832C196.17 83.8408 196.369 84.4612 196.501 84.9869C197.36 88.3345 197.392 92.635 198.171 95.4381C198.678 97.2743 199.243 96.7479 199.832 97.4772C200.978 98.8993 199.843 101.935 199.644 102.329C199.637 102.323 199.256 100.741 199.045 101.65C198.417 102.248 199.639 102.31 199.644 102.329C199.535 102.596 199.768 105.871 199.939 106.513C200.041 106.861 200.645 106.607 200.686 106.791C200.707 106.891 200.729 106.991 200.75 107.09C201.649 111.368 201.886 115.804 201.359 120.226C201.341 120.305 200.651 120.148 200.62 120.333C200.158 122.914 200.842 124.644 201.074 126.874C201.092 127.052 201.106 127.227 201.115 127.397C201.222 129.364 200.709 130.943 199.387 131.913C199.214 133.596 198.086 135.838 197.364 137.049C196.65 138.26 197.864 138.872 197.852 139C197.583 141.412 196.828 142.996 195.916 144.637C195.347 145.655 194.708 146.698 194.035 147.981C193.207 149.576 191.767 152.796 190.973 154.55C190.352 155.941 189.627 156.584 189.113 157.897C189.043 158.075 189.663 158.209 189.655 158.271C189.502 159.992 188.595 158.599 188.205 158.745C186.785 159.271 185.993 159.62 185.341 161.557C185.269 161.767 185.472 162.372 185.671 163.04C185.895 163.806 186.108 164.66 185.913 165.086C185.428 166.123 185.026 165.347 184.516 166.443C184.47 166.536 184.876 166.783 184.433 167.39C182.601 169.941 180.06 172.656 177.787 174.937C177.546 175.183 177.303 175.431 177.064 175.677C176.723 176.025 177.695 176.112 177.207 176.625C174.913 179.032 172.089 181.464 169.267 183.161C168.571 183.576 168.659 182.854 168.427 182.834C167.024 182.716 166.598 184.684 166.398 184.853C166.34 184.904 166.281 184.955 166.222 185.005C161.707 188.783 157.393 189.843 152.46 192.968C152.41 193 152.318 193.104 152.193 193.248C151.649 193.899 150.128 195.49 148.727 194.922C148.604 194.882 146.999 194.13 146.229 195.286C146.182 195.358 147.127 195.762 145.8 196.095C144.476 196.424 142.601 197.32 140.877 196.937C140.572 196.872 140.004 196.534 139.345 196.46C138.815 196.398 138.221 196.511 137.651 197.089C137.573 197.184 135.734 199.878 134.636 198.455C134.459 198.218 134.296 196.538 132.707 197.694C132.402 197.917 133.072 198.184 132.232 198.567C130.941 199.156 129.077 199.003 127.522 199.998C127.251 200.174 126.171 201.493 125.047 200.772C124.871 200.659 125.089 200.06 124.554 200.071C122.01 200.118 119.414 200.813 116.794 200.679C115.867 200.631 116.246 199.681 115.277 199.525C115.26 199.522 115.243 199.519 115.226 199.516C114.24 199.367 112.372 199.292 111.426 199.762C110.461 200.242 111.642 201.624 110.147 201.831C103.629 202.712 97.1276 201.874 90.6464 201.411C90.0719 201.369 90.1134 201.55 89.9414 201.69C89.8228 201.785 89.6059 201.861 89.0273 201.83C83.8321 201.63 74.5237 200.899 70.1953 198.779C70.1729 198.768 70.15 198.758 70.1279 198.748C66.7108 197.091 71.3796 197.436 68.7255 196.474C67.4594 196.01 65.6302 197.289 65.2919 197.255C62.0232 196.963 60.0659 195.594 57.2148 194.861C56.6238 194.706 56.9646 195.55 56.4599 195.408C55.3732 195.105 54.307 194.606 53.2675 194.122C52.6583 193.838 52.058 193.559 51.4628 193.327C50.7413 193.046 50.6625 193.581 50.0224 193.253C48.4932 192.468 47.2185 191.602 45.9843 190.406C45.8755 190.298 47.0625 190.187 45.9765 189.59C44.3585 188.7 42.6342 187.239 40.6953 186.429C40.5235 186.358 40.3493 186.292 40.1728 186.231C39.5296 186.009 38.869 187.01 38.0898 185.538C37.9263 185.226 39.0291 184.24 36.9472 184.358C36.6069 184.389 33.2788 184.159 32.7626 182.443C32.6248 181.994 32.5617 180.495 31.8085 180.157C31.7028 180.114 31.6689 180.894 31.0927 180.536C30.3429 180.063 29.6099 179.541 28.8847 178.997C27.6575 178.076 26.4505 177.092 25.205 176.168C24.6752 175.774 24.9729 176.923 24.1943 176.315C22.0492 174.643 19.6975 172.125 18.0126 169.957C17.3928 169.157 18.2702 169.306 18.2646 169.211C18.2487 168.817 18.1426 168.55 17.9882 168.365C17.548 167.836 16.6934 167.965 16.4619 167.779C14.5342 166.195 13.8912 164.317 12.4863 162.569C12.1008 162.082 11.8308 162.797 11.7148 162.727C10.5394 161.958 12.0085 162.131 11.665 161.387C10.9843 159.893 10.1239 158.387 9.28218 156.94C8.9627 156.392 8.63917 155.851 8.32417 155.322C7.91527 154.634 7.70695 155.772 7.34663 155.147C5.77718 152.377 4.27202 149.571 3.16694 145.666C2.81642 144.339 2.59156 143.083 2.44038 141.873C2.33967 141.02 2.99774 141.434 3.08687 141.235C3.71649 139.883 2.24996 138.412 2.07808 138.025C1.29707 136.321 1.71182 135.573 1.46187 134.043C0.925709 130.716 0.696581 127.077 0.659132 123.48C0.526584 118.765 1.32058 113.665 2.06441 109.993C2.43377 108.114 2.82605 106.378 3.22456 104.691C4.71493 98.4522 6.20406 93.0806 7.55073 86.6686C7.66038 86.153 6.81729 86.5046 6.9023 86.0582C7.94021 80.8218 9.36347 75.779 10.6425 70.5016C10.7785 69.9458 10.9113 69.3964 11.0429 68.8463C11.1638 68.3514 10.2874 68.8653 10.458 68.0709C10.8076 66.4315 11.4651 64.3558 12.3466 62.6149C12.775 61.7771 12.9015 63.1625 13.3251 62.3151C14.2867 60.3723 15.6135 57.8831 16.8515 55.9557C17.3602 55.144 15.9385 55.9073 16.6494 54.8903C16.9553 54.4568 17.2505 54.0524 17.5351 53.6657C21.4764 48.317 25.7859 43.3284 31.0703 39.1744C31.3454 38.9588 31.6266 38.7419 31.9062 38.5319C32.321 38.2204 33.6559 38.968 34.2431 38.027C34.0231 37.6756 33.6919 37.3306 33.4199 36.9899C38.4463 32.0653 43.7961 27.7732 49.4023 23.6432C52.3421 21.4887 55.4094 19.3622 58.6572 17.358C59.0554 17.1126 57.9543 16.8827 58.7294 16.403C59.8561 15.7089 60.9821 15.0334 62.0947 14.3951C65.2051 12.6219 68.7453 10.5692 73.2929 9.59339C73.7651 9.49581 73.9537 10.3336 74.7871 10.3473C75.0034 10.3551 75.2656 10.3038 75.5976 10.1627C75.867 10.029 78.228 9.24346 78.7822 8.83948C78.8565 8.77735 78.2839 8.2463 79.0595 8.06507C83.5898 7.03921 88.2218 6.7782 92.5429 6.9762C93.2427 7.01071 92.5311 7.72041 93.0263 7.75159C96.5127 7.96962 100.269 7.45784 103.526 8.15589C105.702 8.62977 104.852 9.78268 105.964 10.9762C106.116 11.1438 107.454 11.2235 107.49 11.8991C107.591 13.5956 106.88 15.4186 107.064 17.2301C107.099 17.6187 108.863 17.2806 107.787 18.1705C107.711 18.2292 106.444 18.4873 106.123 18.7946C105.901 19.0065 106.259 19.7042 105.814 19.9694C105.371 20.2347 104.908 19.6441 104.179 19.9537C103.447 20.269 103.746 21.0524 102.315 21.1139C99.003 21.2493 94.7144 21.0699 91.5117 20.9635C90.5024 20.9308 90.9879 20.4758 90.2871 20.4391C88.9229 20.3718 87.698 20.6944 86.3779 20.6549C85.9408 20.6405 86.3959 19.908 85.9335 19.9098C83.397 19.932 81.1182 20.5142 78.8134 21.0153C78.5814 21.0661 78.3481 21.1198 78.123 21.1744C75.0589 21.8971 71.8141 23.5111 68.3085 25.3502C64.1685 27.4779 60.3392 29.9806 56.4521 32.8229C52.9484 35.3835 49.484 38.1123 46.0859 40.9489C43.8407 42.8248 41.1784 44.8624 38.8017 47.0407C37.5574 48.1804 36.3859 49.3652 35.3808 50.57C35.0407 50.9799 35.6875 51.1505 35.6542 51.2575C35.1282 52.918 34.6099 51.7276 33.7958 52.3883C31.0586 54.6248 28.5062 57.5255 26.496 60.3991C26.1371 60.911 25.8088 61.4041 25.5244 61.8727C24.7694 63.1741 26.5493 62.5835 25.2412 63.4323C25.1519 63.495 24.8004 62.8623 24.5419 63.1666C23.9443 63.843 23.3352 65.4838 23.0312 66.1901C22.4309 67.534 22.365 67.7837 21.9248 69.1774C21.5455 70.3901 21.0299 71.7522 20.5957 73.1598C20.3508 73.9514 20.1293 74.7695 19.9794 75.5621C19.8921 76.0332 20.6691 75.584 20.5898 76.3375C20.5075 77.0974 19.9712 79.0251 19.664 79.6481C19.3567 80.2676 18.936 79.8697 18.7949 79.9576C17.611 80.6867 18.3833 83.2688 18.3486 83.5651C17.6477 89.0049 15.8699 93.405 14.7978 98.4166C14.2262 101.103 13.7658 103.95 13.3056 106.647C13.1136 107.773 12.9222 108.873 12.7236 109.926C11.9266 114.214 11.042 117.684 11.1005 121.715C11.106 122.146 11.8593 121.643 11.8691 122.166C11.8767 122.532 11.8874 122.901 11.8984 123.277C12.0674 128.64 12.2651 133.955 12.7705 139.046C12.8283 139.593 12.0378 139.03 12.0595 139.589C12.1042 140.551 12.1531 141.671 12.332 142.787C12.7876 145.589 14.3336 148.706 16.8417 149.024C17.2651 149.927 17.749 150.91 18.2138 151.906C18.8279 153.231 19.4218 154.551 19.7959 155.74C20.2239 157.067 18.8933 156.382 20.0869 157.589C20.3573 157.857 20.5984 157.099 20.9628 157.523C22.2698 159.042 23.5051 160.805 24.9687 162.217C25.2204 162.461 25.4798 162.695 25.7451 162.914C26.1133 163.215 26.4429 162.735 26.6074 162.763C27.9509 163.009 28.2821 165.273 28.5185 165.636C30.252 168.349 32.2139 169.67 34.4873 171.538C34.6509 171.671 34.7498 171.659 34.8232 171.589C34.8451 171.569 34.8643 171.543 34.8828 171.514C34.964 171.389 35.0233 171.212 35.1494 171.181C35.2105 171.167 35.288 171.186 35.3906 171.262C38.105 173.293 40.9102 175.357 43.5517 177.433C44.1385 177.896 43.2139 178.078 43.4775 178.328C44.1047 178.912 44.6713 178.939 45.2324 178.989C45.7242 179.032 46.212 179.093 46.7519 179.555C46.9968 179.762 46.563 180.151 46.582 180.233C46.8864 181.521 48.2505 180.734 48.4628 180.818C51.2025 181.87 52.2377 183.963 54.9433 184.92C55.2642 185.028 54.8411 184.087 55.7226 184.429C56.1273 184.585 56.5341 184.739 56.9443 184.892C61.8059 186.703 67.0294 188.321 72.1025 189.799C72.8041 190.004 73.5028 190.205 74.1972 190.403C75.1509 190.672 74.3642 191.058 74.4101 191.134C75.2307 192.322 76.1264 191.094 76.4492 191.097C79.0074 191.159 81.2421 192.592 83.1435 191.169C85.5707 191.563 88.0252 191.809 90.4902 191.968C98.5274 192.484 106.52 192.106 114.587 192.38C114.877 192.39 115.168 192.401 115.459 192.413C115.597 192.418 115.416 193.106 115.691 193.111C119.024 193.152 118.288 192.173 120.29 190.651C120.79 190.269 122.644 191.576 122.809 191.667C123.402 192.005 122.98 193.069 123.171 193.124C124.754 193.541 124.048 190.315 126.034 190.017C126.096 190.016 125.926 190.653 126.102 190.687C126.65 190.796 127.129 190.478 127.671 190.604C128.908 190.897 129.593 192.411 131.22 191.187C131.427 191.028 130.763 189.248 132.551 189.02C133.262 188.936 136.375 188.317 137.266 188.256C137.485 188.243 137.619 188.274 137.7 188.331C137.853 188.432 137.825 188.615 137.785 188.752C137.759 188.847 137.727 188.92 137.748 188.924C137.773 188.928 137.798 188.931 137.822 188.934C140.242 189.232 139.441 189.74 140.869 190.623C142.322 191.496 141.355 188.838 141.743 188.422C142.138 188.014 143.935 188.193 144.412 188.263C144.885 188.347 144.503 188.878 144.906 188.88C147.607 188.794 145.449 187.194 146.025 186.49C146.662 185.662 147.497 185.526 148.425 185.518C149.38 185.514 150.414 185.655 151.28 185.322C151.742 185.143 151.167 184.909 151.532 184.668C152.972 183.715 154.205 183.781 155.609 182.287C155.845 182.041 156.558 180.173 157.897 180.422C158.09 180.458 158.011 181.117 158.697 180.829C159.609 180.447 161.078 179.626 161.996 178.868C162.11 178.774 162.216 178.682 162.311 178.592C162.946 177.989 161.646 177.864 162.681 177.453C163.141 177.266 162.706 178.198 163.551 177.808C164.398 177.427 166.226 175.976 166.891 175.39C167.559 174.81 166.769 174.624 166.797 174.545C166.97 174.081 168.022 172.749 168.128 172.648C169.401 171.483 170.651 170.336 171.88 169.182C175.033 166.289 177.755 163.198 180.069 159.542C180.754 158.468 181.404 157.352 182.006 156.202C182.276 155.687 181.491 155.675 181.526 155.593C182.271 153.742 183.06 156.002 184.282 155.095C182.979 154.582 183.607 153.997 184.155 152.699C184.417 152.073 183.769 152.135 183.751 152.054C183.518 150.791 184.769 150.687 185.045 150.63C186.057 150.421 185.569 149.344 186.246 149.192C186.921 149.035 187.129 150.322 187.745 149.117C187.477 148.555 185.87 148.841 186.149 147.842C186.646 146.055 187.809 143.788 188.948 141.568C190.218 139.117 191.406 136.688 191.913 135.178C192.865 132.311 192.933 131.323 193.443 129.62C194.152 127.067 193.478 127.281 193.144 126.331C193.069 126.124 193.008 125.859 192.974 125.5C192.769 123.486 195.005 124.697 195.545 124.467C196.082 124.235 195.593 123.868 195.906 123.538C196.219 123.207 196.49 124.015 196.674 123.182C196.866 122.34 196.115 119.966 195.591 119.65C194.492 118.972 193.277 119.93 193.77 117.786C193.799 117.661 194.409 118.086 194.485 117.608C194.988 114.344 194.964 110.931 194.957 107.589C194.956 107.034 194.956 106.478 194.959 105.926C194.962 105.392 195.7 105.791 195.71 105.478C195.777 102.207 194.744 103.489 193.223 101.943C194.983 102.088 195.912 100.964 195.501 98.5153C195.247 97.0485 194.549 97.435 193.849 96.6002C193.639 96.3513 193.939 95.2287 193.553 95.1149C192.288 94.7462 191.235 95.9599 191.201 93.4293C191.201 93.3173 191.896 93.5157 191.85 93.1383C191.535 90.6958 190.29 90.7002 189.458 88.2213C189.204 87.4766 188.998 86.4758 188.793 85.3971C188.466 83.6617 188.126 81.7181 187.694 80.3326C189.54 79.7162 188.323 77.7404 186.74 77.4098C186.222 75.9714 185.503 74.4878 185.059 73.066C184.905 72.5783 185.552 72.6469 185.583 72.5641C186.034 71.2628 184.565 71.2053 184.377 70.9332C183.08 68.9776 182.405 67.0294 181.386 65.2047C180.833 64.2168 180.181 63.272 179.277 62.4108C179.184 62.3232 177.93 62.8459 178.304 61.5612C178.33 61.4742 179.443 62.1248 178.646 60.7233C177.857 59.3278 176.806 56.3591 175.01 54.8658C174.577 54.5001 172.904 54.0144 172.956 52.6276C172.964 52.4407 173.372 52.3444 173.422 52.0465C173.572 51.0857 172.253 51.5888 172.703 50.2516C172.816 49.9164 172.879 49.5455 172.88 49.1598C172.879 48.0036 172.303 46.6805 170.756 45.7057C170.69 45.6627 169.512 45.9156 169.072 45.3551C168.371 44.4553 167.482 43.0769 166.674 42.194C166.287 41.7715 166.036 42.4937 165.96 42.4283C164.458 41.0689 163.328 39.7976 162.182 38.4342C161.157 37.2172 160.123 35.9327 158.794 34.5035C158.279 33.9454 156.076 33.1347 155.486 31.6188C154.83 29.9538 158.282 28.624 154.972 26.7125C153.774 26.0236 150.343 27.4567 149.165 25.4049C149.017 25.1512 148.907 24.8489 148.832 24.4801C145.152 21.9656 142.098 18.9469 138.129 17.0006C137.464 16.6697 136.777 16.3666 136.063 16.0983C135.839 16.0129 134.632 16.6788 134.158 16.4039C133.455 15.9935 133.317 15.3024 132.819 14.9967C130.737 13.7041 128.534 13.0959 126.461 11.9821C125.672 11.5613 126.202 11.1943 125.257 10.6959C124.524 10.3116 123.777 10.4387 122.948 10.0836C122.703 9.97848 122.454 9.83453 122.194 9.62561C121.323 8.92659 120.93 7.07819 119.526 6.37366C118.956 7.76373 118.015 7.35232 116.197 7.29163C115.849 7.28217 116.074 7.87611 115.903 7.89808C115.219 8.00235 114.733 7.45272 114.068 7.61292C113.91 7.6522 113.801 8.15101 113.665 8.21155C113.085 8.47942 112.431 8.25075 111.883 7.92737C111.343 7.60765 110.907 7.19382 110.779 7.07093C109.784 6.13002 109.152 6.70122 108.339 6.26917C107.522 5.83795 108.872 5.67091 107.891 5.33362C105.855 4.6355 103.142 4.33766 101.009 4.05042C100.156 3.93891 100.655 4.68741 100.531 4.68714C98.7574 4.64246 97.0413 3.73322 95.9375 4.99476C95.3034 2.4388 95.0047 3.62324 94.0361 4.21643C93.6311 4.46133 93.1207 4.60743 92.3984 4.36292C92.2064 4.29399 92.0274 2.62264 92.8222 2.42249C93.2066 2.32803 93.6635 2.41609 94.165 2.50452C94.7045 2.60021 95.286 2.69533 95.8642 2.54944C96.1217 2.48115 97.7366 1.07977 97.9492 1.00843ZM113.025 193.281C112.967 193.221 110.797 193.315 110.73 193.378C109.672 194.699 114.097 194.514 113.025 193.281ZM151.863 186.335C151.829 186.313 151.209 186.598 151.313 186.77C151.65 187.328 152.417 186.723 151.863 186.335ZM193.93 142.257C192.853 143.12 194.972 144.247 194.974 142.785C194.967 142.711 193.984 142.212 193.93 142.257ZM191.015 141.769C190.99 141.777 190.835 142.09 190.717 142.347C190.642 142.509 190.583 142.647 190.59 142.662C190.806 143.01 191.094 142.858 191.264 142.589C191.476 142.25 191.503 141.738 191.015 141.769ZM186.741 77.4147C187.069 78.3673 187.426 79.3149 187.73 80.2799C186.665 79.5931 186.153 78.5217 186.741 77.4147ZM143.542 16.5866C143.003 15.2732 141.262 16.3368 141.513 16.8629C142.299 18.5822 144.054 17.894 143.542 16.5866ZM101.639 11.2252C102.163 10.4719 100.237 10.3857 100.64 11.1813C100.663 11.2126 101.614 11.2556 101.639 11.2252ZM127.932 8.27308C127.812 8.25693 126.885 9.79327 126.958 9.88343C128.202 11.4315 129.987 8.53249 127.932 8.27308ZM112.455 4.76526C111.814 4.66254 111.053 4.9282 111.482 5.42054C111.65 5.6138 111.971 5.71047 112.282 5.72425C112.864 5.75074 113.445 5.50339 113.065 5.0553C112.929 4.89969 112.708 4.8058 112.455 4.76526ZM84.5468 3.21058C88.6437 3.0127 90.9164 5.90016 86.7607 5.67347C85.9952 5.64987 88.363 4.71245 87.3837 4.49866C85.5396 4.11166 84.5211 5.9835 82.5849 5.2389C82.2308 5.10148 84.3063 3.21151 84.5537 3.20569C84.5514 3.20718 84.549 3.20909 84.5468 3.21058Z" fill="#FA8282"/>
</svg>
