<svg width="202" height="202" viewBox="0 0 202 202" fill="none" xmlns="http://www.w3.org/2000/svg">
<path d="M98.0546 0.148442C99.7036 -0.414877 99.637 2.07642 99.7021 2.22364C100.453 3.78943 102.408 2.34968 102.892 2.29786C105.084 2.05294 106.833 2.66198 108.663 2.56543C109.86 2.50702 110.235 0.923253 111.148 1.12598C111.851 1.2831 112.429 1.53785 112.939 1.81836C114.663 2.76859 115.526 3.9003 118.281 3.10352C119.048 2.90897 118.973 0.960558 120.924 3.14356C121.068 3.28233 122.246 5.13492 123.458 4.8086C123.613 4.76709 123.825 4.29511 123.994 4.32422C124.464 4.41007 124.815 4.5778 125.154 4.77051C125.622 5.03665 126.058 5.34647 126.72 5.53907C127.854 5.86901 129.239 6.22632 130.342 6.98047C131.007 7.43417 131.476 8.75758 131.705 9.14161C132.344 10.236 133.88 9.78218 134.084 10.8223C134.286 11.8667 132.55 12.3668 133.834 13.6572C134.525 12.5018 135.309 11.3557 136.041 10.2139C137.453 10.9947 138.823 11.8455 140.187 12.7305C142.104 13.9734 144.039 15.3049 146.023 16.6523C146.445 16.9377 146.434 16.0458 146.899 16.3408C148.868 17.605 150.104 19.2581 151.992 20.5713C152.123 20.6621 152.26 20.7508 152.4 20.8389C153.801 21.7103 155.546 22.369 156.915 23.3486C156.734 25.2419 159.093 26.6627 160.442 28.1104C160.915 28.6159 160.6 28.8856 160.867 29.3184C161.874 30.9446 162.176 29.3645 162.693 29.5576C164.911 30.4095 162.917 32.754 164.791 34.502C164.819 34.5282 165.021 34.5482 165.302 34.5654C166.031 34.6112 167.304 34.6603 167.474 34.7295C168.988 35.3346 167.236 35.3036 167.792 36.0557C168.803 37.4376 169.311 38.5584 170.989 39.749C171.477 40.0907 173.181 40.5138 173.287 41.9004C173.301 42.0818 172.828 42.36 172.879 42.4727C173.815 44.4822 175.178 43.4794 176.394 44.1133C176.778 44.3162 177.059 44.6773 177.264 45.0957C177.7 45.9912 177.77 47.1412 177.737 47.4893C177.619 48.8172 176.981 47.0874 176.878 47.0957C175.676 47.1918 176.632 48.1858 177.171 49.0869C175.904 50.1838 176.821 51.3041 177.732 50.0176C177.83 49.8739 177.231 49.3005 177.171 49.0869C179.035 48.8711 180.165 50.1033 179.893 52.4414C179.758 53.5346 178.638 53.3389 180.266 55.2734C180.999 56.1582 181.731 55.1668 182.54 55.8613C184.18 57.2759 184.861 59.9314 185.88 61.9209C186.011 62.177 186.15 62.4249 186.298 62.6563C186.767 63.3947 186.917 62.3467 187.257 62.8438C188.161 64.1694 188.381 65.6335 189.3 66.9639C189.384 67.0843 189.822 66.4756 190.048 66.9219C191.769 70.314 192.69 73.5302 194.049 77.249C194.527 78.5555 195.421 80.5666 196.042 82.3232C196.276 82.9808 196.474 83.6012 196.606 84.127C197.465 87.4745 197.497 91.775 198.276 94.5781C198.783 96.4143 199.348 95.8879 199.937 96.6172C201.083 98.0393 199.948 101.075 199.75 101.469C199.742 101.463 199.362 99.8807 199.15 100.79C198.522 101.388 199.744 101.45 199.75 101.469C199.641 101.736 199.874 105.011 200.045 105.653C200.146 106.001 200.75 105.747 200.791 105.931C200.813 106.031 200.834 106.131 200.855 106.23C201.755 110.508 201.991 114.944 201.465 119.366C201.447 119.445 200.757 119.288 200.726 119.473C200.263 122.054 200.947 123.784 201.18 126.014C201.198 126.192 201.211 126.367 201.221 126.537C201.327 128.504 200.814 130.083 199.492 131.053C199.32 132.736 198.191 134.978 197.47 136.189C196.755 137.4 197.969 138.012 197.957 138.14C197.688 140.552 196.933 142.136 196.021 143.777C195.452 144.795 194.813 145.838 194.141 147.121C193.313 148.716 191.872 151.936 191.078 153.69C190.457 155.081 189.732 155.724 189.219 157.037C189.148 157.215 189.769 157.349 189.761 157.411C189.608 159.132 188.7 157.739 188.311 157.885C186.891 158.411 186.099 158.76 185.446 160.697C185.374 160.907 185.578 161.512 185.776 162.18C186.001 162.946 186.214 163.8 186.019 164.226C185.533 165.263 185.131 164.487 184.621 165.583C184.576 165.676 184.981 165.923 184.538 166.53C182.706 169.081 180.165 171.796 177.893 174.077C177.651 174.323 177.409 174.571 177.17 174.817C176.828 175.165 177.801 175.252 177.312 175.765C175.018 178.172 172.195 180.604 169.372 182.301C168.676 182.716 168.764 181.994 168.532 181.974C167.129 181.856 166.704 183.824 166.504 183.993C166.445 184.044 166.386 184.095 166.327 184.146C161.812 187.923 157.499 188.983 152.565 192.108C152.516 192.14 152.423 192.244 152.299 192.388C151.754 193.039 150.233 194.63 148.833 194.062C148.71 194.022 147.105 193.27 146.335 194.426C146.287 194.498 147.232 194.902 145.905 195.235C144.581 195.564 142.706 196.46 140.982 196.077C140.678 196.012 140.11 195.674 139.45 195.6C138.921 195.538 138.326 195.651 137.757 196.229C137.679 196.324 135.839 199.018 134.741 197.595C134.565 197.359 134.402 195.678 132.812 196.834C132.508 197.057 133.178 197.324 132.338 197.707C131.047 198.296 129.183 198.143 127.628 199.138C127.357 199.314 126.277 200.633 125.152 199.912C124.977 199.799 125.194 199.2 124.659 199.211C122.115 199.258 119.52 199.953 116.899 199.819C115.973 199.771 116.352 198.821 115.383 198.665C115.366 198.662 115.348 198.659 115.331 198.656C114.346 198.507 112.477 198.432 111.531 198.902C110.566 199.382 111.747 200.764 110.253 200.971C103.735 201.852 97.2331 201.014 90.7519 200.551C90.1774 200.509 90.2188 200.69 90.0468 200.83C89.9283 200.925 89.7114 201.001 89.1328 200.97C83.9376 200.77 74.6292 200.039 70.3007 197.919C70.2784 197.908 70.2554 197.898 70.2334 197.888C66.8163 196.231 71.4851 196.576 68.831 195.614C67.5648 195.15 65.7357 196.429 65.3974 196.396C62.1287 196.103 60.1713 194.734 57.3203 194.001C56.7293 193.846 57.0701 194.69 56.5654 194.548C55.4787 194.245 54.4124 193.746 53.373 193.262C52.7638 192.978 52.1634 192.699 51.5683 192.467C50.8468 192.186 50.768 192.721 50.1279 192.393C48.5987 191.608 47.324 190.742 46.0898 189.546C45.981 189.438 47.168 189.327 46.082 188.73C44.464 187.84 42.7397 186.379 40.8007 185.569C40.629 185.498 40.4548 185.432 40.2783 185.371C39.635 185.149 38.9744 186.15 38.1953 184.678C38.0318 184.366 39.1346 183.38 37.0527 183.498C36.7123 183.529 33.3843 183.299 32.8681 181.583C32.7303 181.134 32.6672 179.635 31.914 179.297C31.8083 179.254 31.7744 180.034 31.1982 179.676C30.4483 179.203 29.7154 178.681 28.9902 178.137C27.763 177.216 26.5559 176.232 25.3105 175.308C24.7807 174.914 25.0784 176.063 24.2998 175.455C22.1547 173.783 19.8029 171.265 18.1181 169.097C17.4983 168.297 18.3757 168.446 18.3701 168.351C18.3541 167.957 18.2481 167.69 18.0937 167.505C17.6535 166.976 16.7989 167.105 16.5673 166.919C14.6397 165.335 13.9966 163.457 12.5917 161.709C12.2063 161.222 11.9363 161.937 11.8203 161.867C10.6449 161.098 12.114 161.271 11.7705 160.527C11.0897 159.033 10.2293 157.527 9.38765 156.08C9.06817 155.532 8.74464 154.991 8.42964 154.462C8.02074 153.774 7.81242 154.912 7.4521 154.287C5.88265 151.517 4.37749 148.711 3.27241 144.806C2.92189 143.479 2.69703 142.223 2.54585 141.013C2.44514 140.16 3.10321 140.574 3.19234 140.375C3.82196 139.023 2.35543 137.552 2.18355 137.165C1.40254 135.461 1.81729 134.714 1.56734 133.183C1.03118 129.856 0.80205 126.217 0.764601 122.62C0.632053 117.905 1.42605 112.805 2.16987 109.133C2.53924 107.255 2.93152 105.518 3.33003 103.831C4.8204 97.5922 6.30953 92.2206 7.6562 85.8086C7.76585 85.293 6.92276 85.6446 7.00776 85.1982C8.04567 79.9618 9.46894 74.919 10.748 69.6416C10.884 69.0858 11.0168 68.5365 11.1484 67.9863C11.2692 67.4915 10.3929 68.0053 10.5634 67.2109C10.9131 65.5715 11.5706 63.4958 12.4521 61.7549C12.8805 60.9171 13.0069 62.3025 13.4306 61.4551C14.3922 59.5123 15.7189 57.0231 16.957 55.0957C17.4657 54.284 16.0439 55.0473 16.7548 54.0303C17.0608 53.5968 17.3559 53.1925 17.6406 52.8057C21.5818 47.457 25.8913 42.4685 31.1757 38.3145C31.4509 38.0988 31.7321 37.8819 32.0117 37.6719C32.4265 37.3604 33.7614 38.1081 34.3486 37.167C34.1285 36.8156 33.7974 36.4706 33.5253 36.1299C38.5517 31.2053 43.9016 26.9132 49.5078 22.7832C52.4476 20.6287 55.5148 18.5022 58.7626 16.4981C59.1609 16.2526 58.0598 16.0227 58.8349 15.543C59.9615 14.8489 61.0876 14.1734 62.2001 13.5352C65.3106 11.7619 68.8507 9.70917 73.3984 8.7334C73.8706 8.63582 74.0591 9.4736 74.8925 9.48731C75.1089 9.49513 75.371 9.44386 75.7031 9.30274C75.9725 9.16901 78.3334 8.38347 78.8876 7.9795C78.962 7.91737 78.3894 7.38632 79.165 7.20508C83.6952 6.17923 88.3273 5.91822 92.6484 6.11622C93.3482 6.15072 92.6366 6.86042 93.1318 6.89161C96.6181 7.10963 100.374 6.59786 103.632 7.2959C105.807 7.76979 104.957 8.9227 106.069 10.1162C106.222 10.2838 107.56 10.3636 107.596 11.0391C107.697 12.7356 106.986 14.5586 107.17 16.3701C107.205 16.7587 108.968 16.4206 107.893 17.3106C107.816 17.3692 106.549 17.6273 106.228 17.9346C106.007 18.1465 106.365 18.8442 105.92 19.1094C105.477 19.3747 105.014 18.7841 104.284 19.0938C103.552 19.409 103.852 20.1924 102.421 20.2539C99.1085 20.3893 94.8199 20.2099 91.6171 20.1035C90.6078 20.0708 91.0933 19.6158 90.3925 19.5791C89.0284 19.5118 87.8035 19.8344 86.4834 19.7949C86.0463 19.7806 86.5014 19.0481 86.039 19.0498C83.5024 19.072 81.2236 19.6542 78.9189 20.1553C78.6869 20.2061 78.4535 20.2598 78.2285 20.3145C75.1643 21.0371 71.9195 22.6511 68.414 24.4902C64.274 26.6179 60.4447 29.1206 56.5576 31.9629C53.0539 34.5235 49.5895 37.2523 46.1914 40.0889C43.9461 41.9648 41.2839 44.0025 38.9072 46.1807C37.6629 47.3204 36.4913 48.5052 35.4863 49.71C35.1461 50.12 35.793 50.2905 35.7597 50.3975C35.2337 52.058 34.7154 50.8677 33.9013 51.5283C31.1641 53.7649 28.6117 56.6655 26.6015 59.5391C26.2425 60.051 25.9142 60.5441 25.6298 61.0127C24.8749 62.3141 26.6547 61.7236 25.3466 62.5723C25.2574 62.635 24.9059 62.0023 24.6474 62.3066C24.0498 62.983 23.4407 64.6238 23.1367 65.3301C22.5364 66.6741 22.4705 66.9237 22.0302 68.3174C21.651 69.5301 21.1354 70.8922 20.7011 72.2998C20.4563 73.0914 20.2348 73.9095 20.0849 74.7022C19.9976 75.1732 20.7746 74.724 20.6953 75.4775C20.613 76.2374 20.0767 78.1651 19.7695 78.7881C19.4622 79.4076 19.0415 79.0097 18.9003 79.0977C17.7164 79.8267 18.4887 82.4088 18.4541 82.7051C17.7532 88.1449 15.9753 92.545 14.9033 97.5566C14.3316 100.243 13.8713 103.09 13.4111 105.787C13.219 106.913 13.0276 108.013 12.8291 109.066C12.032 113.354 11.1474 116.824 11.206 120.855C11.2115 121.286 11.9648 120.783 11.9746 121.306C11.9822 121.672 11.9928 122.041 12.0039 122.417C12.1729 127.78 12.3705 133.095 12.8759 138.186C12.9338 138.733 12.1433 138.17 12.165 138.729C12.2096 139.691 12.2586 140.811 12.4375 141.927C12.8931 144.729 14.439 147.846 16.9472 148.164C17.3706 149.067 17.8545 150.05 18.3193 151.046C18.9334 152.371 19.5273 153.691 19.9013 154.88C20.3293 156.207 18.9988 155.522 20.1923 156.729C20.4627 156.997 20.7039 156.239 21.0683 156.663C22.3753 158.182 23.6106 159.945 25.0742 161.357C25.3259 161.601 25.5853 161.835 25.8505 162.054C26.2188 162.355 26.5483 161.875 26.7128 161.903C28.0564 162.149 28.3875 164.413 28.624 164.776C30.3574 167.489 32.3194 168.81 34.5927 170.678C34.7563 170.811 34.8553 170.799 34.9287 170.729C34.9505 170.709 34.9698 170.683 34.9882 170.654C35.0695 170.529 35.1288 170.352 35.2548 170.321C35.3159 170.307 35.3935 170.326 35.496 170.402C38.2104 172.433 41.0157 174.497 43.6572 176.573C44.2439 177.036 43.3194 177.218 43.583 177.468C44.2102 178.052 44.7767 178.079 45.3378 178.129C45.8297 178.172 46.3175 178.233 46.8574 178.695C47.1023 178.903 46.6685 179.291 46.6875 179.373C46.9919 180.661 48.356 179.874 48.5683 179.958C51.308 181.01 52.3432 183.103 55.0488 184.06C55.3696 184.168 54.9465 183.227 55.8281 183.569C56.2328 183.725 56.6395 183.879 57.0498 184.032C61.9113 185.843 67.1348 187.461 72.208 188.939C72.9096 189.144 73.6082 189.345 74.3027 189.543C75.2564 189.812 74.4697 190.198 74.5156 190.274C75.3362 191.462 76.2318 190.234 76.5546 190.237C79.1128 190.299 81.3475 191.732 83.249 190.309C85.6762 190.703 88.1306 190.949 90.5957 191.108C98.6329 191.624 106.626 191.246 114.692 191.521C114.982 191.53 115.273 191.541 115.564 191.553C115.702 191.558 115.521 192.246 115.797 192.251C119.129 192.292 118.394 191.313 120.395 189.791C120.895 189.409 122.749 190.716 122.914 190.807C123.507 191.145 123.085 192.209 123.276 192.264C124.859 192.681 124.153 189.455 126.14 189.157C126.202 189.156 126.032 189.793 126.208 189.827C126.756 189.936 127.234 189.618 127.776 189.744C129.013 190.037 129.699 191.551 131.325 190.327C131.532 190.168 130.868 188.388 132.656 188.16C133.367 188.076 136.48 187.457 137.371 187.396C137.59 187.383 137.724 187.415 137.806 187.471C137.958 187.572 137.93 187.755 137.891 187.892C137.864 187.987 137.833 188.06 137.853 188.064C137.879 188.068 137.903 188.071 137.928 188.074C140.348 188.372 139.546 188.88 140.975 189.763C142.428 190.636 141.461 187.978 141.849 187.562C142.244 187.154 144.041 187.333 144.518 187.403C144.991 187.487 144.609 188.018 145.012 188.02C147.713 187.934 145.555 186.334 146.131 185.63C146.768 184.802 147.602 184.666 148.53 184.658C149.486 184.654 150.519 184.795 151.386 184.462C151.848 184.283 151.272 184.049 151.638 183.808C153.078 182.855 154.31 182.921 155.715 181.427C155.95 181.181 156.663 179.313 158.003 179.562C158.196 179.598 158.117 180.257 158.803 179.969C159.715 179.587 161.184 178.766 162.102 178.008C162.216 177.914 162.321 177.822 162.416 177.732C163.052 177.129 161.752 177.004 162.786 176.593C163.246 176.406 162.811 177.338 163.656 176.948C164.504 176.567 166.331 175.116 166.996 174.53C167.665 173.95 166.875 173.764 166.902 173.685C167.075 173.221 168.127 171.889 168.233 171.788C169.506 170.623 170.757 169.476 171.985 168.322C175.138 165.429 177.86 162.338 180.175 158.682C180.859 157.608 181.509 156.492 182.111 155.342C182.381 154.827 181.597 154.815 181.632 154.733C182.377 152.882 183.166 155.142 184.388 154.235C183.084 153.722 183.713 153.137 184.261 151.839C184.522 151.213 183.875 151.275 183.856 151.194C183.624 149.931 184.874 149.827 185.15 149.77C186.163 149.561 185.674 148.484 186.352 148.332C187.027 148.175 187.234 149.462 187.851 148.257C187.583 147.695 185.975 147.981 186.255 146.982C186.752 145.195 187.915 142.928 189.054 140.708C190.323 138.257 191.512 135.828 192.019 134.318C192.971 131.451 193.038 130.463 193.549 128.76C194.258 126.207 193.584 126.421 193.25 125.471C193.175 125.264 193.114 124.999 193.079 124.64C192.874 122.626 195.111 123.837 195.65 123.607C196.187 123.375 195.699 123.008 196.012 122.678C196.324 122.347 196.595 123.155 196.779 122.322C196.971 121.48 196.22 119.106 195.696 118.79C194.598 118.112 193.383 119.07 193.876 116.926C193.904 116.801 194.514 117.226 194.591 116.748C195.093 113.484 195.069 110.071 195.062 106.729C195.062 106.174 195.061 105.618 195.064 105.066C195.068 104.532 195.806 104.932 195.815 104.618C195.882 101.347 194.85 102.629 193.328 101.083C195.088 101.228 196.017 100.104 195.606 97.6553C195.353 96.1885 194.654 96.575 193.954 95.7402C193.744 95.4913 194.044 94.3688 193.658 94.2549C192.393 93.8862 191.34 95.0999 191.307 92.5693C191.306 92.4574 192.002 92.6557 191.955 92.2783C191.64 89.8358 190.395 89.8402 189.563 87.3613C189.309 86.6166 189.103 85.6158 188.898 84.5371C188.572 82.8017 188.232 80.8581 187.8 79.4727C189.645 78.8562 188.429 76.8804 186.846 76.5498C186.327 75.1114 185.608 73.6278 185.164 72.2061C185.011 71.7183 185.658 71.787 185.688 71.7041C186.14 70.4028 184.67 70.3453 184.482 70.0732C183.186 68.1176 182.51 66.1694 181.491 64.3447C180.939 63.3568 180.286 62.412 179.383 61.5508C179.29 61.4632 178.036 61.9859 178.409 60.7012C178.435 60.6143 179.548 61.2648 178.752 59.8633C177.962 58.4678 176.912 55.4991 175.115 54.0059C174.682 53.6401 173.01 53.1544 173.061 51.7676C173.07 51.5808 173.477 51.4844 173.527 51.1865C173.678 50.2257 172.358 50.7288 172.809 49.3916C172.921 49.0564 172.985 48.6856 172.985 48.2998C172.985 47.1436 172.408 45.8205 170.861 44.8457C170.796 44.8027 169.617 45.0556 169.178 44.4951C168.476 43.5953 167.587 42.2169 166.779 41.334C166.393 40.9115 166.141 41.6337 166.065 41.5684C164.564 40.2089 163.433 38.9376 162.287 37.5742C161.263 36.3572 160.228 35.0727 158.899 33.6436C158.384 33.0854 156.181 32.2748 155.592 30.7588C154.935 29.0938 158.387 27.764 155.077 25.8525C153.879 25.1637 150.448 26.5967 149.27 24.5449C149.123 24.2913 149.012 23.9889 148.937 23.6201C145.257 21.1057 142.204 18.0869 138.234 16.1406C137.57 15.8097 136.883 15.5066 136.169 15.2383C135.944 15.1529 134.738 15.8188 134.264 15.5439C133.561 15.1335 133.422 14.4424 132.925 14.1367C130.842 12.8441 128.639 12.2359 126.566 11.1221C125.778 10.7013 126.307 10.3343 125.362 9.83594C124.629 9.45166 123.882 9.57867 123.054 9.22364C122.808 9.11849 122.56 8.97454 122.3 8.76563C121.428 8.0666 121.035 6.2182 119.632 5.51368C119.061 6.90375 118.12 6.49233 116.303 6.43164C115.954 6.42218 116.179 7.01613 116.009 7.03809C115.324 7.14236 114.839 6.59274 114.174 6.75293C114.015 6.79221 113.906 7.29102 113.77 7.35157C113.19 7.61944 112.537 7.39076 111.988 7.06739C111.448 6.74766 111.012 6.33384 110.885 6.21094C109.89 5.27004 109.258 5.84124 108.444 5.40918C107.628 4.97797 108.977 4.81093 107.996 4.47364C105.96 3.77551 103.248 3.47767 101.114 3.19043C100.261 3.07892 100.761 3.82742 100.637 3.82715C98.8628 3.78248 97.1468 2.87324 96.0429 4.13477C95.4089 1.57882 95.1102 2.76325 94.1416 3.35645C93.7366 3.60134 93.2262 3.74744 92.5039 3.50293C92.3118 3.43401 92.1328 1.76265 92.9277 1.5625C93.3121 1.46805 93.769 1.5561 94.2705 1.64454C94.81 1.74023 95.3915 1.83534 95.9697 1.68946C96.2272 1.62116 97.8421 0.219781 98.0546 0.148442ZM113.131 192.421C113.073 192.361 110.903 192.455 110.836 192.518C109.778 193.839 114.202 193.654 113.131 192.421ZM151.969 185.475C151.935 185.453 151.314 185.738 151.419 185.91C151.755 186.468 152.522 185.863 151.969 185.475ZM194.035 141.397C192.959 142.26 195.077 143.388 195.079 141.925C195.073 141.851 194.09 141.352 194.035 141.397ZM191.12 140.909C191.096 140.917 190.941 141.23 190.822 141.487C190.748 141.649 190.689 141.787 190.695 141.802C190.912 142.15 191.2 141.998 191.369 141.729C191.581 141.39 191.609 140.878 191.12 140.909ZM186.847 76.5547C187.175 77.5073 187.531 78.4549 187.836 79.4199C186.77 78.7331 186.258 77.6617 186.847 76.5547ZM143.647 15.7266C143.108 14.4132 141.367 15.4768 141.618 16.0029C142.405 17.7222 144.159 17.0341 143.647 15.7266ZM101.744 10.3652C102.269 9.61191 100.342 9.52576 100.745 10.3213C100.769 10.3526 101.719 10.3956 101.744 10.3652ZM128.037 7.41309C127.917 7.39695 126.99 8.93328 127.063 9.02344C128.307 10.5716 130.092 7.67251 128.037 7.41309ZM112.561 3.90528C111.919 3.80256 111.158 4.06822 111.588 4.56055C111.756 4.75381 112.076 4.85049 112.388 4.86426C112.97 4.89076 113.551 4.6434 113.171 4.19532C113.035 4.03971 112.813 3.94581 112.561 3.90528ZM84.6523 2.35059C88.7492 2.15271 91.0219 5.04017 86.8662 4.81348C86.1006 4.78988 88.4685 3.85247 87.4892 3.63868C85.6451 3.25168 84.6265 5.12352 82.6904 4.37891C82.3363 4.2415 84.4118 2.35152 84.6591 2.34571C84.6569 2.34719 84.6545 2.3491 84.6523 2.35059Z" fill="#FA8282"/>
<path d="M94.7015 160.306C94.3023 159.513 96.8347 158.179 96.6995 158.607C96.6893 158.701 95.8517 158.931 95.6829 159.142C95.5398 159.354 95.8729 159.267 96.1204 159.155C96.3747 159.051 96.5353 158.927 96.2688 159.329C96.1904 159.502 94.7523 160.393 94.6975 160.307L94.7015 160.306ZM69.26 75.5046C69.6078 75.4512 70.2829 75.0607 70.4622 75.2136C70.8725 75.5694 70.9702 76.2676 70.9212 76.8611C70.9059 77.0459 70.4906 77.1603 70.4632 77.2966C70.412 77.5666 70.6832 77.6499 70.6018 77.9314C70.5715 78.0254 69.93 78.2394 69.9134 78.3308C69.8222 78.8208 70.1434 79.0931 70.1927 79.5261C70.4296 81.6528 71.0212 83.553 71.5599 85.5222C71.7334 86.1608 71.5055 87.1594 72.0179 87.6697C72.0792 87.73 72.601 87.4515 72.6516 87.4461C73.4286 87.3703 72.3059 87.7705 72.2229 87.9783C71.893 88.7869 72.1139 89.436 72.5579 89.8962C72.749 90.093 73.7256 89.4006 73.22 89.8884C73.186 89.9218 72.5849 90.1103 72.5501 90.199C72.4726 90.3991 72.6913 90.628 72.6936 90.7605C72.6949 91.0161 72.7177 91.0534 72.7952 91.2546C72.8967 91.5332 72.7533 91.9924 73.0091 92.2351C73.0651 92.2853 73.6221 91.9537 73.7649 92.0115C73.9072 92.0695 73.9694 92.3585 73.8684 92.5086C73.7671 92.6585 73.2857 92.8149 73.1858 92.8757C72.3428 93.3856 73.7183 93.1794 73.7669 93.2029C74.5966 93.7106 74.1446 94.6291 74.4349 95.325C74.6473 95.8298 75.122 96.3149 75.2874 96.8093C75.4884 97.4148 75.3731 98.0508 75.6614 98.5994C75.6914 98.658 76.3582 98.3033 76.3987 98.3728C76.7132 98.9665 76.9136 99.546 76.9358 100.255C76.9427 100.265 76.9526 100.303 76.9593 100.314C76.9585 100.524 76.9395 100.743 76.8987 100.972C76.8802 101.07 76.2231 101.206 76.1683 101.318C75.85 102.008 74.9167 103.223 77.7229 102.486C77.7473 102.865 77.7842 103.288 77.3548 103.793C77.0777 104.116 76.3332 104.189 76.7102 104.313C76.7952 104.341 77.359 104.047 77.4407 104.107C77.7852 104.362 77.7265 104.784 78.1575 104.998C78.2467 105.04 78.7689 104.82 78.8714 104.802C79.7035 104.667 78.5303 105.424 78.4583 105.513C77.9314 106.209 78.3254 106.425 78.4651 106.844C78.4975 106.941 79.1653 106.557 79.222 106.641C79.5019 107.071 79.6255 107.582 79.4876 108.17C79.4547 108.3 78.8128 108.436 78.7659 108.51C78.5673 108.83 79.7287 108.444 79.5599 108.745C79.5245 108.808 78.9975 108.98 78.9436 109.01C78.0977 109.472 79.4042 109.102 79.4456 109.123C79.9823 109.386 78.759 110.151 79.0931 110.469C79.1345 110.507 79.752 110.153 79.8284 110.275C80.3436 111.09 80.5134 112.087 80.3177 113.159C80.2878 113.324 79.7592 113.414 79.7005 113.445C78.8022 113.942 80.1093 113.552 80.1741 113.578C80.6506 113.796 79.7059 114.526 81.3128 114.193C81.341 115.864 82.7473 117.02 81.9368 118.994C81.9279 119.019 81.2875 119.22 81.2727 119.268C81.0887 119.849 82.0313 119.396 83.3352 119.245C83.6628 119.207 82.3073 119.974 82.2093 120.034C81.8474 120.253 80.8858 120.527 80.8196 120.58C80.3048 121.004 83.3759 119.815 83.4827 120.087C83.4808 120.097 82.8988 120.275 82.8509 120.319C82.7012 120.456 82.9526 120.443 82.7835 120.586C82.3907 120.915 80.9116 121.534 81.8763 121.451C82.0039 121.438 83.7348 120.737 83.7434 121.011C83.7457 121.122 83.9367 121.542 83.8684 121.705C83.7997 121.868 83.2051 121.997 83.1839 122.014C82.5591 122.619 82.2028 122.611 81.1585 123.187C80.1188 123.762 82.7282 122.734 83.0462 122.691C83.363 122.649 82.8361 123.117 82.6438 123.256C82.4516 123.394 82.0663 123.455 81.9641 123.552C81.3011 124.194 83.324 123.217 83.7835 123.175C84.8705 123.074 83.0019 124.01 82.9016 124.327C82.8749 124.413 83.299 124.193 83.3626 124.237C83.6075 124.412 83.0538 124.78 83.7102 124.839C83.8199 124.848 85.0676 124.627 84.261 125.087C84.1438 125.153 83.6382 125.278 83.5667 125.418C83.4592 125.628 83.4531 125.936 83.6751 126.036C83.8394 126.11 84.5886 125.675 84.3958 125.917C84.3094 126.024 83.7961 126.077 83.6731 126.264C83.5501 126.452 83.6883 126.761 83.7493 126.875C83.811 126.988 84.3928 126.696 84.4378 126.69C84.6932 126.662 85.0705 126.782 85.0794 126.803C85.5374 127.805 84.8678 129.134 85.5784 130.009C85.6328 130.077 86.2439 129.792 86.2688 129.795C86.6368 129.963 84.8567 130.386 84.3567 130.785C85.6456 130.274 85.452 130.473 85.6653 130.61C85.7698 130.675 86.2534 130.438 86.3079 130.428C87.1223 130.279 86.1706 130.741 85.9778 130.841C85.2692 131.207 86.1822 130.978 85.7093 131.223C85.2393 131.468 84.4566 131.599 84.5335 131.777C85.0176 131.655 86.1828 131.068 86.4309 131.133C87.3675 131.372 86.7785 132.706 86.8333 133.157C86.8888 133.609 87.0263 133.717 86.9485 134.022C86.8082 134.575 87.6496 134.079 88.1634 134.197C88.6772 134.316 86.4091 135.008 85.9466 135.224C85.4847 135.44 85.9905 135.299 85.7464 135.444C85.5021 135.589 85.1386 135.606 85.0823 135.756C85.0271 135.906 85.9897 135.901 86.5032 135.756C87.5913 135.448 88.6492 134.897 88.3704 135.341C88.3536 135.366 87.7497 135.527 87.7151 135.615C87.4583 136.3 87.6325 136.857 87.428 137.524C87.3989 137.616 86.7275 137.793 86.7024 137.849C86.4474 138.436 87.4841 137.874 88.7884 137.661C87.1499 138.206 86.2094 138.708 86.3225 139.043C86.3905 139.243 87.0847 138.948 87.6302 138.891C87.7938 138.875 87.3609 139.193 87.7024 139.095C88.8199 138.776 89.9878 138.195 89.6282 138.712C89.6062 138.736 88.9988 138.908 88.9817 138.972C88.8686 139.39 90.0205 139.016 90.2923 139.324C90.5057 139.569 89.9951 140.317 90.0042 140.688C88.182 141.355 88.711 141.505 90.011 141.164C90.037 141.392 90.1887 141.584 90.0911 141.853C90.0572 141.946 89.5139 142.094 89.4602 142.124C88.6175 142.59 89.8722 142.23 89.9368 142.258C90.5838 142.578 89.8012 143.305 90.8802 143.446C90.9188 143.451 92.1934 143.011 91.3167 143.476C91.2598 143.506 90.7009 143.56 90.6604 143.76V143.85C90.6348 144.116 90.2128 144.702 90.8694 144.79C91.0384 144.812 92.1324 144.62 91.385 145.063C91.283 145.123 90.9132 145.235 90.722 145.338C90.1127 145.666 91.4091 145.246 90.3626 145.753C89.3168 146.262 88.5906 146.796 89.4524 146.826C89.488 146.825 90.5173 146.528 90.5364 146.629C90.5541 146.725 90.5142 146.868 90.4925 147C90.4794 147.093 90.4743 147.182 90.5013 147.247C90.534 147.324 91.1449 147.042 91.1614 147.052C91.7061 147.445 91.278 148.012 91.2395 148.66C91.2309 148.778 92.1934 148.747 91.5901 149.201C90.9267 149.691 87.7576 150.607 88.6741 150.828C89.0399 150.907 93.0576 149.744 91.1565 150.842C91.9165 151.356 91.1148 152.385 92.0901 152.821C92.1402 152.839 93.2641 152.541 93.2766 152.619C93.2924 152.737 92.8019 152.984 92.7962 153.072C92.7679 153.47 93.3073 153.588 93.3616 153.944C93.3813 154.074 92.8372 154.227 92.8597 154.38C92.8814 154.526 93.6154 154.376 93.3509 154.693C93.1477 154.934 91.7789 155.6 91.6878 155.863C93.0935 155.353 93.1131 155.494 93.5716 155.594C93.6617 155.614 94.1276 155.384 94.1966 155.384C94.4815 155.38 94.1082 155.612 94.4124 155.592C94.4864 155.587 94.9644 155.41 95.0511 155.396C95.8047 155.265 94.8197 155.912 94.6458 156.017C93.9897 156.43 94.6408 156.276 94.4046 156.497C94.1686 156.718 93.7537 156.677 93.635 156.877C93.391 157.293 93.6091 157.633 93.7005 157.93C93.7414 158.047 94.3357 157.724 94.3636 157.731C94.6136 157.896 94.043 158.418 95.3509 158.028C92.1751 159.534 95.7212 158.038 95.2132 158.629C95.1691 158.675 93.6733 159.392 93.4026 159.383C93.1296 159.366 93.5368 159.001 93.1233 158.995C93.025 159.002 91.5007 159.374 91.4026 159.382C90.6315 159.435 92.9175 158.483 93.0442 158.422C94.3656 157.765 92.7084 158.128 92.5774 158.11C91.9681 158.005 92.1994 157.631 91.7571 157.531C91.4691 157.461 89.9385 158.009 89.9397 157.871C89.9383 157.398 92.0115 156.469 90.0227 156.761C89.599 156.825 87.9655 157.526 89.1643 156.742C89.2416 156.691 90.3544 156.025 89.552 156.182C89.4506 156.202 88.9648 156.382 88.9163 156.376C88.6012 156.334 88.95 156.09 88.7093 156.006C88.4691 155.925 88.1251 155.842 88.2229 155.6C88.2813 155.455 89.1393 154.994 89.3421 154.861C89.9288 154.485 88.8252 154.715 89.5647 154.34C90.3088 153.965 91.5508 153.701 91.97 153.29C90.7046 153.745 89.4017 154.201 88.1272 154.653C87.9843 154.126 88.2067 153.472 87.9632 152.98C87.9306 152.922 87.2775 153.234 87.2259 153.177C87.0144 152.933 87.4006 152.489 87.1028 152.272C86.8686 152.103 86.0509 152.096 85.7845 151.931C87.1757 151.258 86.5556 151.081 86.5882 150.764C86.6006 150.657 86.9895 150.523 87.0921 150.413C87.4694 150.002 86.2352 150.582 86.0091 150.591C85.0467 150.62 87.927 149.534 87.7278 149.213C87.7065 149.199 86.0991 149.549 85.9925 149.554C85.2983 149.595 86.5167 149.326 86.5872 149.165C86.7148 148.87 87.0262 148.581 86.4778 148.482C86.4746 148.482 86.471 148.482 86.4671 148.481C86.2767 148.466 85.3066 148.627 85.9817 148.218C86.072 148.163 86.5829 147.986 86.6087 147.96C87.003 147.499 85.4012 148.079 84.8001 148.117C84.1981 148.152 85.2118 147.502 85.512 147.336C86.2873 146.903 85.9004 147.305 85.9837 147.282C86.9741 147.01 86.7451 146.895 86.7757 146.729C88.3364 146.132 88.1714 145.974 86.8011 146.558C86.6519 146.622 86.8372 146.676 86.7757 146.729C85.1937 147.177 84.9192 147.039 86.2688 146.273C86.9018 145.915 87.7249 145.726 87.3157 145.5C87.1314 145.4 86.0725 145.855 85.7298 145.833C84.9485 145.782 85.8066 145.008 85.5325 144.754C85.4333 144.664 84.8835 144.99 84.7952 144.936C84.56 144.792 84.9361 144.448 84.6331 144.324C84.6048 144.313 84.0037 144.587 83.971 144.526C83.7153 144.055 83.9599 143.499 83.7806 142.98C83.6925 142.727 83.1925 142.42 83.1663 142.14C83.118 141.656 83.8141 140.776 83.4573 140.483C83.2264 140.289 82.6276 140.572 82.1673 140.623C81.276 140.722 82.603 139.815 82.8128 139.685C82.8197 139.681 83.0428 139.836 83.3186 139.606C83.9525 139.298 82.8285 139.682 82.8128 139.685C82.9475 139.6 82.9319 139.127 82.7825 139.087C82.701 139.065 82.1247 139.308 82.0931 139.293C81.358 138.919 81.0012 138.411 81.0618 137.735C81.0796 137.718 81.7308 137.493 81.7415 137.462C81.9085 137.02 81.028 137.104 80.4515 137.01C79.8747 136.914 79.9527 136.637 81.0169 136.056C80.7995 135.902 81.185 135.418 81.4241 135.138C81.6623 134.857 80.3835 135.305 80.3479 135.302C79.3681 135.136 79.9956 134.591 79.929 134.063C79.8999 133.813 79.5454 133.425 79.3128 133.226C79.1269 133.07 79.3801 132.839 79.1214 132.728C79.0842 132.715 78.53 132.949 78.5042 132.95C77.7501 133.001 79.1726 132.581 79.4056 132.447C80.2504 131.96 80.6958 131.688 80.1751 131.586C80.0546 131.562 77.9948 132.131 77.8352 132.066C77.634 131.979 78.3698 131.766 78.1409 131.681C78.122 131.674 77.6824 131.84 77.6663 131.742C77.5919 131.284 77.6769 130.725 77.4671 130.298C77.4389 130.24 76.7685 130.578 76.7181 130.497C76.4813 130.116 76.3403 129.66 76.5188 129.137C76.5651 129.008 77.0794 128.887 77.2171 128.811C78.0476 128.352 76.7039 128.642 76.6634 128.622C75.7752 128.12 76.7248 127.128 75.8948 126.589C75.8473 126.56 74.3578 126.761 75.4827 126.181C75.5575 126.143 76.71 125.555 75.8411 125.741C75.7846 125.754 75.2 126.07 75.2063 125.897C75.2133 125.724 74.7098 125.637 75.3138 125.177C75.5046 125.031 76.6464 124.427 75.6165 124.591C75.5428 124.603 73.2686 125.113 74.721 124.447C74.9604 124.338 76.5479 123.764 75.6507 123.836C75.4769 123.85 75.1546 124.062 74.8909 124.028C74.4847 123.976 74.8191 123.58 74.0325 123.624C73.8935 123.632 72.7599 123.871 73.5247 123.435C73.6444 123.367 74.1859 123.208 74.22 123.117C74.3798 122.681 73.8985 122.471 74.138 121.999C74.2225 121.832 75.0974 121.573 75.2796 121.364C75.4617 121.155 75.5878 120.823 75.1497 120.841C74.7113 120.858 73.4051 121.508 73.2239 121.356C72.4369 120.695 72.9215 119.563 72.722 118.678C72.6922 118.548 72.2448 118.834 72.1663 118.654C71.877 117.995 70.9806 116.994 71.7942 116.023C72.4431 115.239 73.2967 115.596 73.4974 115.108C73.592 114.874 71.9492 115.28 71.8772 115.259C71.2176 115.039 71.8129 114.499 71.4573 114.207C71.3836 114.148 70.773 114.464 70.7171 114.411C70.5224 114.231 70.7194 113.892 70.5882 113.702C70.5277 113.617 70.0471 113.818 70.0511 113.719C70.0578 113.481 70.193 113.218 70.5735 112.84C70.6093 112.805 71.2624 112.701 71.2278 112.538C71.1678 112.274 71.5023 111.793 70.928 111.685C70.7555 111.654 69.6386 112.076 70.3401 111.6C70.4865 111.501 71.8457 111.041 70.6058 111.265C70.3993 111.302 68.7011 111.536 69.6419 110.979C69.8893 110.833 70.9405 110.299 70.7308 110.262C70.698 110.259 70.119 110.541 70.0286 110.479C69.7225 110.262 69.6632 109.915 69.3597 109.681C69.2772 109.619 68.7029 109.977 68.5999 109.877C68.3163 109.603 68.3164 109.127 68.3841 108.721C68.4106 108.573 68.9565 108.46 69.0091 108.429C69.8633 107.941 68.6043 108.326 68.5149 108.306C67.9763 108.179 68.4697 107.744 68.2122 107.527C68.1415 107.469 67.5786 107.745 67.5208 107.75C66.9527 107.79 68.0452 107.504 68.1253 107.362C68.3487 106.963 68.1879 106.682 68.0091 106.439C67.9415 106.348 67.3073 106.722 67.2542 106.637C66.928 106.136 66.7877 105.575 66.9563 104.898C66.9901 104.772 67.535 104.634 67.6468 104.567C68.4259 104.105 67.2119 104.338 67.0843 104.334C66.9417 104.328 66.8612 104.307 66.8177 104.278C66.83 104.188 66.8959 104.08 66.8138 104.001C66.0114 103.245 65.8561 101.997 65.6809 101.038C65.4602 99.814 65.5838 98.7196 65.011 97.7029C64.9747 97.6367 64.3178 97.9917 64.2766 97.9392C63.7938 97.2468 63.7522 96.3938 63.2307 95.7117C63.189 95.6562 62.5785 96.0194 62.4895 95.9402C62.304 95.7767 62.2332 95.512 62.3499 95.2107C62.4072 95.0668 63.0213 94.967 63.0677 94.8269C63.1746 94.4984 63.116 94.2333 62.9075 94.033C62.8171 93.9477 62.2218 94.3884 62.1556 94.2566C61.7033 93.3807 61.2009 92.5304 61.6575 91.2459C61.6889 91.1576 63.0071 90.5129 62.6917 90.4939C62.3149 90.6476 61.8768 90.8409 61.4768 91.0115C60.6854 89.7923 60.5727 88.2984 60.0452 86.9695C60.0232 86.9144 59.361 87.3325 59.3147 87.2283C59.0422 86.6121 58.5735 86.1201 58.9759 85.1707C59.0147 85.0768 60.2621 84.5195 59.9905 84.4275C59.9424 84.4141 59.6438 84.2139 59.3431 84.2732C59.2957 84.2847 58.7474 84.609 58.6888 84.53C58.3561 84.0623 58.2274 83.4675 58.3245 82.7839C58.341 82.6725 58.994 82.4598 59.011 82.3777C59.1277 81.8007 58.4369 81.5705 58.7864 80.8904C59.0225 80.4334 60.1233 80.0096 61.0843 79.3474C61.2198 79.2539 61.1591 79.0738 61.7561 78.7644C63.2572 77.9858 64.954 77.2397 66.5491 76.4002C66.8927 76.2193 66.4057 76.1798 67.3118 75.8943C67.3729 75.8755 67.7334 75.9009 68.0384 75.7996C68.2494 75.7296 68.8356 75.3724 69.1165 75.3045C69.3969 75.2368 68.9163 75.5567 69.26 75.5046ZM92.9905 156.575C93.3926 156.34 92.8122 156.301 92.3138 156.597C91.9134 156.838 92.491 156.869 92.9905 156.575ZM91.4143 154.735C92.1052 154.205 88.9081 155.336 89.6468 155.362C89.6887 155.364 91.3742 154.766 91.4143 154.735ZM89.9036 152.855C90.8173 152.284 89.3071 152.67 88.597 153.101C87.8874 153.531 89.6264 153.029 89.9036 152.855ZM89.9573 140.711C90.7255 140.585 90.8712 140.72 90.012 141.163C90.009 141.008 89.9648 140.866 89.9573 140.711ZM82.4876 133.871C83.0408 133.485 80.7897 134.296 81.3899 134.267C81.4267 134.263 82.4607 133.89 82.4876 133.871ZM85.1263 132.634C84.3888 132.829 84.4266 133.107 85.1468 132.778C85.1752 132.764 85.1566 132.627 85.1263 132.634ZM81.8099 124.743C81.8423 124.728 81.8385 124.625 81.6507 124.697C81.0451 124.93 81.2638 124.994 81.8099 124.743ZM81.1438 118.55C79.9236 118.833 80.0238 119.473 81.1966 118.885C81.2571 118.854 81.2056 118.537 81.1438 118.55ZM66.7806 104.238C66.7875 104.253 66.7996 104.266 66.8177 104.278C66.8141 104.304 66.8139 104.329 66.8245 104.351L66.7806 104.238ZM61.68 79.7332C60.9679 80.008 61.0328 80.2764 61.7141 79.8728C61.7415 79.8566 61.7095 79.7228 61.68 79.7332Z" fill="#FA8282"/>
<path d="M97.8149 66.0205C98.4531 65.1519 98.4054 66.3692 98.9409 66.4365C99.7335 66.5406 100.549 66.5601 101.366 66.5156C103.18 66.3615 104.895 66.4503 106.4 66.5927C107.43 66.7048 106.667 65.3383 107.552 66.2187C107.61 66.279 107.211 66.8237 107.462 66.956C108.033 67.2472 109.158 67.4973 109.569 67.7099C110.36 68.1163 110.489 68.1666 111.226 68.5009C111.614 68.6824 112.007 68.9274 112.382 69.1709C113.307 69.7116 114.153 70.4731 114.884 71.1777C115.144 71.4301 115.315 70.6331 115.786 71.0332C116.289 71.4394 117.01 72.7911 117.037 73.2675C117.089 73.7504 116.543 73.7703 116.469 73.8886C115.825 74.8127 117.481 75.6296 117.556 75.8154C118.389 77.6109 118.415 79.194 118.451 80.6464C118.5 81.7759 118.431 82.8721 118.383 83.9755C118.294 86.1721 118.041 88.459 117.4 90.3261C116.628 92.5474 115.524 94.1505 114.593 96.0937C114.493 96.2981 115.287 96.4089 115.165 96.6621C113.85 99.3554 112.202 101.777 110.146 103.824C109.939 104.028 109.609 103.347 109.371 103.526C109.042 103.779 108.65 104.045 108.26 104.336C109.697 104.048 111.157 103.889 112.66 103.926C112.727 103.927 112.777 104.603 112.911 104.602C114.525 104.589 113.981 103.653 114.704 102.17C114.888 101.797 116.019 103.112 116.111 103.207C116.454 103.554 116.421 104.583 116.522 104.644C117.352 105.1 116.501 101.912 117.442 101.698C117.472 101.698 117.483 102.315 117.575 102.357C117.826 102.472 118.003 102.261 118.238 102.312C118.269 102.319 118.302 102.33 118.336 102.348C119.003 102.696 119.524 104.221 120.174 103.137C120.258 102.997 119.719 101.193 120.602 101.111C120.95 101.078 122.476 100.773 122.928 100.826C123.375 100.877 123.177 101.519 123.212 101.54C124.481 102.148 124.096 102.544 124.828 103.629C125.545 104.714 125.009 101.959 125.202 101.617C125.394 101.275 126.323 101.823 126.551 102.028C126.781 102.232 126.572 102.642 126.766 102.75C128.052 103.46 127.149 101.309 127.509 100.824C128.378 99.6804 129.307 101.694 130.172 101.849C130.411 101.89 130.193 101.429 130.401 101.373C131.232 101.162 131.745 101.792 132.691 101.186C132.84 101.085 133.64 99.8379 134.134 100.768C134.202 100.902 133.99 101.414 134.342 101.54C134.784 101.698 135.524 101.836 136.093 101.811C136.216 101.807 136.33 101.799 136.436 101.783C136.923 101.722 136.493 100.79 137.083 101.158C137.333 101.329 136.748 101.719 137.197 101.997C137.64 102.254 138.779 102.673 139.184 102.914C139.592 103.134 139.714 102.457 139.768 102.436C140.112 102.333 141.118 102.698 141.182 102.77C142.146 103.56 142.823 104.536 143.315 105.501C144.652 108.157 144.76 110.834 145.303 113.438C145.36 113.721 146.019 113.465 146.035 113.508C146.408 114.489 144.533 113.86 143.975 114.561C145.351 114.374 145.133 114.791 145.307 115.47C145.391 115.799 145.922 115.606 145.978 115.634C146.805 116.12 145.751 116.487 145.536 116.569C144.743 116.887 145.672 117.251 145.137 117.459C144.605 117.659 143.842 117.149 143.832 117.778C144.321 117.978 145.634 117.54 145.825 118.049C146.57 120.013 145.1 123.414 144.716 124.832C144.348 126.274 144.331 126.76 143.975 127.565C143.387 128.864 144.182 128.72 144.5 129.438C144.53 129.544 144.55 129.666 144.555 129.809C144.576 131.176 142.546 129.739 142.018 129.721C141.497 129.659 141.93 129.982 141.607 130.025C141.288 130.056 141.105 129.616 140.865 129.895C140.64 130.162 140.945 131.488 141.321 131.89C142.139 132.717 143.423 132.892 142.482 133.629C142.426 133.667 142.009 133.166 141.828 133.336C140.41 134.677 139.251 136.174 137.798 137.358C137.597 137.52 137.188 136.919 137.066 137.008C135.789 137.92 137.039 138.216 137.534 139.679C136.3 138.456 135.192 138.156 134.465 139.037C134.206 139.351 134.332 139.615 134.505 139.921C134.626 140.126 134.766 140.353 134.809 140.633C134.84 140.846 134.127 140.857 134.322 141.163C134.938 142.181 136.227 142.762 134.893 143.311C134.835 143.33 134.538 142.742 134.37 142.844C133.28 143.47 133.924 144.5 132.923 145.432C132.134 146.16 130.217 146.547 129.198 147.049C128.177 145.4 127.52 146.341 127.863 147.702C127.213 148.043 126.583 148.521 125.887 148.731C125.647 148.805 125.489 148.243 125.431 148.207C124.535 147.64 124.944 148.915 124.839 149.04C124.37 149.557 123.83 149.848 123.284 150.12C122.412 150.557 121.556 150.887 120.913 151.875C120.877 151.932 121.393 153.184 120.543 152.507C120.489 152.458 120.713 151.664 119.984 151.969C119.245 152.279 117.626 152.207 116.842 153.173C116.655 153.407 116.392 154.674 115.594 154.045C115.489 153.958 115.435 153.568 115.269 153.398C114.74 152.856 114.995 154.206 114.271 153.225C113.541 152.243 112.583 151.639 111.787 152.682C111.762 152.712 111.799 153.821 111.465 153.89C110.938 153.997 110.14 153.955 109.599 154.079C109.337 154.14 109.646 154.759 109.603 154.781C107.893 155.529 106.491 155.161 104.545 155.165C104.195 155.164 103.282 156.2 102.516 155.557C101.679 154.851 102.099 151.5 100.484 152.453C100.282 152.574 100.083 153.084 99.8803 153.657C99.4527 154.891 98.8617 156.427 97.9223 155.002C95.5191 155.673 93.3641 154.504 90.9174 154.95C90.808 154.97 90.3031 156.077 90.0424 156.022C89.6597 155.938 89.5385 155.366 89.2749 155.285C88.1784 154.931 87.0518 155.172 85.9868 154.856C85.586 154.737 85.8493 154.221 85.3755 154.077C84.8985 153.932 84.3975 154.574 83.8276 154.062C83.394 153.672 83.2745 152.077 82.6743 151.738C82.2713 153.178 81.8325 153.033 80.9292 153.202C80.7569 153.236 80.7872 153.782 80.6987 153.824C80.3356 154.005 80.1653 153.514 79.8139 153.722C79.7278 153.771 79.5924 154.263 79.5141 154.332C78.9506 154.827 78.5311 154.006 78.3462 153.578C78.3226 153.573 78.2571 153.548 78.2348 153.541C78.2068 153.449 78.1891 153.376 78.1792 153.335C77.9607 152.427 77.474 152.938 77.2124 152.493C76.9616 152.05 77.6719 151.964 77.3178 151.602C76.5927 150.855 75.4703 150.348 74.645 149.813C74.3156 149.604 74.1839 150.32 74.1284 150.306C73.3201 150.01 73.0672 148.95 71.8891 149.767C72.6298 148.309 72.5826 148.198 72.2387 148.361C71.8416 148.556 71.0132 149.127 70.7592 148.395C70.7206 148.281 71.7715 146.997 72.1645 147.02C72.4477 147.037 72.5487 147.404 72.8208 147.609C72.9258 147.689 73.0554 147.742 73.2241 147.734C73.3738 147.736 74.7715 146.824 74.8842 146.785C75.8033 146.524 74.5346 148.642 74.4907 148.783C74.0492 150.252 75.6221 149.241 75.8422 149.23C76.905 149.228 77.439 149.886 78.2963 149.863C78.8551 149.847 79.539 148.371 79.851 148.555C79.9562 148.616 80.0464 148.693 80.1264 148.781L79.6753 148.632C80.6404 149.377 80.718 151.116 82.3217 149.71C82.7048 149.377 82.8779 147.587 83.5034 149.193C83.5391 149.294 83.9488 150.719 84.563 150.041C84.6405 149.955 84.7658 149.453 84.8452 149.428C85.3687 149.269 85.578 149.746 86.1186 149.673C86.659 149.599 87.3123 149.448 87.8256 149.739C88.1357 149.915 88.3635 150.947 88.4819 151.212C88.8062 151.971 89.4975 150.965 89.6323 151.824C89.7802 152.69 88.984 153.83 89.6792 154.49C89.9267 153.168 90.2132 151.816 90.4702 150.487C92.0205 150.785 93.4895 151.362 95.0678 151.33C95.2619 151.324 95.0758 150.599 95.2807 150.573C96.1372 150.467 96.9178 150.96 97.8344 150.7C98.3802 150.543 98.9281 150.018 99.4868 149.658C99.6704 149.547 99.8613 149.452 100.047 149.389C100.706 150.87 101.849 150.228 102.714 150.265C103.022 150.276 103.048 150.687 103.278 150.794C104.144 151.182 103.59 149.882 103.779 149.642C104.568 148.611 105.09 151.648 106.194 151.392C106.257 151.371 106.681 149.64 106.748 149.522C107.228 148.756 106.951 150.066 107.356 150.113C108.087 150.198 108.662 150.479 109.36 149.824C109.565 149.63 109.867 148.507 110.506 149.155C110.591 149.24 110.697 149.773 110.753 149.791C111.759 150.069 111.321 148.417 111.623 147.727C111.916 147.039 112.981 147.926 113.246 148.193C113.917 148.89 113.069 148.652 113.073 148.737C113.139 149.793 113.634 149.448 114.077 149.384C114.688 150.942 115.263 150.627 114.537 149.308C114.457 149.164 114.186 149.426 114.077 149.384C113.907 147.706 114.398 147.306 115.652 148.451C116.244 148.983 116.259 149.892 117.138 149.18C117.53 148.854 116.889 147.882 117.134 147.424C117.679 146.386 119.241 146.784 120.01 146.135C120.282 145.904 119.669 145.535 119.839 145.359C119.947 145.248 120.069 145.169 120.199 145.105C120.674 144.866 121.215 144.803 121.587 144.358C121.631 144.305 121.151 143.827 121.337 143.702C122.742 142.749 124.217 142.344 125.658 141.441C126.363 141.001 127.35 139.915 128.015 139.526C129.182 138.861 130.96 138.617 131.369 137.784C131.44 137.642 131.443 137.515 131.408 137.398C131.382 136.999 131.025 136.743 130.935 136.334C130.695 135.25 132.667 135.278 132.96 135.297C132.971 135.297 132.645 135.956 133.148 135.867C133.838 136.129 132.963 135.309 132.96 135.297C133.151 135.31 134.149 134.281 134.216 133.982C134.255 133.819 133.707 133.506 133.736 133.429C134.423 131.611 135.36 130.047 136.361 128.897C136.385 128.881 136.972 129.264 137.022 129.219C137.729 128.619 137.169 127.667 136.664 127.549C136.648 127.547 136.633 127.546 136.619 127.547C136.377 126.613 136.708 126.017 137.953 125.756C137.945 125.069 138.646 124.235 139.058 123.742C139.47 123.25 138.144 122.951 138.122 122.9C137.505 121.307 138.384 120.598 138.632 119.115C138.755 118.412 138.617 117.027 138.456 116.314C138.331 115.751 138.637 115.402 138.402 114.906C138.37 114.841 137.77 114.949 137.746 114.93C136.985 114.448 138.478 114.588 138.733 114.451C139.653 113.953 140.137 113.587 139.577 112.931C139.446 112.764 137.269 112.709 137.095 112.517C136.87 112.246 137.641 112.177 137.376 111.898C137.354 111.875 136.902 112.003 136.869 111.813C136.738 111.104 136.641 110.398 136.373 109.891C136.301 109.757 136.226 109.644 136.149 109.556C136.097 109.494 135.556 110.018 135.483 109.955C135.316 109.814 135.231 109.767 135.258 109.738C135.28 109.709 135.414 109.673 135.498 109.513C135.536 109.431 135.676 108.927 135.719 108.778C135.83 108.32 135.738 108.408 135.667 108.627C135.592 108.845 135.53 109.189 135.524 109.201C135.515 109.217 135.505 109.233 135.496 109.247C133.569 109.65 131.843 108.523 129.619 109.257C129.491 109.299 128.669 110.839 128.112 109.636C128.079 109.554 127.499 108.323 127.217 109.241C127.2 109.299 127.546 109.924 127.07 109.913C126.595 109.902 125.908 110.44 125.155 109.819C124.921 109.623 124.221 108.433 123.772 109.546C123.736 109.623 123.211 112.064 122.587 110.561C122.486 110.314 122.22 108.644 121.649 109.639C121.541 109.832 121.87 110.15 121.546 110.455C121.194 110.794 120.659 110.74 120.186 111.023C119.993 111.135 119.81 111.294 119.654 111.543C119.556 111.701 119.268 112.941 118.642 112.193C118.544 112.076 118.546 111.498 118.303 111.489C117.145 111.446 116.104 112.081 114.927 111.974C114.51 111.937 114.483 111.004 114.021 110.869C113.559 110.734 112.687 110.719 112.379 111.233C112.072 111.748 112.9 113.027 112.319 113.306C109.807 114.517 107.041 114.498 104.582 115.346C104.221 115.472 104.706 115.834 104.198 116.055C103.058 116.549 101.564 117.446 100.208 118.099C99.1709 118.606 98.1495 118.981 97.2622 118.998C95.4594 119.038 96.8202 117.449 95.5962 117.758C95.0032 117.913 95.3391 119.682 95.2456 119.802C94.363 120.972 93.1636 120.844 92.2553 121.701C92.0689 121.878 92.6462 122.319 92.4868 122.462C91.9424 122.956 91.1321 123.126 90.5981 123.555C90.361 123.748 90.6993 124.149 90.4487 124.271C90.1686 124.411 89.8782 124.525 89.5883 124.587C89.4485 124.614 89.2961 124.637 89.1577 124.635C89.0933 124.63 89.0238 124.626 88.9848 124.595C88.9695 124.576 88.9473 124.562 88.9926 124.492C89.0269 124.446 89.0065 124.453 89.2299 124.234C89.2852 124.179 89.3548 124.11 89.4585 124C89.4845 123.972 89.513 123.941 89.5444 123.907C89.5601 123.89 89.5769 123.872 89.5942 123.852C89.6027 123.843 89.7335 123.7 89.8305 123.582C90.0542 123.248 90.4186 123.064 91.0503 121.376C91.1587 121.004 91.3264 120.45 91.3803 119.732C90.8593 119.951 90.3331 120.142 89.8042 120.296C89.4459 120.398 89.4389 119.669 89.2524 119.688C88.4411 119.778 88.863 120.938 88.0971 121.043C87.9378 121.066 87.7547 120.536 87.7016 120.494C86.8707 119.851 87.1727 121.224 87.0883 121.303C86.7682 121.613 86.4134 121.751 86.0512 121.814C85.9825 121.848 85.9162 121.886 85.7026 121.97C85.5842 122.01 85.4528 122.074 85.061 122.137C85.0048 122.144 84.9737 122.149 84.8745 122.157C84.6902 122.17 84.448 122.182 84.0844 122.113C83.7299 122.043 83.204 121.875 82.6938 121.417C82.1783 120.97 81.8351 120.236 81.769 119.685C81.6558 118.551 81.9697 118.171 82.0776 117.906C82.2142 117.654 82.3059 117.543 82.3764 117.452C82.5363 117.259 82.5283 117.281 82.5503 117.256C82.5682 117.238 82.5843 117.222 82.5991 117.208C82.6287 117.18 82.6536 117.157 82.6753 117.139C82.7183 117.101 82.7502 117.075 82.7788 117.054C82.8783 116.98 82.9002 116.977 82.9536 116.946C83.0377 116.904 83.1011 116.882 83.1674 116.858C83.2906 116.819 83.4095 116.79 83.5307 116.761C83.76 116.712 83.9952 116.668 84.2163 116.62C84.6639 116.521 85.0897 116.38 85.4555 116.048C85.5792 115.933 84.8716 115.565 85.2495 115.275C86.1127 114.614 87.0262 113.993 87.9731 113.419C87.0923 112.913 86.2395 112.658 85.7055 112.602C85.3257 112.543 85.0076 112.524 84.7348 112.52C84.7383 112.516 84.7431 112.512 84.7465 112.507C84.9376 112.236 84.3887 111.176 85.3286 111.611C85.524 111.702 86.0507 113.047 86.1098 111.611C86.1233 111.371 86.3878 109.332 87.4067 109.999C87.6791 110.173 88.5876 111.01 88.7973 110.682C88.8226 110.634 88.3504 110.163 88.562 109.973C89.3144 109.309 90.2246 108.857 90.9516 108.175C91.1435 107.992 90.4692 107.629 90.7631 107.376C91.5703 106.681 92.7277 106.121 93.6479 105.718C93.9876 105.571 94.1047 106.163 94.1606 106.196C95.082 106.732 94.512 105.518 94.5747 105.376C94.9873 104.494 95.8689 104.577 96.3491 103.952C96.4798 103.782 95.9577 103.405 95.9526 103.336C95.9107 102.649 96.4138 103.701 96.6997 103.615C97.5035 103.372 98.0761 102.747 98.5053 102.163C98.6617 101.948 97.929 101.673 98.0698 101.491C98.371 101.09 98.6696 100.701 98.9643 100.337C99.6624 99.4576 100.417 98.6341 101.234 97.913C101.48 97.6973 101.823 98.183 101.965 98.2021C102.964 98.3358 102.345 97.0855 102.332 96.8964C102.281 96.0246 102.838 96.0775 103.092 95.5166C104.328 92.7893 106.239 89.9049 107.203 87.7314C108.251 85.4109 108.89 83.6288 108.73 82.0058C108.654 81.383 108.567 80.7848 108.453 80.2216C108.41 80.0158 107.71 80.3416 107.665 80.1699C107.571 79.7776 107.481 79.4137 107.403 79.0947C107.358 79.1345 107.308 79.1539 107.248 79.1357C106.658 78.9657 106.102 78.6775 105.748 78.3037C105.573 78.1215 106.076 77.6635 105.888 77.4902C105.447 77.0853 104.918 76.8828 104.465 76.9121C104.28 76.9289 104.403 77.6825 104.193 77.6543C103.693 77.5952 103.372 77.6433 103.196 77.6611C101.154 77.9756 99.1372 78.1598 97.0268 77.9638C96.8093 77.9405 96.3226 76.5435 95.9282 76.9111C95.9761 77.3165 96.074 77.785 96.1469 78.2138C91.8197 79.3352 87.4688 80.0187 85.3647 81.5839C85.2782 81.649 85.8936 82.1522 85.7368 82.2724C85.4939 82.4606 85.2834 82.668 85.0737 82.8906C84.0847 83.9247 83.0953 84.9654 81.6831 85.7773C81.491 85.8881 80.5091 84.9307 80.27 85.5478C80.2279 85.6563 79.7786 86.5077 79.8637 86.8828C79.8789 86.9361 80.4849 87.1968 80.3149 87.4443C79.3188 88.8771 78.1363 90.2717 76.8442 91.5195C76.6345 91.7207 76.2335 91.0949 76.0786 91.2363C74.9773 92.2529 74.6008 93.858 73.393 94.746C72.5812 95.3463 71.7203 94.4821 70.4624 94.375C70.2832 94.3618 69.9816 94.8732 69.3715 94.5908C67.8348 93.8802 66.3396 92.7453 64.686 92.0175C64.3281 91.8612 64.2908 92.8422 63.6997 91.9433C63.66 91.8812 63.6879 91.1594 63.4848 90.8671C63.3443 90.6634 62.6438 90.5215 62.5063 90.1826C62.3706 89.8417 62.9945 89.8929 62.8921 89.3955C62.7863 88.8977 62.0241 88.6622 62.3296 87.9404C63.0459 86.2613 64.4923 84.3769 65.7426 83.0859C66.1332 82.6804 66.3254 83.152 66.6108 82.8857C67.1682 82.3677 67.3998 81.6819 67.9917 81.2031C68.1892 81.0464 68.5537 81.6853 68.7475 81.5136C69.8042 80.5743 70.4665 79.4358 71.4653 78.4355C72.9631 76.9385 74.4841 75.4803 76.0669 74.0703C80.7191 69.8506 86.0585 68.6788 90.6411 67.7197C92.8754 67.2801 95.6082 67.365 97.7797 66.707C98.0316 66.6293 97.7753 66.0785 97.8149 66.0205ZM94.0854 151.851C93.6859 151.017 93.1954 152.789 93.3706 153.123C93.984 154.221 94.5107 152.684 94.0854 151.851ZM86.2368 152.759C86.8599 153.754 87.71 150.467 86.7251 150.947C86.668 150.975 86.2011 152.7 86.2368 152.759ZM79.7456 151.305C79.6478 150.92 79.1273 151.004 78.9477 151.341L79.0903 151.389C79.0501 151.449 79.02 151.52 79.0063 151.6L78.8891 151.561C78.8867 151.618 78.8931 151.68 78.9106 151.745C79.0515 152.258 79.9087 151.939 79.7456 151.305ZM129.155 147.015C129.154 147.921 128.701 148.312 127.866 147.702C128.3 147.491 128.719 147.236 129.155 147.015ZM67.5493 144.644C67.6479 144.447 69.5946 144.74 69.6303 144.805L69.6255 144.804C70.2012 146.248 68.9768 149.138 67.8149 146.937C67.6457 146.56 69.0519 147.215 68.979 146.635C68.904 145.672 67.0576 145.887 67.5493 144.644ZM143.835 121.077C143.108 120.757 142.945 121.62 143.75 121.533C143.784 121.526 143.865 121.093 143.835 121.077ZM140.861 121.479C141.575 121.041 139.207 120.685 139.707 121.297C139.734 121.327 140.824 121.502 140.861 121.479ZM84.7348 112.52C84.0856 113.412 82.9001 113.495 82.0796 113.894C81.9337 113.964 81.8378 113.949 81.7729 113.892C81.9365 113.764 82.1971 113.609 82.1352 113.596C82.0804 113.578 81.8165 113.658 81.6674 113.696C81.6218 113.533 81.6235 113.346 81.5844 113.343C81.5466 113.339 81.5092 113.337 81.4721 113.334C81.5668 113.28 81.6835 113.211 81.9585 113.086C82.1013 113.023 82.2813 112.944 82.6049 112.838C82.769 112.785 82.9704 112.726 83.2573 112.664C83.4013 112.633 83.5679 112.603 83.769 112.576C83.8191 112.569 83.8714 112.563 83.9262 112.557C83.9897 112.55 83.9994 112.547 84.226 112.531C84.3773 112.523 84.5453 112.518 84.7348 112.52ZM111.665 104.855C111.623 104.796 110.61 104.999 110.592 105.069C110.399 106.406 112.434 106.001 111.665 104.855ZM130.261 103.014C130.248 102.978 129.934 102.965 129.952 103.166C130.013 103.812 130.436 103.604 130.261 103.014ZM71.3481 92.1406C71.3165 92.131 71.0717 92.488 71.0942 92.5126C71.6362 93.0906 72.12 92.3854 71.3481 92.1406Z" fill="#FA8282"/>
</svg>
