<svg width="202" height="202" viewBox="0 0 202 202" fill="none" xmlns="http://www.w3.org/2000/svg">
<path d="M157.946 72.7524C157.792 72.0123 158.27 73.064 158.353 73.2476C158.67 73.9429 158.505 73.2994 158.661 73.562C158.817 73.8254 158.837 74.2126 158.969 74.3608C159.242 74.6666 159.415 74.523 159.581 74.4927C159.646 74.4776 159.389 73.8448 159.393 73.8276C159.468 73.6216 159.828 74.2645 159.47 72.9536C160.673 76.252 159.44 72.6049 159.846 73.2085C159.879 73.2575 160.427 74.8236 160.449 75.0747C160.47 75.3246 160.22 74.8618 160.262 75.2485C160.272 75.3421 160.657 76.849 160.672 76.9448C160.788 77.6823 159.99 75.3329 159.941 75.2056C159.411 73.8324 159.807 75.4669 159.808 75.5884C159.816 76.1442 159.574 75.8569 159.558 76.2603C159.548 76.5222 160.041 78.0693 159.957 78.0444C159.676 77.9613 158.904 75.8304 159.289 77.77C159.371 78.1841 159.956 79.8619 159.364 78.5845C159.325 78.5016 158.817 77.3266 158.99 78.1187C159.012 78.2193 159.168 78.7122 159.17 78.7573C159.175 79.0501 158.997 78.6745 158.97 78.8901C158.942 79.1058 158.925 79.419 158.773 79.2827C158.682 79.2014 158.319 78.3048 158.22 78.0874C157.939 77.4624 158.182 78.5538 157.89 77.7817C157.598 77.0057 157.324 75.775 157.038 75.3032C157.428 76.5905 157.821 77.9139 158.21 79.2095C157.904 79.2533 157.492 78.924 157.218 79.0679C157.185 79.0897 157.427 79.7687 157.396 79.8071C157.264 79.966 156.975 79.5151 156.861 79.7612C156.775 79.9551 156.843 80.7335 156.756 80.9595C156.243 79.5063 156.183 80.066 155.994 79.9741C155.928 79.9423 155.82 79.5461 155.746 79.4273C155.471 78.9896 155.907 80.2797 155.927 80.4966C156.007 81.4221 155.159 78.4664 154.988 78.5903C154.979 78.596 155.291 80.2069 155.302 80.3149C155.368 80.9879 155.131 79.7701 155.029 79.6724C154.844 79.4936 154.654 79.1402 154.633 79.6441C154.627 79.7935 154.791 80.8076 154.5 80.0679C154.462 79.9711 154.326 79.4475 154.308 79.4175C154.01 78.9497 154.449 80.5955 154.506 81.1782C154.562 81.7606 154.113 80.6626 153.998 80.3423C153.697 79.5147 153.96 79.9646 153.942 79.8804C153.727 78.8776 153.669 79.0752 153.568 79.0122C153.13 77.4002 153.048 77.5256 153.466 78.9536C153.511 79.1093 153.533 78.9435 153.568 79.0122C153.919 80.6153 153.845 80.8523 153.324 79.4048C153.08 78.7265 152.929 77.9012 152.818 78.2456C152.767 78.4016 153.087 79.5065 153.089 79.8306C153.091 80.5686 152.596 79.5889 152.459 79.7964C152.408 79.8725 152.624 80.4674 152.595 80.5405C152.515 80.7364 152.296 80.3044 152.234 80.5689C152.229 80.5936 152.412 81.223 152.378 81.2446C152.108 81.3897 151.76 81.0399 151.458 81.0991C151.313 81.128 151.134 81.5432 150.968 81.5064C150.676 81.4471 150.148 80.5838 149.976 80.8599C149.863 81.0375 150.036 81.6748 150.069 82.1274C150.132 83.0043 149.586 81.5277 149.509 81.2964C149.506 81.2888 149.598 81.11 149.461 80.7935C149.275 80.112 149.509 81.2931 149.509 81.2964C149.499 81.2695 149.482 81.2444 149.461 81.2222C149.428 81.2185 149.331 81.2584 149.299 81.2534C149.209 81.1487 149.029 81.0974 149.009 81.2056C148.995 81.2779 149.117 81.8914 149.108 81.9175C148.891 82.5231 148.601 82.7358 148.228 82.5054C148.22 82.494 148.107 81.8039 148.09 81.7857C147.849 81.5138 147.881 82.3758 147.815 82.9028C147.75 83.4297 147.599 83.2842 147.298 82.1196C147.208 82.2889 146.947 81.7973 146.795 81.4976C146.642 81.1981 146.868 82.5376 146.864 82.5669C146.752 83.4614 146.461 82.7221 146.166 82.6519C146.024 82.6166 145.8 82.8571 145.684 83.0288C145.593 83.1663 145.47 82.8653 145.402 83.0835C145.393 83.1128 145.514 83.7072 145.513 83.731C145.525 84.4646 145.321 82.9968 145.251 82.7407C144.996 81.8094 144.853 81.315 144.784 81.7866C144.769 81.8975 145.041 84.0086 145.001 84.145C144.947 84.3151 144.845 83.5585 144.792 83.7544C144.787 83.7706 144.87 84.2353 144.814 84.2241C144.555 84.1784 144.241 83.9549 143.995 84.0454C143.961 84.0561 144.134 84.7855 144.087 84.813C143.866 84.9415 143.601 84.9596 143.31 84.6548C143.238 84.5774 143.185 84.0549 143.146 83.9038C142.911 82.9899 143.036 84.3555 143.022 84.3843C142.709 85.1038 142.178 83.9403 141.842 84.5933C141.824 84.6313 141.881 86.1066 141.594 84.8804C141.573 84.7946 141.284 83.546 141.356 84.4233C141.361 84.4795 141.519 85.1219 141.421 85.0708C141.322 85.0188 141.251 85.4779 141.013 84.7798C140.938 84.5587 140.644 83.3098 140.693 84.3364C140.698 84.408 140.888 86.7186 140.572 85.1548C140.52 84.8972 140.264 83.2289 140.265 84.105C140.266 84.2748 140.372 84.6384 140.341 84.8814C140.292 85.2559 140.081 84.8323 140.069 85.5952C140.067 85.7304 140.147 86.8766 139.935 86.0298C139.902 85.8964 139.838 85.3385 139.788 85.2817C139.547 85.0133 139.402 85.4163 139.145 85.061C139.055 84.936 138.953 84.0306 138.844 83.8003C138.734 83.5703 138.555 83.3601 138.541 83.7827C138.527 84.2059 138.825 85.6292 138.727 85.7612C138.301 86.335 137.683 85.5641 137.167 85.5103C137.09 85.5021 137.223 86.0087 137.115 86.0337C136.717 86.1288 136.082 86.7041 135.59 85.6548C135.196 84.8143 135.462 84.1013 135.203 83.772C135.08 83.615 135.182 85.2998 135.164 85.3589C134.989 85.9252 134.724 85.2052 134.536 85.4595C134.497 85.5135 134.624 86.1858 134.59 86.2232C134.472 86.3567 134.296 86.0714 134.177 86.1411C134.124 86.1743 134.195 86.6925 134.138 86.6587C134.003 86.5836 133.868 86.3777 133.689 85.9058C133.673 85.8614 133.671 85.2099 133.577 85.1958C133.422 85.1764 133.187 84.7168 133.072 85.2319C133.038 85.3868 133.171 86.5732 132.969 85.7661C132.926 85.5953 132.796 84.1712 132.806 85.4155C132.809 85.6234 132.78 87.3064 132.556 86.2476C132.498 85.9686 132.299 84.8106 132.259 85.0005C132.254 85.0355 132.356 85.6645 132.312 85.7319C132.154 85.9597 131.965 85.9113 131.802 86.1304C131.761 86.1868 131.884 86.77 131.842 86.8931C131.759 86.8551 131.674 86.8004 131.596 86.7378C131.516 86.672 131.475 86.1213 131.461 86.063C131.225 85.1153 131.389 86.4196 131.375 86.4995C131.285 86.9785 131.058 86.3904 130.933 86.5757C130.899 86.6253 131.029 87.2378 131.03 87.2954C131.032 87.848 130.915 86.7272 130.841 86.6138C130.632 86.2923 130.468 86.3706 130.326 86.4751C130.275 86.5158 130.456 87.2197 130.408 87.2476C130.128 87.4204 129.801 87.4034 129.442 87.0571C129.374 86.9906 129.317 86.4333 129.285 86.3091C129.06 85.4406 129.141 86.6628 129.134 86.7817C129.098 87.3245 128.969 86.8456 128.877 86.9536C128.426 87.4947 127.721 87.2817 127.19 87.1665C126.502 87.0192 125.904 86.5812 125.311 86.8237C125.274 86.8397 125.44 87.5641 125.409 87.5874C125.003 87.8396 124.525 87.6279 124.123 87.9165C124.091 87.9433 124.263 88.623 124.215 88.6831C124.115 88.8095 123.962 88.7977 123.802 88.5972C123.724 88.5005 123.697 87.8914 123.622 87.8062C123.445 87.6069 123.292 87.5831 123.172 87.7192C123.121 87.7804 123.336 88.4727 123.26 88.4946C122.746 88.6583 122.249 88.8728 121.553 88.0493C121.504 87.9903 121.211 86.5567 121.183 86.8472C121.25 87.2486 121.335 87.7196 121.41 88.148C120.684 88.517 119.839 88.1551 119.054 88.2212C119.024 88.2317 119.219 88.9762 119.157 88.9868C118.797 89.0421 118.482 89.3198 117.972 88.6304C117.922 88.5616 117.686 87.2174 117.615 87.4409C117.602 87.4817 117.474 87.6917 117.488 87.9907C117.491 88.0357 117.639 88.6552 117.592 88.6851C117.303 88.8386 116.962 88.7558 116.584 88.4321C116.523 88.3772 116.446 87.7015 116.401 87.6577C116.089 87.3512 115.916 87.9111 115.563 87.353C115.328 86.9764 115.154 85.8135 114.845 84.6968C114.8 84.5393 114.698 84.533 114.561 83.8745C114.217 82.219 113.902 80.3939 113.53 78.6304C113.45 78.2506 113.397 78.6872 113.293 77.7515C113.286 77.6885 113.323 77.3641 113.286 77.0474C113.26 76.8283 113.096 76.1639 113.076 75.8804C113.056 75.5974 113.208 76.1514 113.203 75.8149C113.195 75.4751 113.018 74.718 113.116 74.604C113.351 74.345 113.741 74.496 114.071 74.7437C114.172 74.8207 114.211 75.2448 114.284 75.3169C114.426 75.4573 114.495 75.2322 114.643 75.4038C114.692 75.4633 114.774 76.1315 114.822 76.1782C115.087 76.4293 115.257 76.2231 115.497 76.3228C116.678 76.8156 117.757 76.8725 118.866 76.9819C119.236 77.0168 119.765 77.5404 120.078 77.2134C120.114 77.1733 119.986 76.6024 119.985 76.5503C119.98 75.7959 120.149 76.9723 120.258 77.1148C120.691 77.6715 121.061 77.6611 121.336 77.3814C121.452 77.26 121.115 76.1319 121.362 76.7554C121.379 76.7993 121.455 77.4197 121.503 77.479C121.611 77.6123 121.748 77.4747 121.821 77.5122C121.962 77.5876 121.983 77.5772 122.099 77.564C122.26 77.5512 122.505 77.8242 122.652 77.6548C122.683 77.6168 122.525 76.9935 122.564 76.8755C122.603 76.758 122.766 76.7845 122.845 76.9243C122.923 77.0643 122.987 77.5644 123.016 77.6773C123.26 78.6256 123.208 77.2629 123.224 77.2261C123.545 76.5927 124.035 77.2886 124.429 77.2192C124.725 77.1652 125.005 76.8598 125.294 76.8462C125.642 76.8317 125.983 77.1266 126.304 77.0122C126.338 77.0009 126.173 76.2629 126.214 76.2476C126.648 76.0855 127.111 76.0921 127.644 76.52C127.697 76.566 127.748 77.2254 127.807 77.3091C128.17 77.8008 128.819 79.0199 128.513 76.147C128.718 76.2274 128.965 76.3048 129.224 76.8511C129.392 77.2029 129.404 77.9324 129.486 77.6069C129.504 77.5328 129.365 76.9191 129.4 76.856C129.551 76.5969 129.79 76.7658 129.924 76.4136C129.951 76.3404 129.849 75.7826 129.844 75.6802C129.802 74.8505 130.171 76.1724 130.22 76.2661C130.275 76.3696 130.325 76.4506 130.371 76.5132C130.402 76.4972 130.51 76.5049 130.542 76.4907C130.778 76.8599 130.916 76.6357 131.11 76.6304C131.162 76.6265 131.02 75.8793 131.068 75.8511C131.321 75.7146 131.598 75.7501 131.894 76.0562C131.961 76.126 131.98 76.7741 132.015 76.8423C132.171 77.127 132.06 75.9082 132.206 76.1577C132.236 76.21 132.286 76.7618 132.298 76.8218C132.477 77.763 132.382 76.4102 132.396 76.3784C132.577 75.9462 132.889 77.3337 133.085 77.1089C133.108 77.0805 132.965 76.3905 133.035 76.353C133.507 76.1011 134.044 76.2286 134.607 76.7212C134.694 76.7971 134.709 77.3259 134.722 77.3901C134.933 78.387 134.805 77.0311 134.823 76.9771C134.969 76.5857 135.306 77.692 135.22 76.0679C136.123 76.5132 136.809 75.4944 137.845 76.8052C137.858 76.8202 137.94 77.4824 137.966 77.5132C138.275 77.8467 138.07 76.8241 138.04 75.5396C138.033 75.2185 138.394 76.7129 138.424 76.8267C138.529 77.2302 138.639 78.2203 138.666 78.3003C138.878 78.9067 138.351 75.6514 138.503 75.6265C138.509 75.6338 138.582 76.2323 138.604 76.2915C138.674 76.4723 138.675 76.2286 138.747 76.4282C138.912 76.8916 139.196 78.4688 139.187 77.5259C139.185 77.3993 138.865 75.561 139.014 75.6265C139.074 75.6541 139.31 75.5842 139.396 75.6929C139.483 75.8013 139.534 76.3991 139.543 76.4282C139.853 77.1853 139.837 77.523 140.119 78.6724C140.401 79.8175 139.922 77.0547 139.909 76.7398C139.896 76.4258 140.136 77.0529 140.207 77.273C140.277 77.4932 140.299 77.8777 140.349 78.0005C140.682 78.8023 140.207 76.6132 140.198 76.1636C140.175 75.0997 140.634 77.1289 140.806 77.3081C140.853 77.3561 140.744 76.8945 140.77 76.8452C140.874 76.6572 141.061 77.2821 141.111 76.6704C141.119 76.5678 141.032 75.3195 141.263 76.2095C141.297 76.3386 141.352 76.8533 141.428 76.9585C141.541 77.1159 141.711 77.2014 141.772 77.0151C141.817 76.8762 141.596 76.0505 141.724 76.2964C141.782 76.4066 141.798 76.91 141.898 77.0767C141.998 77.2427 142.173 77.1904 142.238 77.1616C142.303 77.1326 142.156 76.5035 142.153 76.4575C142.143 76.2058 142.22 75.8755 142.231 75.8735C142.794 75.6953 143.517 76.6758 144.018 76.2202C144.057 76.1857 143.912 75.5298 143.914 75.5064C144.015 75.1977 144.214 77.0068 144.427 77.5864C144.168 76.2251 144.274 76.4598 144.354 76.2915C144.393 76.2091 144.27 75.6853 144.265 75.6304C144.199 74.8149 144.437 75.8417 144.489 76.0513C144.679 76.8218 144.569 75.8911 144.696 76.4058C144.823 76.9169 144.881 77.6978 144.981 77.6704C144.923 77.1768 144.619 75.9136 144.66 75.6929C144.814 74.8591 145.541 75.7613 145.795 75.8237C146.049 75.8855 146.11 75.782 146.278 75.9341C146.583 76.2089 146.324 75.278 146.401 74.8169C146.479 74.3557 146.819 76.6998 146.93 77.1968C147.041 77.6927 146.973 77.174 147.049 77.4439C147.125 77.7143 147.127 78.0657 147.209 78.1577C147.29 78.2489 147.305 77.328 147.235 76.8003C147.086 75.682 146.801 74.5306 147.043 74.9097C147.057 74.9322 147.134 75.5506 147.182 75.606C147.56 76.0256 147.872 76.001 148.239 76.3667C148.29 76.4179 148.374 77.1049 148.405 77.1431C148.53 77.2959 148.562 77.2178 148.551 76.9888C148.525 76.6283 148.37 75.9006 148.283 75.1089C148.616 76.8023 148.911 77.8192 149.101 77.7886C149.215 77.7707 149.034 77.038 148.992 76.5034C148.979 76.3435 149.169 76.83 149.107 76.481C148.903 75.3398 148.549 74.0905 148.845 74.5523C148.859 74.5744 148.972 75.1998 149.009 75.231C149.248 75.4342 149.002 74.248 149.164 74.0601C149.291 73.913 149.731 74.5698 149.934 74.645C150.377 76.5339 150.446 76.0605 150.201 74.7437C150.327 74.7695 150.434 74.6664 150.587 74.8189C150.64 74.8709 150.748 75.4232 150.767 75.481C151.068 76.3877 150.809 75.1107 150.821 75.0552C150.969 74.5088 151.427 75.41 151.446 74.4107C151.445 74.3691 151.128 73.0674 151.438 74.0015C151.46 74.066 151.528 74.6814 151.659 74.6968C151.79 74.7126 152.199 75.353 152.208 74.7056C152.211 74.5494 152.034 73.4649 152.333 74.27C152.373 74.3801 152.46 74.756 152.531 74.9595C152.758 75.6085 152.435 74.2847 152.793 75.3872C153.151 76.4895 153.503 77.2925 153.467 76.4751C153.465 76.4471 153.226 75.3989 153.283 75.3999C153.375 75.4042 153.555 75.5884 153.642 75.5571C153.682 75.538 153.48 74.9071 153.483 74.8892C153.667 74.449 154.027 74.9693 154.404 75.1323C154.474 75.1631 154.382 74.2389 154.689 74.9028C155.026 75.6293 155.811 78.8278 155.875 77.9946C155.903 77.6598 154.874 73.6098 155.679 75.6284C155.912 75.0014 156.587 75.9551 156.751 75.105C156.758 75.0672 156.473 73.9364 156.517 73.939C156.585 73.9453 156.777 74.4544 156.831 74.4771C157.058 74.5789 157.087 74.0816 157.28 74.0972C157.353 74.1019 157.499 74.6465 157.587 74.6519C157.674 74.6563 157.505 73.9335 157.719 74.2417C157.881 74.4781 158.418 75.8953 158.581 76.0298C158.131 74.6038 158.215 74.6092 158.223 74.1919C158.224 74.11 158.04 73.6238 158.032 73.5601C157.998 73.2902 158.174 73.6855 158.131 73.3941C158.12 73.3238 157.964 72.8382 157.946 72.7524ZM131.842 86.8931C131.915 86.9267 131.987 86.9474 132.054 86.9429L131.692 86.9907C131.743 86.9791 131.791 86.9543 131.834 86.9107C131.838 86.9068 131.839 86.9004 131.842 86.8931ZM115.175 84.2954C115.167 84.2648 115.089 84.2488 115.094 84.2798C115.202 85.0329 115.358 85.0646 115.175 84.2954ZM141.004 78.4595C140.996 78.4247 140.939 78.4024 140.973 78.6001C141.084 79.2397 141.126 79.047 141.004 78.4595ZM156.973 77.1948C156.554 76.2189 156.921 77.7287 157.237 78.4849C157.554 79.2395 157.101 77.4911 156.973 77.1948ZM137.753 77.481C137.738 77.4152 137.565 77.378 137.568 77.4399C137.666 78.6815 138.021 78.7602 137.753 77.481ZM157.942 76.0913C157.561 75.3386 158.549 78.5846 158.49 77.8843C158.485 77.8397 157.964 76.1349 157.942 76.0913ZM145.47 77.3218C145.565 78.0765 145.72 78.1109 145.551 77.3384C145.543 77.3078 145.467 77.2912 145.47 77.3218ZM158.862 74.9185C158.68 74.4951 158.722 75.0376 158.949 75.564C159.132 75.9873 159.09 75.4449 158.862 74.9185ZM149.949 74.6939C149.849 73.9328 149.917 73.8243 150.2 74.7427C150.113 74.7111 150.036 74.7217 149.949 74.6939ZM159.833 71.7993C159.908 71.8343 160 72.6871 160.153 72.9019C160.434 73.2925 159.952 71.5981 160.392 72.4439C160.473 72.5997 160.846 74.2205 160.828 74.2271L160.827 74.2232C160.493 74.2025 159.423 71.6075 159.833 71.7993Z" fill="#FA8282"/>
<path d="M98.0546 0.148442C99.7036 -0.414877 99.637 2.07642 99.7021 2.22364C100.453 3.78943 102.408 2.34968 102.892 2.29786C105.084 2.05294 106.833 2.66198 108.663 2.56543C109.86 2.50702 110.235 0.923253 111.148 1.12598C111.851 1.2831 112.429 1.53785 112.939 1.81836C114.663 2.76859 115.526 3.9003 118.281 3.10352C119.048 2.90897 118.973 0.960558 120.924 3.14356C121.068 3.28233 122.246 5.13492 123.458 4.8086C123.613 4.76709 123.825 4.29511 123.994 4.32422C124.464 4.41007 124.815 4.5778 125.154 4.77051C125.622 5.03665 126.058 5.34647 126.72 5.53907C127.854 5.86901 129.239 6.22632 130.342 6.98047C131.007 7.43417 131.476 8.75758 131.705 9.14161C132.344 10.236 133.88 9.78218 134.084 10.8223C134.286 11.8667 132.55 12.3668 133.834 13.6572C134.525 12.5018 135.309 11.3557 136.041 10.2139C137.453 10.9947 138.823 11.8455 140.187 12.7305C142.104 13.9734 144.039 15.3049 146.023 16.6523C146.445 16.9377 146.434 16.0458 146.899 16.3408C148.868 17.605 150.104 19.2581 151.992 20.5713C152.123 20.6621 152.26 20.7508 152.4 20.8389C153.801 21.7103 155.546 22.369 156.915 23.3486C156.734 25.2419 159.093 26.6627 160.442 28.1104C160.915 28.6159 160.6 28.8856 160.867 29.3184C161.874 30.9446 162.176 29.3645 162.693 29.5576C164.911 30.4095 162.917 32.754 164.791 34.502C164.819 34.5282 165.021 34.5482 165.302 34.5654C166.031 34.6112 167.304 34.6603 167.474 34.7295C168.988 35.3346 167.236 35.3036 167.792 36.0557C168.803 37.4376 169.311 38.5584 170.989 39.749C171.477 40.0907 173.181 40.5138 173.287 41.9004C173.301 42.0818 172.828 42.36 172.879 42.4727C173.815 44.4822 175.178 43.4794 176.394 44.1133C176.778 44.3162 177.059 44.6773 177.264 45.0957C177.7 45.9912 177.77 47.1412 177.737 47.4893C177.619 48.8172 176.981 47.0874 176.878 47.0957C175.676 47.1918 176.632 48.1858 177.171 49.0869C175.904 50.1838 176.821 51.3041 177.732 50.0176C177.83 49.8739 177.231 49.3005 177.171 49.0869C179.035 48.8711 180.165 50.1033 179.893 52.4414C179.758 53.5346 178.638 53.3389 180.266 55.2734C180.999 56.1582 181.731 55.1668 182.54 55.8613C184.18 57.2759 184.861 59.9314 185.88 61.9209C186.011 62.177 186.15 62.4249 186.298 62.6563C186.767 63.3947 186.917 62.3467 187.257 62.8438C188.161 64.1694 188.381 65.6335 189.3 66.9639C189.384 67.0843 189.822 66.4756 190.048 66.9219C191.769 70.314 192.69 73.5302 194.049 77.249C194.527 78.5555 195.421 80.5666 196.042 82.3232C196.276 82.9808 196.474 83.6012 196.606 84.127C197.465 87.4745 197.497 91.775 198.276 94.5781C198.783 96.4143 199.348 95.8879 199.937 96.6172C201.083 98.0393 199.948 101.075 199.75 101.469C199.742 101.463 199.362 99.8807 199.15 100.79C198.522 101.388 199.744 101.45 199.75 101.469C199.641 101.736 199.874 105.011 200.045 105.653C200.146 106.001 200.75 105.747 200.791 105.931C200.813 106.031 200.834 106.131 200.855 106.23C201.755 110.508 201.991 114.944 201.465 119.366C201.447 119.445 200.757 119.288 200.726 119.473C200.263 122.054 200.947 123.784 201.18 126.014C201.198 126.192 201.211 126.367 201.221 126.537C201.327 128.504 200.814 130.083 199.492 131.053C199.32 132.736 198.191 134.978 197.47 136.189C196.755 137.4 197.969 138.012 197.957 138.14C197.688 140.552 196.933 142.136 196.021 143.777C195.452 144.795 194.813 145.838 194.141 147.121C193.313 148.716 191.872 151.936 191.078 153.69C190.457 155.081 189.732 155.724 189.219 157.037C189.148 157.215 189.769 157.349 189.761 157.411C189.608 159.132 188.7 157.739 188.311 157.885C186.891 158.411 186.099 158.76 185.446 160.697C185.374 160.907 185.578 161.512 185.776 162.18C186.001 162.946 186.214 163.8 186.019 164.226C185.533 165.263 185.131 164.487 184.621 165.583C184.576 165.676 184.981 165.923 184.538 166.53C182.706 169.081 180.165 171.796 177.893 174.077C177.651 174.323 177.409 174.571 177.17 174.817C176.828 175.165 177.801 175.252 177.312 175.765C175.018 178.172 172.195 180.604 169.372 182.301C168.676 182.716 168.764 181.994 168.532 181.974C167.129 181.856 166.704 183.824 166.504 183.993C166.445 184.044 166.386 184.095 166.327 184.146C161.812 187.923 157.499 188.983 152.565 192.108C152.516 192.14 152.423 192.244 152.299 192.388C151.754 193.039 150.233 194.63 148.833 194.062C148.71 194.022 147.105 193.27 146.335 194.426C146.287 194.498 147.232 194.902 145.905 195.235C144.581 195.564 142.706 196.46 140.982 196.077C140.678 196.012 140.11 195.674 139.45 195.6C138.921 195.538 138.326 195.651 137.757 196.229C137.679 196.324 135.839 199.018 134.741 197.595C134.565 197.359 134.402 195.678 132.812 196.834C132.508 197.057 133.178 197.324 132.338 197.707C131.047 198.296 129.183 198.143 127.628 199.138C127.357 199.314 126.277 200.633 125.152 199.912C124.977 199.799 125.194 199.2 124.659 199.211C122.115 199.258 119.52 199.953 116.899 199.819C115.973 199.771 116.352 198.821 115.383 198.665C115.366 198.662 115.348 198.659 115.331 198.656C114.346 198.507 112.477 198.432 111.531 198.902C110.566 199.382 111.747 200.764 110.253 200.971C103.735 201.852 97.2331 201.014 90.7519 200.551C90.1774 200.509 90.2188 200.69 90.0468 200.83C89.9283 200.925 89.7114 201.001 89.1328 200.97C83.9376 200.77 74.6292 200.039 70.3007 197.919C70.2784 197.908 70.2554 197.898 70.2334 197.888C66.8163 196.231 71.4851 196.576 68.831 195.614C67.5648 195.15 65.7357 196.429 65.3974 196.396C62.1287 196.103 60.1713 194.734 57.3203 194.001C56.7293 193.846 57.0701 194.69 56.5654 194.548C55.4787 194.245 54.4124 193.746 53.373 193.262C52.7638 192.978 52.1634 192.699 51.5683 192.467C50.8468 192.186 50.768 192.721 50.1279 192.393C48.5987 191.608 47.324 190.742 46.0898 189.546C45.981 189.438 47.168 189.327 46.082 188.73C44.464 187.84 42.7397 186.379 40.8007 185.569C40.629 185.498 40.4548 185.432 40.2783 185.371C39.635 185.149 38.9744 186.15 38.1953 184.678C38.0318 184.366 39.1346 183.38 37.0527 183.498C36.7123 183.529 33.3843 183.299 32.8681 181.583C32.7303 181.134 32.6672 179.635 31.914 179.297C31.8083 179.254 31.7744 180.034 31.1982 179.676C30.4483 179.203 29.7154 178.681 28.9902 178.137C27.763 177.216 26.5559 176.232 25.3105 175.308C24.7807 174.914 25.0784 176.063 24.2998 175.455C22.1547 173.783 19.8029 171.265 18.1181 169.097C17.4983 168.297 18.3757 168.446 18.3701 168.351C18.3541 167.957 18.2481 167.69 18.0937 167.505C17.6535 166.976 16.7989 167.105 16.5673 166.919C14.6397 165.335 13.9966 163.457 12.5917 161.709C12.2063 161.222 11.9363 161.937 11.8203 161.867C10.6449 161.098 12.114 161.271 11.7705 160.527C11.0897 159.033 10.2293 157.527 9.38765 156.08C9.06817 155.532 8.74464 154.991 8.42964 154.462C8.02074 153.774 7.81242 154.912 7.4521 154.287C5.88265 151.517 4.37749 148.711 3.27241 144.806C2.92189 143.479 2.69703 142.223 2.54585 141.013C2.44514 140.16 3.10321 140.574 3.19234 140.375C3.82196 139.023 2.35543 137.552 2.18355 137.165C1.40254 135.461 1.81729 134.714 1.56734 133.183C1.03118 129.856 0.80205 126.217 0.764601 122.62C0.632053 117.905 1.42605 112.805 2.16987 109.133C2.53924 107.255 2.93152 105.518 3.33003 103.831C4.8204 97.5922 6.30953 92.2206 7.6562 85.8086C7.76585 85.293 6.92276 85.6446 7.00776 85.1982C8.04567 79.9618 9.46894 74.919 10.748 69.6416C10.884 69.0858 11.0168 68.5365 11.1484 67.9863C11.2692 67.4915 10.3929 68.0053 10.5634 67.2109C10.9131 65.5715 11.5706 63.4958 12.4521 61.7549C12.8805 60.9171 13.0069 62.3025 13.4306 61.4551C14.3922 59.5123 15.7189 57.0231 16.957 55.0957C17.4657 54.284 16.0439 55.0473 16.7548 54.0303C17.0608 53.5968 17.3559 53.1925 17.6406 52.8057C21.5818 47.457 25.8913 42.4685 31.1757 38.3145C31.4509 38.0988 31.7321 37.8819 32.0117 37.6719C32.4265 37.3604 33.7614 38.1081 34.3486 37.167C34.1285 36.8156 33.7974 36.4706 33.5253 36.1299C38.5517 31.2053 43.9016 26.9132 49.5078 22.7832C52.4476 20.6287 55.5148 18.5022 58.7626 16.4981C59.1609 16.2526 58.0598 16.0227 58.8349 15.543C59.9615 14.8489 61.0876 14.1734 62.2001 13.5352C65.3106 11.7619 68.8507 9.70917 73.3984 8.7334C73.8706 8.63582 74.0591 9.4736 74.8925 9.48731C75.1089 9.49513 75.371 9.44386 75.7031 9.30274C75.9725 9.16901 78.3334 8.38347 78.8876 7.9795C78.962 7.91737 78.3894 7.38632 79.165 7.20508C83.6952 6.17923 88.3273 5.91822 92.6484 6.11622C93.3482 6.15072 92.6366 6.86042 93.1318 6.89161C96.6181 7.10963 100.374 6.59786 103.632 7.2959C105.807 7.76979 104.957 8.9227 106.069 10.1162C106.222 10.2838 107.56 10.3636 107.596 11.0391C107.697 12.7356 106.986 14.5586 107.17 16.3701C107.205 16.7587 108.968 16.4206 107.893 17.3106C107.816 17.3692 106.549 17.6273 106.228 17.9346C106.007 18.1465 106.365 18.8442 105.92 19.1094C105.477 19.3747 105.014 18.7841 104.284 19.0938C103.552 19.409 103.852 20.1924 102.421 20.2539C99.1085 20.3893 94.8199 20.2099 91.6171 20.1035C90.6078 20.0708 91.0933 19.6158 90.3925 19.5791C89.0284 19.5118 87.8035 19.8344 86.4834 19.7949C86.0463 19.7806 86.5014 19.0481 86.039 19.0498C83.5024 19.072 81.2236 19.6542 78.9189 20.1553C78.6869 20.2061 78.4535 20.2598 78.2285 20.3145C75.1643 21.0371 71.9195 22.6511 68.414 24.4902C64.274 26.6179 60.4447 29.1206 56.5576 31.9629C53.0539 34.5235 49.5895 37.2523 46.1914 40.0889C43.9461 41.9648 41.2839 44.0025 38.9072 46.1807C37.6629 47.3204 36.4913 48.5052 35.4863 49.71C35.1461 50.12 35.793 50.2905 35.7597 50.3975C35.2337 52.058 34.7154 50.8677 33.9013 51.5283C31.1641 53.7649 28.6117 56.6655 26.6015 59.5391C26.2425 60.051 25.9142 60.5441 25.6298 61.0127C24.8749 62.3141 26.6547 61.7236 25.3466 62.5723C25.2574 62.635 24.9059 62.0023 24.6474 62.3066C24.0498 62.983 23.4407 64.6238 23.1367 65.3301C22.5364 66.6741 22.4705 66.9237 22.0302 68.3174C21.651 69.5301 21.1354 70.8922 20.7011 72.2998C20.4563 73.0914 20.2348 73.9095 20.0849 74.7022C19.9976 75.1732 20.7746 74.724 20.6953 75.4775C20.613 76.2374 20.0767 78.1651 19.7695 78.7881C19.4622 79.4076 19.0415 79.0097 18.9003 79.0977C17.7164 79.8267 18.4887 82.4088 18.4541 82.7051C17.7532 88.1449 15.9753 92.545 14.9033 97.5566C14.3316 100.243 13.8713 103.09 13.4111 105.787C13.219 106.913 13.0276 108.013 12.8291 109.066C12.032 113.354 11.1474 116.824 11.206 120.855C11.2115 121.286 11.9648 120.783 11.9746 121.306C11.9822 121.672 11.9928 122.041 12.0039 122.417C12.1729 127.78 12.3705 133.095 12.8759 138.186C12.9338 138.733 12.1433 138.17 12.165 138.729C12.2096 139.691 12.2586 140.811 12.4375 141.927C12.8931 144.729 14.439 147.846 16.9472 148.164C17.3706 149.067 17.8545 150.05 18.3193 151.046C18.9334 152.371 19.5273 153.691 19.9013 154.88C20.3293 156.207 18.9988 155.522 20.1923 156.729C20.4627 156.997 20.7039 156.239 21.0683 156.663C22.3753 158.182 23.6106 159.945 25.0742 161.357C25.3259 161.601 25.5853 161.835 25.8505 162.054C26.2188 162.355 26.5483 161.875 26.7128 161.903C28.0564 162.149 28.3875 164.413 28.624 164.776C30.3574 167.489 32.3194 168.81 34.5927 170.678C34.7563 170.811 34.8553 170.799 34.9287 170.729C34.9505 170.709 34.9698 170.683 34.9882 170.654C35.0695 170.529 35.1288 170.352 35.2548 170.321C35.3159 170.307 35.3935 170.326 35.496 170.402C38.2104 172.433 41.0157 174.497 43.6572 176.573C44.2439 177.036 43.3194 177.218 43.583 177.468C44.2102 178.052 44.7767 178.079 45.3378 178.129C45.8297 178.172 46.3175 178.233 46.8574 178.695C47.1023 178.903 46.6685 179.291 46.6875 179.373C46.9919 180.661 48.356 179.874 48.5683 179.958C51.308 181.01 52.3432 183.103 55.0488 184.06C55.3696 184.168 54.9465 183.227 55.8281 183.569C56.2328 183.725 56.6395 183.879 57.0498 184.032C61.9113 185.843 67.1348 187.461 72.208 188.939C72.9096 189.144 73.6082 189.345 74.3027 189.543C75.2564 189.812 74.4697 190.198 74.5156 190.274C75.3362 191.462 76.2318 190.234 76.5546 190.237C79.1128 190.299 81.3475 191.732 83.249 190.309C85.6762 190.703 88.1306 190.949 90.5957 191.108C98.6329 191.624 106.626 191.246 114.692 191.521C114.982 191.53 115.273 191.541 115.564 191.553C115.702 191.558 115.521 192.246 115.797 192.251C119.129 192.292 118.394 191.313 120.395 189.791C120.895 189.409 122.749 190.716 122.914 190.807C123.507 191.145 123.085 192.209 123.276 192.264C124.859 192.681 124.153 189.455 126.14 189.157C126.202 189.156 126.032 189.793 126.208 189.827C126.756 189.936 127.234 189.618 127.776 189.744C129.013 190.037 129.699 191.551 131.325 190.327C131.532 190.168 130.868 188.388 132.656 188.16C133.367 188.076 136.48 187.457 137.371 187.396C137.59 187.383 137.724 187.415 137.806 187.471C137.958 187.572 137.93 187.755 137.891 187.892C137.864 187.987 137.833 188.06 137.853 188.064C137.879 188.068 137.903 188.071 137.928 188.074C140.348 188.372 139.546 188.88 140.975 189.763C142.428 190.636 141.461 187.978 141.849 187.562C142.244 187.154 144.041 187.333 144.518 187.403C144.991 187.487 144.609 188.018 145.012 188.02C147.713 187.934 145.555 186.334 146.131 185.63C146.768 184.802 147.602 184.666 148.53 184.658C149.486 184.654 150.519 184.795 151.386 184.462C151.848 184.283 151.272 184.049 151.638 183.808C153.078 182.855 154.31 182.921 155.715 181.427C155.95 181.181 156.663 179.313 158.003 179.562C158.196 179.598 158.117 180.257 158.803 179.969C159.715 179.587 161.184 178.766 162.102 178.008C162.216 177.914 162.321 177.822 162.416 177.732C163.052 177.129 161.752 177.004 162.786 176.593C163.246 176.406 162.811 177.338 163.656 176.948C164.504 176.567 166.331 175.116 166.996 174.53C167.665 173.95 166.875 173.764 166.902 173.685C167.075 173.221 168.127 171.889 168.233 171.788C169.506 170.623 170.757 169.476 171.985 168.322C175.138 165.429 177.86 162.338 180.175 158.682C180.859 157.608 181.509 156.492 182.111 155.342C182.381 154.827 181.597 154.815 181.632 154.733C182.377 152.882 183.166 155.142 184.388 154.235C183.084 153.722 183.713 153.137 184.261 151.839C184.522 151.213 183.875 151.275 183.856 151.194C183.624 149.931 184.874 149.827 185.15 149.77C186.163 149.561 185.674 148.484 186.352 148.332C187.027 148.175 187.234 149.462 187.851 148.257C187.583 147.695 185.975 147.981 186.255 146.982C186.752 145.195 187.915 142.928 189.054 140.708C190.323 138.257 191.512 135.828 192.019 134.318C192.971 131.451 193.038 130.463 193.549 128.76C194.258 126.207 193.584 126.421 193.25 125.471C193.175 125.264 193.114 124.999 193.079 124.64C192.874 122.626 195.111 123.837 195.65 123.607C196.187 123.375 195.699 123.008 196.012 122.678C196.324 122.347 196.595 123.155 196.779 122.322C196.971 121.48 196.22 119.106 195.696 118.79C194.598 118.112 193.383 119.07 193.876 116.926C193.904 116.801 194.514 117.226 194.591 116.748C195.093 113.484 195.069 110.071 195.062 106.729C195.062 106.174 195.061 105.618 195.064 105.066C195.068 104.532 195.806 104.932 195.815 104.618C195.882 101.347 194.85 102.629 193.328 101.083C195.088 101.228 196.017 100.104 195.606 97.6553C195.353 96.1885 194.654 96.575 193.954 95.7402C193.744 95.4913 194.044 94.3688 193.658 94.2549C192.393 93.8862 191.34 95.0999 191.307 92.5693C191.306 92.4574 192.002 92.6557 191.955 92.2783C191.64 89.8358 190.395 89.8402 189.563 87.3613C189.309 86.6166 189.103 85.6158 188.898 84.5371C188.572 82.8017 188.232 80.8581 187.8 79.4727C189.645 78.8562 188.429 76.8804 186.846 76.5498C186.327 75.1114 185.608 73.6278 185.164 72.2061C185.011 71.7183 185.658 71.787 185.688 71.7041C186.14 70.4028 184.67 70.3453 184.482 70.0732C183.186 68.1176 182.51 66.1694 181.491 64.3447C180.939 63.3568 180.286 62.412 179.383 61.5508C179.29 61.4632 178.036 61.9859 178.409 60.7012C178.435 60.6143 179.548 61.2648 178.752 59.8633C177.962 58.4678 176.912 55.4991 175.115 54.0059C174.682 53.6401 173.01 53.1544 173.061 51.7676C173.07 51.5808 173.477 51.4844 173.527 51.1865C173.678 50.2257 172.358 50.7288 172.809 49.3916C172.921 49.0564 172.985 48.6856 172.985 48.2998C172.985 47.1436 172.408 45.8205 170.861 44.8457C170.796 44.8027 169.617 45.0556 169.178 44.4951C168.476 43.5953 167.587 42.2169 166.779 41.334C166.393 40.9115 166.141 41.6337 166.065 41.5684C164.564 40.2089 163.433 38.9376 162.287 37.5742C161.263 36.3572 160.228 35.0727 158.899 33.6436C158.384 33.0854 156.181 32.2748 155.592 30.7588C154.935 29.0938 158.387 27.764 155.077 25.8525C153.879 25.1637 150.448 26.5967 149.27 24.5449C149.123 24.2913 149.012 23.9889 148.937 23.6201C145.257 21.1057 142.204 18.0869 138.234 16.1406C137.57 15.8097 136.883 15.5066 136.169 15.2383C135.944 15.1529 134.738 15.8188 134.264 15.5439C133.561 15.1335 133.422 14.4424 132.925 14.1367C130.842 12.8441 128.639 12.2359 126.566 11.1221C125.778 10.7013 126.307 10.3343 125.362 9.83594C124.629 9.45166 123.882 9.57867 123.054 9.22364C122.808 9.11849 122.56 8.97454 122.3 8.76563C121.428 8.0666 121.035 6.2182 119.632 5.51368C119.061 6.90375 118.12 6.49233 116.303 6.43164C115.954 6.42218 116.179 7.01613 116.009 7.03809C115.324 7.14236 114.839 6.59274 114.174 6.75293C114.015 6.79221 113.906 7.29102 113.77 7.35157C113.19 7.61944 112.537 7.39076 111.988 7.06739C111.448 6.74766 111.012 6.33384 110.885 6.21094C109.89 5.27004 109.258 5.84124 108.444 5.40918C107.628 4.97797 108.977 4.81093 107.996 4.47364C105.96 3.77551 103.248 3.47767 101.114 3.19043C100.261 3.07892 100.761 3.82742 100.637 3.82715C98.8628 3.78248 97.1468 2.87324 96.0429 4.13477C95.4089 1.57882 95.1102 2.76325 94.1416 3.35645C93.7366 3.60134 93.2262 3.74744 92.5039 3.50293C92.3118 3.43401 92.1328 1.76265 92.9277 1.5625C93.3121 1.46805 93.769 1.5561 94.2705 1.64454C94.81 1.74023 95.3915 1.83534 95.9697 1.68946C96.2272 1.62116 97.8421 0.219781 98.0546 0.148442ZM113.131 192.421C113.073 192.361 110.903 192.455 110.836 192.518C109.778 193.839 114.202 193.654 113.131 192.421ZM151.969 185.475C151.935 185.453 151.314 185.738 151.419 185.91C151.755 186.468 152.522 185.863 151.969 185.475ZM194.035 141.397C192.959 142.26 195.077 143.388 195.079 141.925C195.073 141.851 194.09 141.352 194.035 141.397ZM191.12 140.909C191.096 140.917 190.941 141.23 190.822 141.487C190.748 141.649 190.689 141.787 190.695 141.802C190.912 142.15 191.2 141.998 191.369 141.729C191.581 141.39 191.609 140.878 191.12 140.909ZM186.847 76.5547C187.175 77.5073 187.531 78.4549 187.836 79.4199C186.77 78.7331 186.258 77.6617 186.847 76.5547ZM143.647 15.7266C143.108 14.4132 141.367 15.4768 141.618 16.0029C142.405 17.7222 144.159 17.0341 143.647 15.7266ZM101.744 10.3652C102.269 9.61191 100.342 9.52576 100.745 10.3213C100.769 10.3526 101.719 10.3956 101.744 10.3652ZM128.037 7.41309C127.917 7.39695 126.99 8.93328 127.063 9.02344C128.307 10.5716 130.092 7.67251 128.037 7.41309ZM112.561 3.90528C111.919 3.80256 111.158 4.06822 111.588 4.56055C111.756 4.75381 112.076 4.85049 112.388 4.86426C112.97 4.89076 113.551 4.6434 113.171 4.19532C113.035 4.03971 112.813 3.94581 112.561 3.90528ZM84.6523 2.35059C88.7492 2.15271 91.0219 5.04017 86.8662 4.81348C86.1006 4.78988 88.4685 3.85247 87.4892 3.63868C85.6451 3.25168 84.6265 5.12352 82.6904 4.37891C82.3363 4.2415 84.4118 2.35152 84.6591 2.34571C84.6569 2.34719 84.6545 2.3491 84.6523 2.35059Z" fill="#FA8282"/>
<path d="M75.7015 163.306C75.3023 162.513 77.8347 161.179 77.6995 161.607C77.6893 161.701 76.8517 161.931 76.6829 162.142C76.5398 162.354 76.8729 162.267 77.1204 162.155C77.3747 162.051 77.5353 161.927 77.2688 162.329C77.1904 162.502 75.7523 163.393 75.6975 163.307L75.7015 163.306ZM50.26 78.5046C50.6078 78.4512 51.2829 78.0607 51.4622 78.2136C51.8725 78.5694 51.9702 79.2676 51.9212 79.8611C51.9059 80.0459 51.4906 80.1603 51.4632 80.2966C51.412 80.5666 51.6832 80.6499 51.6018 80.9314C51.5715 81.0254 50.93 81.2394 50.9134 81.3308C50.8222 81.8208 51.1434 82.0931 51.1927 82.5261C51.4296 84.6528 52.0212 86.553 52.5598 88.5222C52.7334 89.1608 52.5055 90.1594 53.0179 90.6697C53.0792 90.73 53.601 90.4515 53.6516 90.4461C54.4286 90.3703 53.3059 90.7705 53.2229 90.9783C52.8929 91.7869 53.1139 92.436 53.5579 92.8962C53.749 93.093 54.7256 92.4006 54.22 92.8884C54.186 92.9218 53.5849 93.1103 53.5501 93.199C53.4726 93.3991 53.6913 93.628 53.6936 93.7605C53.6949 94.0161 53.7177 94.0534 53.7952 94.2546C53.8967 94.5332 53.7533 94.9924 54.0091 95.2351C54.0651 95.2853 54.6221 94.9537 54.7649 95.0115C54.9072 95.0695 54.9694 95.3585 54.8684 95.5086C54.7671 95.6585 54.2857 95.8149 54.1858 95.8757C53.3428 96.3856 54.7183 96.1794 54.7669 96.2029C55.5965 96.7106 55.1446 97.6291 55.4348 98.325C55.6473 98.8298 56.122 99.3149 56.2874 99.8093C56.4884 100.415 56.3731 101.051 56.6614 101.599C56.6913 101.658 57.3582 101.303 57.3987 101.373C57.7132 101.967 57.9136 102.546 57.9358 103.255C57.9427 103.265 57.9526 103.303 57.9593 103.314C57.9585 103.524 57.9395 103.743 57.8987 103.972C57.8802 104.07 57.2231 104.206 57.1682 104.318C56.85 105.008 55.9167 106.223 58.7229 105.486C58.7473 105.865 58.7842 106.288 58.3548 106.793C58.0777 107.116 57.3332 107.189 57.7102 107.313C57.7952 107.341 58.359 107.047 58.4407 107.107C58.7852 107.362 58.7264 107.784 59.1575 107.998C59.2467 108.04 59.7689 107.82 59.8714 107.802C60.7035 107.667 59.5303 108.424 59.4583 108.513C58.9314 109.209 59.3254 109.425 59.4651 109.844C59.4975 109.941 60.1653 109.557 60.222 109.641C60.5019 110.071 60.6255 110.582 60.4876 111.17C60.4546 111.3 59.8128 111.436 59.7659 111.51C59.5673 111.83 60.7287 111.444 60.5598 111.745C60.5245 111.808 59.9975 111.98 59.9436 112.01C59.0977 112.472 60.4042 112.102 60.4456 112.123C60.9823 112.386 59.759 113.151 60.0931 113.469C60.1345 113.507 60.7519 113.153 60.8284 113.275C61.3436 114.09 61.5134 115.087 61.3177 116.159C61.2878 116.324 60.7592 116.414 60.7005 116.445C59.8022 116.942 61.1093 116.552 61.1741 116.578C61.6506 116.796 60.7059 117.526 62.3128 117.193C62.341 118.864 63.7473 120.02 62.9368 121.994C62.9279 122.019 62.2875 122.22 62.2727 122.268C62.0887 122.849 63.0313 122.396 64.3352 122.245C64.6628 122.207 63.3073 122.974 63.2093 123.034C62.8473 123.253 61.8858 123.527 61.8196 123.58C61.3048 124.004 64.3759 122.815 64.4827 123.087C64.4808 123.097 63.8988 123.275 63.8509 123.319C63.7012 123.456 63.9526 123.443 63.7835 123.586C63.3907 123.915 61.9116 124.534 62.8763 124.451C63.0039 124.438 64.7348 123.737 64.7434 124.011C64.7456 124.122 64.9367 124.542 64.8684 124.705C64.7997 124.868 64.2051 124.997 64.1839 125.014C63.5591 125.619 63.2028 125.611 62.1585 126.187C61.1188 126.762 63.7282 125.734 64.0462 125.691C64.363 125.649 63.8361 126.117 63.6438 126.256C63.4516 126.394 63.0663 126.455 62.9641 126.552C62.3011 127.194 64.324 126.217 64.7835 126.175C65.8705 126.074 64.0019 127.01 63.9016 127.327C63.8749 127.413 64.299 127.193 64.3626 127.237C64.6075 127.412 64.0538 127.78 64.7102 127.839C64.8199 127.848 66.0676 127.627 65.261 128.087C65.1438 128.153 64.6382 128.278 64.5667 128.418C64.4592 128.628 64.4531 128.936 64.6751 129.036C64.8394 129.11 65.5886 128.675 65.3958 128.917C65.3094 129.024 64.7961 129.077 64.6731 129.264C64.5501 129.452 64.6883 129.761 64.7493 129.875C64.811 129.988 65.3928 129.696 65.4378 129.69C65.6932 129.662 66.0705 129.782 66.0794 129.803C66.5374 130.805 65.8678 132.134 66.5784 133.009C66.6328 133.077 67.2439 132.792 67.2688 132.795C67.6368 132.963 65.8567 133.386 65.3567 133.785C66.6456 133.274 66.452 133.473 66.6653 133.61C66.7698 133.675 67.2534 133.438 67.3079 133.428C68.1223 133.279 67.1706 133.741 66.9778 133.841C66.2692 134.207 67.1822 133.978 66.7093 134.223C66.2393 134.468 65.4566 134.599 65.5335 134.777C66.0176 134.655 67.1828 134.068 67.4309 134.133C68.3675 134.372 67.7785 135.706 67.8333 136.157C67.8888 136.609 68.0263 136.717 67.9485 137.022C67.8082 137.575 68.6496 137.079 69.1634 137.197C69.6772 137.316 67.4091 138.008 66.9466 138.224C66.4847 138.44 66.9905 138.299 66.7464 138.444C66.5021 138.589 66.1386 138.606 66.0823 138.756C66.0271 138.906 66.9897 138.901 67.5032 138.756C68.5913 138.448 69.6492 137.897 69.3704 138.341C69.3536 138.366 68.7497 138.527 68.7151 138.615C68.4583 139.3 68.6325 139.857 68.428 140.524C68.3989 140.616 67.7275 140.793 67.7024 140.849C67.4474 141.436 68.4841 140.874 69.7884 140.661C68.1499 141.206 67.2094 141.708 67.3225 142.043C67.3905 142.243 68.0847 141.948 68.6302 141.891C68.7938 141.875 68.3609 142.193 68.7024 142.095C69.8199 141.776 70.9878 141.195 70.6282 141.712C70.6062 141.736 69.9988 141.908 69.9817 141.972C69.8686 142.39 71.0205 142.016 71.2923 142.324C71.5057 142.569 70.9951 143.317 71.0042 143.688C69.182 144.355 69.711 144.505 71.011 144.164C71.037 144.392 71.1887 144.584 71.0911 144.853C71.0572 144.946 70.5139 145.094 70.4602 145.124C69.6175 145.59 70.8722 145.23 70.9368 145.258C71.5838 145.578 70.8012 146.305 71.8802 146.446C71.9188 146.451 73.1934 146.011 72.3167 146.476C72.2598 146.506 71.7009 146.56 71.6604 146.76V146.85C71.6348 147.116 71.2128 147.702 71.8694 147.79C72.0384 147.812 73.1324 147.62 72.385 148.063C72.283 148.123 71.9132 148.235 71.722 148.338C71.1127 148.666 72.4091 148.246 71.3626 148.753C70.3168 149.262 69.5906 149.796 70.4524 149.826C70.488 149.825 71.5173 149.528 71.5364 149.629C71.5541 149.725 71.5142 149.868 71.4925 150C71.4794 150.093 71.4743 150.182 71.5013 150.247C71.534 150.324 72.1449 150.042 72.1614 150.052C72.7061 150.445 72.278 151.012 72.2395 151.66C72.2309 151.778 73.1934 151.747 72.5901 152.201C71.9267 152.691 68.7576 153.607 69.6741 153.828C70.0399 153.907 74.0576 152.744 72.1565 153.842C72.9165 154.356 72.1148 155.385 73.0901 155.821C73.1402 155.839 74.2641 155.541 74.2766 155.619C74.2924 155.737 73.8019 155.984 73.7962 156.072C73.7679 156.47 74.3073 156.588 74.3616 156.944C74.3813 157.074 73.8372 157.227 73.8597 157.38C73.8814 157.526 74.6154 157.376 74.3509 157.693C74.1477 157.934 72.7789 158.6 72.6878 158.863C74.0935 158.353 74.1131 158.494 74.5716 158.594C74.6617 158.614 75.1276 158.384 75.1966 158.384C75.4815 158.38 75.1082 158.612 75.4124 158.592C75.4864 158.587 75.9644 158.41 76.0511 158.396C76.8047 158.265 75.8197 158.912 75.6458 159.017C74.9897 159.43 75.6408 159.276 75.4046 159.497C75.1686 159.718 74.7537 159.677 74.635 159.877C74.391 160.293 74.6091 160.633 74.7005 160.93C74.7414 161.047 75.3357 160.724 75.3636 160.731C75.6136 160.896 75.043 161.418 76.3509 161.028C73.1751 162.534 76.7212 161.038 76.2132 161.629C76.1691 161.675 74.6733 162.392 74.4026 162.383C74.1296 162.366 74.5368 162.001 74.1233 161.995C74.025 162.002 72.5007 162.374 72.4026 162.382C71.6315 162.435 73.9175 161.483 74.0442 161.422C75.3656 160.765 73.7084 161.128 73.5774 161.11C72.9681 161.005 73.1994 160.631 72.7571 160.531C72.4691 160.461 70.9385 161.009 70.9397 160.871C70.9383 160.398 73.0115 159.469 71.0227 159.761C70.599 159.825 68.9655 160.526 70.1643 159.742C70.2416 159.691 71.3544 159.025 70.552 159.182C70.4506 159.202 69.9648 159.382 69.9163 159.376C69.6012 159.334 69.95 159.09 69.7093 159.006C69.4691 158.925 69.1251 158.842 69.2229 158.6C69.2813 158.455 70.1393 157.994 70.3421 157.861C70.9288 157.485 69.8252 157.715 70.5647 157.34C71.3088 156.965 72.5508 156.701 72.97 156.29C71.7046 156.745 70.4017 157.201 69.1272 157.653C68.9843 157.126 69.2067 156.472 68.9632 155.98C68.9306 155.922 68.2775 156.234 68.2259 156.177C68.0144 155.933 68.4006 155.489 68.1028 155.272C67.8686 155.103 67.0509 155.096 66.7845 154.931C68.1757 154.258 67.5556 154.081 67.5882 153.764C67.6006 153.657 67.9895 153.523 68.0921 153.413C68.4694 153.002 67.2352 153.582 67.0091 153.591C66.0467 153.62 68.927 152.534 68.7278 152.213C68.7065 152.199 67.0991 152.549 66.9925 152.554C66.2983 152.595 67.5167 152.326 67.5872 152.165C67.7148 151.87 68.0262 151.581 67.4778 151.482C67.4746 151.482 67.471 151.482 67.4671 151.481C67.2767 151.466 66.3066 151.627 66.9817 151.218C67.072 151.163 67.5829 150.986 67.6087 150.96C68.003 150.499 66.4012 151.079 65.8001 151.117C65.1981 151.152 66.2118 150.502 66.512 150.336C67.2873 149.903 66.9004 150.305 66.9837 150.282C67.9741 150.01 67.7451 149.895 67.7757 149.729C69.3364 149.132 69.1714 148.974 67.8011 149.558C67.6519 149.622 67.8372 149.676 67.7757 149.729C66.1937 150.177 65.9192 150.039 67.2688 149.273C67.9018 148.915 68.7249 148.726 68.3157 148.5C68.1314 148.4 67.0725 148.855 66.7298 148.833C65.9485 148.782 66.8066 148.008 66.5325 147.754C66.4333 147.664 65.8835 147.99 65.7952 147.936C65.56 147.792 65.9361 147.448 65.6331 147.324C65.6048 147.313 65.0037 147.587 64.971 147.526C64.7153 147.055 64.9599 146.499 64.7806 145.98C64.6925 145.727 64.1925 145.42 64.1663 145.14C64.118 144.656 64.8141 143.776 64.4573 143.483C64.2264 143.289 63.6276 143.572 63.1673 143.623C62.276 143.722 63.603 142.815 63.8128 142.685C63.8197 142.681 64.0428 142.836 64.3186 142.606C64.9525 142.298 63.8285 142.682 63.8128 142.685C63.9475 142.6 63.9319 142.127 63.7825 142.087C63.701 142.065 63.1247 142.308 63.0931 142.293C62.358 141.919 62.0012 141.411 62.0618 140.735C62.0796 140.718 62.7308 140.493 62.7415 140.462C62.9085 140.02 62.028 140.104 61.4515 140.01C60.8747 139.914 60.9527 139.637 62.0169 139.056C61.7995 138.902 62.185 138.418 62.4241 138.138C62.6623 137.857 61.3835 138.305 61.3479 138.302C60.3681 138.136 60.9956 137.591 60.929 137.063C60.8999 136.813 60.5454 136.425 60.3128 136.226C60.1269 136.07 60.3801 135.839 60.1214 135.728C60.0842 135.715 59.53 135.949 59.5042 135.95C58.7501 136.001 60.1726 135.581 60.4056 135.447C61.2504 134.96 61.6958 134.688 61.1751 134.586C61.0546 134.562 58.9948 135.131 58.8352 135.066C58.634 134.979 59.3698 134.766 59.1409 134.681C59.122 134.674 58.6824 134.84 58.6663 134.742C58.5919 134.284 58.6769 133.725 58.4671 133.298C58.4389 133.24 57.7685 133.578 57.7181 133.497C57.4813 133.116 57.3403 132.66 57.5188 132.137C57.5651 132.008 58.0794 131.887 58.2171 131.811C59.0476 131.352 57.7039 131.642 57.6634 131.622C56.7752 131.12 57.7248 130.128 56.8948 129.589C56.8473 129.56 55.3578 129.761 56.4827 129.181C56.5575 129.143 57.71 128.555 56.8411 128.741C56.7846 128.754 56.2 129.07 56.2063 128.897C56.2133 128.724 55.7098 128.637 56.3138 128.177C56.5046 128.031 57.6464 127.427 56.6165 127.591C56.5428 127.603 54.2686 128.113 55.721 127.447C55.9604 127.338 57.5479 126.764 56.6507 126.836C56.4769 126.85 56.1546 127.062 55.8909 127.028C55.4847 126.976 55.8191 126.58 55.0325 126.624C54.8934 126.632 53.7599 126.871 54.5247 126.435C54.6444 126.367 55.1859 126.208 55.22 126.117C55.3798 125.681 54.8985 125.471 55.138 124.999C55.2225 124.832 56.0974 124.573 56.2796 124.364C56.4617 124.155 56.5878 123.823 56.1497 123.841C55.7113 123.858 54.4051 124.508 54.2239 124.356C53.4369 123.695 53.9215 122.563 53.722 121.678C53.6922 121.548 53.2448 121.834 53.1663 121.654C52.877 120.995 51.9806 119.994 52.7942 119.023C53.443 118.239 54.2967 118.596 54.4973 118.108C54.592 117.874 52.9492 118.28 52.8772 118.259C52.2176 118.039 52.8129 117.499 52.4573 117.207C52.3836 117.148 51.773 117.464 51.7171 117.411C51.5224 117.231 51.7194 116.892 51.5882 116.702C51.5277 116.617 51.0471 116.818 51.0511 116.719C51.0578 116.481 51.1929 116.218 51.5735 115.84C51.6093 115.805 52.2623 115.701 52.2278 115.538C52.1678 115.274 52.5023 114.793 51.928 114.685C51.7555 114.654 50.6386 115.076 51.3401 114.6C51.4865 114.501 52.8456 114.041 51.6057 114.265C51.3993 114.302 49.7011 114.536 50.6419 113.979C50.8893 113.833 51.9405 113.299 51.7307 113.262C51.698 113.259 51.119 113.541 51.0286 113.479C50.7225 113.262 50.6632 112.915 50.3597 112.681C50.2772 112.619 49.7029 112.977 49.5999 112.877C49.3163 112.603 49.3164 112.127 49.3841 111.721C49.4106 111.573 49.9565 111.46 50.0091 111.429C50.8633 110.941 49.6043 111.326 49.5149 111.306C48.9762 111.179 49.4697 110.744 49.2122 110.527C49.1415 110.469 48.5786 110.745 48.5208 110.75C47.9527 110.79 49.0452 110.504 49.1253 110.362C49.3487 109.963 49.1879 109.682 49.0091 109.439C48.9415 109.348 48.3072 109.722 48.2542 109.637C47.928 109.136 47.7877 108.575 47.9563 107.898C47.9901 107.772 48.535 107.634 48.6468 107.567C49.4259 107.105 48.2119 107.338 48.0843 107.334C47.9417 107.328 47.8612 107.307 47.8177 107.278C47.83 107.188 47.8959 107.08 47.8138 107.001C47.0114 106.245 46.8561 104.997 46.6809 104.038C46.4602 102.814 46.5838 101.72 46.011 100.703C45.9747 100.637 45.3178 100.992 45.2766 100.939C44.7938 100.247 44.7522 99.3938 44.2307 98.7117C44.189 98.6562 43.5785 99.0194 43.4895 98.9402C43.304 98.7767 43.2332 98.512 43.3499 98.2107C43.4072 98.0668 44.0213 97.967 44.0677 97.8269C44.1746 97.4984 44.116 97.2333 43.9075 97.033C43.8171 96.9477 43.2218 97.3884 43.1556 97.2566C42.7033 96.3807 42.2009 95.5304 42.6575 94.2459C42.6889 94.1576 44.0071 93.5129 43.6917 93.4939C43.3149 93.6476 42.8768 93.8409 42.4768 94.0115C41.6854 92.7923 41.5727 91.2984 41.0452 89.9695C41.0232 89.9144 40.361 90.3325 40.3147 90.2283C40.0422 89.6121 39.5735 89.1201 39.9759 88.1707C40.0147 88.0768 41.2621 87.5195 40.9905 87.4275C40.9424 87.4141 40.6438 87.2139 40.3431 87.2732C40.2957 87.2847 39.7474 87.609 39.6888 87.53C39.3561 87.0623 39.2274 86.4675 39.3245 85.7839C39.341 85.6725 39.994 85.4598 40.011 85.3777C40.1277 84.8007 39.4369 84.5705 39.7864 83.8904C40.0225 83.4334 41.1233 83.0096 42.0843 82.3474C42.2198 82.2539 42.1591 82.0738 42.7561 81.7644C44.2572 80.9858 45.954 80.2397 47.5491 79.4002C47.8927 79.2193 47.4057 79.1798 48.3118 78.8943C48.3728 78.8755 48.7334 78.9009 49.0384 78.7996C49.2494 78.7296 49.8356 78.3724 50.1165 78.3045C50.3969 78.2368 49.9163 78.5567 50.26 78.5046ZM73.9905 159.575C74.3926 159.34 73.8122 159.301 73.3138 159.597C72.9134 159.838 73.491 159.869 73.9905 159.575ZM72.4143 157.735C73.1052 157.205 69.9081 158.336 70.6468 158.362C70.6887 158.364 72.3742 157.766 72.4143 157.735ZM70.9036 155.855C71.8173 155.284 70.3071 155.67 69.597 156.101C68.8874 156.531 70.6264 156.029 70.9036 155.855ZM70.9573 143.711C71.7255 143.585 71.8712 143.72 71.012 144.163C71.009 144.008 70.9648 143.866 70.9573 143.711ZM63.4876 136.871C64.0408 136.485 61.7897 137.296 62.3899 137.267C62.4267 137.263 63.4606 136.89 63.4876 136.871ZM66.1263 135.634C65.3888 135.829 65.4266 136.107 66.1468 135.778C66.1752 135.764 66.1566 135.627 66.1263 135.634ZM62.8098 127.743C62.8423 127.728 62.8385 127.625 62.6507 127.697C62.045 127.93 62.2638 127.994 62.8098 127.743ZM62.1438 121.55C60.9235 121.833 61.0238 122.473 62.1966 121.885C62.2571 121.854 62.2056 121.537 62.1438 121.55ZM47.7806 107.238C47.7875 107.253 47.7996 107.266 47.8177 107.278C47.8141 107.304 47.8139 107.329 47.8245 107.351L47.7806 107.238ZM42.68 82.7332C41.9679 83.008 42.0328 83.2764 42.7141 82.8728C42.7415 82.8566 42.7095 82.7228 42.68 82.7332Z" fill="#FA8282"/>
<path d="M78.8149 69.0205C79.4531 68.1519 79.4054 69.3692 79.9409 69.4365C80.7335 69.5406 81.5493 69.5601 82.3657 69.5156C84.18 69.3615 85.8949 69.4503 87.3999 69.5927C88.4296 69.7048 87.6673 68.3383 88.5522 69.2187C88.6104 69.279 88.2108 69.8237 88.4624 69.956C89.033 70.2472 90.1579 70.4973 90.5688 70.7099C91.3601 71.1163 91.4895 71.1666 92.226 71.5009C92.6137 71.6824 93.0068 71.9274 93.3823 72.1709C94.307 72.7116 95.1531 73.4731 95.8842 74.1777C96.1439 74.4301 96.3146 73.6331 96.7856 74.0332C97.2889 74.4394 98.0105 75.7911 98.0366 76.2675C98.0889 76.7504 97.5432 76.7703 97.4692 76.8886C96.8253 77.8127 98.4805 78.6296 98.5561 78.8154C99.3891 80.6109 99.4155 82.194 99.4506 83.6464C99.5004 84.7759 99.4315 85.8721 99.3833 86.9755C99.2941 89.1721 99.0411 91.459 98.3999 93.3261C97.6278 95.5474 96.5239 97.1505 95.5932 99.0937C95.4933 99.2981 96.287 99.4089 96.1645 99.6621C94.8503 102.355 93.2024 104.777 91.146 106.824C90.9391 107.028 90.6087 106.347 90.3706 106.526C90.0415 106.779 89.6497 107.045 89.2602 107.336C90.6967 107.048 92.1572 106.889 93.6596 106.926C93.7273 106.927 93.7767 107.603 93.9106 107.602C95.5252 107.589 94.9811 106.653 95.7036 105.17C95.8879 104.797 97.0191 106.112 97.1108 106.207C97.4535 106.554 97.4207 107.583 97.5219 107.644C98.3524 108.1 97.5014 104.912 98.4419 104.698C98.4722 104.698 98.4832 105.315 98.5747 105.357C98.8264 105.472 99.0034 105.261 99.2378 105.312C99.2695 105.319 99.3024 105.33 99.3364 105.348C100.003 105.696 100.524 107.221 101.174 106.137C101.258 105.997 100.719 104.193 101.602 104.111C101.95 104.078 103.476 103.773 103.928 103.826C104.375 103.877 104.177 104.519 104.212 104.54C105.481 105.148 105.096 105.544 105.828 106.629C106.545 107.714 106.009 104.959 106.202 104.617C106.394 104.275 107.323 104.823 107.551 105.028C107.781 105.232 107.572 105.642 107.766 105.75C109.052 106.46 108.149 104.309 108.509 103.824C109.378 102.68 110.307 104.694 111.172 104.849C111.411 104.89 111.193 104.429 111.401 104.373C112.232 104.162 112.745 104.792 113.691 104.186C113.84 104.085 114.64 102.838 115.134 103.768C115.202 103.902 114.99 104.414 115.342 104.54C115.784 104.698 116.524 104.836 117.093 104.811C117.216 104.807 117.33 104.799 117.436 104.783C117.923 104.722 117.493 103.79 118.083 104.158C118.333 104.329 117.748 104.719 118.197 104.997C118.64 105.254 119.779 105.673 120.184 105.914C120.592 106.134 120.714 105.457 120.768 105.436C121.112 105.333 122.118 105.698 122.182 105.77C123.146 106.56 123.823 107.536 124.315 108.501C125.652 111.157 125.76 113.834 126.303 116.438C126.36 116.721 127.019 116.465 127.035 116.508C127.408 117.489 125.533 116.86 124.975 117.561C126.351 117.374 126.133 117.791 126.307 118.47C126.391 118.799 126.922 118.606 126.978 118.634C127.805 119.12 126.751 119.487 126.536 119.569C125.743 119.887 126.672 120.251 126.137 120.459C125.605 120.659 124.842 120.149 124.832 120.778C125.321 120.978 126.634 120.54 126.825 121.049C127.57 123.013 126.1 126.414 125.716 127.832C125.348 129.274 125.331 129.76 124.975 130.565C124.387 131.864 125.182 131.72 125.5 132.438C125.53 132.544 125.55 132.666 125.555 132.809C125.576 134.176 123.546 132.739 123.018 132.721C122.497 132.659 122.93 132.982 122.607 133.025C122.288 133.056 122.105 132.616 121.865 132.895C121.64 133.162 121.945 134.488 122.321 134.89C123.139 135.717 124.423 135.892 123.482 136.629C123.426 136.667 123.009 136.166 122.828 136.336C121.41 137.677 120.251 139.174 118.798 140.358C118.597 140.52 118.188 139.919 118.066 140.008C116.789 140.92 118.039 141.216 118.534 142.679C117.3 141.456 116.192 141.156 115.465 142.037C115.206 142.351 115.332 142.615 115.505 142.921C115.626 143.126 115.766 143.353 115.809 143.633C115.84 143.846 115.127 143.857 115.322 144.163C115.938 145.181 117.227 145.762 115.893 146.311C115.835 146.33 115.538 145.742 115.37 145.844C114.28 146.47 114.924 147.5 113.923 148.432C113.134 149.16 111.217 149.547 110.198 150.049C109.177 148.4 108.52 149.341 108.863 150.702C108.213 151.043 107.583 151.521 106.887 151.731C106.647 151.805 106.489 151.243 106.431 151.207C105.535 150.64 105.944 151.915 105.839 152.04C105.37 152.557 104.83 152.848 104.284 153.12C103.412 153.557 102.556 153.887 101.913 154.875C101.877 154.932 102.393 156.184 101.543 155.507C101.489 155.458 101.713 154.664 100.984 154.969C100.245 155.279 98.6257 155.207 97.8422 156.173C97.6554 156.407 97.3917 157.674 96.5942 157.045C96.4888 156.958 96.4353 156.568 96.269 156.398C95.7397 155.856 95.9954 157.206 95.271 156.225C94.5414 155.243 93.5834 154.639 92.7866 155.682C92.7622 155.712 92.7985 156.821 92.4653 156.89C91.9379 156.997 91.1404 156.955 90.5991 157.079C90.3365 157.14 90.6462 157.759 90.603 157.781C88.8927 158.529 87.4906 158.161 85.5454 158.165C85.195 158.164 84.2821 159.2 83.5161 158.557C82.6794 157.851 83.0992 154.5 81.4838 155.453C81.2817 155.574 81.0829 156.084 80.8803 156.657C80.4527 157.891 79.8617 159.427 78.9223 158.002C76.5191 158.673 74.3641 157.504 71.9174 157.95C71.808 157.97 71.3031 159.077 71.0424 159.022C70.6597 158.938 70.5385 158.366 70.2749 158.285C69.1784 157.931 68.0518 158.172 66.9868 157.856C66.586 157.737 66.8493 157.221 66.3755 157.077C65.8985 156.932 65.3975 157.574 64.8276 157.062C64.394 156.672 64.2745 155.077 63.6743 154.738C63.2713 156.178 62.8325 156.033 61.9292 156.202C61.7569 156.236 61.7872 156.782 61.6987 156.824C61.3356 157.005 61.1653 156.514 60.8139 156.722C60.7278 156.771 60.5924 157.263 60.5141 157.332C59.9506 157.827 59.5311 157.006 59.3462 156.578C59.3226 156.573 59.2571 156.548 59.2348 156.541C59.2068 156.449 59.1891 156.376 59.1792 156.335C58.9607 155.427 58.474 155.938 58.2124 155.493C57.9616 155.05 58.6719 154.964 58.3178 154.602C57.5927 153.855 56.4703 153.348 55.645 152.813C55.3156 152.604 55.1839 153.32 55.1284 153.306C54.3201 153.01 54.0672 151.95 52.8891 152.767C53.6298 151.309 53.5826 151.198 53.2387 151.361C52.8416 151.556 52.0132 152.127 51.7592 151.395C51.7206 151.281 52.7715 149.997 53.1645 150.02C53.4477 150.037 53.5487 150.404 53.8208 150.609C53.9258 150.689 54.0554 150.742 54.2241 150.734C54.3738 150.736 55.7715 149.824 55.8842 149.785C56.8033 149.524 55.5346 151.642 55.4907 151.783C55.0492 153.252 56.6221 152.241 56.8422 152.23C57.905 152.228 58.439 152.886 59.2963 152.863C59.8551 152.847 60.539 151.371 60.851 151.555C60.9562 151.616 61.0464 151.693 61.1264 151.781L60.6753 151.632C61.6404 152.377 61.718 154.116 63.3217 152.71C63.7048 152.377 63.8779 150.587 64.5034 152.193C64.5391 152.294 64.9488 153.719 65.563 153.041C65.6405 152.955 65.7658 152.453 65.8452 152.428C66.3687 152.269 66.578 152.746 67.1186 152.673C67.659 152.599 68.3123 152.448 68.8256 152.739C69.1357 152.915 69.3635 153.947 69.4819 154.212C69.8062 154.971 70.4975 153.965 70.6323 154.824C70.7802 155.69 69.984 156.83 70.6792 157.49C70.9267 156.168 71.2132 154.816 71.4702 153.487C73.0205 153.785 74.4895 154.362 76.0678 154.33C76.2619 154.324 76.0758 153.599 76.2807 153.573C77.1372 153.467 77.9178 153.96 78.8344 153.7C79.3802 153.543 79.9281 153.018 80.4868 152.658C80.6704 152.547 80.8613 152.452 81.0473 152.389C81.7057 153.87 82.8488 153.228 83.7143 153.265C84.0222 153.276 84.0476 153.687 84.2778 153.794C85.1443 154.182 84.5898 152.882 84.7788 152.642C85.5684 151.611 86.0896 154.648 87.1938 154.392C87.2568 154.371 87.6806 152.64 87.7485 152.522C88.228 151.756 87.9514 153.066 88.3559 153.113C89.0869 153.198 89.6622 153.479 90.3598 152.824C90.5651 152.63 90.8668 151.507 91.5063 152.155C91.5914 152.24 91.6973 152.773 91.7534 152.791C92.7588 153.069 92.3214 151.417 92.6225 150.727C92.9164 150.039 93.9809 150.926 94.2456 151.193C94.9173 151.89 94.0693 151.652 94.0727 151.737C94.1388 152.793 94.6337 152.448 95.0766 152.384C95.6875 153.942 96.2633 153.627 95.5366 152.308C95.4572 152.164 95.1859 152.426 95.0766 152.384C94.9067 150.706 95.3982 150.306 96.6518 151.451C97.2445 151.983 97.2594 152.892 98.1381 152.18C98.5299 151.854 97.8886 150.882 98.1342 150.424C98.6786 149.386 100.241 149.784 101.01 149.135C101.282 148.904 100.669 148.535 100.839 148.359C100.947 148.248 101.069 148.169 101.199 148.105C101.674 147.866 102.215 147.803 102.587 147.358C102.631 147.305 102.151 146.827 102.337 146.702C103.742 145.749 105.217 145.344 106.658 144.441C107.363 144.001 108.35 142.915 109.015 142.526C110.182 141.861 111.96 141.617 112.369 140.784C112.44 140.642 112.443 140.515 112.408 140.398C112.382 139.999 112.025 139.743 111.935 139.334C111.695 138.25 113.667 138.278 113.96 138.297C113.971 138.297 113.645 138.956 114.148 138.867C114.838 139.129 113.963 138.309 113.96 138.297C114.151 138.31 115.149 137.281 115.216 136.982C115.255 136.819 114.707 136.506 114.736 136.429C115.423 134.611 116.36 133.047 117.361 131.897C117.385 131.881 117.972 132.264 118.022 132.219C118.729 131.619 118.169 130.667 117.664 130.549C117.648 130.547 117.633 130.546 117.619 130.547C117.377 129.613 117.708 129.017 118.953 128.756C118.945 128.069 119.646 127.235 120.058 126.742C120.47 126.25 119.144 125.951 119.122 125.9C118.505 124.307 119.384 123.598 119.632 122.115C119.755 121.412 119.617 120.027 119.456 119.314C119.331 118.751 119.637 118.402 119.402 117.906C119.37 117.841 118.77 117.949 118.746 117.93C117.985 117.448 119.478 117.588 119.733 117.451C120.653 116.953 121.137 116.587 120.577 115.931C120.446 115.764 118.269 115.709 118.095 115.517C117.87 115.246 118.641 115.177 118.376 114.898C118.354 114.875 117.902 115.003 117.869 114.813C117.738 114.104 117.641 113.398 117.373 112.891C117.301 112.757 117.226 112.644 117.149 112.556C117.097 112.494 116.556 113.018 116.483 112.955C116.316 112.814 116.231 112.767 116.258 112.738C116.28 112.709 116.414 112.673 116.498 112.513C116.536 112.431 116.676 111.927 116.719 111.778C116.83 111.32 116.738 111.408 116.667 111.627C116.592 111.845 116.53 112.189 116.524 112.201C116.515 112.217 116.505 112.233 116.496 112.247C114.569 112.65 112.843 111.523 110.619 112.257C110.491 112.299 109.669 113.839 109.112 112.636C109.079 112.554 108.499 111.323 108.217 112.241C108.2 112.299 108.546 112.924 108.07 112.913C107.595 112.902 106.908 113.44 106.155 112.819C105.921 112.623 105.221 111.433 104.772 112.546C104.736 112.623 104.211 115.064 103.587 113.561C103.486 113.314 103.22 111.644 102.649 112.639C102.541 112.832 102.87 113.15 102.546 113.455C102.194 113.794 101.659 113.74 101.186 114.023C100.993 114.135 100.81 114.294 100.654 114.543C100.556 114.701 100.268 115.941 99.6421 115.193C99.5438 115.076 99.5463 114.498 99.3032 114.489C98.1454 114.446 97.104 115.081 95.9272 114.974C95.5097 114.937 95.4832 114.004 95.021 113.869C94.5588 113.734 93.6868 113.719 93.3794 114.233C93.0716 114.748 93.8998 116.027 93.3188 116.306C90.8072 117.517 88.0406 117.498 85.5825 118.346C85.2211 118.472 85.7063 118.834 85.1977 119.055C84.0577 119.549 82.5645 120.446 81.2085 121.099C80.1709 121.606 79.1495 121.981 78.2622 121.998C76.4594 122.038 77.8202 120.449 76.5962 120.758C76.0032 120.913 76.3391 122.682 76.2456 122.802C75.363 123.972 74.1636 123.844 73.2553 124.701C73.0689 124.878 73.6462 125.319 73.4868 125.462C72.9424 125.956 72.1321 126.126 71.5981 126.555C71.361 126.748 71.6993 127.149 71.4487 127.271C71.1686 127.411 70.8782 127.525 70.5883 127.587C70.4485 127.614 70.2961 127.637 70.1577 127.635C70.0933 127.63 70.0238 127.626 69.9848 127.595C69.9695 127.576 69.9473 127.562 69.9926 127.492C70.0269 127.446 70.0065 127.453 70.2299 127.234C70.2852 127.179 70.3548 127.11 70.4585 127C70.4845 126.972 70.513 126.941 70.5444 126.907C70.5601 126.89 70.5769 126.872 70.5942 126.852C70.6027 126.843 70.7335 126.7 70.8305 126.582C71.0542 126.248 71.4186 126.064 72.0503 124.376C72.1587 124.004 72.3264 123.45 72.3803 122.732C71.8593 122.951 71.3331 123.142 70.8042 123.296C70.4459 123.398 70.4389 122.669 70.2524 122.688C69.4411 122.778 69.863 123.938 69.0971 124.043C68.9378 124.066 68.7547 123.536 68.7016 123.494C67.8707 122.851 68.1727 124.224 68.0883 124.303C67.7682 124.613 67.4134 124.751 67.0512 124.814C66.9825 124.848 66.9162 124.886 66.7026 124.97C66.5842 125.01 66.4528 125.074 66.061 125.137C66.0048 125.144 65.9737 125.149 65.8745 125.157C65.6902 125.17 65.448 125.182 65.0844 125.113C64.7299 125.043 64.204 124.875 63.6938 124.417C63.1783 123.97 62.8351 123.236 62.769 122.685C62.6558 121.551 62.9697 121.171 63.0776 120.906C63.2142 120.654 63.3059 120.543 63.3764 120.452C63.5363 120.259 63.5283 120.281 63.5503 120.256C63.5682 120.238 63.5843 120.222 63.5991 120.208C63.6287 120.18 63.6536 120.157 63.6753 120.139C63.7183 120.101 63.7502 120.075 63.7788 120.054C63.8783 119.98 63.9002 119.977 63.9536 119.946C64.0377 119.904 64.1011 119.882 64.1674 119.858C64.2906 119.819 64.4095 119.79 64.5307 119.761C64.76 119.712 64.9952 119.668 65.2163 119.62C65.6639 119.521 66.0897 119.38 66.4555 119.048C66.5792 118.933 65.8716 118.565 66.2495 118.275C67.1127 117.614 68.0262 116.993 68.9731 116.419C68.0923 115.913 67.2395 115.658 66.7055 115.602C66.3257 115.543 66.0076 115.524 65.7348 115.52C65.7383 115.516 65.7431 115.512 65.7465 115.507C65.9376 115.236 65.3887 114.176 66.3286 114.611C66.524 114.702 67.0507 116.047 67.1098 114.611C67.1233 114.371 67.3878 112.332 68.4067 112.999C68.6791 113.173 69.5876 114.01 69.7973 113.682C69.8226 113.634 69.3504 113.163 69.562 112.973C70.3144 112.309 71.2246 111.857 71.9516 111.175C72.1435 110.992 71.4692 110.629 71.7631 110.376C72.5703 109.681 73.7277 109.121 74.6479 108.718C74.9876 108.571 75.1047 109.163 75.1606 109.196C76.082 109.732 75.512 108.518 75.5747 108.376C75.9873 107.494 76.8689 107.577 77.3491 106.952C77.4798 106.782 76.9577 106.405 76.9526 106.336C76.9107 105.649 77.4138 106.701 77.6997 106.615C78.5035 106.372 79.0761 105.747 79.5053 105.163C79.6617 104.948 78.929 104.673 79.0698 104.491C79.371 104.09 79.6696 103.701 79.9643 103.337C80.6624 102.458 81.4168 101.634 82.2338 100.913C82.4799 100.697 82.8225 101.183 82.9653 101.202C83.9638 101.336 83.3446 100.086 83.3315 99.8964C83.2815 99.0246 83.8383 99.0775 84.0922 98.5166C85.3276 95.7893 87.2388 92.9049 88.2026 90.7314C89.251 88.4109 89.8901 86.6288 89.7299 85.0058C89.654 84.383 89.5668 83.7848 89.4526 83.2216C89.4104 83.0158 88.7103 83.3416 88.6655 83.1699C88.5709 82.7776 88.4811 82.4137 88.4028 82.0947C88.3583 82.1345 88.3084 82.1539 88.2475 82.1357C87.6582 81.9657 87.1022 81.6775 86.7485 81.3037C86.5732 81.1215 87.0763 80.6635 86.8881 80.4902C86.4468 80.0853 85.9183 79.8828 85.4653 79.9121C85.2801 79.9289 85.4029 80.6825 85.1928 80.6543C84.6929 80.5952 84.3724 80.6433 84.1958 80.6611C82.1542 80.9756 80.1372 81.1598 78.0268 80.9638C77.8093 80.9405 77.3226 79.5435 76.9282 79.9111C76.9761 80.3165 77.074 80.785 77.1469 81.2138C72.8197 82.3352 68.4688 83.0187 66.3647 84.5839C66.2782 84.649 66.8936 85.1522 66.7368 85.2724C66.4939 85.4606 66.2834 85.668 66.0737 85.8906C65.0847 86.9247 64.0953 87.9654 62.6831 88.7773C62.491 88.8881 61.5091 87.9307 61.27 88.5478C61.2279 88.6563 60.7786 89.5077 60.8637 89.8828C60.8789 89.9361 61.4849 90.1968 61.3149 90.4443C60.3188 91.8771 59.1363 93.2717 57.8442 94.5195C57.6345 94.7207 57.2335 94.0949 57.0786 94.2363C55.9773 95.2529 55.6008 96.858 54.393 97.746C53.5812 98.3463 52.7203 97.4821 51.4624 97.375C51.2832 97.3618 50.9816 97.8732 50.3715 97.5908C48.8348 96.8802 47.3396 95.7453 45.686 95.0175C45.3281 94.8612 45.2908 95.8422 44.6997 94.9433C44.66 94.8812 44.6879 94.1594 44.4848 93.8671C44.3443 93.6634 43.6438 93.5215 43.5063 93.1826C43.3706 92.8417 43.9945 92.8929 43.8921 92.3955C43.7863 91.8977 43.0241 91.6622 43.3296 90.9404C44.0459 89.2613 45.4923 87.3769 46.7426 86.0859C47.1332 85.6804 47.3254 86.152 47.6108 85.8857C48.1682 85.3677 48.3998 84.6819 48.9917 84.2031C49.1892 84.0464 49.5537 84.6853 49.7475 84.5136C50.8042 83.5743 51.4665 82.4358 52.4653 81.4355C53.9631 79.9385 55.4841 78.4803 57.0669 77.0703C61.7191 72.8506 67.0585 71.6788 71.6411 70.7197C73.8754 70.2801 76.6082 70.365 78.7797 69.707C79.0316 69.6293 78.7753 69.0785 78.8149 69.0205ZM75.0854 154.851C74.6859 154.017 74.1954 155.789 74.3706 156.123C74.984 157.221 75.5107 155.684 75.0854 154.851ZM67.2368 155.759C67.8599 156.754 68.71 153.467 67.7251 153.947C67.668 153.975 67.2011 155.7 67.2368 155.759ZM60.7456 154.305C60.6478 153.92 60.1273 154.004 59.9477 154.341L60.0903 154.389C60.0501 154.449 60.02 154.52 60.0063 154.6L59.8891 154.561C59.8867 154.618 59.8931 154.68 59.9106 154.745C60.0515 155.258 60.9087 154.939 60.7456 154.305ZM110.155 150.015C110.154 150.921 109.701 151.312 108.866 150.702C109.3 150.491 109.719 150.236 110.155 150.015ZM48.5493 147.644C48.6479 147.447 50.5946 147.74 50.6303 147.805L50.6255 147.804C51.2012 149.248 49.9768 152.138 48.8149 149.937C48.6457 149.56 50.0519 150.215 49.979 149.635C49.904 148.672 48.0576 148.887 48.5493 147.644ZM124.835 124.077C124.108 123.757 123.945 124.62 124.75 124.533C124.784 124.526 124.865 124.093 124.835 124.077ZM121.861 124.479C122.575 124.041 120.207 123.685 120.707 124.297C120.734 124.327 121.824 124.502 121.861 124.479ZM65.7348 115.52C65.0856 116.412 63.9001 116.495 63.0796 116.894C62.9337 116.964 62.8378 116.949 62.7729 116.892C62.9365 116.764 63.1971 116.609 63.1352 116.596C63.0804 116.578 62.8165 116.658 62.6674 116.696C62.6218 116.533 62.6235 116.346 62.5844 116.343C62.5466 116.339 62.5092 116.337 62.4721 116.334C62.5668 116.28 62.6835 116.211 62.9585 116.086C63.1013 116.023 63.2813 115.944 63.6049 115.838C63.769 115.785 63.9704 115.726 64.2573 115.664C64.4013 115.633 64.5679 115.603 64.769 115.576C64.8191 115.569 64.8714 115.563 64.9262 115.557C64.9897 115.55 64.9994 115.547 65.226 115.531C65.3773 115.523 65.5453 115.518 65.7348 115.52ZM92.6655 107.855C92.6228 107.796 91.6099 107.999 91.5922 108.069C91.3989 109.406 93.4337 109.001 92.6655 107.855ZM111.261 106.014C111.248 105.978 110.934 105.965 110.952 106.166C111.013 106.812 111.436 106.604 111.261 106.014ZM52.3481 95.1406C52.3165 95.131 52.0717 95.488 52.0942 95.5126C52.6362 96.0906 53.12 95.3854 52.3481 95.1406Z" fill="#FA8282"/>
</svg>
