<svg width="202" height="202" viewBox="0 0 202 202" fill="none" xmlns="http://www.w3.org/2000/svg">
<path d="M137.526 62.1134C137.789 62.2435 137.663 62.5654 137.443 62.8683C137.375 62.9642 136.963 63.0672 136.897 63.1359C136.768 63.2692 136.991 63.28 136.834 63.4289C136.781 63.479 136.132 63.6605 136.09 63.7082C135.864 63.9642 136.075 64.052 135.997 64.2668C135.599 65.2798 135.63 66.1495 135.616 67.0539C135.615 67.3616 135.144 67.8679 135.493 68.0636C135.535 68.0839 136.082 67.876 136.132 67.8654C136.868 67.7184 135.731 68.0728 135.603 68.1857C135.096 68.6325 135.142 68.9333 135.437 69.0929C135.565 69.1624 136.638 68.682 136.051 68.9972C136.01 69.0191 135.41 69.1958 135.357 69.2453C135.237 69.3571 135.384 69.4419 135.354 69.508C135.294 69.6377 135.304 69.6474 135.328 69.7384C135.354 69.8636 135.109 70.1091 135.288 70.1955C135.329 70.2133 135.924 69.968 136.042 69.9777C136.16 69.9872 136.15 70.1271 136.02 70.213C135.89 70.3011 135.407 70.448 135.3 70.4923C134.397 70.8646 135.72 70.5631 135.759 70.5695C136.408 70.7052 135.774 71.231 135.878 71.5285C135.96 71.7565 136.284 71.9205 136.325 72.1457C136.37 72.4158 136.12 72.7574 136.26 72.9826C136.274 73.0071 136.978 72.7324 136.997 72.7619C137.196 73.0748 137.238 73.4495 136.872 73.9523C136.834 74.0034 136.191 74.1736 136.117 74.2375C135.673 74.6234 134.552 75.3841 137.323 74.5724C137.264 74.7499 137.213 74.9603 136.706 75.2765C136.381 75.4803 135.67 75.6336 135.997 75.6359C136.07 75.6361 136.657 75.4024 136.721 75.4191C136.99 75.492 136.848 75.7096 137.205 75.7462C137.28 75.7527 137.811 75.5625 137.912 75.5373C138.717 75.3388 137.464 75.8952 137.378 75.9523C136.743 76.3809 137.069 76.4322 137.111 76.6115C137.12 76.6536 137.824 76.36 137.859 76.3918C138.031 76.5597 138.042 76.793 137.791 77.1046C137.733 77.1747 137.107 77.3428 137.048 77.3869C136.797 77.5787 137.962 77.2049 137.743 77.381C137.697 77.4175 137.169 77.5864 137.113 77.6095C136.23 77.9706 137.514 77.584 137.557 77.5851C138.004 77.6284 136.704 78.1983 136.952 78.3048C136.983 78.3171 137.631 78.0439 137.678 78.0919C137.994 78.4185 137.947 78.8763 137.546 79.4406C137.485 79.5278 136.971 79.6561 136.911 79.6808C135.97 80.0695 137.271 79.6704 137.327 79.673C137.728 79.7082 136.695 80.2129 138.264 79.7931C137.951 80.618 139.03 80.9598 137.873 82.0695C137.86 82.0829 137.22 82.2848 137.197 82.3107C136.907 82.6242 137.88 82.2514 139.129 81.9689C139.443 81.8981 138.024 82.491 137.917 82.5373C137.535 82.7028 136.582 82.9913 136.507 83.0285C135.939 83.3202 139.054 82.2432 139.097 82.3615C139.093 82.367 138.513 82.5469 138.459 82.5763C138.291 82.6684 138.53 82.6221 138.342 82.7199C137.908 82.9455 136.4 83.4866 137.319 83.2931C137.438 83.2677 139.202 82.6437 139.155 82.7794C139.134 82.8331 139.228 83.0084 139.131 83.0998C139.035 83.1905 138.457 83.3479 138.428 83.3615C137.721 83.7589 137.39 83.8122 136.297 84.2628C135.209 84.7121 137.854 83.7895 138.162 83.7169C138.467 83.6452 137.88 83.9615 137.672 84.0607C137.464 84.1599 137.091 84.2512 136.976 84.3156C136.227 84.7384 138.316 83.9328 138.754 83.839C139.792 83.6166 137.854 84.379 137.698 84.5519C137.658 84.5969 138.096 84.4216 138.147 84.4328C138.341 84.4793 137.748 84.7494 138.35 84.673C138.449 84.6603 139.662 84.3514 138.815 84.7072C138.692 84.7585 138.194 84.901 138.099 84.9816C137.956 85.1024 137.889 85.2556 138.077 85.2697C138.216 85.2794 139.002 84.9463 138.775 85.0959C138.673 85.1629 138.181 85.2705 138.028 85.383C137.875 85.4951 137.944 85.6268 137.978 85.674C138.016 85.7192 138.616 85.4835 138.659 85.4738C138.904 85.4197 139.233 85.4177 139.236 85.4269C139.46 85.8433 138.569 86.6137 139.058 86.9289C139.096 86.9532 139.725 86.7152 139.747 86.713C140.057 86.7372 138.308 87.2292 137.759 87.506C139.067 87.0486 138.846 87.1779 139.018 87.2111C139.103 87.2261 139.603 87.0318 139.656 87.0177C140.447 86.8143 139.464 87.1948 139.264 87.2746C138.527 87.5683 139.427 87.3091 138.935 87.506C138.447 87.7013 137.689 87.891 137.724 87.9669C138.201 87.8296 139.41 87.3544 139.629 87.3468C140.043 87.3325 140.046 87.5123 139.941 87.7238C139.95 87.7341 139.954 87.7784 139.962 87.7892C139.85 87.9993 139.627 88.2332 139.603 88.34C139.557 88.553 139.661 88.5808 139.523 88.7433C139.271 89.0323 140.171 88.6833 140.628 88.6759C141.085 88.6683 138.802 89.294 138.32 89.4582C137.839 89.6217 138.345 89.4884 138.083 89.59C137.822 89.6915 137.478 89.7471 137.392 89.8263C137.307 89.9055 138.213 89.7762 138.728 89.6418C139.818 89.3533 140.932 88.9497 140.574 89.2023C140.548 89.2182 139.949 89.373 139.898 89.4201C139.51 89.7897 139.551 90.0292 139.216 90.3849C139.169 90.4336 138.498 90.6072 138.463 90.6378C138.097 90.9563 139.193 90.5489 140.465 90.2746C138.807 90.7537 137.814 91.1149 137.849 91.2668C137.872 91.3555 138.586 91.1216 139.111 91.0236C139.269 90.9939 138.793 91.2055 139.135 91.1134C140.255 90.8124 141.478 90.3781 141.029 90.675C141.004 90.6894 140.395 90.8536 140.365 90.8869C140.169 91.1021 141.332 90.7727 141.522 90.8859C141.67 90.9753 141.03 91.4087 140.958 91.5871C139.102 92.1511 139.567 92.154 140.863 91.8156C140.837 91.9188 140.941 92.0009 140.791 92.1427C140.741 92.1916 140.198 92.3357 140.14 92.3576C139.248 92.6951 140.504 92.354 140.559 92.3586C141.096 92.4202 140.21 92.8947 141.192 92.8097C141.227 92.807 142.52 92.4239 141.596 92.7677C141.532 92.7912 140.925 92.9025 140.91 93.0138C140.894 93.1273 140.257 93.5101 140.896 93.4669C141.05 93.4556 142.121 93.2166 141.324 93.5314C141.215 93.574 140.843 93.6777 140.641 93.7531C139.998 93.9943 141.307 93.6157 140.215 94.0041C139.124 94.392 138.326 94.7466 139.129 94.6447C139.153 94.6424 140.189 94.3581 140.192 94.4045C140.186 94.4823 140.001 94.6448 140.029 94.7121C140.043 94.7437 140.666 94.5309 140.69 94.5295C141.119 94.6477 140.597 94.9826 140.422 95.3019C140.388 95.3575 141.303 95.2269 140.637 95.5207C139.908 95.8435 136.725 96.6894 137.541 96.6818C137.869 96.674 141.903 95.6005 139.875 96.3703C140.479 96.5275 139.496 97.1082 140.314 97.2052C140.35 97.21 141.489 96.9546 141.483 96.9933C141.469 97.0511 140.952 97.2119 140.925 97.258C140.804 97.4437 141.289 97.4695 141.252 97.6339C141.239 97.6959 140.685 97.7974 140.666 97.8654C140.648 97.9284 141.386 97.8365 141.05 97.9914C140.794 98.1124 139.306 98.406 139.135 98.4679C140.618 98.2773 140.595 98.3292 140.997 98.4015C141.076 98.4163 141.59 98.353 141.656 98.3586C141.665 98.3594 141.674 98.3605 141.681 98.3615L141.676 98.3195C141.894 98.3227 141.51 98.4132 141.794 98.4015C141.865 98.3983 142.368 98.3174 142.455 98.3088C143.203 98.2258 142.085 98.4913 141.894 98.5558C141.163 98.7714 141.818 98.6575 141.538 98.7697C141.261 98.8928 140.879 98.9076 140.72 99.0187C140.395 99.2599 140.544 99.448 140.587 99.6056C140.608 99.6689 141.21 99.3562 141.232 99.3566C141.426 99.3724 140.85 99.8329 142.06 99.2131C139.055 101.03 142.384 99.0971 141.844 99.5529C141.799 99.5905 140.444 100.548 140.201 100.622C139.954 100.691 140.338 100.328 139.96 100.433C139.873 100.469 138.431 101.063 138.329 101.071C137.567 101.2 139.798 100.107 139.92 100.048C141.222 99.3652 139.638 99.9115 139.503 99.8879C138.926 99.8658 139.199 99.5679 138.788 99.4914C138.522 99.4381 136.936 99.7895 136.957 99.6584C137.022 99.2872 138.648 98.9223 137.916 98.8498C137.927 98.8111 137.882 98.6885 137.895 98.6506C137.77 98.6597 137.571 98.6763 137.278 98.7072C137.205 98.7138 137.092 98.7281 136.962 98.7423C137.261 98.6933 137.507 98.6484 137.035 98.714C136.981 98.7222 136.81 98.7504 136.656 98.7765C136.538 98.7901 136.42 98.8031 136.316 98.8156C136.357 98.801 136.404 98.784 136.306 98.7902C136.108 98.8053 135.813 98.8356 135.975 98.756C136.072 98.7082 137 98.448 137.226 98.3742C137.875 98.1638 136.781 98.3846 137.571 98.1506C138.364 97.9102 139.601 97.6707 140.093 97.4367C138.791 97.7716 137.453 98.1129 136.143 98.4504C136.145 98.2697 136.51 97.9594 136.394 97.7716C136.378 97.7487 135.69 97.9747 135.656 97.9552C135.513 97.8735 135.977 97.6267 135.746 97.5636C135.563 97.5154 134.797 97.6261 134.582 97.5832C136.038 97.0798 135.493 97.0802 135.594 96.9279C135.629 96.8744 136.023 96.7588 136.143 96.6916C136.586 96.4449 135.301 96.8857 135.086 96.9201C134.176 97.0647 137.116 96.1567 136.999 96.0334C136.973 96.0319 135.396 96.4104 135.294 96.4269C134.632 96.5377 135.837 96.2472 135.937 96.1593C136.119 95.9961 136.474 95.8202 135.981 95.8478C135.835 95.8571 134.832 96.0753 135.569 95.7804C135.665 95.7421 136.181 95.5893 136.213 95.5724C136.683 95.2984 135.053 95.7934 134.48 95.8927C133.907 95.9917 134.998 95.5364 135.316 95.4172C136.136 95.1047 135.689 95.3497 135.77 95.3283C136.76 95.0639 136.569 95.039 136.633 94.9543C138.228 94.4564 138.107 94.4022 136.694 94.8683C136.539 94.9194 136.703 94.92 136.633 94.9543C135.05 95.3823 134.821 95.3516 136.253 94.798C136.925 94.5386 137.739 94.3395 137.403 94.2863C137.25 94.2615 136.158 94.6236 135.84 94.6574C135.115 94.7318 136.088 94.2462 135.885 94.1584C135.811 94.1262 135.223 94.3596 135.152 94.3439C134.962 94.3027 135.387 94.0817 135.129 94.0646C135.105 94.0631 134.48 94.2756 134.463 94.2502C134.326 94.0602 134.671 93.7456 134.615 93.5207C134.586 93.4097 134.18 93.321 134.215 93.1896C134.273 92.959 135.116 92.4388 134.844 92.3419C134.668 92.2765 134.044 92.4917 133.6 92.5753C132.74 92.7356 134.183 92.1254 134.409 92.0343C134.416 92.0315 134.593 92.0781 134.902 91.9308C135.568 91.6974 134.412 92.0345 134.409 92.0343C134.554 91.9755 134.641 91.7469 134.509 91.7453C134.437 91.745 133.842 91.9373 133.816 91.9337C133.202 91.8366 132.979 91.6475 133.179 91.3009C133.19 91.2927 133.862 91.098 133.878 91.0812C134.131 90.845 133.286 91.0016 132.763 91.0265C132.241 91.0518 132.374 90.9048 133.5 90.4855C133.328 90.4379 133.798 90.1566 134.083 89.9884C134.367 89.8217 133.072 90.1994 133.036 90.2033C132.531 90.2262 132.543 90.1234 132.656 89.9836L132.718 90.1769C132.801 90.0696 132.94 89.9392 132.958 89.8312C132.981 89.7112 132.727 89.5753 132.549 89.5148C132.407 89.4677 132.69 89.3142 132.471 89.3009C132.442 89.2991 131.871 89.5047 131.848 89.5089C131.133 89.654 132.549 89.2195 132.793 89.1164C133.681 88.7414 134.152 88.5359 133.686 88.5695C133.578 88.5777 131.539 89.1863 131.401 89.1798C131.23 89.1686 131.96 88.9464 131.764 88.9406C131.748 88.9399 131.304 89.0913 131.307 89.0461C131.329 88.8308 131.52 88.5398 131.411 88.3634C131.391 88.3416 130.701 88.6127 130.67 88.5812C130.526 88.4325 130.487 88.2309 130.758 87.9425C130.827 87.8711 131.332 87.7295 131.476 87.6701C132.347 87.3099 131.026 87.6682 130.997 87.6632C130.266 87.5553 131.356 86.9192 130.688 86.7834C130.649 86.7767 129.216 87.1121 130.384 86.6466C130.462 86.6155 131.658 86.1411 130.808 86.3712C130.752 86.3869 130.141 86.6357 130.183 86.549C130.224 86.4622 129.771 86.4992 130.428 86.1759C130.635 86.0739 131.827 85.5945 130.83 85.84C130.754 85.8595 128.532 86.4713 130.023 85.9123C130.269 85.8201 131.87 85.2854 131.016 85.4621C130.851 85.4967 130.506 85.6534 130.266 85.6779C129.896 85.7161 130.289 85.4661 129.544 85.6125C129.412 85.6387 128.304 85.9369 129.108 85.5998C129.234 85.5469 129.773 85.3826 129.823 85.3322C130.06 85.0917 129.652 85.0636 129.972 84.7941C130.084 84.699 130.955 84.4318 131.168 84.3C131.381 84.1686 131.566 83.982 131.154 84.0597C130.74 84.1375 129.386 84.6674 129.247 84.6203C128.645 84.413 129.33 83.7885 129.322 83.3761C129.321 83.3157 128.845 83.5279 128.808 83.4513C128.671 83.1678 128.038 82.8229 128.995 82.2072C129.761 81.7168 130.487 81.7573 130.774 81.4845C130.908 81.3544 129.288 81.8168 129.229 81.8166C128.658 81.813 129.323 81.4525 129.052 81.3644C128.996 81.3464 128.359 81.6 128.318 81.5822C128.173 81.5233 128.426 81.3234 128.343 81.2492C128.304 81.2166 127.814 81.3914 127.836 81.3419C127.891 81.222 128.072 81.0704 128.505 80.8244C128.545 80.8019 129.179 80.6459 129.179 80.5714C129.178 80.4506 129.589 80.1645 129.074 80.1974C128.919 80.2085 127.788 80.593 128.541 80.2462C128.699 80.1736 130.062 79.7325 128.859 80.0392C128.659 80.09 127.024 80.4732 128.017 80.049C128.279 79.9371 129.371 79.5064 129.181 79.5216C129.147 79.5267 128.552 79.7568 128.481 79.7404C128.239 79.678 128.258 79.5235 128.021 79.4513C127.954 79.4343 127.349 79.7005 127.272 79.6671C127.063 79.5735 127.16 79.3356 127.308 79.1261C127.366 79.0484 127.896 78.9071 127.952 78.8839C128.851 78.5082 127.595 78.8971 127.516 78.9015C127.04 78.9239 127.59 78.6271 127.395 78.5607C127.342 78.5424 126.758 78.7679 126.703 78.7794C126.164 78.8881 127.245 78.5751 127.348 78.4923C127.639 78.2593 127.547 78.1424 127.43 78.049C127.386 78.015 126.715 78.299 126.684 78.2658C126.487 78.0765 126.468 77.8049 126.769 77.4474C126.828 77.3796 127.364 77.2263 127.483 77.1759C128.307 76.8251 127.123 77.1297 127.006 77.1466C126.473 77.2239 126.928 77.0275 126.813 76.9748C126.236 76.7069 126.377 76.1068 126.434 75.6486C126.511 75.0685 126.877 74.498 126.583 74.0656C126.565 74.0374 125.873 74.3091 125.847 74.2882C125.56 74.0041 125.723 73.5801 125.403 73.3068C125.378 73.2843 124.726 73.552 124.662 73.5246C124.529 73.4674 124.527 73.3421 124.707 73.175C124.796 73.0935 125.388 72.9598 125.463 72.882C125.641 72.7003 125.649 72.5693 125.505 72.4972C125.442 72.4671 124.784 72.7704 124.755 72.713C124.548 72.3293 124.294 71.9699 125.033 71.2433C125.084 71.1941 126.462 70.6948 126.175 70.7257C125.789 70.8529 125.336 71.0079 124.924 71.1466C124.496 70.6195 124.779 69.8744 124.645 69.2404C124.635 69.2168 123.919 69.5084 123.905 69.4601C123.816 69.1657 123.52 68.9645 124.151 68.422C124.213 68.3695 125.51 67.9426 125.288 67.9269C125.248 67.9265 125.029 67.85 124.737 67.9132C124.693 67.9231 124.097 68.1521 124.065 68.1164C123.893 67.9122 123.945 67.6121 124.23 67.2394C124.277 67.1795 124.935 67.0026 124.974 66.9582C125.251 66.6535 124.689 66.6025 125.205 66.2052C125.558 65.9497 126.687 65.6208 127.758 65.1818C127.909 65.1191 127.908 65.0324 128.543 64.8166C130.144 64.271 131.912 63.7189 133.617 63.133C133.983 63.0056 133.557 63.05 134.464 62.8048C134.525 62.7879 134.843 62.7565 135.151 62.674C135.364 62.6163 136.004 62.3771 136.28 62.3127C136.554 62.2469 136.024 62.4649 136.349 62.3947C136.68 62.3271 137.411 62.0601 137.526 62.1134ZM141.163 100.743C141.014 100.381 143.23 98.6507 143.051 98.9308C143.028 98.992 142.324 99.4548 142.155 99.6466C141.876 100.031 143.207 98.8783 142.577 99.5822C142.474 99.7245 141.179 100.775 141.161 100.745C141.162 100.745 141.163 100.744 141.163 100.743ZM140.178 98.88C140.62 98.7521 140.079 98.7346 139.526 98.8849C139.082 99.0146 139.63 99.0516 140.178 98.88ZM136.316 98.8156C136.3 98.8211 136.287 98.8279 136.282 98.8312C135.757 98.8836 135.955 98.8591 136.316 98.8156ZM136.38 98.8234C136.29 98.8363 136.272 98.8371 136.282 98.8312C136.315 98.8278 136.352 98.8245 136.392 98.8205C136.387 98.8213 136.383 98.8231 136.38 98.8234ZM136.962 98.7423C136.755 98.7763 136.523 98.8124 136.486 98.8127C135.337 98.9306 136.343 98.8101 136.962 98.7423ZM138.247 97.4709C139.238 97.0977 137.728 97.4617 136.96 97.7433C136.194 98.0238 137.945 97.5821 138.247 97.4709ZM140.91 91.6046C141.659 91.4422 141.766 91.4877 140.863 91.8156C140.893 91.7416 140.883 91.679 140.91 91.6046ZM134.533 89.4201C134.228 89.5171 134.018 89.5985 134.239 89.5646C134.249 89.5629 134.38 89.5215 134.549 89.4718L134.533 89.4201ZM135.358 89.2336C135.623 89.12 135.331 89.1862 134.967 89.2892L134.984 89.3439C135.18 89.2854 135.343 89.2394 135.358 89.2336ZM138.108 88.298C137.646 88.4338 137.468 88.5365 137.589 88.5226L137.583 88.5041C137.654 88.4987 137.824 88.4573 138.098 88.3654C138.108 88.3619 138.116 88.3527 138.122 88.3419C138.131 88.3194 138.128 88.2921 138.108 88.298ZM136.593 84.9308C136.627 84.9185 136.643 84.8681 136.453 84.9337C135.839 85.1456 136.032 85.1418 136.593 84.9308ZM137.222 81.9748C136.023 82.3081 135.988 82.6109 137.204 82.133C137.266 82.1081 137.282 81.9591 137.222 81.9748ZM128.185 65.3214C127.454 65.5329 127.436 65.6717 128.176 65.3927C128.207 65.3842 128.215 65.3121 128.185 65.3214Z" fill="#FA8282"/>
<path d="M156.391 76.6491C156.237 75.9089 156.715 76.9606 156.799 77.1442C157.116 77.8395 156.95 77.1961 157.106 77.4586C157.263 77.722 157.283 78.1092 157.414 78.2575C157.687 78.5632 157.86 78.4196 158.026 78.3893C158.091 78.3742 157.834 77.7414 157.839 77.7243C157.913 77.5182 158.273 78.1611 157.915 76.8502C159.118 80.1486 157.886 76.5015 158.292 77.1051C158.324 77.1541 158.873 78.7202 158.894 78.9713C158.915 79.2212 158.665 78.7584 158.707 79.1451C158.718 79.2387 159.102 80.7456 159.117 80.8414C159.234 81.5789 158.435 79.2296 158.387 79.1022C157.856 77.729 158.252 79.3635 158.254 79.485C158.262 80.0408 158.019 79.7535 158.004 80.1569C157.993 80.4188 158.487 81.9659 158.402 81.941C158.121 81.8579 157.349 79.727 157.734 81.6666C157.816 82.0807 158.401 83.7585 157.809 82.4811C157.771 82.3983 157.263 81.2232 157.435 82.0153C157.457 82.1159 157.614 82.6088 157.615 82.6539C157.62 82.9467 157.442 82.5711 157.415 82.7868C157.387 83.0024 157.37 83.3156 157.219 83.1793C157.127 83.098 156.764 82.2014 156.666 81.984C156.385 81.359 156.628 82.4504 156.336 81.6784C156.043 80.9023 155.769 79.6716 155.483 79.1998C155.873 80.4871 156.267 81.8105 156.655 83.1061C156.349 83.1499 155.938 82.8206 155.663 82.9645C155.63 82.9863 155.873 83.6653 155.842 83.7037C155.709 83.8626 155.42 83.4117 155.306 83.6578C155.22 83.8517 155.288 84.6301 155.201 84.8561C154.688 83.4029 154.628 83.9626 154.439 83.8707C154.374 83.8389 154.265 83.4427 154.191 83.3239C153.917 82.8862 154.352 84.1763 154.372 84.3932C154.452 85.3187 153.604 82.363 153.433 82.4869C153.424 82.4926 153.737 84.1035 153.747 84.2116C153.814 84.8845 153.576 83.6667 153.474 83.569C153.29 83.3902 153.099 83.0368 153.078 83.5407C153.073 83.6901 153.237 84.7042 152.945 83.9645C152.907 83.8677 152.771 83.3442 152.754 83.3141C152.455 82.8464 152.895 84.4921 152.951 85.0748C153.007 85.6572 152.558 84.5592 152.443 84.2389C152.143 83.4113 152.405 83.8612 152.387 83.777C152.172 82.7742 152.114 82.9718 152.013 82.9088C151.575 81.2968 151.493 81.4222 151.911 82.8502C151.957 83.0059 151.978 82.8401 152.013 82.9088C152.364 84.5119 152.29 84.7489 151.769 83.3014C151.526 82.6231 151.375 81.7978 151.263 82.1422C151.212 82.2982 151.532 83.4031 151.534 83.7272C151.537 84.4652 151.042 83.4855 150.904 83.693C150.853 83.7691 151.07 84.364 151.04 84.4371C150.96 84.633 150.742 84.201 150.679 84.4655C150.674 84.4902 150.857 85.1196 150.823 85.1412C150.554 85.2863 150.205 84.9365 149.903 84.9957C149.758 85.0246 149.579 85.4398 149.413 85.403C149.121 85.3437 148.593 84.4804 148.422 84.7565C148.309 84.9341 148.481 85.5714 148.514 86.0241C148.577 86.9009 148.031 85.4243 147.954 85.193C147.951 85.1854 148.043 85.0066 147.906 84.6901C147.72 84.0086 147.955 85.1897 147.954 85.193C147.945 85.1661 147.927 85.141 147.906 85.1188C147.873 85.1151 147.777 85.155 147.744 85.15C147.655 85.0453 147.475 84.994 147.454 85.1022C147.44 85.1745 147.563 85.788 147.553 85.8141C147.336 86.4197 147.046 86.6324 146.674 86.402C146.666 86.3906 146.552 85.7005 146.535 85.6823C146.294 85.4104 146.326 86.2724 146.261 86.7994C146.196 87.3263 146.045 87.1808 145.743 86.0162C145.654 86.1855 145.393 85.6939 145.24 85.3942C145.087 85.0947 145.313 86.4342 145.309 86.4635C145.197 87.358 144.907 86.6187 144.611 86.5485C144.47 86.5132 144.246 86.7537 144.13 86.9254C144.039 87.0629 143.915 86.7619 143.847 86.9801C143.838 87.0094 143.959 87.6039 143.959 87.6276C143.97 88.3612 143.766 86.8934 143.696 86.6373C143.441 85.706 143.298 85.2116 143.229 85.6832C143.214 85.7941 143.486 87.9052 143.446 88.0416C143.393 88.2117 143.29 87.4552 143.237 87.651C143.232 87.6672 143.316 88.1319 143.26 88.1207C143 88.075 142.687 87.8515 142.44 87.942C142.406 87.9527 142.579 88.6821 142.532 88.7096C142.311 88.8381 142.046 88.8562 141.756 88.5514C141.684 88.474 141.63 87.9515 141.592 87.8004C141.356 86.8865 141.481 88.2521 141.468 88.2809C141.154 89.0004 140.623 87.8369 140.287 88.4899C140.269 88.5279 140.326 90.0032 140.039 88.777C140.018 88.6912 139.73 87.4426 139.802 88.32C139.806 88.3761 139.964 89.0185 139.866 88.9674C139.767 88.9154 139.696 89.3745 139.459 88.6764C139.383 88.4553 139.089 87.2065 139.138 88.233C139.143 88.3046 139.333 90.6152 139.017 89.0514C138.965 88.7938 138.71 87.1255 138.711 88.0016C138.711 88.1714 138.817 88.535 138.786 88.778C138.738 89.1525 138.526 88.7289 138.514 89.4918C138.513 89.627 138.593 90.7732 138.381 89.9264C138.347 89.793 138.284 89.2351 138.233 89.1784C137.992 88.9099 137.847 89.3129 137.591 88.9576C137.5 88.8326 137.398 87.9272 137.289 87.6969C137.179 87.4669 137 87.2567 136.986 87.6793C136.972 88.1025 137.27 89.5258 137.173 89.6578C136.746 90.2316 136.128 89.4607 135.612 89.4069C135.536 89.3987 135.668 89.9053 135.56 89.9303C135.162 90.0254 134.527 90.6007 134.035 89.5514C133.641 88.7109 133.907 87.998 133.648 87.6686C133.525 87.5116 133.627 89.1965 133.609 89.2555C133.434 89.8218 133.17 89.1018 132.981 89.3561C132.942 89.4101 133.069 90.0824 133.035 90.1198C132.918 90.2533 132.741 89.9681 132.622 90.0377C132.569 90.0709 132.64 90.5891 132.584 90.5553C132.449 90.4802 132.313 90.2743 132.135 89.8024C132.118 89.758 132.117 89.1065 132.022 89.0924C131.867 89.073 131.632 88.6134 131.517 89.1285C131.484 89.2834 131.616 90.4698 131.414 89.6627C131.371 89.4919 131.241 88.0678 131.252 89.3121C131.254 89.5201 131.225 91.203 131.002 90.1442C130.943 89.8652 130.745 88.7072 130.704 88.8971C130.7 88.9321 130.801 89.5611 130.758 89.6285C130.599 89.8563 130.41 89.8079 130.247 90.027C130.206 90.0834 130.329 90.6666 130.287 90.7897C130.204 90.7517 130.12 90.697 130.042 90.6344C129.961 90.5686 129.921 90.0179 129.906 89.9596C129.671 89.0119 129.834 90.3163 129.82 90.3961C129.73 90.8751 129.504 90.287 129.379 90.4723C129.344 90.5219 129.474 91.1344 129.475 91.192C129.477 91.7446 129.36 90.6238 129.286 90.5104C129.077 90.1889 128.914 90.2672 128.771 90.3717C128.72 90.4124 128.901 91.1163 128.853 91.1442C128.573 91.317 128.246 91.3 127.887 90.9537C127.82 90.8872 127.763 90.3299 127.73 90.2057C127.505 89.3372 127.587 90.5594 127.579 90.6784C127.543 91.2211 127.415 90.7422 127.322 90.8502C126.871 91.3913 126.166 91.1783 125.636 91.0631C124.947 90.9158 124.349 90.4778 123.757 90.7203C123.719 90.7363 123.885 91.4608 123.854 91.484C123.448 91.7362 122.97 91.5245 122.568 91.8131C122.537 91.8399 122.708 92.5196 122.66 92.5797C122.56 92.7061 122.407 92.6943 122.247 92.4938C122.17 92.3971 122.143 91.788 122.067 91.7028C121.891 91.5035 121.737 91.4797 121.617 91.6159C121.566 91.677 121.781 92.3693 121.705 92.3912C121.191 92.5549 120.694 92.7694 119.998 91.9459C119.949 91.8869 119.657 90.4533 119.629 90.7438C119.695 91.1452 119.781 91.6162 119.855 92.0446C119.129 92.4136 118.285 92.0517 117.5 92.1178C117.469 92.1283 117.665 92.8728 117.602 92.8834C117.243 92.9387 116.927 93.2164 116.418 92.527C116.368 92.4582 116.131 91.114 116.06 91.3375C116.048 91.3783 115.919 91.5883 115.933 91.8873C115.936 91.9323 116.084 92.5518 116.037 92.5817C115.748 92.7352 115.407 92.6524 115.029 92.3287C114.968 92.2738 114.891 91.5981 114.846 91.5543C114.534 91.2479 114.361 91.8077 114.009 91.2496C113.773 90.873 113.6 89.7101 113.29 88.5934C113.246 88.4359 113.143 88.4296 113.007 87.7711C112.662 86.1156 112.348 84.2905 111.975 82.527C111.895 82.1472 111.843 82.5838 111.738 81.6481C111.731 81.5851 111.768 81.2607 111.731 80.944C111.705 80.7249 111.541 80.0605 111.521 79.777C111.502 79.494 111.653 80.048 111.648 79.7116C111.641 79.3717 111.464 78.6146 111.561 78.5006C111.797 78.2417 112.186 78.3926 112.516 78.6403C112.618 78.7173 112.656 79.1414 112.729 79.2135C112.872 79.3539 112.941 79.1288 113.089 79.3004C113.138 79.3599 113.219 80.0281 113.267 80.0748C113.533 80.3259 113.702 80.1197 113.942 80.2194C115.123 80.7122 116.202 80.7691 117.311 80.8785C117.681 80.9134 118.21 81.437 118.523 81.11C118.559 81.0699 118.432 80.499 118.43 80.4469C118.426 79.6925 118.594 80.8689 118.703 81.0114C119.136 81.5682 119.506 81.5577 119.781 81.278C119.897 81.1566 119.56 80.0285 119.807 80.652C119.825 80.696 119.9 81.3164 119.948 81.3756C120.056 81.5089 120.193 81.3713 120.266 81.4088C120.407 81.4842 120.428 81.4738 120.545 81.4606C120.706 81.4478 120.95 81.7208 121.097 81.5514C121.128 81.5134 120.971 80.8901 121.01 80.7721C121.049 80.6546 121.212 80.6811 121.29 80.8209C121.368 80.9609 121.433 81.461 121.462 81.5739C121.705 82.5222 121.653 81.1595 121.67 81.1227C121.991 80.4893 122.48 81.1852 122.875 81.1159C123.17 81.0618 123.451 80.7564 123.739 80.7428C124.087 80.7283 124.428 81.0232 124.75 80.9088C124.783 80.8975 124.618 80.1595 124.659 80.1442C125.094 79.9821 125.556 79.9887 126.09 80.4166C126.143 80.4626 126.193 81.122 126.253 81.2057C126.616 81.6974 127.264 82.9165 126.959 80.0436C127.163 80.124 127.411 80.2015 127.67 80.7477C127.837 81.0995 127.849 81.829 127.931 81.5035C127.95 81.4294 127.81 80.8157 127.845 80.7526C127.997 80.4935 128.236 80.6624 128.369 80.3102C128.396 80.237 128.294 79.6792 128.289 79.5768C128.247 78.7472 128.616 80.069 128.665 80.1627C128.72 80.2662 128.77 80.3472 128.816 80.4098C128.847 80.3938 128.955 80.4015 128.987 80.3873C129.223 80.7565 129.361 80.5323 129.555 80.527C129.608 80.5231 129.466 79.7759 129.513 79.7477C129.767 79.6112 130.043 79.6468 130.34 79.9528C130.406 80.0226 130.425 80.6707 130.461 80.7389C130.617 81.0236 130.506 79.8048 130.651 80.0543C130.682 80.1066 130.732 80.6584 130.743 80.7184C130.922 81.6596 130.827 80.3068 130.842 80.275C131.022 79.8428 131.334 81.2303 131.53 81.0055C131.553 80.9772 131.41 80.2871 131.48 80.2496C131.952 79.9977 132.489 80.1252 133.053 80.6178C133.139 80.6937 133.155 81.2225 133.168 81.2868C133.378 82.2836 133.251 80.9277 133.268 80.8737C133.414 80.4823 133.752 81.5886 133.666 79.9645C134.568 80.4098 135.254 79.391 136.291 80.7018C136.304 80.7168 136.385 81.379 136.411 81.4098C136.72 81.7433 136.515 80.7207 136.485 79.4362C136.478 79.1151 136.839 80.6095 136.869 80.7233C136.974 81.1268 137.085 82.1169 137.111 82.1969C137.324 82.8033 136.797 79.548 136.948 79.5231C136.954 79.5304 137.027 80.1289 137.05 80.1881C137.119 80.3689 137.12 80.1252 137.192 80.3248C137.357 80.7882 137.642 82.3654 137.633 81.4225C137.63 81.2959 137.31 79.4576 137.46 79.5231C137.52 79.5507 137.755 79.4809 137.842 79.5895C137.928 79.6979 137.979 80.2957 137.988 80.3248C138.298 81.0819 138.282 81.4196 138.564 82.569C138.846 83.7141 138.368 80.9513 138.354 80.6364C138.341 80.3224 138.582 80.9495 138.652 81.1696C138.722 81.3898 138.744 81.7743 138.795 81.8971C139.128 82.6989 138.652 80.5098 138.643 80.0602C138.62 78.9964 139.079 81.0255 139.252 81.2047C139.298 81.2527 139.19 80.7911 139.216 80.7418C139.319 80.5538 139.506 81.1788 139.556 80.567C139.565 80.4644 139.477 79.2161 139.709 80.1061C139.742 80.2352 139.797 80.7499 139.873 80.8551C139.986 81.0126 140.157 81.098 140.218 80.9118C140.262 80.7728 140.041 79.9471 140.17 80.193C140.227 80.3032 140.243 80.8066 140.344 80.9733C140.444 81.1393 140.618 81.087 140.683 81.0582C140.748 81.0292 140.601 80.4001 140.598 80.3541C140.589 80.1024 140.665 79.7721 140.677 79.7701C141.239 79.5919 141.962 80.5724 142.464 80.1168C142.503 80.0823 142.357 79.4264 142.359 79.403C142.46 79.0943 142.659 80.9034 142.872 81.483C142.614 80.1217 142.719 80.3564 142.8 80.1881C142.838 80.1057 142.716 79.5819 142.711 79.527C142.644 78.7115 142.883 79.7383 142.934 79.9479C143.124 80.7184 143.014 79.7877 143.141 80.3024C143.268 80.8135 143.326 81.5944 143.427 81.567C143.368 81.0734 143.065 79.8102 143.105 79.5895C143.259 78.7557 143.986 79.6579 144.24 79.7203C144.494 79.7822 144.555 79.6786 144.723 79.8307C145.028 80.1055 144.769 79.1746 144.846 78.7135C144.925 78.2523 145.264 80.5964 145.376 81.0934C145.486 81.5893 145.418 81.0706 145.494 81.3405C145.57 81.6109 145.572 81.9623 145.654 82.0543C145.736 82.1455 145.751 81.2247 145.68 80.6969C145.531 79.5786 145.246 78.4272 145.488 78.8063C145.502 78.8288 145.579 79.4472 145.628 79.5026C146.005 79.9222 146.317 79.8976 146.684 80.2633C146.735 80.3145 146.819 81.0015 146.85 81.0397C146.976 81.1925 147.008 81.1144 146.996 80.8854C146.97 80.5249 146.815 79.7972 146.728 79.0055C147.061 80.6989 147.356 81.7158 147.547 81.6852C147.66 81.6673 147.48 80.9346 147.437 80.4C147.425 80.2401 147.615 80.7266 147.553 80.3776C147.348 79.2364 146.994 77.9871 147.291 78.4489C147.304 78.471 147.417 79.0964 147.454 79.1276C147.693 79.3308 147.447 78.1446 147.609 77.9567C147.736 77.8096 148.176 78.4664 148.38 78.5416C148.822 80.4305 148.892 79.9571 148.646 78.6403C148.772 78.6661 148.879 78.563 149.032 78.7155C149.085 78.7675 149.194 79.3198 149.213 79.3776C149.513 80.2843 149.254 79.0074 149.266 78.9518C149.414 78.4054 149.873 79.3066 149.891 78.3073C149.891 78.2657 149.574 76.964 149.884 77.8981C149.905 77.9626 149.973 78.578 150.104 78.5934C150.235 78.6092 150.644 79.2496 150.653 78.6022C150.656 78.446 150.479 77.3615 150.778 78.1666C150.819 78.2767 150.906 78.6526 150.976 78.8561C151.203 79.5051 150.88 78.1813 151.238 79.2838C151.596 80.3861 151.948 81.1891 151.912 80.3717C151.91 80.3437 151.671 79.2955 151.728 79.2965C151.82 79.3008 152 79.485 152.088 79.4537C152.128 79.4346 151.926 78.8037 151.928 78.7858C152.112 78.3456 152.472 78.8659 152.849 79.0289C152.919 79.0598 152.828 78.1355 153.135 78.7994C153.472 79.526 154.256 82.7244 154.32 81.8912C154.349 81.5564 153.32 77.5064 154.125 79.525C154.358 78.898 155.032 79.8517 155.196 79.0016C155.204 78.9638 154.918 77.833 154.963 77.8356C155.03 77.8419 155.222 78.351 155.276 78.3737C155.503 78.4755 155.532 77.9782 155.725 77.9938C155.799 77.9985 155.944 78.5431 156.032 78.5485C156.12 78.5529 155.951 77.8301 156.164 78.1383C156.326 78.3747 156.864 79.7919 157.026 79.9264C156.577 78.5004 156.66 78.5058 156.669 78.0885C156.67 78.0067 156.485 77.5204 156.477 77.4567C156.443 77.1868 156.62 77.5821 156.576 77.2907C156.566 77.2204 156.409 76.7348 156.391 76.6491ZM130.287 90.7897C130.36 90.8234 130.432 90.844 130.5 90.8395L130.137 90.8873C130.188 90.8757 130.236 90.8509 130.279 90.8073C130.283 90.8034 130.284 90.797 130.287 90.7897ZM113.62 88.192C113.612 88.1614 113.535 88.1454 113.539 88.1764C113.648 88.9295 113.803 88.9612 113.62 88.192ZM139.449 82.3561C139.441 82.3213 139.385 82.299 139.419 82.4967C139.53 83.1363 139.572 82.9436 139.449 82.3561ZM155.419 81.0914C155 80.1155 155.366 81.6253 155.682 82.3815C155.999 83.1361 155.547 81.3877 155.419 81.0914ZM136.198 81.3776C136.183 81.3118 136.01 81.2746 136.013 81.3366C136.111 82.5781 136.467 82.6568 136.198 81.3776ZM156.387 79.9879C156.007 79.2352 156.994 82.4812 156.935 81.7809C156.931 81.7363 156.41 80.0315 156.387 79.9879ZM143.916 81.2184C144.011 81.9731 144.165 82.0075 143.996 81.235C143.988 81.2044 143.913 81.1878 143.916 81.2184ZM157.307 78.8151C157.125 78.3917 157.167 78.9342 157.394 79.4606C157.578 79.8839 157.535 79.3415 157.307 78.8151ZM148.394 78.5905C148.294 77.8294 148.362 77.7209 148.645 78.6393C148.559 78.6077 148.481 78.6183 148.394 78.5905ZM158.278 75.6959C158.353 75.7309 158.445 76.5837 158.598 76.7985C158.88 77.1891 158.397 75.4947 158.838 76.3405C158.919 76.4963 159.292 78.1171 159.273 78.1237C159.273 78.1224 159.272 78.121 159.272 78.1198C158.938 78.0991 157.868 75.5041 158.278 75.6959Z" fill="#FA8282"/>
<path d="M97.9492 0.148442C99.5981 -0.414877 99.5315 2.07642 99.5966 2.22364C100.347 3.78943 102.302 2.34968 102.786 2.29786C104.979 2.05294 106.728 2.66198 108.558 2.56543C109.754 2.50702 110.129 0.923253 111.043 1.12598C111.746 1.2831 112.324 1.53785 112.834 1.81836C114.558 2.76859 115.42 3.9003 118.176 3.10352C118.942 2.90897 118.867 0.960558 120.818 3.14356C120.962 3.28233 122.141 5.13492 123.352 4.8086C123.508 4.76709 123.72 4.29511 123.889 4.32422C124.359 4.41007 124.709 4.5778 125.049 4.77051C125.516 5.03665 125.953 5.34647 126.614 5.53907C127.749 5.86901 129.133 6.22632 130.236 6.98047C130.902 7.43417 131.371 8.75758 131.6 9.14161C132.239 10.236 133.775 9.78218 133.978 10.8223C134.18 11.8667 132.444 12.3668 133.728 13.6572C134.42 12.5018 135.203 11.3557 135.936 10.2139C137.348 10.9947 138.718 11.8455 140.082 12.7305C141.998 13.9734 143.933 15.3049 145.918 16.6523C146.339 16.9377 146.329 16.0458 146.794 16.3408C148.762 17.605 149.999 19.2581 151.887 20.5713C152.018 20.6621 152.154 20.7508 152.295 20.8389C153.695 21.7103 155.441 22.369 156.81 23.3486C156.629 25.2419 158.988 26.6627 160.337 28.1104C160.81 28.6159 160.495 28.8856 160.762 29.3184C161.769 30.9446 162.071 29.3645 162.588 29.5576C164.806 30.4095 162.811 32.754 164.686 34.502C164.713 34.5282 164.916 34.5482 165.196 34.5654C165.925 34.6112 167.199 34.6603 167.368 34.7295C168.883 35.3346 167.131 35.3036 167.686 36.0557C168.697 37.4376 169.206 38.5584 170.884 39.749C171.372 40.0907 173.076 40.5138 173.182 41.9004C173.196 42.0818 172.723 42.36 172.773 42.4727C173.71 44.4822 175.072 43.4794 176.288 44.1133C176.673 44.3162 176.954 44.6773 177.158 45.0957C177.595 45.9912 177.665 47.1412 177.632 47.4893C177.513 48.8172 176.876 47.0874 176.772 47.0957C175.571 47.1918 176.526 48.1858 177.065 49.0869C175.798 50.1838 176.715 51.3041 177.627 50.0176C177.725 49.8739 177.126 49.3005 177.065 49.0869C178.93 48.8711 180.06 50.1033 179.787 52.4414C179.652 53.5346 178.533 53.3389 180.16 55.2734C180.893 56.1582 181.625 55.1668 182.435 55.8613C184.074 57.2759 184.756 59.9314 185.774 61.9209C185.906 62.177 186.045 62.4249 186.192 62.6563C186.662 63.3947 186.811 62.3467 187.151 62.8438C188.056 64.1694 188.275 65.6335 189.194 66.9639C189.278 67.0843 189.716 66.4756 189.942 66.9219C191.663 70.314 192.585 73.5302 193.943 77.249C194.422 78.5555 195.316 80.5666 195.936 82.3232C196.17 82.9808 196.369 83.6012 196.501 84.127C197.36 87.4745 197.392 91.775 198.171 94.5781C198.678 96.4143 199.243 95.8879 199.832 96.6172C200.978 98.0393 199.843 101.075 199.644 101.469C199.637 101.463 199.256 99.8807 199.045 100.79C198.417 101.388 199.639 101.45 199.644 101.469C199.535 101.736 199.768 105.011 199.939 105.653C200.041 106.001 200.645 105.747 200.686 105.931C200.707 106.031 200.729 106.131 200.75 106.23C201.649 110.508 201.886 114.944 201.359 119.366C201.341 119.445 200.651 119.288 200.62 119.473C200.158 122.054 200.842 123.784 201.074 126.014C201.092 126.192 201.106 126.367 201.115 126.537C201.222 128.504 200.709 130.083 199.387 131.053C199.214 132.736 198.086 134.978 197.364 136.189C196.65 137.4 197.864 138.012 197.852 138.14C197.583 140.552 196.828 142.136 195.916 143.777C195.347 144.795 194.708 145.838 194.035 147.121C193.207 148.716 191.767 151.936 190.973 153.69C190.352 155.081 189.627 155.724 189.113 157.037C189.043 157.215 189.663 157.349 189.655 157.411C189.502 159.132 188.595 157.739 188.205 157.885C186.785 158.411 185.993 158.76 185.341 160.697C185.269 160.907 185.472 161.512 185.671 162.18C185.895 162.946 186.108 163.8 185.913 164.226C185.428 165.263 185.026 164.487 184.516 165.583C184.47 165.676 184.876 165.923 184.433 166.53C182.601 169.081 180.06 171.796 177.787 174.077C177.546 174.323 177.303 174.571 177.064 174.817C176.723 175.165 177.695 175.252 177.207 175.765C174.913 178.172 172.089 180.604 169.267 182.301C168.571 182.716 168.659 181.994 168.427 181.974C167.024 181.856 166.598 183.824 166.398 183.993C166.34 184.044 166.281 184.095 166.222 184.146C161.707 187.923 157.393 188.983 152.46 192.108C152.41 192.14 152.318 192.244 152.193 192.388C151.649 193.039 150.128 194.63 148.727 194.062C148.604 194.022 146.999 193.27 146.229 194.426C146.182 194.498 147.127 194.902 145.8 195.235C144.476 195.564 142.601 196.46 140.877 196.077C140.572 196.012 140.004 195.674 139.345 195.6C138.815 195.538 138.221 195.651 137.651 196.229C137.573 196.324 135.734 199.018 134.636 197.595C134.459 197.359 134.296 195.678 132.707 196.834C132.402 197.057 133.072 197.324 132.232 197.707C130.941 198.296 129.077 198.143 127.522 199.138C127.251 199.314 126.171 200.633 125.047 199.912C124.871 199.799 125.089 199.2 124.554 199.211C122.01 199.258 119.414 199.953 116.794 199.819C115.867 199.771 116.246 198.821 115.277 198.665C115.26 198.662 115.243 198.659 115.226 198.656C114.24 198.507 112.372 198.432 111.426 198.902C110.461 199.382 111.642 200.764 110.147 200.971C103.629 201.852 97.1276 201.014 90.6464 200.551C90.0719 200.509 90.1134 200.69 89.9414 200.83C89.8228 200.925 89.6059 201.001 89.0273 200.97C83.8321 200.77 74.5237 200.039 70.1953 197.919C70.1729 197.908 70.15 197.898 70.1279 197.888C66.7108 196.231 71.3796 196.576 68.7255 195.614C67.4594 195.15 65.6302 196.429 65.2919 196.396C62.0232 196.103 60.0659 194.734 57.2148 194.001C56.6238 193.846 56.9646 194.69 56.4599 194.548C55.3732 194.245 54.307 193.746 53.2675 193.262C52.6583 192.978 52.058 192.699 51.4628 192.467C50.7413 192.186 50.6625 192.721 50.0224 192.393C48.4932 191.608 47.2185 190.742 45.9843 189.546C45.8755 189.438 47.0625 189.327 45.9765 188.73C44.3585 187.84 42.6342 186.379 40.6953 185.569C40.5235 185.498 40.3493 185.432 40.1728 185.371C39.5296 185.149 38.869 186.15 38.0898 184.678C37.9263 184.366 39.0291 183.38 36.9472 183.498C36.6069 183.529 33.2788 183.299 32.7626 181.583C32.6248 181.134 32.5617 179.635 31.8085 179.297C31.7028 179.254 31.6689 180.034 31.0927 179.676C30.3429 179.203 29.6099 178.681 28.8847 178.137C27.6575 177.216 26.4505 176.232 25.205 175.308C24.6752 174.914 24.9729 176.063 24.1943 175.455C22.0492 173.783 19.6975 171.265 18.0126 169.097C17.3928 168.297 18.2702 168.446 18.2646 168.351C18.2487 167.957 18.1426 167.69 17.9882 167.505C17.548 166.976 16.6934 167.105 16.4619 166.919C14.5342 165.335 13.8912 163.457 12.4863 161.709C12.1008 161.222 11.8308 161.937 11.7148 161.867C10.5394 161.098 12.0085 161.271 11.665 160.527C10.9843 159.033 10.1239 157.527 9.28218 156.08C8.9627 155.532 8.63917 154.991 8.32417 154.462C7.91527 153.774 7.70695 154.912 7.34663 154.287C5.77718 151.517 4.27202 148.711 3.16694 144.806C2.81642 143.479 2.59156 142.223 2.44038 141.013C2.33967 140.16 2.99774 140.574 3.08687 140.375C3.71649 139.023 2.24996 137.552 2.07808 137.165C1.29707 135.461 1.71182 134.714 1.46187 133.183C0.925709 129.856 0.696581 126.217 0.659132 122.62C0.526584 117.905 1.32058 112.805 2.06441 109.133C2.43377 107.255 2.82605 105.518 3.22456 103.831C4.71493 97.5922 6.20406 92.2206 7.55073 85.8086C7.66038 85.293 6.81729 85.6446 6.9023 85.1982C7.94021 79.9618 9.36347 74.919 10.6425 69.6416C10.7785 69.0858 10.9113 68.5365 11.0429 67.9863C11.1638 67.4915 10.2874 68.0053 10.458 67.2109C10.8076 65.5715 11.4651 63.4958 12.3466 61.7549C12.775 60.9171 12.9015 62.3025 13.3251 61.4551C14.2867 59.5123 15.6135 57.0231 16.8515 55.0957C17.3602 54.284 15.9385 55.0473 16.6494 54.0303C16.9553 53.5968 17.2505 53.1925 17.5351 52.8057C21.4764 47.457 25.7859 42.4685 31.0703 38.3145C31.3454 38.0988 31.6266 37.8819 31.9062 37.6719C32.321 37.3604 33.6559 38.1081 34.2431 37.167C34.0231 36.8156 33.6919 36.4706 33.4199 36.1299C38.4463 31.2053 43.7961 26.9132 49.4023 22.7832C52.3421 20.6287 55.4094 18.5022 58.6572 16.4981C59.0554 16.2526 57.9543 16.0227 58.7294 15.543C59.8561 14.8489 60.9821 14.1734 62.0947 13.5352C65.2051 11.7619 68.7453 9.70917 73.2929 8.7334C73.7651 8.63582 73.9537 9.4736 74.7871 9.48731C75.0034 9.49513 75.2656 9.44386 75.5976 9.30274C75.867 9.16901 78.228 8.38347 78.7822 7.9795C78.8565 7.91737 78.2839 7.38632 79.0595 7.20508C83.5898 6.17923 88.2218 5.91822 92.5429 6.11622C93.2427 6.15072 92.5311 6.86042 93.0263 6.89161C96.5127 7.10963 100.269 6.59786 103.526 7.2959C105.702 7.76979 104.852 8.9227 105.964 10.1162C106.116 10.2838 107.454 10.3636 107.49 11.0391C107.591 12.7356 106.88 14.5586 107.064 16.3701C107.099 16.7587 108.863 16.4206 107.787 17.3106C107.711 17.3692 106.444 17.6273 106.123 17.9346C105.901 18.1465 106.259 18.8442 105.814 19.1094C105.371 19.3747 104.908 18.7841 104.179 19.0938C103.447 19.409 103.746 20.1924 102.315 20.2539C99.003 20.3893 94.7144 20.2099 91.5117 20.1035C90.5024 20.0708 90.9879 19.6158 90.2871 19.5791C88.9229 19.5118 87.698 19.8344 86.3779 19.7949C85.9408 19.7806 86.3959 19.0481 85.9335 19.0498C83.397 19.072 81.1182 19.6542 78.8134 20.1553C78.5814 20.2061 78.3481 20.2598 78.123 20.3145C75.0589 21.0371 71.8141 22.6511 68.3085 24.4902C64.1685 26.6179 60.3392 29.1206 56.4521 31.9629C52.9484 34.5235 49.484 37.2523 46.0859 40.0889C43.8407 41.9648 41.1784 44.0025 38.8017 46.1807C37.5574 47.3204 36.3859 48.5052 35.3808 49.71C35.0407 50.12 35.6875 50.2905 35.6542 50.3975C35.1282 52.058 34.6099 50.8677 33.7958 51.5283C31.0586 53.7649 28.5062 56.6655 26.496 59.5391C26.1371 60.051 25.8088 60.5441 25.5244 61.0127C24.7694 62.3141 26.5493 61.7236 25.2412 62.5723C25.1519 62.635 24.8004 62.0023 24.5419 62.3066C23.9443 62.983 23.3352 64.6238 23.0312 65.3301C22.4309 66.6741 22.365 66.9237 21.9248 68.3174C21.5455 69.5301 21.0299 70.8922 20.5957 72.2998C20.3508 73.0914 20.1293 73.9095 19.9794 74.7022C19.8921 75.1732 20.6691 74.724 20.5898 75.4775C20.5075 76.2374 19.9712 78.1651 19.664 78.7881C19.3567 79.4076 18.936 79.0097 18.7949 79.0977C17.611 79.8267 18.3833 82.4088 18.3486 82.7051C17.6477 88.1449 15.8699 92.545 14.7978 97.5566C14.2262 100.243 13.7658 103.09 13.3056 105.787C13.1136 106.913 12.9222 108.013 12.7236 109.066C11.9266 113.354 11.042 116.824 11.1005 120.855C11.106 121.286 11.8593 120.783 11.8691 121.306C11.8767 121.672 11.8874 122.041 11.8984 122.417C12.0674 127.78 12.2651 133.095 12.7705 138.186C12.8283 138.733 12.0378 138.17 12.0595 138.729C12.1042 139.691 12.1531 140.811 12.332 141.927C12.7876 144.729 14.3336 147.846 16.8417 148.164C17.2651 149.067 17.749 150.05 18.2138 151.046C18.8279 152.371 19.4218 153.691 19.7959 154.88C20.2239 156.207 18.8933 155.522 20.0869 156.729C20.3573 156.997 20.5984 156.239 20.9628 156.663C22.2698 158.182 23.5051 159.945 24.9687 161.357C25.2204 161.601 25.4798 161.835 25.7451 162.054C26.1133 162.355 26.4429 161.875 26.6074 161.903C27.9509 162.149 28.2821 164.413 28.5185 164.776C30.252 167.489 32.2139 168.81 34.4873 170.678C34.6509 170.811 34.7498 170.799 34.8232 170.729C34.8451 170.709 34.8643 170.683 34.8828 170.654C34.964 170.529 35.0233 170.352 35.1494 170.321C35.2105 170.307 35.288 170.326 35.3906 170.402C38.105 172.433 40.9102 174.497 43.5517 176.573C44.1385 177.036 43.2139 177.218 43.4775 177.468C44.1047 178.052 44.6713 178.079 45.2324 178.129C45.7242 178.172 46.212 178.233 46.7519 178.695C46.9968 178.903 46.563 179.291 46.582 179.373C46.8864 180.661 48.2505 179.874 48.4628 179.958C51.2025 181.01 52.2377 183.103 54.9433 184.06C55.2642 184.168 54.8411 183.227 55.7226 183.569C56.1273 183.725 56.5341 183.879 56.9443 184.032C61.8059 185.843 67.0294 187.461 72.1025 188.939C72.8041 189.144 73.5028 189.345 74.1972 189.543C75.1509 189.812 74.3642 190.198 74.4101 190.274C75.2307 191.462 76.1264 190.234 76.4492 190.237C79.0074 190.299 81.2421 191.732 83.1435 190.309C85.5707 190.703 88.0252 190.949 90.4902 191.108C98.5274 191.624 106.52 191.246 114.587 191.521C114.877 191.53 115.168 191.541 115.459 191.553C115.597 191.558 115.416 192.246 115.691 192.251C119.024 192.292 118.288 191.313 120.29 189.791C120.79 189.409 122.644 190.716 122.809 190.807C123.402 191.145 122.98 192.209 123.171 192.264C124.754 192.681 124.048 189.455 126.034 189.157C126.096 189.156 125.926 189.793 126.102 189.827C126.65 189.936 127.129 189.618 127.671 189.744C128.908 190.037 129.593 191.551 131.22 190.327C131.427 190.168 130.763 188.388 132.551 188.16C133.262 188.076 136.375 187.457 137.266 187.396C137.485 187.383 137.619 187.415 137.7 187.471C137.853 187.572 137.825 187.755 137.785 187.892C137.759 187.987 137.727 188.06 137.748 188.064C137.773 188.068 137.798 188.071 137.822 188.074C140.242 188.372 139.441 188.88 140.869 189.763C142.322 190.636 141.355 187.978 141.743 187.562C142.138 187.154 143.935 187.333 144.412 187.403C144.885 187.487 144.503 188.018 144.906 188.02C147.607 187.934 145.449 186.334 146.025 185.63C146.662 184.802 147.497 184.666 148.425 184.658C149.38 184.654 150.414 184.795 151.28 184.462C151.742 184.283 151.167 184.049 151.532 183.808C152.972 182.855 154.205 182.921 155.609 181.427C155.845 181.181 156.558 179.313 157.897 179.562C158.09 179.598 158.011 180.257 158.697 179.969C159.609 179.587 161.078 178.766 161.996 178.008C162.11 177.914 162.216 177.822 162.311 177.732C162.946 177.129 161.646 177.004 162.681 176.593C163.141 176.406 162.706 177.338 163.551 176.948C164.398 176.567 166.226 175.116 166.891 174.53C167.559 173.95 166.769 173.764 166.797 173.685C166.97 173.221 168.022 171.889 168.128 171.788C169.401 170.623 170.651 169.476 171.88 168.322C175.033 165.429 177.755 162.338 180.069 158.682C180.754 157.608 181.404 156.492 182.006 155.342C182.276 154.827 181.491 154.815 181.526 154.733C182.271 152.882 183.06 155.142 184.282 154.235C182.979 153.722 183.607 153.137 184.155 151.839C184.417 151.213 183.769 151.275 183.751 151.194C183.518 149.931 184.769 149.827 185.045 149.77C186.057 149.561 185.569 148.484 186.246 148.332C186.921 148.175 187.129 149.462 187.745 148.257C187.477 147.695 185.87 147.981 186.149 146.982C186.646 145.195 187.809 142.928 188.948 140.708C190.218 138.257 191.406 135.828 191.913 134.318C192.865 131.451 192.933 130.463 193.443 128.76C194.152 126.207 193.478 126.421 193.144 125.471C193.069 125.264 193.008 124.999 192.974 124.64C192.769 122.626 195.005 123.837 195.545 123.607C196.082 123.375 195.593 123.008 195.906 122.678C196.219 122.347 196.49 123.155 196.674 122.322C196.866 121.48 196.115 119.106 195.591 118.79C194.492 118.112 193.277 119.07 193.77 116.926C193.799 116.801 194.409 117.226 194.485 116.748C194.988 113.484 194.964 110.071 194.957 106.729C194.956 106.174 194.956 105.618 194.959 105.066C194.962 104.532 195.7 104.932 195.71 104.618C195.777 101.347 194.744 102.629 193.223 101.083C194.983 101.228 195.912 100.104 195.501 97.6553C195.247 96.1885 194.549 96.575 193.849 95.7402C193.639 95.4913 193.939 94.3688 193.553 94.2549C192.288 93.8862 191.235 95.0999 191.201 92.5693C191.201 92.4574 191.896 92.6557 191.85 92.2783C191.535 89.8358 190.29 89.8402 189.458 87.3613C189.204 86.6166 188.998 85.6158 188.793 84.5371C188.466 82.8017 188.126 80.8581 187.694 79.4727C189.54 78.8562 188.323 76.8804 186.74 76.5498C186.222 75.1114 185.503 73.6278 185.059 72.2061C184.905 71.7183 185.552 71.787 185.583 71.7041C186.034 70.4028 184.565 70.3453 184.377 70.0732C183.08 68.1176 182.405 66.1694 181.386 64.3447C180.833 63.3568 180.181 62.412 179.277 61.5508C179.184 61.4632 177.93 61.9859 178.304 60.7012C178.33 60.6143 179.443 61.2648 178.646 59.8633C177.857 58.4678 176.806 55.4991 175.01 54.0059C174.577 53.6401 172.904 53.1544 172.956 51.7676C172.964 51.5808 173.372 51.4844 173.422 51.1865C173.572 50.2257 172.253 50.7288 172.703 49.3916C172.816 49.0564 172.879 48.6856 172.88 48.2998C172.879 47.1436 172.303 45.8205 170.756 44.8457C170.69 44.8027 169.512 45.0556 169.072 44.4951C168.371 43.5953 167.482 42.2169 166.674 41.334C166.287 40.9115 166.036 41.6337 165.96 41.5684C164.458 40.2089 163.328 38.9376 162.182 37.5742C161.157 36.3572 160.123 35.0727 158.794 33.6436C158.279 33.0854 156.076 32.2748 155.486 30.7588C154.83 29.0938 158.282 27.764 154.972 25.8525C153.774 25.1637 150.343 26.5967 149.165 24.5449C149.017 24.2913 148.907 23.9889 148.832 23.6201C145.152 21.1057 142.098 18.0869 138.129 16.1406C137.464 15.8097 136.777 15.5066 136.063 15.2383C135.839 15.1529 134.632 15.8188 134.158 15.5439C133.455 15.1335 133.317 14.4424 132.819 14.1367C130.737 12.8441 128.534 12.2359 126.461 11.1221C125.672 10.7013 126.202 10.3343 125.257 9.83594C124.524 9.45166 123.777 9.57867 122.948 9.22364C122.703 9.11849 122.454 8.97454 122.194 8.76563C121.323 8.0666 120.93 6.2182 119.526 5.51368C118.956 6.90375 118.015 6.49233 116.197 6.43164C115.849 6.42218 116.074 7.01613 115.903 7.03809C115.219 7.14236 114.733 6.59274 114.068 6.75293C113.91 6.79221 113.801 7.29102 113.665 7.35157C113.085 7.61944 112.431 7.39076 111.883 7.06739C111.343 6.74766 110.907 6.33384 110.779 6.21094C109.784 5.27004 109.152 5.84124 108.339 5.40918C107.522 4.97797 108.872 4.81093 107.891 4.47364C105.855 3.77551 103.142 3.47767 101.009 3.19043C100.156 3.07892 100.655 3.82742 100.531 3.82715C98.7574 3.78248 97.0413 2.87324 95.9375 4.13477C95.3034 1.57882 95.0047 2.76325 94.0361 3.35645C93.6311 3.60134 93.1207 3.74744 92.3984 3.50293C92.2064 3.43401 92.0274 1.76265 92.8222 1.5625C93.2066 1.46805 93.6635 1.5561 94.165 1.64454C94.7045 1.74023 95.286 1.83534 95.8642 1.68946C96.1217 1.62116 97.7366 0.219781 97.9492 0.148442ZM113.025 192.421C112.967 192.361 110.797 192.455 110.73 192.518C109.672 193.839 114.097 193.654 113.025 192.421ZM151.863 185.475C151.829 185.453 151.209 185.738 151.313 185.91C151.65 186.468 152.417 185.863 151.863 185.475ZM193.93 141.397C192.853 142.26 194.972 143.388 194.974 141.925C194.967 141.851 193.984 141.352 193.93 141.397ZM191.015 140.909C190.99 140.917 190.835 141.23 190.717 141.487C190.642 141.649 190.583 141.787 190.59 141.802C190.806 142.15 191.094 141.998 191.264 141.729C191.476 141.39 191.503 140.878 191.015 140.909ZM186.741 76.5547C187.069 77.5073 187.426 78.4549 187.73 79.4199C186.665 78.7331 186.153 77.6617 186.741 76.5547ZM143.542 15.7266C143.003 14.4132 141.262 15.4768 141.513 16.0029C142.299 17.7222 144.054 17.0341 143.542 15.7266ZM101.639 10.3652C102.163 9.61191 100.237 9.52576 100.64 10.3213C100.663 10.3526 101.614 10.3956 101.639 10.3652ZM127.932 7.41309C127.812 7.39695 126.885 8.93328 126.958 9.02344C128.202 10.5716 129.987 7.67251 127.932 7.41309ZM112.455 3.90528C111.814 3.80256 111.053 4.06822 111.482 4.56055C111.65 4.75381 111.971 4.85049 112.282 4.86426C112.864 4.89076 113.445 4.6434 113.065 4.19532C112.929 4.03971 112.708 3.94581 112.455 3.90528ZM84.5468 2.35059C88.6437 2.15271 90.9164 5.04017 86.7607 4.81348C85.9952 4.78988 88.363 3.85247 87.3837 3.63868C85.5396 3.25168 84.5211 5.12352 82.5849 4.37891C82.2308 4.2415 84.3063 2.35152 84.5537 2.34571C84.5514 2.34719 84.549 2.3491 84.5468 2.35059Z" fill="#FA8282"/>
<path d="M74.1468 167.203C73.7476 166.409 76.2801 165.075 76.1448 165.504C76.1346 165.598 75.297 165.827 75.1282 166.039C74.9851 166.251 75.3182 166.164 75.5657 166.052C75.82 165.948 75.9806 165.823 75.7141 166.225C75.6358 166.399 74.1976 167.29 74.1429 167.204C74.144 167.204 74.1456 167.203 74.1468 167.203ZM48.7054 82.4013C49.0532 82.3479 49.7282 81.9573 49.9075 82.1102C50.3179 82.466 50.4156 83.1642 50.3665 83.7577C50.3513 83.9425 49.9359 84.0569 49.9085 84.1932C49.8573 84.4632 50.1285 84.5465 50.0472 84.828C50.0168 84.922 49.3753 85.136 49.3587 85.2274C49.2675 85.7174 49.5887 85.9898 49.638 86.4227C49.8749 88.5494 50.4665 90.4496 51.0052 92.4188C51.1787 93.0574 50.9508 94.056 51.4632 94.5663C51.5246 94.6266 52.0463 94.3481 52.097 94.3427C52.8739 94.2669 51.7512 94.6671 51.6682 94.8749C51.3383 95.6835 51.5592 96.3326 52.0032 96.7929C52.1944 96.9896 53.1709 96.2972 52.6653 96.785C52.6313 96.8184 52.0302 97.0069 51.9954 97.0956C51.9179 97.2957 52.1366 97.5246 52.139 97.6571C52.1402 97.9127 52.163 97.95 52.2405 98.1513C52.342 98.4298 52.1986 98.889 52.4544 99.1317C52.5104 99.1819 53.0674 98.8503 53.2102 98.9081C53.3526 98.9661 53.4147 99.2551 53.3138 99.4052C53.2124 99.5551 52.731 99.7115 52.6311 99.7723C51.7881 100.282 53.1636 100.076 53.2122 100.099C54.0419 100.607 53.5899 101.526 53.8802 102.222C54.0926 102.726 54.5673 103.211 54.7327 103.706C54.9337 104.311 54.8184 104.947 55.1067 105.496C55.1367 105.555 55.8035 105.2 55.844 105.269C56.1585 105.863 56.3589 106.443 56.3811 107.151C56.388 107.162 56.3979 107.2 56.4046 107.211C56.4038 107.42 56.3848 107.639 56.344 107.869C56.3255 107.967 55.6684 108.103 55.6136 108.215C55.2953 108.904 54.362 110.12 57.1682 109.383C57.1927 109.761 57.2296 110.184 56.8001 110.689C56.523 111.013 55.7785 111.086 56.1556 111.21C56.2405 111.238 56.8043 110.944 56.886 111.004C57.2305 111.258 57.1718 111.68 57.6028 111.894C57.692 111.937 58.2142 111.716 58.3167 111.699C59.1488 111.564 57.9756 112.32 57.9036 112.41C57.3767 113.105 57.7707 113.322 57.9104 113.74C57.9428 113.837 58.6106 113.454 58.6673 113.538C58.9472 113.968 59.0708 114.478 58.9329 115.066C58.9 115.196 58.2581 115.333 58.2112 115.406C58.0126 115.726 59.174 115.341 59.0052 115.641C58.9698 115.705 58.4428 115.877 58.389 115.906C57.543 116.369 58.8495 115.998 58.8909 116.019C59.4276 116.282 58.2043 117.048 58.5384 117.366C58.5798 117.404 59.1973 117.05 59.2737 117.172C59.7889 117.987 59.9587 118.983 59.763 120.056C59.7331 120.221 59.2045 120.31 59.1458 120.342C58.2476 120.838 59.5546 120.448 59.6194 120.474C60.0959 120.693 59.1512 121.422 60.7581 121.09C60.7863 122.761 62.1927 123.916 61.3821 125.891C61.3732 125.915 60.7328 126.117 60.7181 126.165C60.534 126.746 61.4766 126.292 62.7806 126.141C63.1081 126.104 61.7526 126.871 61.6546 126.931C61.2927 127.149 60.3311 127.424 60.2649 127.476C59.7502 127.9 62.8212 126.712 62.928 126.983C62.9261 126.994 62.3441 127.172 62.2962 127.216C62.1465 127.353 62.3979 127.339 62.2288 127.482C61.836 127.812 60.3569 128.431 61.3216 128.348C61.4492 128.335 63.1801 127.633 63.1888 127.908C63.191 128.019 63.382 128.438 63.3138 128.601C63.245 128.764 62.6504 128.893 62.6292 128.911C62.0044 129.515 61.6481 129.508 60.6038 130.084C59.5641 130.658 62.1735 129.631 62.4915 129.588C62.8083 129.545 62.2814 130.014 62.0891 130.152C61.8969 130.291 61.5117 130.352 61.4095 130.449C60.7464 131.09 62.7693 130.113 63.2288 130.071C64.3158 129.97 62.4473 130.906 62.347 131.224C62.3202 131.309 62.7443 131.09 62.8079 131.134C63.0528 131.309 62.4991 131.677 63.1556 131.735C63.2652 131.744 64.5129 131.523 63.7063 131.983C63.5891 132.049 63.0835 132.174 63.012 132.314C62.9045 132.524 62.8984 132.832 63.1204 132.933C63.2847 133.006 64.0339 132.571 63.8411 132.813C63.7547 132.921 63.2414 132.973 63.1184 133.161C62.9954 133.348 63.1336 133.657 63.1946 133.771C63.2563 133.885 63.8382 133.593 63.8831 133.587C64.1385 133.558 64.5159 133.679 64.5247 133.7C64.9827 134.702 64.3131 136.031 65.0237 136.905C65.0781 136.973 65.6892 136.688 65.7141 136.691C66.0821 136.859 64.3021 137.282 63.802 137.682C65.0909 137.171 64.8973 137.369 65.1106 137.507C65.2151 137.572 65.6987 137.335 65.7532 137.324C66.5676 137.176 65.6159 137.638 65.4231 137.737C64.7145 138.103 65.6275 137.875 65.1546 138.12C64.6846 138.364 63.9019 138.496 63.9788 138.674C64.4629 138.551 65.6281 137.965 65.8763 138.029C66.8128 138.268 66.2238 139.603 66.2786 140.054C66.3341 140.506 66.4716 140.613 66.3938 140.919C66.2536 141.471 67.0949 140.975 67.6087 141.094C68.1226 141.213 65.8544 141.905 65.3919 142.121C64.93 142.336 65.4358 142.196 65.1917 142.341C64.9474 142.486 64.5839 142.502 64.5276 142.652C64.4724 142.802 65.435 142.797 65.9485 142.652C67.0366 142.345 68.0945 141.794 67.8157 142.237C67.799 142.263 67.195 142.424 67.1604 142.512C66.9036 143.196 67.0779 143.753 66.8733 144.421C66.8442 144.513 66.1728 144.69 66.1477 144.746C65.8928 145.332 66.9294 144.77 68.2337 144.558C66.5953 145.103 65.6547 145.605 65.7679 145.939C65.8358 146.14 66.5301 145.844 67.0755 145.788C67.2391 145.771 66.8062 146.09 67.1477 145.992C68.2652 145.673 69.4331 145.092 69.0735 145.608C69.0515 145.633 68.4441 145.805 68.427 145.869C68.3139 146.287 69.4658 145.912 69.7376 146.221C69.951 146.465 69.4404 147.214 69.4495 147.585C67.6273 148.251 68.1564 148.402 69.4563 148.06C69.4823 148.289 69.634 148.481 69.5364 148.75C69.5025 148.842 68.9592 148.99 68.9056 149.02C68.0628 149.487 69.3175 149.127 69.3821 149.154C70.0291 149.474 69.2465 150.201 70.3255 150.343C70.3642 150.347 71.6387 149.908 70.762 150.373C70.7051 150.402 70.1462 150.456 70.1058 150.656V150.747C70.0802 151.012 69.6581 151.599 70.3147 151.686C70.4838 151.708 71.5777 151.517 70.8304 151.96C70.7283 152.02 70.3585 152.132 70.1673 152.234C69.558 152.563 70.8544 152.142 69.8079 152.649C68.7621 153.159 68.0359 153.693 68.8977 153.723C68.9333 153.721 69.9627 153.424 69.9817 153.525C69.9994 153.622 69.9595 153.765 69.9378 153.896C69.9247 153.99 69.9196 154.078 69.9466 154.143C69.9793 154.22 70.5902 153.939 70.6067 153.948C71.1514 154.341 70.7233 154.909 70.6849 155.557C70.6762 155.675 71.6388 155.643 71.0354 156.098C70.372 156.588 67.2029 157.503 68.1194 157.725C68.4852 157.804 72.503 156.64 70.6018 157.738C71.3618 158.253 70.5601 159.282 71.5354 159.718C71.5855 159.736 72.7094 159.437 72.722 159.516C72.7377 159.633 72.2472 159.88 72.2415 159.969C72.2132 160.367 72.7526 160.485 72.8069 160.841C72.8266 160.97 72.2825 161.124 72.305 161.276C72.3267 161.423 73.0607 161.272 72.7962 161.59C72.593 161.831 71.2242 162.497 71.1331 162.76C72.5389 162.25 72.5584 162.39 73.0169 162.491C73.107 162.511 73.5729 162.281 73.6419 162.28C73.9268 162.277 73.5535 162.508 73.8577 162.488C73.9317 162.483 74.4097 162.307 74.4964 162.293C75.25 162.162 74.265 162.808 74.0911 162.914C73.435 163.326 74.0861 163.172 73.8499 163.393C73.614 163.615 73.1991 163.574 73.0804 163.773C72.8363 164.19 73.0544 164.529 73.1458 164.827C73.1867 164.944 73.781 164.621 73.8089 164.628C74.0589 164.792 73.4883 165.315 74.7962 164.925C71.6204 166.43 75.1666 164.935 74.6585 165.525C74.6144 165.572 73.1186 166.289 72.8479 166.279C72.5749 166.263 72.9821 165.897 72.5686 165.891C72.4703 165.898 70.946 166.27 70.8479 166.278C70.0768 166.332 72.3628 165.38 72.4895 165.318C73.8109 164.661 72.1537 165.025 72.0227 165.007C71.4134 164.902 71.6447 164.528 71.2024 164.428C70.9144 164.358 69.3838 164.906 69.385 164.767C69.3836 164.295 71.4568 163.366 69.4681 163.657C69.0443 163.721 67.4108 164.423 68.6097 163.639C68.6869 163.587 69.7997 162.922 68.9974 163.079C68.8959 163.098 68.4101 163.278 68.3616 163.272C68.0465 163.23 68.3954 162.986 68.1546 162.902C67.9144 162.822 67.5704 162.739 67.6683 162.497C67.7267 162.352 68.5846 161.891 68.7874 161.758C69.3741 161.382 68.2705 161.612 69.01 161.236C69.7541 160.861 70.9961 160.597 71.4153 160.186C70.1499 160.641 68.8471 161.097 67.5725 161.55C67.4296 161.022 67.652 160.368 67.4085 159.877C67.3759 159.818 66.7228 160.13 66.6712 160.073C66.4597 159.83 66.8459 159.385 66.5481 159.169C66.3139 159 65.4962 158.993 65.2298 158.828C66.621 158.155 66.0009 157.978 66.0335 157.661C66.046 157.554 66.4348 157.419 66.5374 157.309C66.9147 156.899 65.6805 157.479 65.4544 157.487C64.492 157.517 67.3723 156.431 67.1731 156.109C67.1519 156.095 65.5444 156.446 65.4378 156.451C64.7436 156.491 65.962 156.222 66.0325 156.061C66.1602 155.767 66.4715 155.477 65.9231 155.379C65.9199 155.378 65.9163 155.378 65.9124 155.378C65.722 155.362 64.7519 155.524 65.427 155.114C65.5173 155.059 66.0282 154.883 66.054 154.856C66.4483 154.395 64.8465 154.975 64.2454 155.014C63.6434 155.049 64.6571 154.398 64.9573 154.232C65.7326 153.8 65.3458 154.202 65.429 154.179C66.4194 153.906 66.1905 153.792 66.221 153.626C67.7817 153.028 67.6167 152.871 66.2464 153.455C66.0972 153.519 66.2825 153.572 66.221 153.626C64.639 154.073 64.3645 153.936 65.7141 153.17C66.3472 152.812 67.1702 152.622 66.761 152.396C66.5767 152.296 65.5178 152.752 65.1751 152.729C64.3938 152.678 65.2519 151.904 64.9778 151.65C64.8786 151.56 64.3288 151.887 64.2405 151.833C64.0053 151.689 64.3814 151.344 64.0784 151.221C64.0502 151.21 63.449 151.484 63.4163 151.423C63.1606 150.952 63.4052 150.395 63.2259 149.877C63.1379 149.624 62.6378 149.317 62.6116 149.037C62.5633 148.553 63.2595 147.673 62.9026 147.38C62.6717 147.186 62.0729 147.469 61.6126 147.519C60.7213 147.618 62.0484 146.711 62.2581 146.582C62.265 146.578 62.4882 146.733 62.764 146.503C63.3978 146.194 62.2738 146.579 62.2581 146.582C62.3929 146.497 62.3772 146.024 62.2278 145.983C62.1463 145.962 61.57 146.205 61.5384 146.189C60.8033 145.815 60.4465 145.308 60.5071 144.632C60.5249 144.614 61.1761 144.389 61.1868 144.358C61.3538 143.917 60.4733 144.001 59.8968 143.906C59.32 143.81 59.398 143.533 60.4622 142.953C60.2448 142.799 60.6303 142.315 60.8694 142.035C61.1076 141.754 59.8288 142.202 59.7932 142.198C58.8134 142.032 59.4409 141.487 59.3743 140.96C59.3452 140.71 58.9907 140.322 58.7581 140.123C58.5722 139.967 58.8254 139.736 58.5667 139.625C58.5295 139.611 57.9753 139.845 57.9495 139.847C57.1954 139.897 58.6179 139.478 58.8509 139.344C59.6957 138.857 60.1411 138.584 59.6204 138.482C59.4999 138.459 57.4401 139.028 57.2806 138.963C57.0793 138.876 57.8151 138.663 57.5862 138.578C57.5673 138.571 57.1277 138.737 57.1116 138.639C57.0372 138.18 57.1222 137.622 56.9124 137.194C56.8842 137.136 56.2138 137.474 56.1634 137.393C55.9267 137.012 55.7856 136.557 55.9641 136.034C56.0104 135.905 56.5247 135.784 56.6624 135.708C57.4929 135.249 56.1492 135.539 56.1087 135.518C55.2205 135.017 56.1701 134.025 55.3401 133.485C55.2926 133.457 53.8031 133.657 54.928 133.078C55.0028 133.039 56.1553 132.452 55.2864 132.638C55.2299 132.651 54.6453 132.966 54.6516 132.794C54.6586 132.62 54.1551 132.534 54.7591 132.073C54.9499 131.927 56.0917 131.323 55.0618 131.487C54.9882 131.5 52.7139 132.009 54.1663 131.344C54.4057 131.234 55.9932 130.661 55.096 130.732C54.9222 130.747 54.6 130.959 54.3362 130.925C53.93 130.873 54.2644 130.477 53.4778 130.52C53.3388 130.529 52.2052 130.768 52.97 130.332C53.0897 130.264 53.6312 130.105 53.6653 130.014C53.8251 129.578 53.3439 129.367 53.5833 128.895C53.6678 128.729 54.5427 128.47 54.7249 128.261C54.907 128.051 55.0331 127.72 54.595 127.737C54.1566 127.755 52.8504 128.405 52.6692 128.253C51.8822 127.591 52.3668 126.46 52.1673 125.575C52.1375 125.444 51.6901 125.73 51.6116 125.551C51.3223 124.891 50.4259 123.891 51.2395 122.92C51.8884 122.136 52.742 122.492 52.9427 122.005C53.0373 121.77 51.3945 122.176 51.3225 122.155C50.6629 121.936 51.2582 121.395 50.9026 121.103C50.829 121.044 50.2184 121.36 50.1624 121.308C49.9677 121.128 50.1648 120.789 50.0335 120.599C49.9731 120.514 49.4925 120.715 49.4964 120.615C49.5031 120.377 49.6383 120.114 50.0188 119.736C50.0546 119.702 50.7077 119.597 50.6731 119.434C50.6131 119.171 50.9476 118.689 50.3733 118.582C50.2008 118.55 49.0839 118.973 49.7854 118.497C49.9318 118.397 51.291 117.938 50.0511 118.162C49.8446 118.199 48.1464 118.433 49.0872 117.876C49.3347 117.729 50.3858 117.195 50.1761 117.159C50.1433 117.156 49.5643 117.438 49.4739 117.376C49.1678 117.159 49.1086 116.811 48.805 116.578C48.7225 116.516 48.1482 116.874 48.0452 116.773C47.7616 116.499 47.7617 116.024 47.8294 115.618C47.8559 115.469 48.4018 115.356 48.4544 115.326C49.3086 114.838 48.0496 115.222 47.9602 115.203C47.4216 115.075 47.915 114.64 47.6575 114.424C47.5868 114.366 47.0239 114.641 46.9661 114.646C46.3981 114.687 47.4905 114.401 47.5706 114.259C47.794 113.86 47.6332 113.579 47.4544 113.336C47.3868 113.244 46.7526 113.619 46.6995 113.534C46.3733 113.032 46.233 112.471 46.4016 111.795C46.4354 111.669 46.9803 111.53 47.0921 111.464C47.8712 111.002 46.6572 111.235 46.5296 111.23C46.3871 111.225 46.3065 111.204 46.263 111.175C46.2753 111.084 46.3412 110.976 46.2591 110.897C45.4568 110.142 45.3014 108.894 45.1263 107.934C44.9055 106.711 45.0291 105.616 44.4563 104.599C44.42 104.533 43.7631 104.888 43.722 104.836C43.2391 104.143 43.1975 103.29 42.6761 102.608C42.6343 102.553 42.0239 102.916 41.9348 102.837C41.7493 102.673 41.6785 102.409 41.7952 102.107C41.8525 101.963 42.4667 101.864 42.513 101.724C42.6199 101.395 42.5613 101.13 42.3528 100.93C42.2624 100.844 41.6672 101.285 41.6009 101.153C41.1486 100.277 40.6462 99.427 41.1028 98.1425C41.1342 98.0543 42.4524 97.4095 42.137 97.3905C41.7602 97.5442 41.3221 97.7375 40.9222 97.9081C40.1307 96.6889 40.018 95.195 39.4905 93.8661C39.4685 93.811 38.8063 94.2291 38.76 94.1249C38.4876 93.5087 38.0188 93.0167 38.4212 92.0673C38.46 91.9734 39.7075 91.4161 39.4358 91.3241C39.3877 91.3107 39.0891 91.1105 38.7884 91.1698C38.741 91.1813 38.1927 91.5056 38.1341 91.4266C37.8014 90.9589 37.6727 90.3641 37.7698 89.6805C37.7863 89.5691 38.4394 89.3564 38.4563 89.2743C38.573 88.6973 37.8822 88.4671 38.2317 87.787C38.4678 87.33 39.5686 86.9062 40.5296 86.244C40.6651 86.1505 40.6044 85.9704 41.2015 85.661C42.7025 84.8824 44.3993 84.1363 45.9944 83.2968C46.338 83.1159 45.851 83.0764 46.7571 82.7909C46.8182 82.7721 47.1787 82.7975 47.4837 82.6962C47.6947 82.6262 48.2809 82.269 48.5618 82.2011C48.8422 82.1334 48.3616 82.4533 48.7054 82.4013ZM72.4358 163.472C72.8379 163.237 72.2575 163.197 71.7591 163.494C71.3587 163.734 71.9363 163.766 72.4358 163.472ZM70.8597 161.632C71.5505 161.101 68.3534 162.233 69.0921 162.259C69.134 162.26 70.8195 161.663 70.8597 161.632ZM69.3489 159.752C70.2626 159.18 68.7524 159.567 68.0423 159.998C67.3327 160.428 69.0717 159.925 69.3489 159.752ZM69.4026 147.607C70.1708 147.482 70.3165 147.617 69.4573 148.059C69.4543 147.905 69.4101 147.763 69.4026 147.607ZM61.9329 140.767C62.4861 140.382 60.235 141.192 60.8352 141.164C60.872 141.16 61.906 140.787 61.9329 140.767ZM64.5716 139.53C63.8341 139.726 63.8719 140.004 64.5921 139.675C64.6205 139.661 64.6019 139.523 64.5716 139.53ZM61.2552 131.64C61.2876 131.625 61.2838 131.521 61.096 131.594C60.4904 131.827 60.7092 131.891 61.2552 131.64ZM60.5891 125.446C59.3689 125.729 59.4691 126.37 60.6419 125.781C60.7024 125.75 60.6509 125.434 60.5891 125.446ZM46.2259 111.135C46.2328 111.15 46.2449 111.163 46.263 111.175C46.2594 111.201 46.2592 111.226 46.2698 111.248L46.2259 111.135ZM41.1253 86.6298C40.4132 86.9046 40.4781 87.173 41.1595 86.7694C41.1868 86.7532 41.1548 86.6194 41.1253 86.6298Z" fill="#FA8282"/>
<path d="M77.2602 72.9171C77.8984 72.0485 77.8507 73.2658 78.3862 73.3331C79.1788 73.4372 79.9947 73.4567 80.811 73.4122C82.6254 73.2581 84.3402 73.3469 85.8452 73.4893C86.8749 73.6014 86.1126 72.2349 86.9975 73.1153C87.0557 73.1756 86.6561 73.7203 86.9077 73.8526C87.4784 74.1438 88.6033 74.394 89.0141 74.6065C89.8054 75.0129 89.9348 75.0632 90.6713 75.3975C91.059 75.579 91.4521 75.8241 91.8276 76.0675C92.7524 76.6082 93.5984 77.3697 94.3296 78.0743C94.5892 78.3267 94.7599 77.5297 95.2309 77.9298C95.7343 78.336 96.4558 79.6877 96.4819 80.1641C96.5342 80.647 95.9885 80.6669 95.9145 80.7852C95.2706 81.7093 96.9259 82.5262 97.0014 82.712C97.8344 84.5075 97.8608 86.0906 97.896 87.543C97.9458 88.6725 97.8768 89.7687 97.8286 90.8721C97.7394 93.0687 97.4864 95.3556 96.8452 97.2227C96.0731 99.444 94.9693 101.047 94.0385 102.99C93.9386 103.195 94.7323 103.306 94.6098 103.559C93.2956 106.252 91.6477 108.674 89.5913 110.721C89.3844 110.924 89.054 110.243 88.8159 110.423C88.4868 110.676 88.095 110.942 87.7055 111.232C89.142 110.944 90.6026 110.785 92.1049 110.822C92.1726 110.824 92.2221 111.5 92.3559 111.499C93.9705 111.485 93.4265 110.55 94.1489 109.066C94.3332 108.693 95.4644 110.009 95.5561 110.104C95.8988 110.45 95.866 111.479 95.9672 111.54C96.7977 111.997 95.9467 108.809 96.8872 108.595C96.9175 108.595 96.9286 109.212 97.02 109.254C97.2717 109.369 97.4487 109.157 97.6831 109.209C97.7148 109.216 97.7478 109.227 97.7817 109.244C98.4479 109.592 98.9696 111.118 99.6196 110.033C99.7036 109.894 99.1642 108.09 100.047 108.008C100.395 107.974 101.922 107.669 102.373 107.723C102.821 107.773 102.623 108.416 102.658 108.437C103.926 109.044 103.541 109.44 104.273 110.525C104.99 111.611 104.455 108.856 104.647 108.514C104.839 108.172 105.768 108.72 105.997 108.925C106.226 109.129 106.017 109.538 106.211 109.647C107.497 110.357 106.595 108.206 106.955 107.721C107.824 106.577 108.752 108.591 109.618 108.745C109.857 108.786 109.638 108.325 109.846 108.27C110.677 108.059 111.191 108.688 112.136 108.083C112.285 107.981 113.085 106.735 113.58 107.664C113.647 107.798 113.435 108.311 113.788 108.437C114.229 108.594 114.969 108.733 115.539 108.708C115.661 108.704 115.775 108.695 115.881 108.68C116.369 108.618 115.938 107.687 116.529 108.055C116.778 108.225 116.194 108.616 116.642 108.894C117.085 109.15 118.225 109.569 118.629 109.811C119.037 110.03 119.16 109.354 119.213 109.332C119.557 109.23 120.563 109.595 120.627 109.667C121.591 110.457 122.268 111.432 122.76 112.398C124.097 115.053 124.205 117.731 124.748 120.335C124.805 120.618 125.464 120.362 125.48 120.404C125.853 121.386 123.979 120.757 123.42 121.458C124.796 121.27 124.579 121.688 124.752 122.366C124.836 122.695 125.367 122.502 125.423 122.53C126.251 123.016 125.197 123.384 124.981 123.466C124.188 123.783 125.117 124.148 124.582 124.356C124.051 124.556 123.287 124.046 123.277 124.675C123.766 124.875 125.079 124.436 125.27 124.945C126.016 126.909 124.546 130.311 124.162 131.729C123.793 133.171 123.777 133.656 123.42 134.462C122.833 135.761 123.628 135.617 123.946 136.335C123.975 136.44 123.995 136.562 124 136.705C124.021 138.073 121.991 136.635 121.463 136.617C120.943 136.555 121.375 136.879 121.052 136.922C120.733 136.953 120.55 136.512 120.31 136.792C120.085 137.058 120.391 138.385 120.766 138.786C121.584 139.614 122.869 139.788 121.927 140.525C121.871 140.563 121.454 140.062 121.273 140.232C119.856 141.574 118.696 143.071 117.244 144.255C117.042 144.417 116.634 143.816 116.511 143.904C115.235 144.817 116.485 145.113 116.979 146.575C115.746 145.353 114.637 145.053 113.911 145.934C113.651 146.248 113.778 146.512 113.951 146.817C114.071 147.022 114.211 147.249 114.254 147.529C114.285 147.742 113.573 147.754 113.767 148.06C114.383 149.078 115.672 149.659 114.338 150.207C114.28 150.227 113.983 149.639 113.815 149.74C112.725 150.366 113.369 151.397 112.369 152.328C111.58 153.057 109.662 153.443 108.643 153.945C107.622 152.297 106.965 153.237 107.308 154.599C106.658 154.939 106.028 155.417 105.332 155.628C105.093 155.701 104.934 155.139 104.876 155.104C103.98 154.537 104.389 155.812 104.285 155.937C103.815 156.454 103.276 156.745 102.729 157.017C101.857 157.453 101.001 157.784 100.358 158.772C100.323 158.828 100.839 160.081 99.9887 159.403C99.9342 159.354 100.159 158.56 99.4292 158.865C98.6902 159.176 97.071 159.104 96.2876 160.069C96.1007 160.304 95.837 161.571 95.0395 160.941C94.9341 160.855 94.8806 160.465 94.7143 160.295C94.185 159.752 94.4407 161.103 93.7163 160.121C92.9868 159.14 92.0287 158.536 91.2319 159.578C91.2076 159.609 91.2439 160.717 90.9106 160.786C90.3832 160.893 89.5857 160.851 89.0444 160.976C88.7818 161.037 89.0915 161.656 89.0483 161.678C87.338 162.425 85.9359 162.057 83.9907 162.062C83.6403 162.061 82.7274 163.096 81.9614 162.453C81.1247 161.748 81.5446 158.396 79.9292 159.35C79.727 159.47 79.5282 159.98 79.3256 160.554C78.898 161.788 78.307 163.324 77.3676 161.899C74.9644 162.57 72.8094 161.401 70.3628 161.847C70.2533 161.867 69.7484 162.973 69.4878 162.919C69.105 162.835 68.9838 162.263 68.7202 162.182C67.6237 161.828 66.4971 162.069 65.4321 161.753C65.0313 161.634 65.2946 161.117 64.8208 160.974C64.3438 160.829 63.8429 161.471 63.2729 160.959C62.8393 160.569 62.7199 158.974 62.1196 158.635C61.7166 160.075 61.2778 159.93 60.3745 160.099C60.2022 160.133 60.2325 160.679 60.144 160.721C59.7809 160.902 59.6106 160.411 59.2592 160.618C59.1731 160.668 59.0377 161.159 58.9594 161.229C58.3959 161.724 57.9764 160.903 57.7915 160.475C57.768 160.47 57.7024 160.445 57.6801 160.438C57.6521 160.346 57.6344 160.272 57.6245 160.232C57.406 159.324 56.9193 159.835 56.6577 159.39C56.4069 158.946 57.1173 158.861 56.7631 158.498C56.038 157.752 54.9156 157.245 54.0903 156.71C53.7609 156.5 53.6293 157.217 53.5737 157.202C52.7654 156.907 52.5125 155.846 51.3344 156.663C52.0751 155.205 52.0279 155.095 51.684 155.258C51.2869 155.453 50.4585 156.024 50.2046 155.292C50.1659 155.178 51.2168 153.894 51.6098 153.917C51.893 153.933 51.994 154.3 52.2661 154.506C52.3712 154.585 52.5007 154.639 52.6694 154.631C52.8191 154.633 54.2168 153.721 54.3296 153.682C55.2486 153.421 53.98 155.538 53.936 155.68C53.4946 157.149 55.0674 156.138 55.2876 156.127C56.3503 156.124 56.8844 156.783 57.7417 156.76C58.3004 156.744 58.9844 155.268 59.2963 155.451C59.4015 155.513 59.4917 155.59 59.5717 155.678L59.1206 155.528C60.0857 156.274 60.1633 158.013 61.7671 156.607C62.1501 156.273 62.3232 154.484 62.9487 156.09C62.9844 156.19 63.3941 157.616 64.0083 156.938C64.0858 156.852 64.2112 156.349 64.2905 156.324C64.814 156.166 65.0233 156.642 65.5639 156.569C66.1043 156.496 66.7577 156.345 67.271 156.636C67.581 156.811 67.8088 157.844 67.9272 158.108C68.2516 158.867 68.9428 157.862 69.0776 158.721C69.2255 159.586 68.4293 160.727 69.1245 161.387C69.372 160.065 69.6585 158.712 69.9155 157.384C71.4658 157.682 72.9348 158.259 74.5131 158.227C74.7072 158.221 74.5211 157.495 74.726 157.47C75.5825 157.363 76.3631 157.857 77.2797 157.597C77.8255 157.439 78.3734 156.915 78.9321 156.555C79.1157 156.444 79.3066 156.349 79.4926 156.285C80.1511 157.767 81.2941 157.125 82.1596 157.161C82.4675 157.173 82.4929 157.584 82.7231 157.691C83.5896 158.079 83.0351 156.779 83.2241 156.538C84.0137 155.507 84.5349 158.545 85.6391 158.288C85.7021 158.268 86.1259 156.537 86.1938 156.419C86.6733 155.653 86.3967 156.963 86.8012 157.01C87.5322 157.094 88.1075 157.375 88.8051 156.721C89.0104 156.527 89.3121 155.403 89.9516 156.052C90.0367 156.137 90.1426 156.67 90.1987 156.688C91.2041 156.965 90.7667 155.313 91.0678 154.623C91.3618 153.935 92.4262 154.822 92.6909 155.09C93.3627 155.786 92.5146 155.548 92.518 155.634C92.5841 156.69 93.079 156.345 93.5219 156.28C94.1328 157.838 94.7086 157.523 93.9819 156.204C93.9025 156.061 93.6312 156.323 93.5219 156.28C93.352 154.603 93.8435 154.202 95.0971 155.348C95.6898 155.879 95.7047 156.789 96.5835 156.076C96.9752 155.751 96.3339 154.779 96.5796 154.32C97.1239 153.283 98.6861 153.68 99.4555 153.031C99.7271 152.8 99.114 152.431 99.2846 152.256C99.3921 152.144 99.5143 152.065 99.644 152.002C100.119 151.763 100.661 151.699 101.033 151.255C101.076 151.201 100.596 150.723 100.783 150.599C102.187 149.646 103.663 149.24 105.103 148.338C105.808 147.898 106.796 146.811 107.46 146.423C108.628 145.757 110.406 145.514 110.814 144.681C110.885 144.539 110.888 144.411 110.853 144.295C110.828 143.896 110.47 143.639 110.38 143.231C110.14 142.146 112.112 142.175 112.406 142.193C112.416 142.194 112.09 142.852 112.593 142.764C113.283 143.026 112.408 142.206 112.406 142.193C112.596 142.207 113.594 141.177 113.662 140.879C113.7 140.716 113.152 140.402 113.181 140.325C113.868 138.507 114.805 136.944 115.806 135.794C115.83 135.777 116.417 136.161 116.467 136.115C117.175 135.516 116.614 134.564 116.109 134.445C116.094 134.444 116.078 134.443 116.064 134.443C115.823 133.51 116.153 132.914 117.398 132.652C117.39 131.966 118.091 131.131 118.503 130.639C118.916 130.146 117.589 129.848 117.567 129.797C116.95 128.204 117.829 127.495 118.078 126.012C118.2 125.309 118.062 123.923 117.901 123.211C117.776 122.647 118.082 122.298 117.847 121.803C117.815 121.737 117.215 121.845 117.191 121.826C116.43 121.344 117.923 121.485 118.178 121.348C119.098 120.85 119.582 120.484 119.022 119.827C118.891 119.661 116.714 119.605 116.54 119.413C116.315 119.142 117.086 119.074 116.822 118.795C116.799 118.772 116.348 118.9 116.314 118.71C116.183 118 116.086 117.295 115.818 116.787C115.746 116.654 115.671 116.541 115.594 116.452C115.542 116.391 115.001 116.915 114.928 116.852C114.762 116.71 114.677 116.664 114.704 116.635C114.726 116.605 114.86 116.569 114.943 116.409C114.981 116.328 115.121 115.824 115.165 115.675C115.275 115.217 115.183 115.305 115.113 115.524C115.037 115.741 114.976 116.085 114.969 116.098C114.96 116.114 114.951 116.13 114.941 116.144C113.015 116.546 111.288 115.42 109.064 116.153C108.936 116.196 108.114 117.735 107.557 116.532C107.524 116.451 106.944 115.22 106.663 116.138C106.645 116.195 106.992 116.82 106.515 116.81C106.04 116.799 105.354 117.337 104.6 116.716C104.366 116.52 103.667 115.329 103.217 116.442C103.181 116.52 102.656 118.96 102.033 117.458C101.931 117.211 101.665 115.54 101.094 116.535C100.986 116.728 101.315 117.046 100.992 117.352C100.639 117.69 100.104 117.637 99.6313 117.92C99.4381 118.031 99.2555 118.191 99.0991 118.44C99.0009 118.598 98.7132 119.838 98.0874 119.09C97.9891 118.973 97.9916 118.395 97.7485 118.386C96.5907 118.343 95.5493 118.978 94.3725 118.87C93.955 118.834 93.9285 117.9 93.4663 117.766C93.0041 117.631 92.1321 117.616 91.8247 118.13C91.5169 118.644 92.3451 119.924 91.7641 120.202C89.2525 121.414 86.4859 121.394 84.0278 122.242C83.6664 122.368 84.1516 122.731 83.643 122.951C82.503 123.446 81.0098 124.343 79.6538 124.995C78.6162 125.502 77.5948 125.878 76.7075 125.895C74.9048 125.935 76.2655 124.346 75.0415 124.654C74.4485 124.809 74.7844 126.579 74.6909 126.698C73.8083 127.869 72.6089 127.74 71.7006 128.598C71.5142 128.775 72.0916 129.215 71.9321 129.358C71.3877 129.852 70.5774 130.022 70.0434 130.451C69.8063 130.644 70.1446 131.045 69.894 131.168C69.6139 131.308 69.3235 131.422 69.0337 131.483C68.8938 131.511 68.7414 131.533 68.603 131.531C68.5386 131.527 68.4691 131.522 68.4301 131.491C68.4148 131.472 68.3926 131.459 68.438 131.389C68.4722 131.342 68.4518 131.35 68.6753 131.131C68.7306 131.075 68.8001 131.006 68.9038 130.897C68.9298 130.869 68.9584 130.838 68.9897 130.804C69.0054 130.787 69.0222 130.768 69.0395 130.749C69.048 130.74 69.1788 130.597 69.2758 130.479C69.4995 130.145 69.8639 129.961 70.4956 128.273C70.604 127.901 70.7717 127.347 70.8256 126.629C70.3047 126.847 69.7785 127.039 69.2495 127.192C68.8912 127.295 68.8842 126.565 68.6977 126.585C67.8864 126.674 68.3084 127.835 67.5424 127.94C67.3831 127.962 67.2 127.433 67.1469 127.391C66.316 126.747 66.618 128.121 66.5337 128.199C66.2135 128.51 65.8587 128.648 65.4965 128.711C65.4278 128.744 65.3615 128.783 65.1479 128.866C65.0295 128.907 64.8981 128.971 64.5063 129.033C64.4501 129.041 64.419 129.045 64.3198 129.054C64.1355 129.067 63.8933 129.078 63.5297 129.01C63.1752 128.94 62.6493 128.772 62.1391 128.314C61.6236 127.866 61.2804 127.133 61.2143 126.581C61.1011 125.448 61.415 125.068 61.5229 124.803C61.6595 124.551 61.7512 124.439 61.8217 124.349C61.9816 124.156 61.9736 124.177 61.9956 124.152C62.0135 124.134 62.0296 124.119 62.0444 124.105C62.074 124.076 62.0989 124.054 62.1206 124.035C62.1636 123.998 62.1955 123.972 62.2241 123.95C62.3236 123.877 62.3455 123.873 62.3989 123.843C62.483 123.801 62.5464 123.778 62.6128 123.755C62.7359 123.716 62.8548 123.686 62.976 123.657C63.2053 123.609 63.4406 123.564 63.6616 123.517C64.1092 123.418 64.535 123.277 64.9008 122.944C65.0245 122.83 64.3169 122.462 64.6948 122.172C65.558 121.511 66.4715 120.889 67.4184 120.316C66.5376 119.81 65.6848 119.555 65.1508 119.499C64.7711 119.44 64.4529 119.42 64.1801 119.417C64.1837 119.412 64.1884 119.408 64.1919 119.403C64.383 119.133 63.834 118.073 64.7739 118.508C64.9693 118.599 65.496 119.943 65.5551 118.508C65.5686 118.268 65.8331 116.229 66.852 116.896C67.1245 117.069 68.0329 117.907 68.2426 117.578C68.2679 117.53 67.7957 117.06 68.0073 116.869C68.7597 116.205 69.6699 115.753 70.3969 115.071C70.5888 114.889 69.9145 114.525 70.2085 114.273C71.0156 113.578 72.173 113.017 73.0932 112.614C73.4329 112.467 73.5501 113.059 73.6059 113.093C74.5273 113.629 73.9573 112.415 74.02 112.273C74.4326 111.39 75.3142 111.474 75.7944 110.849C75.9251 110.679 75.403 110.302 75.3979 110.232C75.356 109.545 75.8592 110.598 76.145 110.512C76.9488 110.269 77.5214 109.643 77.9506 109.06C78.107 108.845 77.3743 108.57 77.5151 108.388C77.8163 107.986 78.1149 107.598 78.4096 107.233C79.1077 106.354 79.8621 105.531 80.6792 104.81C80.9252 104.594 81.2678 105.08 81.4106 105.099C82.4091 105.232 81.7899 103.982 81.7768 103.793C81.7268 102.921 82.2836 102.974 82.5376 102.413C83.7729 99.6859 85.6841 96.8015 86.6479 94.628C87.6963 92.3075 88.3354 90.5254 88.1753 88.9024C88.0993 88.2796 88.0121 87.6814 87.8979 87.1182C87.8557 86.9124 87.1556 87.2382 87.1108 87.0665C87.0163 86.6742 86.9264 86.3103 86.8481 85.9913C86.8036 86.0311 86.7537 86.0506 86.6928 86.0323C86.1035 85.8623 85.5475 85.5741 85.1938 85.2003C85.0185 85.0181 85.5216 84.5601 85.3335 84.3868C84.8921 83.9819 84.3636 83.7794 83.9106 83.8087C83.7254 83.8255 83.8482 84.5791 83.6381 84.5509C83.1382 84.4919 82.8177 84.5399 82.6411 84.5577C80.5995 84.8722 78.5825 85.0564 76.4721 84.8604C76.2546 84.8371 75.7679 83.4401 75.3735 83.8077C75.4215 84.2131 75.5193 84.6816 75.5922 85.1104C71.265 86.2318 66.9141 86.9153 64.81 88.4805C64.7235 88.5456 65.339 89.0488 65.1821 89.169C64.9393 89.3572 64.7287 89.5646 64.519 89.7872C63.53 90.8213 62.5406 91.862 61.1284 92.6739C60.9363 92.7847 59.9545 91.8273 59.7153 92.4444C59.6732 92.5529 59.2239 93.4043 59.309 93.7794C59.3242 93.8327 59.9302 94.0934 59.7602 94.3409C58.7642 95.7737 57.5816 97.1683 56.2895 98.4161C56.0799 98.6173 55.6788 97.9915 55.5239 98.1329C54.4227 99.1495 54.0461 100.755 52.8383 101.643C52.0265 102.243 51.1657 101.379 49.9077 101.272C49.7285 101.258 49.427 101.77 48.8169 101.487C47.2801 100.777 45.7849 99.642 44.1313 98.9141C43.7734 98.7578 43.7361 99.7388 43.145 98.8399C43.1053 98.7778 43.1333 98.056 42.9301 97.7637C42.7897 97.56 42.0892 97.4181 41.9516 97.0792C41.8159 96.7383 42.4398 96.7895 42.3374 96.2921C42.2316 95.7943 41.4694 95.5588 41.7749 94.837C42.4913 93.1579 43.9377 91.2735 45.188 89.9825C45.5785 89.577 45.7707 90.0486 46.0561 89.7823C46.6136 89.2643 46.8451 88.5785 47.437 88.0997C47.6345 87.943 47.999 88.5819 48.1928 88.4102C49.2495 87.4709 49.9118 86.3324 50.9106 85.3321C52.4084 83.8351 53.9294 82.3769 55.5122 80.9669C60.1644 76.7472 65.5038 75.5754 70.0864 74.6163C72.3207 74.1767 75.0535 74.2616 77.2251 73.6036C77.4769 73.5259 77.2206 72.9751 77.2602 72.9171ZM73.5307 158.747C73.1312 157.914 72.6407 159.686 72.8159 160.02C73.4293 161.118 73.9561 159.58 73.5307 158.747ZM65.6821 159.655C66.3052 160.651 67.1553 157.363 66.1704 157.844C66.1133 157.871 65.6464 159.597 65.6821 159.655ZM59.1909 158.201C59.0931 157.817 58.5726 157.901 58.393 158.237L58.5356 158.285C58.4954 158.345 58.4653 158.416 58.4516 158.496L58.3344 158.457C58.332 158.515 58.3384 158.577 58.3559 158.642C58.4968 159.155 59.354 158.836 59.1909 158.201ZM108.6 153.911C108.599 154.818 108.146 155.209 107.311 154.599C107.746 154.388 108.165 154.133 108.6 153.911ZM46.9946 151.541C47.0932 151.344 49.04 151.636 49.0756 151.701C49.0741 151.701 49.0723 151.701 49.0708 151.7C49.6465 153.145 48.4221 156.035 47.2602 153.834C47.091 153.457 48.4972 154.111 48.4243 153.531C48.3493 152.568 46.5029 152.784 46.9946 151.541ZM123.281 127.974C122.554 127.654 122.39 128.516 123.196 128.43C123.229 128.423 123.311 127.99 123.281 127.974ZM120.306 128.376C121.02 127.937 118.652 127.582 119.153 128.193C119.18 128.223 120.27 128.398 120.306 128.376ZM64.1801 119.417C63.5309 120.308 62.3454 120.391 61.5249 120.79C61.379 120.861 61.2832 120.845 61.2182 120.788C61.3818 120.661 61.6424 120.505 61.5805 120.492C61.5258 120.474 61.2618 120.555 61.1128 120.593C61.0672 120.429 61.0688 120.243 61.0297 120.239C60.992 120.236 60.9545 120.233 60.9174 120.231C61.0121 120.177 61.1288 120.107 61.4038 119.982C61.5466 119.919 61.7266 119.84 62.0503 119.734C62.2143 119.682 62.4157 119.622 62.7026 119.561C62.8466 119.53 63.0132 119.499 63.2143 119.473C63.2645 119.466 63.3167 119.459 63.3715 119.453C63.435 119.447 63.4447 119.443 63.6713 119.428C63.8226 119.419 63.9906 119.415 64.1801 119.417ZM91.1108 111.752C91.0681 111.693 90.0552 111.896 90.0376 111.966C89.8442 113.302 91.879 112.898 91.1108 111.752ZM109.707 109.91C109.694 109.875 109.379 109.862 109.397 110.063C109.459 110.708 109.881 110.501 109.707 109.91ZM50.7934 99.0372C50.7618 99.0276 50.517 99.3846 50.5395 99.4093C51.0815 99.9872 51.5654 99.282 50.7934 99.0372Z" fill="#FA8282"/>
</svg>
