<svg width="202" height="202" viewBox="0 0 202 202" fill="none" xmlns="http://www.w3.org/2000/svg">
<path d="M98.0546 0.148442C99.7036 -0.414877 99.637 2.07642 99.7021 2.22364C100.453 3.78943 102.408 2.34968 102.892 2.29786C105.084 2.05294 106.833 2.66198 108.663 2.56543C109.86 2.50702 110.235 0.923253 111.148 1.12598C111.851 1.2831 112.429 1.53785 112.939 1.81836C114.663 2.76859 115.526 3.9003 118.281 3.10352C119.048 2.90897 118.973 0.960558 120.924 3.14356C121.068 3.28233 122.246 5.13492 123.458 4.8086C123.613 4.76709 123.825 4.29511 123.994 4.32422C124.464 4.41007 124.815 4.5778 125.154 4.77051C125.622 5.03665 126.058 5.34647 126.72 5.53907C127.854 5.86901 129.239 6.22632 130.342 6.98047C131.007 7.43417 131.476 8.75758 131.705 9.14161C132.344 10.236 133.88 9.78218 134.084 10.8223C134.286 11.8667 132.55 12.3668 133.834 13.6572C134.525 12.5018 135.309 11.3557 136.041 10.2139C137.453 10.9947 138.823 11.8455 140.187 12.7305C142.104 13.9734 144.039 15.3049 146.023 16.6523C146.445 16.9377 146.434 16.0458 146.899 16.3408C148.868 17.605 150.104 19.2581 151.992 20.5713C152.123 20.6621 152.26 20.7508 152.4 20.8389C153.801 21.7103 155.546 22.369 156.915 23.3486C156.734 25.2419 159.093 26.6627 160.442 28.1104C160.915 28.6159 160.6 28.8856 160.867 29.3184C161.874 30.9446 162.176 29.3645 162.693 29.5576C164.911 30.4095 162.917 32.754 164.791 34.502C164.819 34.5282 165.021 34.5482 165.302 34.5654C166.031 34.6112 167.304 34.6603 167.474 34.7295C168.988 35.3346 167.236 35.3036 167.792 36.0557C168.803 37.4376 169.311 38.5584 170.989 39.749C171.477 40.0907 173.181 40.5138 173.287 41.9004C173.301 42.0818 172.828 42.36 172.879 42.4727C173.815 44.4822 175.178 43.4794 176.394 44.1133C176.778 44.3162 177.059 44.6773 177.264 45.0957C177.7 45.9912 177.77 47.1412 177.737 47.4893C177.619 48.8172 176.981 47.0874 176.878 47.0957C175.676 47.1918 176.632 48.1858 177.171 49.0869C175.904 50.1838 176.821 51.3041 177.732 50.0176C177.83 49.8739 177.231 49.3005 177.171 49.0869C179.035 48.8711 180.165 50.1033 179.893 52.4414C179.758 53.5346 178.638 53.3389 180.266 55.2734C180.999 56.1582 181.731 55.1668 182.54 55.8613C184.18 57.2759 184.861 59.9314 185.88 61.9209C186.011 62.177 186.15 62.4249 186.298 62.6563C186.767 63.3947 186.917 62.3467 187.257 62.8438C188.161 64.1694 188.381 65.6335 189.3 66.9639C189.384 67.0843 189.822 66.4756 190.048 66.9219C191.769 70.314 192.69 73.5302 194.049 77.249C194.527 78.5555 195.421 80.5666 196.042 82.3232C196.276 82.9808 196.474 83.6012 196.606 84.127C197.465 87.4745 197.497 91.775 198.276 94.5781C198.783 96.4143 199.348 95.8879 199.937 96.6172C201.083 98.0393 199.948 101.075 199.75 101.469C199.742 101.463 199.362 99.8807 199.15 100.79C198.522 101.388 199.744 101.45 199.75 101.469C199.641 101.736 199.874 105.011 200.045 105.653C200.146 106.001 200.75 105.747 200.791 105.931C200.813 106.031 200.834 106.131 200.855 106.23C201.755 110.508 201.991 114.944 201.465 119.366C201.447 119.445 200.757 119.288 200.726 119.473C200.263 122.054 200.947 123.784 201.18 126.014C201.198 126.192 201.211 126.367 201.221 126.537C201.327 128.504 200.814 130.083 199.492 131.053C199.32 132.736 198.191 134.978 197.47 136.189C196.755 137.4 197.969 138.012 197.957 138.14C197.688 140.552 196.933 142.136 196.021 143.777C195.452 144.795 194.813 145.838 194.141 147.121C193.313 148.716 191.872 151.936 191.078 153.69C190.457 155.081 189.732 155.724 189.219 157.037C189.148 157.215 189.769 157.349 189.761 157.411C189.608 159.132 188.7 157.739 188.311 157.885C186.891 158.411 186.099 158.76 185.446 160.697C185.374 160.907 185.578 161.512 185.776 162.18C186.001 162.946 186.214 163.8 186.019 164.226C185.533 165.263 185.131 164.487 184.621 165.583C184.576 165.676 184.981 165.923 184.538 166.53C182.706 169.081 180.165 171.796 177.893 174.077C177.651 174.323 177.409 174.571 177.17 174.817C176.828 175.165 177.801 175.252 177.312 175.765C175.018 178.172 172.195 180.604 169.372 182.301C168.676 182.716 168.764 181.994 168.532 181.974C167.129 181.856 166.704 183.824 166.504 183.993C166.445 184.044 166.386 184.095 166.327 184.146C161.812 187.923 157.499 188.983 152.565 192.108C152.516 192.14 152.423 192.244 152.299 192.388C151.754 193.039 150.233 194.63 148.833 194.062C148.71 194.022 147.105 193.27 146.335 194.426C146.287 194.498 147.232 194.902 145.905 195.235C144.581 195.564 142.706 196.46 140.982 196.077C140.678 196.012 140.11 195.674 139.45 195.6C138.921 195.538 138.326 195.651 137.757 196.229C137.679 196.324 135.839 199.018 134.741 197.595C134.565 197.359 134.402 195.678 132.812 196.834C132.508 197.057 133.178 197.324 132.338 197.707C131.047 198.296 129.183 198.143 127.628 199.138C127.357 199.314 126.277 200.633 125.152 199.912C124.977 199.799 125.194 199.2 124.659 199.211C122.115 199.258 119.52 199.953 116.899 199.819C115.973 199.771 116.352 198.821 115.383 198.665C115.366 198.662 115.348 198.659 115.331 198.656C114.346 198.507 112.477 198.432 111.531 198.902C110.566 199.382 111.747 200.764 110.253 200.971C103.735 201.852 97.2331 201.014 90.7519 200.551C90.1774 200.509 90.2188 200.69 90.0468 200.83C89.9283 200.925 89.7114 201.001 89.1328 200.97C83.9376 200.77 74.6292 200.039 70.3007 197.919C70.2784 197.908 70.2554 197.898 70.2334 197.888C66.8163 196.231 71.4851 196.576 68.831 195.614C67.5648 195.15 65.7357 196.429 65.3974 196.396C62.1287 196.103 60.1713 194.734 57.3203 194.001C56.7293 193.846 57.0701 194.69 56.5654 194.548C55.4787 194.245 54.4124 193.746 53.373 193.262C52.7638 192.978 52.1634 192.699 51.5683 192.467C50.8468 192.186 50.768 192.721 50.1279 192.393C48.5987 191.608 47.324 190.742 46.0898 189.546C45.981 189.438 47.168 189.327 46.082 188.73C44.464 187.84 42.7397 186.379 40.8007 185.569C40.629 185.498 40.4548 185.432 40.2783 185.371C39.635 185.149 38.9744 186.15 38.1953 184.678C38.0318 184.366 39.1346 183.38 37.0527 183.498C36.7123 183.529 33.3843 183.299 32.8681 181.583C32.7303 181.134 32.6672 179.635 31.914 179.297C31.8083 179.254 31.7744 180.034 31.1982 179.676C30.4483 179.203 29.7154 178.681 28.9902 178.137C27.763 177.216 26.5559 176.232 25.3105 175.308C24.7807 174.914 25.0784 176.063 24.2998 175.455C22.1547 173.783 19.8029 171.265 18.1181 169.097C17.4983 168.297 18.3757 168.446 18.3701 168.351C18.3541 167.957 18.2481 167.69 18.0937 167.505C17.6535 166.976 16.7989 167.105 16.5673 166.919C14.6397 165.335 13.9966 163.457 12.5917 161.709C12.2063 161.222 11.9363 161.937 11.8203 161.867C10.6449 161.098 12.114 161.271 11.7705 160.527C11.0897 159.033 10.2293 157.527 9.38765 156.08C9.06817 155.532 8.74464 154.991 8.42964 154.462C8.02074 153.774 7.81242 154.912 7.4521 154.287C5.88265 151.517 4.37749 148.711 3.27241 144.806C2.92189 143.479 2.69703 142.223 2.54585 141.013C2.44514 140.16 3.10321 140.574 3.19234 140.375C3.82196 139.023 2.35543 137.552 2.18355 137.165C1.40254 135.461 1.81729 134.714 1.56734 133.183C1.03118 129.856 0.80205 126.217 0.764601 122.62C0.632053 117.905 1.42605 112.805 2.16987 109.133C2.53924 107.255 2.93152 105.518 3.33003 103.831C4.8204 97.5922 6.30953 92.2206 7.6562 85.8086C7.76585 85.293 6.92276 85.6446 7.00776 85.1982C8.04567 79.9618 9.46894 74.919 10.748 69.6416C10.884 69.0858 11.0168 68.5365 11.1484 67.9863C11.2692 67.4915 10.3929 68.0053 10.5634 67.2109C10.9131 65.5715 11.5706 63.4958 12.4521 61.7549C12.8805 60.9171 13.0069 62.3025 13.4306 61.4551C14.3922 59.5123 15.7189 57.0231 16.957 55.0957C17.4657 54.284 16.0439 55.0473 16.7548 54.0303C17.0608 53.5968 17.3559 53.1925 17.6406 52.8057C21.5818 47.457 25.8913 42.4685 31.1757 38.3145C31.4509 38.0988 31.7321 37.8819 32.0117 37.6719C32.4265 37.3604 33.7614 38.1081 34.3486 37.167C34.1285 36.8156 33.7974 36.4706 33.5253 36.1299C38.5517 31.2053 43.9016 26.9132 49.5078 22.7832C52.4476 20.6287 55.5148 18.5022 58.7626 16.4981C59.1609 16.2526 58.0598 16.0227 58.8349 15.543C59.9615 14.8489 61.0876 14.1734 62.2001 13.5352C65.3106 11.7619 68.8507 9.70917 73.3984 8.7334C73.8706 8.63582 74.0591 9.4736 74.8925 9.48731C75.1089 9.49513 75.371 9.44386 75.7031 9.30274C75.9725 9.16901 78.3334 8.38347 78.8876 7.9795C78.962 7.91737 78.3894 7.38632 79.165 7.20508C83.6952 6.17923 88.3273 5.91822 92.6484 6.11622C93.3482 6.15072 92.6366 6.86042 93.1318 6.89161C96.6181 7.10963 100.374 6.59786 103.632 7.2959C105.807 7.76979 104.957 8.9227 106.069 10.1162C106.222 10.2838 107.56 10.3636 107.596 11.0391C107.697 12.7356 106.986 14.5586 107.17 16.3701C107.205 16.7587 108.968 16.4206 107.893 17.3106C107.816 17.3692 106.549 17.6273 106.228 17.9346C106.007 18.1465 106.365 18.8442 105.92 19.1094C105.477 19.3747 105.014 18.7841 104.284 19.0938C103.552 19.409 103.852 20.1924 102.421 20.2539C99.1085 20.3893 94.8199 20.2099 91.6171 20.1035C90.6078 20.0708 91.0933 19.6158 90.3925 19.5791C89.0284 19.5118 87.8035 19.8344 86.4834 19.7949C86.0463 19.7806 86.5014 19.0481 86.039 19.0498C83.5024 19.072 81.2236 19.6542 78.9189 20.1553C78.6869 20.2061 78.4535 20.2598 78.2285 20.3145C75.1643 21.0371 71.9195 22.6511 68.414 24.4902C64.274 26.6179 60.4447 29.1206 56.5576 31.9629C53.0539 34.5235 49.5895 37.2523 46.1914 40.0889C43.9461 41.9648 41.2839 44.0025 38.9072 46.1807C37.6629 47.3204 36.4913 48.5052 35.4863 49.71C35.1461 50.12 35.793 50.2905 35.7597 50.3975C35.2337 52.058 34.7154 50.8677 33.9013 51.5283C31.1641 53.7649 28.6117 56.6655 26.6015 59.5391C26.2425 60.051 25.9142 60.5441 25.6298 61.0127C24.8749 62.3141 26.6547 61.7236 25.3466 62.5723C25.2574 62.635 24.9059 62.0023 24.6474 62.3066C24.0498 62.983 23.4407 64.6238 23.1367 65.3301C22.5364 66.6741 22.4705 66.9237 22.0302 68.3174C21.651 69.5301 21.1354 70.8922 20.7011 72.2998C20.4563 73.0914 20.2348 73.9095 20.0849 74.7022C19.9976 75.1732 20.7746 74.724 20.6953 75.4775C20.613 76.2374 20.0767 78.1651 19.7695 78.7881C19.4622 79.4076 19.0415 79.0097 18.9003 79.0977C17.7164 79.8267 18.4887 82.4088 18.4541 82.7051C17.7532 88.1449 15.9753 92.545 14.9033 97.5566C14.3316 100.243 13.8713 103.09 13.4111 105.787C13.219 106.913 13.0276 108.013 12.8291 109.066C12.032 113.354 11.1474 116.824 11.206 120.855C11.2115 121.286 11.9648 120.783 11.9746 121.306C11.9822 121.672 11.9928 122.041 12.0039 122.417C12.1729 127.78 12.3705 133.095 12.8759 138.186C12.9338 138.733 12.1433 138.17 12.165 138.729C12.2096 139.691 12.2586 140.811 12.4375 141.927C12.8931 144.729 14.439 147.846 16.9472 148.164C17.3706 149.067 17.8545 150.05 18.3193 151.046C18.9334 152.371 19.5273 153.691 19.9013 154.88C20.3293 156.207 18.9988 155.522 20.1923 156.729C20.4627 156.997 20.7039 156.239 21.0683 156.663C22.3753 158.182 23.6106 159.945 25.0742 161.357C25.3259 161.601 25.5853 161.835 25.8505 162.054C26.2188 162.355 26.5483 161.875 26.7128 161.903C28.0564 162.149 28.3875 164.413 28.624 164.776C30.3574 167.489 32.3194 168.81 34.5927 170.678C34.7563 170.811 34.8553 170.799 34.9287 170.729C34.9505 170.709 34.9698 170.683 34.9882 170.654C35.0695 170.529 35.1288 170.352 35.2548 170.321C35.3159 170.307 35.3935 170.326 35.496 170.402C38.2104 172.433 41.0157 174.497 43.6572 176.573C44.2439 177.036 43.3194 177.218 43.583 177.468C44.2102 178.052 44.7767 178.079 45.3378 178.129C45.8297 178.172 46.3175 178.233 46.8574 178.695C47.1023 178.903 46.6685 179.291 46.6875 179.373C46.9919 180.661 48.356 179.874 48.5683 179.958C51.308 181.01 52.3432 183.103 55.0488 184.06C55.3696 184.168 54.9465 183.227 55.8281 183.569C56.2328 183.725 56.6395 183.879 57.0498 184.032C61.9113 185.843 67.1348 187.461 72.208 188.939C72.9096 189.144 73.6082 189.345 74.3027 189.543C75.2564 189.812 74.4697 190.198 74.5156 190.274C75.3362 191.462 76.2318 190.234 76.5546 190.237C79.1128 190.299 81.3475 191.732 83.249 190.309C85.6762 190.703 88.1306 190.949 90.5957 191.108C98.6329 191.624 106.626 191.246 114.692 191.521C114.982 191.53 115.273 191.541 115.564 191.553C115.702 191.558 115.521 192.246 115.797 192.251C119.129 192.292 118.394 191.313 120.395 189.791C120.895 189.409 122.749 190.716 122.914 190.807C123.507 191.145 123.085 192.209 123.276 192.264C124.859 192.681 124.153 189.455 126.14 189.157C126.202 189.156 126.032 189.793 126.208 189.827C126.756 189.936 127.234 189.618 127.776 189.744C129.013 190.037 129.699 191.551 131.325 190.327C131.532 190.168 130.868 188.388 132.656 188.16C133.367 188.076 136.48 187.457 137.371 187.396C137.59 187.383 137.724 187.415 137.806 187.471C137.958 187.572 137.93 187.755 137.891 187.892C137.864 187.987 137.833 188.06 137.853 188.064C137.879 188.068 137.903 188.071 137.928 188.074C140.348 188.372 139.546 188.88 140.975 189.763C142.428 190.636 141.461 187.978 141.849 187.562C142.244 187.154 144.041 187.333 144.518 187.403C144.991 187.487 144.609 188.018 145.012 188.02C147.713 187.934 145.555 186.334 146.131 185.63C146.768 184.802 147.602 184.666 148.53 184.658C149.486 184.654 150.519 184.795 151.386 184.462C151.848 184.283 151.272 184.049 151.638 183.808C153.078 182.855 154.31 182.921 155.715 181.427C155.95 181.181 156.663 179.313 158.003 179.562C158.196 179.598 158.117 180.257 158.803 179.969C159.715 179.587 161.184 178.766 162.102 178.008C162.216 177.914 162.321 177.822 162.416 177.732C163.052 177.129 161.752 177.004 162.786 176.593C163.246 176.406 162.811 177.338 163.656 176.948C164.504 176.567 166.331 175.116 166.996 174.53C167.665 173.95 166.875 173.764 166.902 173.685C167.075 173.221 168.127 171.889 168.233 171.788C169.506 170.623 170.757 169.476 171.985 168.322C175.138 165.429 177.86 162.338 180.175 158.682C180.859 157.608 181.509 156.492 182.111 155.342C182.381 154.827 181.597 154.815 181.632 154.733C182.377 152.882 183.166 155.142 184.388 154.235C183.084 153.722 183.713 153.137 184.261 151.839C184.522 151.213 183.875 151.275 183.856 151.194C183.624 149.931 184.874 149.827 185.15 149.77C186.163 149.561 185.674 148.484 186.352 148.332C187.027 148.175 187.234 149.462 187.851 148.257C187.583 147.695 185.975 147.981 186.255 146.982C186.752 145.195 187.915 142.928 189.054 140.708C190.323 138.257 191.512 135.828 192.019 134.318C192.971 131.451 193.038 130.463 193.549 128.76C194.258 126.207 193.584 126.421 193.25 125.471C193.175 125.264 193.114 124.999 193.079 124.64C192.874 122.626 195.111 123.837 195.65 123.607C196.187 123.375 195.699 123.008 196.012 122.678C196.324 122.347 196.595 123.155 196.779 122.322C196.971 121.48 196.22 119.106 195.696 118.79C194.598 118.112 193.383 119.07 193.876 116.926C193.904 116.801 194.514 117.226 194.591 116.748C195.093 113.484 195.069 110.071 195.062 106.729C195.062 106.174 195.061 105.618 195.064 105.066C195.068 104.532 195.806 104.932 195.815 104.618C195.882 101.347 194.85 102.629 193.328 101.083C195.088 101.228 196.017 100.104 195.606 97.6553C195.353 96.1885 194.654 96.575 193.954 95.7402C193.744 95.4913 194.044 94.3688 193.658 94.2549C192.393 93.8862 191.34 95.0999 191.307 92.5693C191.306 92.4574 192.002 92.6557 191.955 92.2783C191.64 89.8358 190.395 89.8402 189.563 87.3613C189.309 86.6166 189.103 85.6158 188.898 84.5371C188.572 82.8017 188.232 80.8581 187.8 79.4727C189.645 78.8562 188.429 76.8804 186.846 76.5498C186.327 75.1114 185.608 73.6278 185.164 72.2061C185.011 71.7183 185.658 71.787 185.688 71.7041C186.14 70.4028 184.67 70.3453 184.482 70.0732C183.186 68.1176 182.51 66.1694 181.491 64.3447C180.939 63.3568 180.286 62.412 179.383 61.5508C179.29 61.4632 178.036 61.9859 178.409 60.7012C178.435 60.6143 179.548 61.2648 178.752 59.8633C177.962 58.4678 176.912 55.4991 175.115 54.0059C174.682 53.6401 173.01 53.1544 173.061 51.7676C173.07 51.5808 173.477 51.4844 173.527 51.1865C173.678 50.2257 172.358 50.7288 172.809 49.3916C172.921 49.0564 172.985 48.6856 172.985 48.2998C172.985 47.1436 172.408 45.8205 170.861 44.8457C170.796 44.8027 169.617 45.0556 169.178 44.4951C168.476 43.5953 167.587 42.2169 166.779 41.334C166.393 40.9115 166.141 41.6337 166.065 41.5684C164.564 40.2089 163.433 38.9376 162.287 37.5742C161.263 36.3572 160.228 35.0727 158.899 33.6436C158.384 33.0854 156.181 32.2748 155.592 30.7588C154.935 29.0938 158.387 27.764 155.077 25.8525C153.879 25.1637 150.448 26.5967 149.27 24.5449C149.123 24.2913 149.012 23.9889 148.937 23.6201C145.257 21.1057 142.204 18.0869 138.234 16.1406C137.57 15.8097 136.883 15.5066 136.169 15.2383C135.944 15.1529 134.738 15.8188 134.264 15.5439C133.561 15.1335 133.422 14.4424 132.925 14.1367C130.842 12.8441 128.639 12.2359 126.566 11.1221C125.778 10.7013 126.307 10.3343 125.362 9.83594C124.629 9.45166 123.882 9.57867 123.054 9.22364C122.808 9.11849 122.56 8.97454 122.3 8.76563C121.428 8.0666 121.035 6.2182 119.632 5.51368C119.061 6.90375 118.12 6.49233 116.303 6.43164C115.954 6.42218 116.179 7.01613 116.009 7.03809C115.324 7.14236 114.839 6.59274 114.174 6.75293C114.015 6.79221 113.906 7.29102 113.77 7.35157C113.19 7.61944 112.537 7.39076 111.988 7.06739C111.448 6.74766 111.012 6.33384 110.885 6.21094C109.89 5.27004 109.258 5.84124 108.444 5.40918C107.628 4.97797 108.977 4.81093 107.996 4.47364C105.96 3.77551 103.248 3.47767 101.114 3.19043C100.261 3.07892 100.761 3.82742 100.637 3.82715C98.8628 3.78248 97.1468 2.87324 96.0429 4.13477C95.4089 1.57882 95.1102 2.76325 94.1416 3.35645C93.7366 3.60134 93.2262 3.74744 92.5039 3.50293C92.3118 3.43401 92.1328 1.76265 92.9277 1.5625C93.3121 1.46805 93.769 1.5561 94.2705 1.64454C94.81 1.74023 95.3915 1.83534 95.9697 1.68946C96.2272 1.62116 97.8421 0.219781 98.0546 0.148442ZM113.131 192.421C113.073 192.361 110.903 192.455 110.836 192.518C109.778 193.839 114.202 193.654 113.131 192.421ZM151.969 185.475C151.935 185.453 151.314 185.738 151.419 185.91C151.755 186.468 152.522 185.863 151.969 185.475ZM194.035 141.397C192.959 142.26 195.077 143.388 195.079 141.925C195.073 141.851 194.09 141.352 194.035 141.397ZM191.12 140.909C191.096 140.917 190.941 141.23 190.822 141.487C190.748 141.649 190.689 141.787 190.695 141.802C190.912 142.15 191.2 141.998 191.369 141.729C191.581 141.39 191.609 140.878 191.12 140.909ZM186.847 76.5547C187.175 77.5073 187.531 78.4549 187.836 79.4199C186.77 78.7331 186.258 77.6617 186.847 76.5547ZM143.647 15.7266C143.108 14.4132 141.367 15.4768 141.618 16.0029C142.405 17.7222 144.159 17.0341 143.647 15.7266ZM101.744 10.3652C102.269 9.61191 100.342 9.52576 100.745 10.3213C100.769 10.3526 101.719 10.3956 101.744 10.3652ZM128.037 7.41309C127.917 7.39695 126.99 8.93328 127.063 9.02344C128.307 10.5716 130.092 7.67251 128.037 7.41309ZM112.561 3.90528C111.919 3.80256 111.158 4.06822 111.588 4.56055C111.756 4.75381 112.076 4.85049 112.388 4.86426C112.97 4.89076 113.551 4.6434 113.171 4.19532C113.035 4.03971 112.813 3.94581 112.561 3.90528ZM84.6523 2.35059C88.7492 2.15271 91.0219 5.04017 86.8662 4.81348C86.1006 4.78988 88.4685 3.85247 87.4892 3.63868C85.6451 3.25168 84.6265 5.12352 82.6904 4.37891C82.3363 4.2415 84.4118 2.35152 84.6591 2.34571C84.6569 2.34719 84.6545 2.3491 84.6523 2.35059Z" fill="#FA8282"/>
<path d="M98.879 60.8827C100.309 60.3941 101.933 60.1725 103.561 60.3046C103.822 60.3276 103.662 61.04 103.848 61.0633C105.136 61.2221 106.489 60.5687 107.725 61.1317C108.536 61.5142 108.284 62.7009 108.705 63.8456C108.765 64.0065 109.216 64.0265 109.243 64.6991C109.31 66.3894 109.127 68.2424 109.225 70.0438C109.244 70.4311 109.75 70.0125 109.452 70.951C109.43 71.0136 109.074 71.3274 108.995 71.6473C108.94 71.8684 109.057 72.551 108.944 72.8348C108.834 73.1179 108.692 72.5482 108.512 72.8856C108.339 73.228 108.447 73.9999 108.102 74.1102C107.303 74.3598 106.264 74.2598 105.359 74.1151C105.079 74.0697 105.135 73.6286 104.931 73.5809C104.534 73.4895 104.225 73.7679 103.811 73.662C103.672 73.6244 103.675 72.9347 103.53 72.912C102.729 72.795 102.062 73.1497 101.258 73.2362C97.9129 73.6061 94.5393 74.6292 91.131 75.7997C90.6605 75.9464 90.2126 76.123 89.753 76.3465C88.8432 76.7721 87.3034 77.2522 86.5128 78.3973C86.422 78.53 86.8993 78.8857 86.9132 78.9422C87.1052 79.7958 86.3809 78.8395 86.046 78.951C84.7283 79.391 83.6987 80.4457 83.0372 81.5516C82.756 82.0258 83.9957 82.3822 83.1456 82.3612C83.0872 82.3609 82.7029 81.8475 82.5548 81.9169C82.2173 82.0775 81.8834 82.6419 81.6788 82.8075C81.2748 83.1329 81.2258 83.2008 80.9103 83.5672C80.4757 84.064 79.7338 84.4746 79.3907 85.118C79.3199 85.2555 79.9431 85.5064 79.8751 85.7626C79.8457 85.8719 79.747 86.02 79.6222 86.161C79.472 86.3286 79.2745 86.488 79.1329 86.5272C78.8891 86.5915 78.5459 86.2122 78.4327 86.1688C77.4765 85.8033 78.1092 87.2012 78.0831 87.2928C77.5393 88.9611 76.0811 89.7067 75.1847 91.0487C74.5087 92.0654 74.0147 93.3051 73.3683 94.2753C72.5961 95.4303 71.6874 96.263 71.0528 97.4637C70.987 97.59 71.7206 97.8262 71.6407 97.9803C70.7856 99.6191 69.8228 101.174 68.5128 102.557C68.3805 102.696 67.9071 102.175 67.7394 102.296C66.7287 103.034 64.734 104.087 67.0411 105.947C66.7838 106.324 66.5058 106.75 66.1573 107.106C65.9207 107.346 65.6528 107.555 65.3321 107.7C64.8223 107.937 64.3193 107.276 64.3966 107.883C64.4143 108.018 65.0562 108.121 65.0401 108.304C64.9761 109.061 64.5004 109.744 64.5851 110.517C64.6028 110.678 65.152 110.819 65.2364 110.89C65.9147 111.462 64.4564 111.574 64.3224 111.676C63.3484 112.377 63.4606 113.146 63.2745 113.999C63.2319 114.197 64.0237 114.108 64.0108 114.299C63.9356 115.289 63.7495 116.26 63.3585 117.203C63.2699 117.415 62.6334 117.181 62.5577 117.282C62.2357 117.74 63.4572 117.88 63.1886 118.303C63.134 118.393 62.5811 118.34 62.5187 118.356C61.5613 118.634 62.9218 118.859 62.9532 118.92C63.3842 119.746 62.016 120.402 62.3214 121.252C62.3595 121.349 63.0265 121.037 63.0909 121.309C63.5263 123.136 63.855 125.063 63.9952 127.159C64.0166 127.483 63.4462 127.447 63.3907 127.486C63.2971 127.556 63.2296 127.615 63.1847 127.666C62.8216 128.077 63.901 127.873 63.9737 127.938C64.5852 128.536 63.8211 129.669 65.5206 129.508C66.343 132.772 68.8378 135.036 69.7775 138.551C69.7902 138.595 69.218 138.951 69.2482 139.038C69.5868 140.02 70.209 139.387 71.4269 139.053C71.517 139.027 71.6105 139.003 71.7071 138.98C72.0522 138.895 71.222 140.28 71.171 140.394C70.9711 140.796 70.1075 141.326 70.0851 141.422C69.94 142.206 72.3346 139.942 72.7384 140.372C72.7475 140.39 72.2522 140.747 72.2423 140.826C72.2146 141.073 72.4979 141.02 72.4571 141.278C72.3571 141.867 71.3279 143.108 72.3898 142.839C72.5246 142.799 73.7447 141.383 74.0704 141.807C74.1989 141.983 74.922 142.58 75.0499 142.84C75.1744 143.101 74.6557 143.447 74.6485 143.481C74.7104 144.564 74.2879 144.644 73.8605 145.811C73.4535 146.985 75.0809 144.698 75.3898 144.54C75.696 144.383 75.7386 145.231 75.7198 145.498C75.6976 145.763 75.3361 145.975 75.3605 146.152C75.5497 147.319 76.4501 145.217 76.9142 144.997C77.9892 144.455 77.2401 146.444 77.6368 146.925C77.7409 147.052 77.8789 146.582 78.0187 146.614C78.5637 146.743 78.5309 147.472 79.3585 147.246C79.498 147.212 80.5049 146.333 80.3663 147.291C80.3467 147.43 79.9956 147.832 80.1505 148.041C80.3255 148.277 80.664 148.551 81.0001 148.671C81.1073 148.709 81.2143 148.731 81.3146 148.73C81.6175 148.728 81.6879 147.822 81.8878 148.204C81.9781 148.374 81.514 148.714 81.7042 148.997C81.893 149.281 82.5892 149.55 82.8585 149.638C83.1277 149.726 83.2223 149.066 83.2599 149.034C83.4782 148.854 84.0759 148.749 84.1222 148.765C86.3167 149.498 88.1648 151.137 90.5489 151.277C90.7344 151.288 90.7555 150.595 90.7853 150.59C91.4522 150.436 90.6017 152.115 90.92 152.8C91.1294 151.428 91.3364 151.727 91.8019 151.66C92.0256 151.626 92.01 151.079 92.0392 151.027C92.4952 150.283 92.52 151.357 92.5401 151.579C92.6108 152.395 92.9972 151.512 93.0499 152.057C93.1064 152.6 92.646 153.313 93.0782 153.375C93.2771 152.905 93.1745 151.574 93.5265 151.419C94.8378 150.836 96.9385 152.12 97.921 152.315C98.8895 152.514 99.2134 152.446 99.7726 152.669C100.784 153.066 100.474 152.079 101.136 151.68C101.798 151.278 101.357 153.622 101.422 154.136C101.487 154.648 101.616 154.131 101.717 154.416C101.818 154.701 101.549 155.034 101.817 155.152C102.088 155.271 102.87 154.399 102.984 153.87C103.226 152.751 102.941 151.559 103.625 151.997C103.665 152.023 103.514 152.641 103.667 152.709C104.278 152.97 104.915 153.11 105.547 153.238C106.158 153.364 106.776 153.466 107.395 153.648C107.566 153.7 107.448 154.397 107.549 154.435C108.623 154.819 108.186 153.673 108.631 152.34C108.643 154.069 109.043 155.103 109.856 155.029C110.34 154.984 110.173 154.242 110.414 153.679C110.485 153.51 110.882 153.98 110.897 153.621C110.94 152.445 110.462 151.204 111.304 151.605C111.342 151.625 111.325 152.267 111.448 152.289C112.255 152.421 112.156 151.209 112.938 150.922C113.549 150.697 114.831 151.192 115.595 151.143C115.997 153.042 116.616 152.447 116.589 151.078C117.079 151.019 117.575 150.821 118.081 150.884C118.255 150.905 118.289 151.474 118.323 151.529C118.867 152.372 118.755 151.063 118.844 150.983C119.833 150.214 121.005 150.914 121.81 149.685C121.838 149.641 121.531 148.327 122.084 149.193C122.121 149.255 121.938 149.943 122.451 149.846C122.965 149.749 124.114 150.167 124.635 149.362C124.731 149.214 124.822 148.498 125.117 148.482C125.201 148.48 125.305 148.546 125.44 148.717C125.516 148.814 125.585 149.198 125.712 149.384C126.129 149.97 125.804 148.644 126.419 149.654C127.033 150.665 127.927 151.264 128.317 150.221C128.328 150.179 128.056 149.131 128.266 149.053C128.608 148.927 129.175 148.897 129.514 148.71C129.675 148.62 129.257 148.084 129.278 148.057C130.157 147.159 131.187 147.229 132.439 146.711C132.671 146.615 132.722 145.475 133.518 145.797C134.395 146.144 135.87 149.14 136.41 147.781C136.632 147.229 134.63 143.52 136.612 144.736C137.133 144.003 137.881 143.632 138.608 143.233C138.615 143.228 138.634 143.212 138.642 143.206C139.337 142.751 139.976 142.196 140.247 141.322C140.276 141.238 139.549 140.302 139.669 140.18C139.851 140.004 140.365 140.237 140.51 140.115C141.134 139.604 141.191 138.749 141.685 138.182C141.873 137.962 142.274 138.372 142.498 138.105C142.722 137.838 142.237 137.234 142.792 137.048C143.212 136.911 144.676 137.44 145.086 137.128C143.836 136.308 144.038 136.051 144.003 135.358C143.995 135.224 143.492 135.051 143.465 134.973C143.346 134.657 143.815 134.716 143.669 134.394C143.633 134.317 143.198 134.05 143.145 133.973C142.673 133.301 143.937 133.423 144.159 133.439C144.997 133.513 144.512 133.026 144.909 132.936C145.308 132.843 145.422 133.394 145.744 133.199C146.411 132.794 146.77 131.982 147.123 131.384C147.261 131.143 146.574 130.984 146.578 130.941C146.636 130.663 146.869 130.484 146.989 130.268C147.107 130.016 147.075 129.735 146.472 129.321C149.879 130.244 146.294 128.882 147.188 128.399C147.261 128.364 148.878 128.744 149.026 129.087C149.172 129.435 148.547 129.648 148.763 130.132C148.82 130.24 150.048 131.329 150.101 131.44C150.155 131.541 150.167 131.617 150.147 131.672C150.122 131.717 150.063 131.858 150.035 131.901C149.887 132.231 148.171 131.368 148.052 131.33C146.618 130.893 147.814 132.193 147.84 132.387C147.968 133.252 147.372 133.599 147.408 134.294C147.431 134.746 148.813 135.598 148.615 135.839C147.949 136.644 145.838 135.754 147 137.606C147.246 138.002 148.858 138.78 147.274 138.668C147.171 138.665 145.8 138.432 146.297 139.145C146.36 139.235 146.79 139.519 146.798 139.589C146.829 140.05 146.352 140.021 146.288 140.462C146.224 140.904 146.181 141.474 145.762 141.751C145.511 141.918 144.519 141.632 144.253 141.592C143.488 141.477 144.117 142.481 143.325 142.152C142.536 141.813 141.827 140.689 141.051 140.797C142.078 141.665 143.111 142.583 144.129 143.474C143.295 144.414 142.192 145.132 141.083 146.035C141.033 146.071 140.896 146.194 140.844 146.227C140.72 146.312 140.6 146.402 140.484 146.498C140.369 146.595 140.924 147.081 140.814 147.2C140.34 147.699 139.55 147.65 139.092 148.25C138.739 148.716 138.692 149.705 138.31 150.223C137.102 149.201 136.675 150.153 136.033 150.424C135.81 150.518 135.591 150.172 135.377 150.155C134.575 150.1 135.58 151.061 135.552 151.338C135.408 152.528 133.674 149.987 132.974 150.511C132.941 150.535 133.283 152.244 133.256 152.378C133.13 153.222 132.893 151.93 132.547 151.989C131.912 152.096 131.372 151.945 130.95 152.697C130.834 152.916 130.801 154.069 130.084 153.525C129.991 153.454 129.796 152.949 129.743 152.935C128.817 152.766 129.459 154.338 129.211 155.057C128.955 155.78 127.828 154.924 127.589 154.641C126.949 153.927 127.754 154.193 127.746 154.102C127.641 153.055 127.215 153.391 126.817 153.422C126.593 152.776 126.386 152.435 126.26 152.349C126.092 152.222 126.088 152.634 126.432 153.45C126.463 153.523 126.527 153.508 126.594 153.479C126.678 153.445 126.767 153.396 126.817 153.422C126.847 153.749 126.848 154.028 126.822 154.254C126.78 155.159 126.348 155.176 125.567 154.122C125.111 153.507 125.116 152.634 124.434 153.151C124.123 153.385 124.578 154.452 124.355 154.843C123.842 155.735 122.62 154.966 121.926 155.331C121.673 155.464 122.101 155.999 121.934 156.111C121.487 156.41 120.93 156.07 120.495 156.434C120.456 156.469 120.732 157.077 120.579 157.126C119.415 157.507 118.274 157.353 117.01 157.622C116.401 157.753 115.366 158.338 114.699 158.387C113.544 158.48 112.004 157.75 111.06 158.098C110.437 158.324 110.651 158.961 110.418 159.439C109.955 160.368 108.832 158.896 108.693 158.66C108.69 158.653 109.241 158.454 108.915 158.14C108.69 157.451 108.701 158.653 108.693 158.66C108.597 158.514 107.46 158.428 107.235 158.557C107.115 158.631 107.205 159.252 107.141 159.279C106.598 159.494 106.04 159.649 105.474 159.738C104.545 159.902 103.608 159.879 102.675 159.654C102.65 159.641 102.715 158.943 102.656 158.92C101.834 158.576 101.262 159.402 100.53 159.867C99.8024 160.331 99.248 160.119 98.9317 158.891C98.397 159.001 97.6912 158.405 97.295 158.042C96.9007 157.679 96.6987 159.025 96.6573 159.048C95.3699 159.775 94.7584 158.916 93.5421 158.619C92.9624 158.476 91.7621 158.483 91.0929 158.512C90.5634 158.537 90.3183 158.166 89.8116 158.272C89.7432 158.286 89.6883 158.888 89.6642 158.912C88.9913 159.515 89.5416 158.116 89.4874 157.835C89.2929 156.812 89.1746 156.265 88.421 156.557C88.25 156.628 87.3153 158.595 86.9942 158.644C86.5841 158.705 86.9095 158.001 86.4776 158.082C86.4402 158.092 86.3296 158.546 86.0948 158.464C84.9981 158.084 83.8636 157.465 82.6954 157.121C82.5357 157.072 82.5001 157.849 82.2628 157.789C81.1483 157.504 79.9537 157.018 79.0421 156.244C78.8194 156.051 79.1891 155.641 79.1954 155.474C79.2401 154.47 78.2078 155.499 78.1114 155.483C78.006 155.469 77.9028 155.452 77.8028 155.431C75.8822 155.021 75.0556 153.342 73.0538 152.735C72.9442 152.711 71.358 153.42 71.7316 152.147C71.7522 152.06 72.1718 150.787 71.3771 151.296C71.3261 151.328 71.1423 152.011 70.8263 151.698C70.5142 151.387 69.6697 151.3 69.6554 150.352C69.6457 150.05 70.1313 148.794 69.048 149.209C68.9844 149.251 66.771 150.383 67.6124 148.985C67.7524 148.756 68.9363 147.558 67.8673 147.737C67.6599 147.771 67.5672 148.204 67.1612 148.14C66.5317 148.036 66.3727 147.235 65.3898 147.287C65.2187 147.3 64.0426 147.719 64.4298 146.848C64.492 146.712 64.9851 146.42 64.8995 146.229C64.7161 145.818 64.4312 145.492 64.1446 145.162C63.8209 144.79 63.4904 144.412 63.3487 143.893C63.2572 143.558 64.0707 143.118 64.0606 142.711C64.049 142.302 63.8395 141.644 63.3009 141.616C62.7606 141.587 61.8231 142.761 61.4122 142.398C59.6189 140.802 59.0514 138.323 58.0655 136.182C57.9187 135.862 57.5928 136.362 57.3439 135.899C56.598 134.537 55.2875 132.346 55.1339 130.487C55.1092 130.087 55.1363 129.689 55.2403 129.325C55.6821 127.831 56.8192 129.153 56.8634 128.12C56.8877 127.636 55.1259 127.621 55.0392 127.514C54.1961 126.533 54.7196 125.53 54.2823 124.517C54.192 124.305 53.5635 124.655 53.4933 124.469C53.249 123.828 53.438 123.075 53.3009 122.442C53.2383 122.159 52.726 122.274 52.7345 121.997C52.7524 121.342 52.924 120.745 53.379 120.094C53.4226 120.038 54.0888 120.372 54.089 119.914C54.0883 119.157 54.5598 118.256 54.0909 117.39C53.949 117.137 52.7562 117.068 53.6105 116.553C53.7906 116.445 55.2073 116.692 54.0187 115.974C53.8166 115.867 52.2585 114.588 53.4024 114.19C53.7017 114.087 54.9122 113.9 54.7755 113.588C54.7528 113.543 54.0931 113.605 54.0704 113.348C54.0058 112.43 54.2536 111.547 54.2716 110.617C54.2752 110.368 53.5448 110.562 53.5724 110.196C53.6514 109.171 54.1675 108.022 54.6749 107.175C54.8609 106.869 55.3033 107.275 55.3683 107.269C56.4169 107.209 55.2579 106.552 55.2335 106.393C55.0916 105.442 55.9052 105.063 56.047 104.304C56.0895 104.091 55.4553 103.986 55.419 103.925C55.0922 103.3 55.9964 104.045 56.2198 103.84C56.5372 103.556 56.7735 103.213 56.9669 102.843C57.1376 102.52 57.2712 102.162 57.3849 101.834C57.4706 101.584 56.6877 101.536 56.7735 101.314C57.2714 99.992 57.9856 98.7426 58.964 97.7469C59.1493 97.5602 59.5692 97.9601 59.7071 97.9745C60.6641 98.0746 59.8373 97.045 59.7931 96.8788C59.5879 96.1427 60.1264 96.1869 60.2784 95.7186C61.0194 93.4128 62.7853 91.0464 64.1368 89.2518C65.9 86.9062 67.5812 85.3101 69.1212 82.9159C69.2198 82.7648 68.5099 82.4782 68.587 82.3417C69.2616 81.2092 70.122 80.1976 71.0011 79.1395C71.4421 78.6103 71.8624 78.0781 72.2452 77.495C72.3333 77.361 71.6441 77.089 71.7696 76.8592C72.019 76.3901 72.478 75.9002 73.0021 75.6288C73.2538 75.499 73.4904 76.1569 73.7335 76.0194C74.3029 75.6976 74.7714 75.2279 75.1056 74.6727C75.2495 74.4323 74.4322 74.2709 74.6622 73.995C76.2108 72.1303 77.8354 70.1431 80.6983 68.9247C80.8964 68.8418 81.9652 69.8575 82.1114 69.3797C81.882 69.0423 81.5822 68.6692 81.3224 68.3202C82.742 67.0485 84.624 65.8956 86.6066 65.1542C88.4379 64.4931 90.2897 63.9355 92.1788 63.2743C92.3191 63.2252 91.8063 62.5871 92.0773 62.4881C93.6478 61.9155 95.1615 61.1608 97.1036 61.3758C97.2968 61.3965 97.5966 62.7321 98.0362 62.3866C98.1117 62.3238 98.8102 61.9341 98.9298 61.5956C98.9448 61.5451 98.638 60.9675 98.879 60.8827ZM95.5401 156.4C95.2333 155.704 94.8707 158.069 95.3712 157.556C95.3958 157.528 95.5564 156.435 95.5401 156.4ZM95.3624 153.45C95.0995 154.182 95.7051 154.322 95.6749 153.521C95.6713 153.489 95.3755 153.421 95.3624 153.45ZM115.617 151.191C115.768 150.375 116.116 150.203 116.587 151.078C116.262 151.102 115.943 151.167 115.617 151.191ZM77.045 147.932C77.0581 147.898 76.8864 147.755 76.7843 147.929C76.4565 148.489 76.8213 148.497 77.045 147.932ZM140.539 144.01C139.416 143.626 140.134 145.05 141.004 145.369C141.894 145.662 140.892 144.112 140.539 144.01ZM143.49 139.267C142.469 139.268 145.154 141.343 144.989 140.394C144.977 140.337 143.55 139.266 143.49 139.267ZM68.3937 137.711C67.175 138.158 67.9292 139.375 68.7765 138.331C68.8179 138.276 68.4554 137.692 68.3937 137.711ZM145.595 134.442C145.108 134.365 145.293 135.085 145.899 135.184C146.387 135.264 146.203 134.536 145.595 134.442ZM147.038 125.359C147.211 125.249 148.873 125.978 148.859 126.078L148.856 126.076C148.65 127.586 145.732 127.549 146.21 126.544C146.291 126.334 147.046 127.101 147.329 126.858C147.853 126.324 146.096 125.937 147.038 125.359ZM107.254 64.2684C107.382 63.4977 106.711 63.4827 106.913 64.2606C106.922 64.2913 107.246 64.2994 107.254 64.2684Z" fill="#FA8282"/>
</svg>
