<svg width="202" height="202" viewBox="0 0 202 202" fill="none" xmlns="http://www.w3.org/2000/svg">
<path d="M156.497 76.6491C156.342 75.9089 156.82 76.9606 156.904 77.1442C157.221 77.8395 157.056 77.1961 157.212 77.4586C157.368 77.722 157.388 78.1092 157.519 78.2575C157.792 78.5632 157.965 78.4196 158.132 78.3893C158.197 78.3742 157.94 77.7414 157.944 77.7243C158.019 77.5182 158.379 78.1611 158.02 76.8502C159.224 80.1486 157.991 76.5015 158.397 77.1051C158.43 77.1541 158.978 78.7202 159 78.9713C159.021 79.2212 158.771 78.7584 158.812 79.1451C158.823 79.2387 159.207 80.7456 159.222 80.8414C159.339 81.5789 158.541 79.2296 158.492 79.1022C157.962 77.729 158.358 79.3635 158.359 79.485C158.367 80.0408 158.125 79.7535 158.109 80.1569C158.099 80.4188 158.592 81.9659 158.508 81.941C158.227 81.8579 157.454 79.727 157.84 81.6666C157.921 82.0807 158.507 83.7585 157.915 82.4811C157.876 82.3983 157.368 81.2232 157.541 82.0153C157.563 82.1159 157.719 82.6088 157.72 82.6539C157.726 82.9467 157.548 82.5711 157.52 82.7868C157.492 83.0024 157.475 83.3156 157.324 83.1793C157.232 83.098 156.87 82.2014 156.771 81.984C156.49 81.359 156.733 82.4504 156.441 81.6784C156.148 80.9023 155.875 79.6716 155.589 79.1998C155.978 80.4871 156.372 81.8105 156.761 83.1061C156.455 83.1499 156.043 82.8206 155.768 82.9645C155.736 82.9863 155.978 83.6653 155.947 83.7037C155.814 83.8626 155.526 83.4117 155.412 83.6578C155.325 83.8517 155.393 84.6301 155.306 84.8561C154.794 83.4029 154.734 83.9626 154.545 83.8707C154.479 83.8389 154.37 83.4427 154.297 83.3239C154.022 82.8862 154.458 84.1763 154.477 84.3932C154.558 85.3187 153.71 82.363 153.539 82.4869C153.53 82.4926 153.842 84.1035 153.852 84.2116C153.919 84.8845 153.681 83.6667 153.58 83.569C153.395 83.3902 153.205 83.0368 153.183 83.5407C153.178 83.6901 153.342 84.7042 153.051 83.9645C153.012 83.8677 152.877 83.3442 152.859 83.3141C152.561 82.8464 153 84.4921 153.056 85.0748C153.113 85.6572 152.664 84.5592 152.549 84.2389C152.248 83.4113 152.511 83.8612 152.493 83.777C152.278 82.7742 152.219 82.9718 152.119 82.9088C151.681 81.2968 151.599 81.4222 152.016 82.8502C152.062 83.0059 152.084 82.8401 152.119 82.9088C152.47 84.5119 152.396 84.7489 151.875 83.3014C151.631 82.6231 151.48 81.7978 151.369 82.1422C151.318 82.2982 151.638 83.4031 151.639 83.7272C151.642 84.4652 151.147 83.4855 151.01 83.693C150.958 83.7691 151.175 84.364 151.145 84.4371C151.066 84.633 150.847 84.201 150.785 84.4655C150.779 84.4902 150.963 85.1196 150.928 85.1412C150.659 85.2863 150.311 84.9365 150.009 84.9957C149.864 85.0246 149.685 85.4398 149.518 85.403C149.227 85.3437 148.699 84.4804 148.527 84.7565C148.414 84.9341 148.587 85.5714 148.62 86.0241C148.683 86.9009 148.137 85.4243 148.059 85.193C148.057 85.1854 148.149 85.0066 148.012 84.6901C147.825 84.0086 148.06 85.1897 148.059 85.193C148.05 85.1661 148.033 85.141 148.012 85.1188C147.978 85.1151 147.882 85.155 147.849 85.15C147.76 85.0453 147.58 84.994 147.559 85.1022C147.546 85.1745 147.668 85.788 147.659 85.8141C147.442 86.4197 147.152 86.6324 146.779 86.402C146.771 86.3906 146.657 85.7005 146.64 85.6823C146.4 85.4104 146.432 86.2724 146.366 86.7994C146.301 87.3263 146.15 87.1808 145.848 86.0162C145.759 86.1855 145.498 85.6939 145.345 85.3942C145.193 85.0947 145.418 86.4342 145.415 86.4635C145.303 87.358 145.012 86.6187 144.717 86.5485C144.575 86.5132 144.351 86.7537 144.235 86.9254C144.144 87.0629 144.021 86.7619 143.953 86.9801C143.944 87.0094 144.064 87.6039 144.064 87.6276C144.076 88.3612 143.872 86.8934 143.802 86.6373C143.547 85.706 143.403 85.2116 143.335 85.6832C143.319 85.7941 143.592 87.9052 143.552 88.0416C143.498 88.2117 143.395 87.4552 143.343 87.651C143.338 87.6672 143.421 88.1319 143.365 88.1207C143.105 88.075 142.792 87.8515 142.546 87.942C142.512 87.9527 142.685 88.6821 142.637 88.7096C142.417 88.8381 142.152 88.8562 141.861 88.5514C141.789 88.474 141.736 87.9515 141.697 87.8004C141.462 86.8865 141.587 88.2521 141.573 88.2809C141.26 89.0004 140.728 87.8369 140.392 88.4899C140.375 88.5279 140.431 90.0032 140.144 88.777C140.124 88.6912 139.835 87.4426 139.907 88.32C139.912 88.3761 140.07 89.0185 139.971 88.9674C139.873 88.9154 139.802 89.3745 139.564 88.6764C139.489 88.4553 139.194 87.2065 139.244 88.233C139.249 88.3046 139.438 90.6152 139.123 89.0514C139.071 88.7938 138.815 87.1255 138.816 88.0016C138.817 88.1714 138.923 88.535 138.891 88.778C138.843 89.1525 138.632 88.7289 138.62 89.4918C138.618 89.627 138.698 90.7732 138.486 89.9264C138.453 89.793 138.389 89.2351 138.339 89.1784C138.097 88.9099 137.953 89.3129 137.696 88.9576C137.605 88.8326 137.503 87.9272 137.394 87.6969C137.285 87.4669 137.106 87.2567 137.092 87.6793C137.078 88.1025 137.376 89.5258 137.278 89.6578C136.851 90.2316 136.234 89.4607 135.718 89.4069C135.641 89.3987 135.774 89.9053 135.666 89.9303C135.268 90.0254 134.632 90.6007 134.14 89.5514C133.747 88.7109 134.013 87.998 133.754 87.6686C133.631 87.5116 133.733 89.1965 133.715 89.2555C133.54 89.8218 133.275 89.1018 133.087 89.3561C133.048 89.4101 133.175 90.0824 133.14 90.1198C133.023 90.2533 132.847 89.9681 132.727 90.0377C132.674 90.0709 132.746 90.5891 132.689 90.5553C132.554 90.4802 132.419 90.2743 132.24 89.8024C132.224 89.758 132.222 89.1065 132.128 89.0924C131.973 89.073 131.738 88.6134 131.623 89.1285C131.589 89.2834 131.722 90.4698 131.519 89.6627C131.477 89.4919 131.346 88.0678 131.357 89.3121C131.36 89.5201 131.33 91.203 131.107 90.1442C131.048 89.8652 130.85 88.7072 130.809 88.8971C130.805 88.9321 130.907 89.5611 130.863 89.6285C130.705 89.8563 130.516 89.8079 130.352 90.027C130.311 90.0834 130.434 90.6666 130.392 90.7897C130.31 90.7517 130.225 90.697 130.147 90.6344C130.067 90.5686 130.026 90.0179 130.012 89.9596C129.776 89.0119 129.94 90.3163 129.926 90.3961C129.836 90.8751 129.609 90.287 129.484 90.4723C129.449 90.5219 129.58 91.1344 129.581 91.192C129.583 91.7446 129.466 90.6238 129.391 90.5104C129.182 90.1889 129.019 90.2672 128.877 90.3717C128.825 90.4124 129.006 91.1163 128.959 91.1442C128.678 91.317 128.352 91.3 127.993 90.9537C127.925 90.8872 127.868 90.3299 127.836 90.2057C127.611 89.3372 127.692 90.5594 127.684 90.6784C127.649 91.2211 127.52 90.7422 127.428 90.8502C126.977 91.3913 126.272 91.1783 125.741 91.0631C125.053 90.9158 124.455 90.4778 123.862 90.7203C123.824 90.7363 123.991 91.4608 123.96 91.484C123.553 91.7362 123.076 91.5245 122.674 91.8131C122.642 91.8399 122.814 92.5196 122.765 92.5797C122.666 92.7061 122.512 92.6943 122.352 92.4938C122.275 92.3971 122.248 91.788 122.173 91.7028C121.996 91.5035 121.843 91.4797 121.722 91.6159C121.672 91.677 121.887 92.3693 121.81 92.3912C121.297 92.5549 120.799 92.7694 120.103 91.9459C120.055 91.8869 119.762 90.4533 119.734 90.7438C119.801 91.1452 119.886 91.6162 119.961 92.0446C119.234 92.4136 118.39 92.0517 117.605 92.1178C117.575 92.1283 117.77 92.8728 117.708 92.8834C117.348 92.9387 117.032 93.2164 116.523 92.527C116.473 92.4582 116.237 91.114 116.166 91.3375C116.153 91.3783 116.025 91.5883 116.039 91.8873C116.042 91.9323 116.19 92.5518 116.142 92.5817C115.854 92.7352 115.512 92.6524 115.135 92.3287C115.074 92.2738 114.997 91.5981 114.952 91.5543C114.64 91.2479 114.467 91.8077 114.114 91.2496C113.879 90.873 113.705 89.7101 113.395 88.5934C113.351 88.4359 113.249 88.4296 113.112 87.7711C112.768 86.1156 112.453 84.2905 112.081 82.527C112 82.1472 111.948 82.5838 111.844 81.6481C111.837 81.5851 111.874 81.2607 111.837 80.944C111.811 80.7249 111.647 80.0605 111.627 79.777C111.607 79.494 111.758 80.048 111.754 79.7116C111.746 79.3717 111.569 78.6146 111.667 78.5006C111.902 78.2417 112.292 78.3926 112.622 78.6403C112.723 78.7173 112.762 79.1414 112.835 79.2135C112.977 79.3539 113.046 79.1288 113.194 79.3004C113.243 79.3599 113.324 80.0281 113.373 80.0748C113.638 80.3259 113.807 80.1197 114.048 80.2194C115.229 80.7122 116.308 80.7691 117.417 80.8785C117.786 80.9134 118.316 81.437 118.629 81.11C118.665 81.0699 118.537 80.499 118.536 80.4469C118.531 79.6925 118.7 80.8689 118.808 81.0114C119.242 81.5682 119.612 81.5577 119.887 81.278C120.003 81.1566 119.665 80.0285 119.913 80.652C119.93 80.696 120.006 81.3164 120.053 81.3756C120.162 81.5089 120.299 81.3713 120.372 81.4088C120.513 81.4842 120.534 81.4738 120.65 81.4606C120.811 81.4478 121.056 81.7208 121.203 81.5514C121.234 81.5134 121.076 80.8901 121.115 80.7721C121.154 80.6546 121.317 80.6811 121.395 80.8209C121.473 80.9609 121.538 81.461 121.567 81.5739C121.81 82.5222 121.759 81.1595 121.775 81.1227C122.096 80.4893 122.586 81.1852 122.98 81.1159C123.276 81.0618 123.556 80.7564 123.845 80.7428C124.193 80.7283 124.533 81.0232 124.855 80.9088C124.889 80.8975 124.724 80.1595 124.764 80.1442C125.199 79.9821 125.662 79.9887 126.195 80.4166C126.248 80.4626 126.299 81.122 126.358 81.2057C126.721 81.6974 127.37 82.9165 127.064 80.0436C127.269 80.124 127.516 80.2015 127.775 80.7477C127.943 81.0995 127.955 81.829 128.037 81.5035C128.055 81.4294 127.916 80.8157 127.951 80.7526C128.102 80.4935 128.341 80.6624 128.474 80.3102C128.501 80.237 128.4 79.6792 128.394 79.5768C128.352 78.7472 128.721 80.069 128.77 80.1627C128.826 80.2662 128.876 80.3472 128.922 80.4098C128.952 80.3938 129.061 80.4015 129.093 80.3873C129.329 80.7565 129.467 80.5323 129.661 80.527C129.713 80.5231 129.571 79.7759 129.619 79.7477C129.872 79.6112 130.149 79.6468 130.445 79.9528C130.511 80.0226 130.531 80.6707 130.566 80.7389C130.722 81.0236 130.611 79.8048 130.757 80.0543C130.787 80.1066 130.837 80.6584 130.848 80.7184C131.028 81.6596 130.933 80.3068 130.947 80.275C131.128 79.8428 131.439 81.2303 131.636 81.0055C131.659 80.9772 131.516 80.2871 131.586 80.2496C132.058 79.9977 132.595 80.1252 133.158 80.6178C133.245 80.6937 133.26 81.2225 133.273 81.2868C133.484 82.2836 133.356 80.9277 133.374 80.8737C133.52 80.4823 133.857 81.5886 133.771 79.9645C134.674 80.4098 135.359 79.391 136.396 80.7018C136.409 80.7168 136.491 81.379 136.516 81.4098C136.826 81.7433 136.621 80.7207 136.591 79.4362C136.583 79.1151 136.944 80.6095 136.974 80.7233C137.079 81.1268 137.19 82.1169 137.217 82.1969C137.429 82.8033 136.902 79.548 137.053 79.5231C137.059 79.5304 137.133 80.1289 137.155 80.1881C137.224 80.3689 137.226 80.1252 137.298 80.3248C137.463 80.7882 137.747 82.3654 137.738 81.4225C137.735 81.2959 137.416 79.4576 137.565 79.5231C137.625 79.5507 137.86 79.4809 137.947 79.5895C138.033 79.6979 138.084 80.2957 138.094 80.3248C138.404 81.0819 138.388 81.4196 138.67 82.569C138.952 83.7141 138.473 80.9513 138.46 80.6364C138.447 80.3224 138.687 80.9495 138.758 81.1696C138.828 81.3898 138.85 81.7743 138.9 81.8971C139.233 82.6989 138.758 80.5098 138.749 80.0602C138.725 78.9964 139.185 81.0255 139.357 81.2047C139.404 81.2527 139.295 80.7911 139.321 80.7418C139.424 80.5538 139.611 81.1788 139.662 80.567C139.67 80.4644 139.582 79.2161 139.814 80.1061C139.848 80.2352 139.903 80.7499 139.978 80.8551C140.091 81.0126 140.262 81.098 140.323 80.9118C140.367 80.7728 140.147 79.9471 140.275 80.193C140.332 80.3032 140.349 80.8066 140.449 80.9733C140.549 81.1393 140.724 81.087 140.789 81.0582C140.853 81.0292 140.706 80.4001 140.704 80.3541C140.694 80.1024 140.77 79.7721 140.782 79.7701C141.345 79.5919 142.068 80.5724 142.569 80.1168C142.608 80.0823 142.463 79.4264 142.465 79.403C142.566 79.0943 142.765 80.9034 142.977 81.483C142.719 80.1217 142.825 80.3564 142.905 80.1881C142.943 80.1057 142.821 79.5819 142.816 79.527C142.749 78.7115 142.988 79.7383 143.04 79.9479C143.23 80.7184 143.12 79.7877 143.247 80.3024C143.374 80.8135 143.431 81.5944 143.532 81.567C143.473 81.0734 143.17 79.8102 143.211 79.5895C143.364 78.7557 144.091 79.6579 144.345 79.7203C144.6 79.7822 144.661 79.6786 144.829 79.8307C145.134 80.1055 144.875 79.1746 144.952 78.7135C145.03 78.2523 145.37 80.5964 145.481 81.0934C145.592 81.5893 145.523 81.0706 145.599 81.3405C145.675 81.6109 145.678 81.9623 145.76 82.0543C145.841 82.1455 145.856 81.2247 145.786 80.6969C145.637 79.5786 145.351 78.4272 145.594 78.8063C145.608 78.8288 145.685 79.4472 145.733 79.5026C146.11 79.9222 146.423 79.8976 146.79 80.2633C146.841 80.3145 146.925 81.0015 146.956 81.0397C147.081 81.1925 147.113 81.1144 147.101 80.8854C147.076 80.5249 146.921 79.7972 146.834 79.0055C147.166 80.6989 147.462 81.7158 147.652 81.6852C147.766 81.6673 147.585 80.9346 147.543 80.4C147.53 80.2401 147.72 80.7266 147.658 80.3776C147.454 79.2364 147.1 77.9871 147.396 78.4489C147.41 78.471 147.523 79.0964 147.559 79.1276C147.798 79.3308 147.552 78.1446 147.715 77.9567C147.841 77.8096 148.282 78.4664 148.485 78.5416C148.928 80.4305 148.997 79.9571 148.752 78.6403C148.878 78.6661 148.985 78.563 149.137 78.7155C149.19 78.7675 149.299 79.3198 149.318 79.3776C149.618 80.2843 149.36 79.0074 149.372 78.9518C149.52 78.4054 149.978 79.3066 149.997 78.3073C149.996 78.2657 149.679 76.964 149.989 77.8981C150.01 77.9626 150.079 78.578 150.21 78.5934C150.341 78.6092 150.749 79.2496 150.759 78.6022C150.761 78.446 150.584 77.3615 150.884 78.1666C150.924 78.2767 151.011 78.6526 151.082 78.8561C151.308 79.5051 150.986 78.1813 151.344 79.2838C151.702 80.3861 152.053 81.1891 152.017 80.3717C152.016 80.3437 151.776 79.2955 151.834 79.2965C151.926 79.3008 152.106 79.485 152.193 79.4537C152.233 79.4346 152.031 78.8037 152.034 78.7858C152.218 78.3456 152.578 78.8659 152.955 79.0289C153.025 79.0598 152.933 78.1355 153.24 78.7994C153.577 79.526 154.362 82.7244 154.426 81.8912C154.454 81.5564 153.425 77.5064 154.23 79.525C154.463 78.898 155.137 79.8517 155.302 79.0016C155.309 78.9638 155.023 77.833 155.068 77.8356C155.135 77.8419 155.328 78.351 155.382 78.3737C155.609 78.4755 155.638 77.9782 155.831 77.9938C155.904 77.9985 156.049 78.5431 156.137 78.5485C156.225 78.5529 156.056 77.8301 156.269 78.1383C156.431 78.3747 156.969 79.7919 157.132 79.9264C156.682 78.5004 156.765 78.5058 156.774 78.0885C156.775 78.0067 156.59 77.5204 156.583 77.4567C156.549 77.1868 156.725 77.5821 156.681 77.2907C156.671 77.2204 156.515 76.7348 156.497 76.6491ZM130.392 90.7897C130.466 90.8234 130.538 90.844 130.605 90.8395L130.243 90.8873C130.294 90.8757 130.342 90.8509 130.385 90.8073C130.388 90.8034 130.39 90.797 130.392 90.7897ZM113.725 88.192C113.717 88.1614 113.64 88.1454 113.644 88.1764C113.753 88.9295 113.908 88.9612 113.725 88.192ZM139.554 82.3561C139.547 82.3213 139.49 82.299 139.524 82.4967C139.635 83.1363 139.677 82.9436 139.554 82.3561ZM155.524 81.0914C155.105 80.1155 155.472 81.6253 155.788 82.3815C156.105 83.1361 155.652 81.3877 155.524 81.0914ZM136.303 81.3776C136.289 81.3118 136.115 81.2746 136.119 81.3366C136.216 82.5781 136.572 82.6568 136.303 81.3776ZM156.493 79.9879C156.112 79.2352 157.099 82.4812 157.041 81.7809C157.036 81.7363 156.515 80.0315 156.493 79.9879ZM144.021 81.2184C144.116 81.9731 144.271 82.0075 144.101 81.235C144.094 81.2044 144.018 81.1878 144.021 81.2184ZM157.413 78.8151C157.231 78.3917 157.273 78.9342 157.5 79.4606C157.683 79.8839 157.64 79.3415 157.413 78.8151ZM148.5 78.5905C148.4 77.8294 148.467 77.7209 148.751 78.6393C148.664 78.6077 148.586 78.6183 148.5 78.5905ZM158.384 75.6959C158.458 75.7309 158.551 76.5837 158.704 76.7985C158.985 77.1891 158.503 75.4947 158.943 76.3405C159.024 76.4963 159.397 78.1171 159.379 78.1237L159.378 78.1198C159.043 78.0991 157.974 75.5041 158.384 75.6959Z" fill="#FA8282"/>
<path d="M98.0546 0.148442C99.7036 -0.414877 99.637 2.07642 99.7021 2.22364C100.453 3.78943 102.408 2.34968 102.892 2.29786C105.084 2.05294 106.833 2.66198 108.663 2.56543C109.86 2.50702 110.235 0.923253 111.148 1.12598C111.851 1.2831 112.429 1.53785 112.939 1.81836C114.663 2.76859 115.526 3.9003 118.281 3.10352C119.048 2.90897 118.973 0.960558 120.924 3.14356C121.068 3.28233 122.246 5.13492 123.458 4.8086C123.613 4.76709 123.825 4.29511 123.994 4.32422C124.464 4.41007 124.815 4.5778 125.154 4.77051C125.622 5.03665 126.058 5.34647 126.72 5.53907C127.854 5.86901 129.239 6.22632 130.342 6.98047C131.007 7.43417 131.476 8.75758 131.705 9.14161C132.344 10.236 133.88 9.78218 134.084 10.8223C134.286 11.8667 132.55 12.3668 133.834 13.6572C134.525 12.5018 135.309 11.3557 136.041 10.2139C137.453 10.9947 138.823 11.8455 140.187 12.7305C142.104 13.9734 144.039 15.3049 146.023 16.6523C146.445 16.9377 146.434 16.0458 146.899 16.3408C148.868 17.605 150.104 19.2581 151.992 20.5713C152.123 20.6621 152.26 20.7508 152.4 20.8389C153.801 21.7103 155.546 22.369 156.915 23.3486C156.734 25.2419 159.093 26.6627 160.442 28.1104C160.915 28.6159 160.6 28.8856 160.867 29.3184C161.874 30.9446 162.176 29.3645 162.693 29.5576C164.911 30.4095 162.917 32.754 164.791 34.502C164.819 34.5282 165.021 34.5482 165.302 34.5654C166.031 34.6112 167.304 34.6603 167.474 34.7295C168.988 35.3346 167.236 35.3036 167.792 36.0557C168.803 37.4376 169.311 38.5584 170.989 39.749C171.477 40.0907 173.181 40.5138 173.287 41.9004C173.301 42.0818 172.828 42.36 172.879 42.4727C173.815 44.4822 175.178 43.4794 176.394 44.1133C176.778 44.3162 177.059 44.6773 177.264 45.0957C177.7 45.9912 177.77 47.1412 177.737 47.4893C177.619 48.8172 176.981 47.0874 176.878 47.0957C175.676 47.1918 176.632 48.1858 177.171 49.0869C175.904 50.1838 176.821 51.3041 177.732 50.0176C177.83 49.8739 177.231 49.3005 177.171 49.0869C179.035 48.8711 180.165 50.1033 179.893 52.4414C179.758 53.5346 178.638 53.3389 180.266 55.2734C180.999 56.1582 181.731 55.1668 182.54 55.8613C184.18 57.2759 184.861 59.9314 185.88 61.9209C186.011 62.177 186.15 62.4249 186.298 62.6563C186.767 63.3947 186.917 62.3467 187.257 62.8438C188.161 64.1694 188.381 65.6335 189.3 66.9639C189.384 67.0843 189.822 66.4756 190.048 66.9219C191.769 70.314 192.69 73.5302 194.049 77.249C194.527 78.5555 195.421 80.5666 196.042 82.3232C196.276 82.9808 196.474 83.6012 196.606 84.127C197.465 87.4745 197.497 91.775 198.276 94.5781C198.783 96.4143 199.348 95.8879 199.937 96.6172C201.083 98.0393 199.948 101.075 199.75 101.469C199.742 101.463 199.362 99.8807 199.15 100.79C198.522 101.388 199.744 101.45 199.75 101.469C199.641 101.736 199.874 105.011 200.045 105.653C200.146 106.001 200.75 105.747 200.791 105.931C200.813 106.031 200.834 106.131 200.855 106.23C201.755 110.508 201.991 114.944 201.465 119.366C201.447 119.445 200.757 119.288 200.726 119.473C200.263 122.054 200.947 123.784 201.18 126.014C201.198 126.192 201.211 126.367 201.221 126.537C201.327 128.504 200.814 130.083 199.492 131.053C199.32 132.736 198.191 134.978 197.47 136.189C196.755 137.4 197.969 138.012 197.957 138.14C197.688 140.552 196.933 142.136 196.021 143.777C195.452 144.795 194.813 145.838 194.141 147.121C193.313 148.716 191.872 151.936 191.078 153.69C190.457 155.081 189.732 155.724 189.219 157.037C189.148 157.215 189.769 157.349 189.761 157.411C189.608 159.132 188.7 157.739 188.311 157.885C186.891 158.411 186.099 158.76 185.446 160.697C185.374 160.907 185.578 161.512 185.776 162.18C186.001 162.946 186.214 163.8 186.019 164.226C185.533 165.263 185.131 164.487 184.621 165.583C184.576 165.676 184.981 165.923 184.538 166.53C182.706 169.081 180.165 171.796 177.893 174.077C177.651 174.323 177.409 174.571 177.17 174.817C176.828 175.165 177.801 175.252 177.312 175.765C175.018 178.172 172.195 180.604 169.372 182.301C168.676 182.716 168.764 181.994 168.532 181.974C167.129 181.856 166.704 183.824 166.504 183.993C166.445 184.044 166.386 184.095 166.327 184.146C161.812 187.923 157.499 188.983 152.565 192.108C152.516 192.14 152.423 192.244 152.299 192.388C151.754 193.039 150.233 194.63 148.833 194.062C148.71 194.022 147.105 193.27 146.335 194.426C146.287 194.498 147.232 194.902 145.905 195.235C144.581 195.564 142.706 196.46 140.982 196.077C140.678 196.012 140.11 195.674 139.45 195.6C138.921 195.538 138.326 195.651 137.757 196.229C137.679 196.324 135.839 199.018 134.741 197.595C134.565 197.359 134.402 195.678 132.812 196.834C132.508 197.057 133.178 197.324 132.338 197.707C131.047 198.296 129.183 198.143 127.628 199.138C127.357 199.314 126.277 200.633 125.152 199.912C124.977 199.799 125.194 199.2 124.659 199.211C122.115 199.258 119.52 199.953 116.899 199.819C115.973 199.771 116.352 198.821 115.383 198.665C115.366 198.662 115.348 198.659 115.331 198.656C114.346 198.507 112.477 198.432 111.531 198.902C110.566 199.382 111.747 200.764 110.253 200.971C103.735 201.852 97.2331 201.014 90.7519 200.551C90.1774 200.509 90.2188 200.69 90.0468 200.83C89.9283 200.925 89.7114 201.001 89.1328 200.97C83.9376 200.77 74.6292 200.039 70.3007 197.919C70.2784 197.908 70.2554 197.898 70.2334 197.888C66.8163 196.231 71.4851 196.576 68.831 195.614C67.5648 195.15 65.7357 196.429 65.3974 196.396C62.1287 196.103 60.1713 194.734 57.3203 194.001C56.7293 193.846 57.0701 194.69 56.5654 194.548C55.4787 194.245 54.4124 193.746 53.373 193.262C52.7638 192.978 52.1634 192.699 51.5683 192.467C50.8468 192.186 50.768 192.721 50.1279 192.393C48.5987 191.608 47.324 190.742 46.0898 189.546C45.981 189.438 47.168 189.327 46.082 188.73C44.464 187.84 42.7397 186.379 40.8007 185.569C40.629 185.498 40.4548 185.432 40.2783 185.371C39.635 185.149 38.9744 186.15 38.1953 184.678C38.0318 184.366 39.1346 183.38 37.0527 183.498C36.7123 183.529 33.3843 183.299 32.8681 181.583C32.7303 181.134 32.6672 179.635 31.914 179.297C31.8083 179.254 31.7744 180.034 31.1982 179.676C30.4483 179.203 29.7154 178.681 28.9902 178.137C27.763 177.216 26.5559 176.232 25.3105 175.308C24.7807 174.914 25.0784 176.063 24.2998 175.455C22.1547 173.783 19.8029 171.265 18.1181 169.097C17.4983 168.297 18.3757 168.446 18.3701 168.351C18.3541 167.957 18.2481 167.69 18.0937 167.505C17.6535 166.976 16.7989 167.105 16.5673 166.919C14.6397 165.335 13.9966 163.457 12.5917 161.709C12.2063 161.222 11.9363 161.937 11.8203 161.867C10.6449 161.098 12.114 161.271 11.7705 160.527C11.0897 159.033 10.2293 157.527 9.38765 156.08C9.06817 155.532 8.74464 154.991 8.42964 154.462C8.02074 153.774 7.81242 154.912 7.4521 154.287C5.88265 151.517 4.37749 148.711 3.27241 144.806C2.92189 143.479 2.69703 142.223 2.54585 141.013C2.44514 140.16 3.10321 140.574 3.19234 140.375C3.82196 139.023 2.35543 137.552 2.18355 137.165C1.40254 135.461 1.81729 134.714 1.56734 133.183C1.03118 129.856 0.80205 126.217 0.764601 122.62C0.632053 117.905 1.42605 112.805 2.16987 109.133C2.53924 107.255 2.93152 105.518 3.33003 103.831C4.8204 97.5922 6.30953 92.2206 7.6562 85.8086C7.76585 85.293 6.92276 85.6446 7.00776 85.1982C8.04567 79.9618 9.46894 74.919 10.748 69.6416C10.884 69.0858 11.0168 68.5365 11.1484 67.9863C11.2692 67.4915 10.3929 68.0053 10.5634 67.2109C10.9131 65.5715 11.5706 63.4958 12.4521 61.7549C12.8805 60.9171 13.0069 62.3025 13.4306 61.4551C14.3922 59.5123 15.7189 57.0231 16.957 55.0957C17.4657 54.284 16.0439 55.0473 16.7548 54.0303C17.0608 53.5968 17.3559 53.1925 17.6406 52.8057C21.5818 47.457 25.8913 42.4685 31.1757 38.3145C31.4509 38.0988 31.7321 37.8819 32.0117 37.6719C32.4265 37.3604 33.7614 38.1081 34.3486 37.167C34.1285 36.8156 33.7974 36.4706 33.5253 36.1299C38.5517 31.2053 43.9016 26.9132 49.5078 22.7832C52.4476 20.6287 55.5148 18.5022 58.7626 16.4981C59.1609 16.2526 58.0598 16.0227 58.8349 15.543C59.9615 14.8489 61.0876 14.1734 62.2001 13.5352C65.3106 11.7619 68.8507 9.70917 73.3984 8.7334C73.8706 8.63582 74.0591 9.4736 74.8925 9.48731C75.1089 9.49513 75.371 9.44386 75.7031 9.30274C75.9725 9.16901 78.3334 8.38347 78.8876 7.9795C78.962 7.91737 78.3894 7.38632 79.165 7.20508C83.6952 6.17923 88.3273 5.91822 92.6484 6.11622C93.3482 6.15072 92.6366 6.86042 93.1318 6.89161C96.6181 7.10963 100.374 6.59786 103.632 7.2959C105.807 7.76979 104.957 8.9227 106.069 10.1162C106.222 10.2838 107.56 10.3636 107.596 11.0391C107.697 12.7356 106.986 14.5586 107.17 16.3701C107.205 16.7587 108.968 16.4206 107.893 17.3106C107.816 17.3692 106.549 17.6273 106.228 17.9346C106.007 18.1465 106.365 18.8442 105.92 19.1094C105.477 19.3747 105.014 18.7841 104.284 19.0938C103.552 19.409 103.852 20.1924 102.421 20.2539C99.1085 20.3893 94.8199 20.2099 91.6171 20.1035C90.6078 20.0708 91.0933 19.6158 90.3925 19.5791C89.0284 19.5118 87.8035 19.8344 86.4834 19.7949C86.0463 19.7806 86.5014 19.0481 86.039 19.0498C83.5024 19.072 81.2236 19.6542 78.9189 20.1553C78.6869 20.2061 78.4535 20.2598 78.2285 20.3145C75.1643 21.0371 71.9195 22.6511 68.414 24.4902C64.274 26.6179 60.4447 29.1206 56.5576 31.9629C53.0539 34.5235 49.5895 37.2523 46.1914 40.0889C43.9461 41.9648 41.2839 44.0025 38.9072 46.1807C37.6629 47.3204 36.4913 48.5052 35.4863 49.71C35.1461 50.12 35.793 50.2905 35.7597 50.3975C35.2337 52.058 34.7154 50.8677 33.9013 51.5283C31.1641 53.7649 28.6117 56.6655 26.6015 59.5391C26.2425 60.051 25.9142 60.5441 25.6298 61.0127C24.8749 62.3141 26.6547 61.7236 25.3466 62.5723C25.2574 62.635 24.9059 62.0023 24.6474 62.3066C24.0498 62.983 23.4407 64.6238 23.1367 65.3301C22.5364 66.6741 22.4705 66.9237 22.0302 68.3174C21.651 69.5301 21.1354 70.8922 20.7011 72.2998C20.4563 73.0914 20.2348 73.9095 20.0849 74.7022C19.9976 75.1732 20.7746 74.724 20.6953 75.4775C20.613 76.2374 20.0767 78.1651 19.7695 78.7881C19.4622 79.4076 19.0415 79.0097 18.9003 79.0977C17.7164 79.8267 18.4887 82.4088 18.4541 82.7051C17.7532 88.1449 15.9753 92.545 14.9033 97.5566C14.3316 100.243 13.8713 103.09 13.4111 105.787C13.219 106.913 13.0276 108.013 12.8291 109.066C12.032 113.354 11.1474 116.824 11.206 120.855C11.2115 121.286 11.9648 120.783 11.9746 121.306C11.9822 121.672 11.9928 122.041 12.0039 122.417C12.1729 127.78 12.3705 133.095 12.8759 138.186C12.9338 138.733 12.1433 138.17 12.165 138.729C12.2096 139.691 12.2586 140.811 12.4375 141.927C12.8931 144.729 14.439 147.846 16.9472 148.164C17.3706 149.067 17.8545 150.05 18.3193 151.046C18.9334 152.371 19.5273 153.691 19.9013 154.88C20.3293 156.207 18.9988 155.522 20.1923 156.729C20.4627 156.997 20.7039 156.239 21.0683 156.663C22.3753 158.182 23.6106 159.945 25.0742 161.357C25.3259 161.601 25.5853 161.835 25.8505 162.054C26.2188 162.355 26.5483 161.875 26.7128 161.903C28.0564 162.149 28.3875 164.413 28.624 164.776C30.3574 167.489 32.3194 168.81 34.5927 170.678C34.7563 170.811 34.8553 170.799 34.9287 170.729C34.9505 170.709 34.9698 170.683 34.9882 170.654C35.0695 170.529 35.1288 170.352 35.2548 170.321C35.3159 170.307 35.3935 170.326 35.496 170.402C38.2104 172.433 41.0157 174.497 43.6572 176.573C44.2439 177.036 43.3194 177.218 43.583 177.468C44.2102 178.052 44.7767 178.079 45.3378 178.129C45.8297 178.172 46.3175 178.233 46.8574 178.695C47.1023 178.903 46.6685 179.291 46.6875 179.373C46.9919 180.661 48.356 179.874 48.5683 179.958C51.308 181.01 52.3432 183.103 55.0488 184.06C55.3696 184.168 54.9465 183.227 55.8281 183.569C56.2328 183.725 56.6395 183.879 57.0498 184.032C61.9113 185.843 67.1348 187.461 72.208 188.939C72.9096 189.144 73.6082 189.345 74.3027 189.543C75.2564 189.812 74.4697 190.198 74.5156 190.274C75.3362 191.462 76.2318 190.234 76.5546 190.237C79.1128 190.299 81.3475 191.732 83.249 190.309C85.6762 190.703 88.1306 190.949 90.5957 191.108C98.6329 191.624 106.626 191.246 114.692 191.521C114.982 191.53 115.273 191.541 115.564 191.553C115.702 191.558 115.521 192.246 115.797 192.251C119.129 192.292 118.394 191.313 120.395 189.791C120.895 189.409 122.749 190.716 122.914 190.807C123.507 191.145 123.085 192.209 123.276 192.264C124.859 192.681 124.153 189.455 126.14 189.157C126.202 189.156 126.032 189.793 126.208 189.827C126.756 189.936 127.234 189.618 127.776 189.744C129.013 190.037 129.699 191.551 131.325 190.327C131.532 190.168 130.868 188.388 132.656 188.16C133.367 188.076 136.48 187.457 137.371 187.396C137.59 187.383 137.724 187.415 137.806 187.471C137.958 187.572 137.93 187.755 137.891 187.892C137.864 187.987 137.833 188.06 137.853 188.064C137.879 188.068 137.903 188.071 137.928 188.074C140.348 188.372 139.546 188.88 140.975 189.763C142.428 190.636 141.461 187.978 141.849 187.562C142.244 187.154 144.041 187.333 144.518 187.403C144.991 187.487 144.609 188.018 145.012 188.02C147.713 187.934 145.555 186.334 146.131 185.63C146.768 184.802 147.602 184.666 148.53 184.658C149.486 184.654 150.519 184.795 151.386 184.462C151.848 184.283 151.272 184.049 151.638 183.808C153.078 182.855 154.31 182.921 155.715 181.427C155.95 181.181 156.663 179.313 158.003 179.562C158.196 179.598 158.117 180.257 158.803 179.969C159.715 179.587 161.184 178.766 162.102 178.008C162.216 177.914 162.321 177.822 162.416 177.732C163.052 177.129 161.752 177.004 162.786 176.593C163.246 176.406 162.811 177.338 163.656 176.948C164.504 176.567 166.331 175.116 166.996 174.53C167.665 173.95 166.875 173.764 166.902 173.685C167.075 173.221 168.127 171.889 168.233 171.788C169.506 170.623 170.757 169.476 171.985 168.322C175.138 165.429 177.86 162.338 180.175 158.682C180.859 157.608 181.509 156.492 182.111 155.342C182.381 154.827 181.597 154.815 181.632 154.733C182.377 152.882 183.166 155.142 184.388 154.235C183.084 153.722 183.713 153.137 184.261 151.839C184.522 151.213 183.875 151.275 183.856 151.194C183.624 149.931 184.874 149.827 185.15 149.77C186.163 149.561 185.674 148.484 186.352 148.332C187.027 148.175 187.234 149.462 187.851 148.257C187.583 147.695 185.975 147.981 186.255 146.982C186.752 145.195 187.915 142.928 189.054 140.708C190.323 138.257 191.512 135.828 192.019 134.318C192.971 131.451 193.038 130.463 193.549 128.76C194.258 126.207 193.584 126.421 193.25 125.471C193.175 125.264 193.114 124.999 193.079 124.64C192.874 122.626 195.111 123.837 195.65 123.607C196.187 123.375 195.699 123.008 196.012 122.678C196.324 122.347 196.595 123.155 196.779 122.322C196.971 121.48 196.22 119.106 195.696 118.79C194.598 118.112 193.383 119.07 193.876 116.926C193.904 116.801 194.514 117.226 194.591 116.748C195.093 113.484 195.069 110.071 195.062 106.729C195.062 106.174 195.061 105.618 195.064 105.066C195.068 104.532 195.806 104.932 195.815 104.618C195.882 101.347 194.85 102.629 193.328 101.083C195.088 101.228 196.017 100.104 195.606 97.6553C195.353 96.1885 194.654 96.575 193.954 95.7402C193.744 95.4913 194.044 94.3688 193.658 94.2549C192.393 93.8862 191.34 95.0999 191.307 92.5693C191.306 92.4574 192.002 92.6557 191.955 92.2783C191.64 89.8358 190.395 89.8402 189.563 87.3613C189.309 86.6166 189.103 85.6158 188.898 84.5371C188.572 82.8017 188.232 80.8581 187.8 79.4727C189.645 78.8562 188.429 76.8804 186.846 76.5498C186.327 75.1114 185.608 73.6278 185.164 72.2061C185.011 71.7183 185.658 71.787 185.688 71.7041C186.14 70.4028 184.67 70.3453 184.482 70.0732C183.186 68.1176 182.51 66.1694 181.491 64.3447C180.939 63.3568 180.286 62.412 179.383 61.5508C179.29 61.4632 178.036 61.9859 178.409 60.7012C178.435 60.6143 179.548 61.2648 178.752 59.8633C177.962 58.4678 176.912 55.4991 175.115 54.0059C174.682 53.6401 173.01 53.1544 173.061 51.7676C173.07 51.5808 173.477 51.4844 173.527 51.1865C173.678 50.2257 172.358 50.7288 172.809 49.3916C172.921 49.0564 172.985 48.6856 172.985 48.2998C172.985 47.1436 172.408 45.8205 170.861 44.8457C170.796 44.8027 169.617 45.0556 169.178 44.4951C168.476 43.5953 167.587 42.2169 166.779 41.334C166.393 40.9115 166.141 41.6337 166.065 41.5684C164.564 40.2089 163.433 38.9376 162.287 37.5742C161.263 36.3572 160.228 35.0727 158.899 33.6436C158.384 33.0854 156.181 32.2748 155.592 30.7588C154.935 29.0938 158.387 27.764 155.077 25.8525C153.879 25.1637 150.448 26.5967 149.27 24.5449C149.123 24.2913 149.012 23.9889 148.937 23.6201C145.257 21.1057 142.204 18.0869 138.234 16.1406C137.57 15.8097 136.883 15.5066 136.169 15.2383C135.944 15.1529 134.738 15.8188 134.264 15.5439C133.561 15.1335 133.422 14.4424 132.925 14.1367C130.842 12.8441 128.639 12.2359 126.566 11.1221C125.778 10.7013 126.307 10.3343 125.362 9.83594C124.629 9.45166 123.882 9.57867 123.054 9.22364C122.808 9.11849 122.56 8.97454 122.3 8.76563C121.428 8.0666 121.035 6.2182 119.632 5.51368C119.061 6.90375 118.12 6.49233 116.303 6.43164C115.954 6.42218 116.179 7.01613 116.009 7.03809C115.324 7.14236 114.839 6.59274 114.174 6.75293C114.015 6.79221 113.906 7.29102 113.77 7.35157C113.19 7.61944 112.537 7.39076 111.988 7.06739C111.448 6.74766 111.012 6.33384 110.885 6.21094C109.89 5.27004 109.258 5.84124 108.444 5.40918C107.628 4.97797 108.977 4.81093 107.996 4.47364C105.96 3.77551 103.248 3.47767 101.114 3.19043C100.261 3.07892 100.761 3.82742 100.637 3.82715C98.8628 3.78248 97.1468 2.87324 96.0429 4.13477C95.4089 1.57882 95.1102 2.76325 94.1416 3.35645C93.7366 3.60134 93.2262 3.74744 92.5039 3.50293C92.3118 3.43401 92.1328 1.76265 92.9277 1.5625C93.3121 1.46805 93.769 1.5561 94.2705 1.64454C94.81 1.74023 95.3915 1.83534 95.9697 1.68946C96.2272 1.62116 97.8421 0.219781 98.0546 0.148442ZM113.131 192.421C113.073 192.361 110.903 192.455 110.836 192.518C109.778 193.839 114.202 193.654 113.131 192.421ZM151.969 185.475C151.935 185.453 151.314 185.738 151.419 185.91C151.755 186.468 152.522 185.863 151.969 185.475ZM194.035 141.397C192.959 142.26 195.077 143.388 195.079 141.925C195.073 141.851 194.09 141.352 194.035 141.397ZM191.12 140.909C191.096 140.917 190.941 141.23 190.822 141.487C190.748 141.649 190.689 141.787 190.695 141.802C190.912 142.15 191.2 141.998 191.369 141.729C191.581 141.39 191.609 140.878 191.12 140.909ZM186.847 76.5547C187.175 77.5073 187.531 78.4549 187.836 79.4199C186.77 78.7331 186.258 77.6617 186.847 76.5547ZM143.647 15.7266C143.108 14.4132 141.367 15.4768 141.618 16.0029C142.405 17.7222 144.159 17.0341 143.647 15.7266ZM101.744 10.3652C102.269 9.61191 100.342 9.52576 100.745 10.3213C100.769 10.3526 101.719 10.3956 101.744 10.3652ZM128.037 7.41309C127.917 7.39695 126.99 8.93328 127.063 9.02344C128.307 10.5716 130.092 7.67251 128.037 7.41309ZM112.561 3.90528C111.919 3.80256 111.158 4.06822 111.588 4.56055C111.756 4.75381 112.076 4.85049 112.388 4.86426C112.97 4.89076 113.551 4.6434 113.171 4.19532C113.035 4.03971 112.813 3.94581 112.561 3.90528ZM84.6523 2.35059C88.7492 2.15271 91.0219 5.04017 86.8662 4.81348C86.1006 4.78988 88.4685 3.85247 87.4892 3.63868C85.6451 3.25168 84.6265 5.12352 82.6904 4.37891C82.3363 4.2415 84.4118 2.35152 84.6591 2.34571C84.6569 2.34719 84.6545 2.3491 84.6523 2.35059Z" fill="#FA8282"/>
<path d="M81.0978 60.8827C82.5273 60.3941 84.1518 60.1725 85.7794 60.3046C86.0405 60.3276 85.8807 61.04 86.0665 61.0633C87.3545 61.2221 88.7081 60.5687 89.9435 61.1317C90.7552 61.5142 90.5023 62.7009 90.9239 63.8456C90.9842 64.0065 91.4348 64.0265 91.462 64.6991C91.5284 66.3894 91.346 68.2424 91.4435 70.0438C91.4631 70.4311 91.969 70.0125 91.671 70.951C91.6492 71.0136 91.2923 71.3274 91.214 71.6473C91.1588 71.8684 91.2755 72.551 91.1632 72.8348C91.0529 73.1179 90.9107 72.5482 90.7306 72.8856C90.5575 73.228 90.6658 73.9999 90.3204 74.1102C89.5213 74.3598 88.4826 74.2598 87.5773 74.1151C87.2975 74.0697 87.3537 73.6286 87.1495 73.5809C86.7527 73.4895 86.4442 73.7679 86.0294 73.662C85.8904 73.6244 85.8942 72.9347 85.7491 72.912C84.9478 72.795 84.2807 73.1497 83.4767 73.2362C80.1317 73.6061 76.758 74.6292 73.3497 75.7997C72.8793 75.9464 72.4314 76.123 71.9718 76.3465C71.0619 76.7721 69.5221 77.2522 68.7316 78.3973C68.6408 78.53 69.118 78.8857 69.1319 78.9422C69.3239 79.7958 68.5997 78.8395 68.2648 78.951C66.947 79.391 65.9174 80.4457 65.256 81.5516C64.9748 82.0258 66.2144 82.3822 65.3644 82.3612C65.3059 82.3609 64.9216 81.8475 64.7735 81.9169C64.4361 82.0775 64.1022 82.6419 63.8976 82.8075C63.4935 83.1329 63.4445 83.2008 63.129 83.5672C62.6944 84.064 61.9525 84.4746 61.6095 85.118C61.5387 85.2555 62.1619 85.5064 62.0939 85.7626C62.0645 85.8719 61.9657 86.02 61.8409 86.161C61.6907 86.3286 61.4932 86.488 61.3517 86.5272C61.1079 86.5915 60.7646 86.2122 60.6515 86.1688C59.6953 85.8033 60.3279 87.2012 60.3019 87.2928C59.7581 88.9611 58.2998 89.7067 57.4034 91.0487C56.7274 92.0654 56.2334 93.3051 55.587 94.2753C54.8148 95.4303 53.9061 96.263 53.2716 97.4637C53.2057 97.59 53.9394 97.8262 53.8595 97.9803C53.0044 99.6191 52.0415 101.174 50.7315 102.557C50.5992 102.696 50.1258 102.175 49.9581 102.296C48.9475 103.034 46.9527 104.087 49.2599 105.947C49.0026 106.324 48.7246 106.75 48.3761 107.106C48.1394 107.346 47.8716 107.555 47.5509 107.7C47.0411 107.937 46.538 107.276 46.6153 107.883C46.6331 108.018 47.2749 108.121 47.2589 108.304C47.1948 109.061 46.7192 109.744 46.8038 110.517C46.8216 110.678 47.3707 110.819 47.4552 110.89C48.1335 111.462 46.6751 111.574 46.5411 111.676C45.5672 112.377 45.6794 113.146 45.4933 113.999C45.4507 114.197 46.2424 114.108 46.2296 114.299C46.1543 115.289 45.9682 116.26 45.5773 117.203C45.4886 117.415 44.8521 117.181 44.7765 117.282C44.4545 117.74 45.676 117.88 45.4073 118.303C45.3527 118.393 44.7999 118.34 44.7374 118.356C43.78 118.634 45.1406 118.859 45.172 118.92C45.603 119.746 44.2347 120.402 44.5401 121.252C44.5783 121.349 45.2452 121.037 45.3097 121.309C45.7451 123.136 46.0738 125.063 46.214 127.159C46.2353 127.483 45.665 127.447 45.6095 127.486C45.5159 127.556 45.4484 127.615 45.4034 127.666C45.0403 128.077 46.1198 127.873 46.1925 127.938C46.8039 128.536 46.0398 129.669 47.7394 129.508C48.5618 132.772 51.0565 135.036 51.9962 138.551C52.009 138.595 51.4367 138.951 51.4669 139.038C51.8056 140.02 52.4278 139.387 53.6456 139.053C53.7358 139.027 53.8293 139.003 53.9259 138.98C54.2709 138.895 53.4407 140.28 53.3898 140.394C53.1899 140.796 52.3263 141.326 52.3038 141.422C52.1588 142.206 54.5533 139.942 54.9571 140.372C54.9662 140.39 54.4709 140.747 54.461 140.826C54.4334 141.073 54.7167 141.02 54.6759 141.278C54.5759 141.867 53.5467 143.108 54.6085 142.839C54.7434 142.799 55.9634 141.383 56.2892 141.807C56.4177 141.983 57.1407 142.58 57.2687 142.84C57.3932 143.101 56.8744 143.447 56.8673 143.481C56.9291 144.564 56.5066 144.644 56.0792 145.811C55.6723 146.985 57.2996 144.698 57.6085 144.54C57.9147 144.383 57.9573 145.231 57.9386 145.498C57.9164 145.763 57.5548 145.975 57.5792 146.152C57.7684 147.319 58.6689 145.217 59.1329 144.997C60.208 144.455 59.4589 146.444 59.8556 146.925C59.9597 147.052 60.0977 146.582 60.2374 146.614C60.7824 146.743 60.7496 147.472 61.5773 147.246C61.7168 147.212 62.7237 146.333 62.5851 147.291C62.5654 147.43 62.2144 147.832 62.3692 148.041C62.5442 148.277 62.8827 148.551 63.2189 148.671C63.326 148.709 63.433 148.731 63.5333 148.73C63.8362 148.728 63.9066 147.822 64.1065 148.204C64.1968 148.374 63.7327 148.714 63.923 148.997C64.1117 149.281 64.808 149.55 65.0773 149.638C65.3465 149.726 65.4411 149.066 65.4786 149.034C65.6969 148.854 66.2946 148.749 66.3409 148.765C68.5355 149.498 70.3836 151.137 72.7677 151.277C72.9532 151.288 72.9743 150.595 73.004 150.59C73.671 150.436 72.8205 152.115 73.1388 152.8C73.3481 151.428 73.5551 151.727 74.0206 151.66C74.2443 151.626 74.2287 151.079 74.2579 151.027C74.7139 150.283 74.7387 151.357 74.7589 151.579C74.8295 152.395 75.216 151.512 75.2687 152.057C75.3251 152.6 74.8648 153.313 75.297 153.375C75.4959 152.905 75.3932 151.574 75.7452 151.419C77.0566 150.836 79.1573 152.12 80.1398 152.315C81.1082 152.514 81.4321 152.446 81.9913 152.669C83.0031 153.066 82.6932 152.079 83.3546 151.68C84.0165 151.278 83.5761 153.622 83.6407 154.136C83.7058 154.648 83.8349 154.131 83.9357 154.416C84.0372 154.701 83.7682 155.034 84.0362 155.152C84.3064 155.271 85.0891 154.399 85.2023 153.87C85.4448 152.751 85.1597 151.559 85.8439 151.997C85.8834 152.023 85.7329 152.641 85.8858 152.709C86.497 152.97 87.1338 153.11 87.7657 153.238C88.3767 153.364 88.9944 153.466 89.6134 153.648C89.7849 153.7 89.6663 154.397 89.7677 154.435C90.8414 154.819 90.4047 153.673 90.8497 152.34C90.862 154.069 91.2621 155.103 92.0743 155.029C92.5587 154.984 92.392 154.242 92.6329 153.679C92.7036 153.51 93.1005 153.98 93.1153 153.621C93.1589 152.445 92.6808 151.204 93.5226 151.605C93.5603 151.625 93.5433 152.267 93.6671 152.289C94.4737 152.421 94.3743 151.209 95.1564 150.922C95.7677 150.697 97.05 151.192 97.8136 151.143C98.2154 153.042 98.8344 152.447 98.8077 151.078C99.2979 151.019 99.7939 150.821 100.3 150.884C100.474 150.905 100.507 151.474 100.542 151.529C101.086 152.372 100.974 151.063 101.063 150.983C102.052 150.214 103.224 150.914 104.028 149.685C104.057 149.641 103.75 148.327 104.303 149.193C104.339 149.255 104.157 149.943 104.67 149.846C105.183 149.749 106.333 150.167 106.854 149.362C106.95 149.214 107.041 148.498 107.336 148.482C107.42 148.48 107.524 148.546 107.658 148.717C107.735 148.814 107.804 149.198 107.931 149.384C108.348 149.97 108.022 148.644 108.638 149.654C109.252 150.665 110.146 151.264 110.535 150.221C110.547 150.179 110.275 149.131 110.484 149.053C110.827 148.927 111.394 148.897 111.733 148.71C111.894 148.62 111.476 148.084 111.497 148.057C112.376 147.159 113.406 147.229 114.657 146.711C114.89 146.615 114.941 145.475 115.736 145.797C116.614 146.144 118.089 149.14 118.629 147.781C118.851 147.229 116.849 143.52 118.831 144.736C119.351 144.003 120.1 143.632 120.826 143.233C120.834 143.228 120.853 143.212 120.86 143.206C121.555 142.751 122.195 142.196 122.466 141.322C122.495 141.238 121.767 140.302 121.888 140.18C122.07 140.004 122.583 140.237 122.729 140.115C123.353 139.604 123.409 138.749 123.903 138.182C124.092 137.962 124.492 138.372 124.717 138.105C124.94 137.838 124.456 137.234 125.011 137.048C125.43 136.911 126.895 137.44 127.305 137.128C126.054 136.308 126.256 136.051 126.222 135.358C126.214 135.224 125.71 135.051 125.684 134.973C125.564 134.657 126.034 134.716 125.888 134.394C125.852 134.317 125.417 134.05 125.363 133.973C124.892 133.301 126.156 133.423 126.378 133.439C127.216 133.513 126.731 133.026 127.128 132.936C127.527 132.843 127.641 133.394 127.963 133.199C128.63 132.794 128.989 131.982 129.342 131.384C129.48 131.143 128.793 130.984 128.797 130.941C128.855 130.663 129.088 130.484 129.208 130.268C129.326 130.016 129.294 129.735 128.691 129.321C132.098 130.244 128.513 128.882 129.406 128.399C129.48 128.364 131.097 128.744 131.245 129.087C131.391 129.435 130.766 129.648 130.982 130.132C131.039 130.24 132.267 131.329 132.319 131.44C132.374 131.541 132.386 131.617 132.365 131.672C132.341 131.717 132.282 131.858 132.254 131.901C132.105 132.231 130.389 131.368 130.271 131.33C128.836 130.893 130.032 132.193 130.059 132.387C130.187 133.252 129.59 133.599 129.627 134.294C129.649 134.746 131.031 135.598 130.834 135.839C130.168 136.644 128.057 135.754 129.219 137.606C129.465 138.002 131.076 138.78 129.492 138.668C129.39 138.665 128.019 138.432 128.516 139.145C128.579 139.235 129.009 139.519 129.017 139.589C129.048 140.05 128.57 140.021 128.507 140.462C128.442 140.904 128.4 141.474 127.981 141.751C127.729 141.918 126.738 141.632 126.472 141.592C125.707 141.477 126.335 142.481 125.544 142.152C124.754 141.813 124.046 140.689 123.27 140.797C124.297 141.665 125.33 142.583 126.348 143.474C125.514 144.414 124.41 145.132 123.302 146.035C123.252 146.071 123.115 146.194 123.063 146.227C122.939 146.312 122.818 146.402 122.702 146.498C122.588 146.595 123.143 147.081 123.032 147.2C122.559 147.699 121.769 147.65 121.311 148.25C120.958 148.716 120.911 149.705 120.528 150.223C119.321 149.201 118.893 150.153 118.252 150.424C118.029 150.518 117.81 150.172 117.596 150.155C116.794 150.1 117.798 151.061 117.771 151.338C117.627 152.528 115.892 149.987 115.192 150.511C115.16 150.535 115.502 152.244 115.475 152.378C115.349 153.222 115.111 151.93 114.766 151.989C114.13 152.096 113.591 151.945 113.169 152.697C113.053 152.916 113.02 154.069 112.303 153.525C112.21 153.454 112.015 152.949 111.962 152.935C111.036 152.766 111.677 154.338 111.43 155.057C111.173 155.78 110.046 154.924 109.808 154.641C109.168 153.927 109.973 154.193 109.965 154.102C109.86 153.055 109.434 153.391 109.035 153.422C108.812 152.776 108.604 152.435 108.479 152.349C108.31 152.222 108.306 152.634 108.65 153.45C108.682 153.523 108.745 153.508 108.813 153.479C108.897 153.445 108.985 153.396 109.035 153.422C109.066 153.749 109.067 154.028 109.041 154.254C108.999 155.159 108.566 155.176 107.785 154.122C107.33 153.507 107.335 152.634 106.652 153.151C106.342 153.385 106.797 154.452 106.573 154.843C106.061 155.735 104.839 154.966 104.145 155.331C103.892 155.464 104.32 155.999 104.152 156.111C103.706 156.41 103.149 156.07 102.714 156.434C102.675 156.469 102.951 157.077 102.798 157.126C101.634 157.507 100.493 157.353 99.2286 157.622C98.6195 157.753 97.5849 158.338 96.9181 158.387C95.7632 158.48 94.2225 157.75 93.2784 158.098C92.656 158.324 92.8697 158.961 92.6368 159.439C92.1733 160.368 91.051 158.896 90.9122 158.66C90.909 158.653 91.4594 158.454 91.1339 158.14C90.9086 157.451 90.9193 158.653 90.9122 158.66C90.8153 158.514 89.6783 158.428 89.4542 158.557C89.3336 158.631 89.4235 159.252 89.3595 159.279C88.817 159.494 88.2583 159.649 87.6925 159.738C86.7638 159.902 85.8271 159.879 84.8937 159.654C84.8686 159.641 84.9341 158.943 84.8751 158.92C84.0529 158.576 83.481 159.402 82.7491 159.867C82.0211 160.331 81.4668 160.119 81.1505 158.891C80.6157 159.001 79.9099 158.405 79.5138 158.042C79.1194 157.679 78.9175 159.025 78.8761 159.048C77.5886 159.775 76.9772 158.916 75.7608 158.619C75.1811 158.476 73.9808 158.483 73.3116 158.512C72.7822 158.537 72.537 158.166 72.0304 158.272C71.962 158.286 71.907 158.888 71.8829 158.912C71.21 159.515 71.7604 158.116 71.7062 157.835C71.5117 156.812 71.3934 156.265 70.6398 156.557C70.4687 156.628 69.5341 158.595 69.213 158.644C68.8029 158.705 69.1283 158.001 68.6964 158.082C68.659 158.092 68.5484 158.546 68.3136 158.464C67.2169 158.084 66.0824 157.465 64.9142 157.121C64.7544 157.072 64.7189 157.849 64.4815 157.789C63.3671 157.504 62.1725 157.018 61.2608 156.244C61.0382 156.051 61.4079 155.641 61.4142 155.474C61.4588 154.47 60.4265 155.499 60.3302 155.483C60.2247 155.469 60.1216 155.452 60.0216 155.431C58.1009 155.021 57.2744 153.342 55.2726 152.735C55.1629 152.711 53.5768 153.42 53.9503 152.147C53.9709 152.06 54.3906 150.787 53.5958 151.296C53.5448 151.328 53.3611 152.011 53.045 151.698C52.733 151.387 51.8885 151.3 51.8741 150.352C51.8645 150.05 52.35 148.794 51.2667 149.209C51.2031 149.251 48.9897 150.383 49.8312 148.985C49.9711 148.756 51.155 147.558 50.086 147.737C49.8787 147.771 49.7859 148.204 49.38 148.14C48.7505 148.036 48.5914 147.235 47.6085 147.287C47.4375 147.3 46.2614 147.719 46.6485 146.848C46.7108 146.712 47.2038 146.42 47.1183 146.229C46.9348 145.818 46.6499 145.492 46.3634 145.162C46.0396 144.79 45.7091 144.412 45.5675 143.893C45.476 143.558 46.2895 143.118 46.2794 142.711C46.2678 142.302 46.0583 141.644 45.5196 141.616C44.9794 141.587 44.0419 142.761 43.631 142.398C41.8376 140.802 41.2702 138.323 40.2843 136.182C40.1375 135.862 39.8115 136.362 39.5626 135.899C38.8168 134.537 37.5063 132.346 37.3526 130.487C37.3279 130.087 37.3551 129.689 37.4591 129.325C37.9009 127.831 39.038 129.153 39.0821 128.12C39.1064 127.636 37.3447 127.621 37.2579 127.514C36.4149 126.533 36.9383 125.53 36.5011 124.517C36.4108 124.305 35.7823 124.655 35.712 124.469C35.4677 123.828 35.6567 123.075 35.5196 122.442C35.4571 122.159 34.9448 122.274 34.9532 121.997C34.9711 121.342 35.1428 120.745 35.5978 120.094C35.6413 120.038 36.3075 120.372 36.3077 119.914C36.3071 119.157 36.7786 118.256 36.3097 117.39C36.1678 117.137 34.9749 117.068 35.8292 116.553C36.0093 116.445 37.426 116.692 36.2374 115.974C36.0354 115.867 34.4772 114.588 35.6212 114.19C35.9205 114.087 37.131 113.9 36.9942 113.588C36.9716 113.543 36.3119 113.605 36.2892 113.348C36.2245 112.43 36.4724 111.547 36.4903 110.617C36.4939 110.368 35.7636 110.562 35.7911 110.196C35.8701 109.171 36.3862 108.022 36.8937 107.175C37.0797 106.869 37.522 107.275 37.587 107.269C38.6357 107.209 37.4767 106.552 37.4523 106.393C37.3104 105.442 38.1239 105.063 38.2657 104.304C38.3082 104.091 37.674 103.986 37.6378 103.925C37.311 103.3 38.2151 104.045 38.4386 103.84C38.756 103.556 38.9922 103.213 39.1856 102.843C39.3563 102.52 39.49 102.162 39.6036 101.834C39.6894 101.584 38.9064 101.536 38.9923 101.314C39.4902 99.992 40.2044 98.7426 41.1827 97.7469C41.368 97.5602 41.788 97.9601 41.9259 97.9745C42.8828 98.0746 42.056 97.045 42.0118 96.8788C41.8067 96.1427 42.3451 96.1869 42.4972 95.7186C43.2381 93.4128 45.0041 91.0464 46.3556 89.2518C48.1188 86.9062 49.7999 85.3101 51.3399 82.9159C51.4386 82.7648 50.7286 82.4782 50.8058 82.3417C51.4803 81.2092 52.3407 80.1976 53.2198 79.1395C53.6609 78.6103 54.0811 78.0781 54.464 77.495C54.5521 77.361 53.8628 77.089 53.9884 76.8592C54.2378 76.3901 54.6967 75.9002 55.2208 75.6288C55.4725 75.499 55.7091 76.1569 55.9523 76.0194C56.5216 75.6976 56.9901 75.2279 57.3243 74.6727C57.4682 74.4323 56.6509 74.2709 56.881 73.995C58.4296 72.1303 60.0541 70.1431 62.9171 68.9247C63.1152 68.8418 64.184 69.8575 64.3302 69.3797C64.1008 69.0423 63.801 68.6692 63.5411 68.3202C64.9607 67.0485 66.8428 65.8956 68.8253 65.1542C70.6566 64.4931 72.5085 63.9355 74.3976 63.2743C74.5378 63.2252 74.0251 62.5871 74.296 62.4881C75.8665 61.9155 77.3803 61.1608 79.3224 61.3758C79.5155 61.3965 79.8153 62.7321 80.255 62.3866C80.3304 62.3238 81.0289 61.9341 81.1485 61.5956C81.1636 61.5451 80.8568 60.9675 81.0978 60.8827ZM77.7589 156.4C77.4521 155.704 77.0895 158.069 77.59 157.556C77.6145 157.528 77.7751 156.435 77.7589 156.4ZM77.5812 153.45C77.3183 154.182 77.9238 154.322 77.8937 153.521C77.8901 153.489 77.5943 153.421 77.5812 153.45ZM97.836 151.191C97.9863 150.375 98.3345 150.203 98.8058 151.078C98.4805 151.102 98.1617 151.167 97.836 151.191ZM59.2638 147.932C59.2769 147.898 59.1051 147.755 59.003 147.929C58.6752 148.489 59.04 148.497 59.2638 147.932ZM122.758 144.01C121.635 143.626 122.353 145.05 123.223 145.369C124.113 145.662 123.111 144.112 122.758 144.01ZM125.709 139.267C124.687 139.268 127.373 141.343 127.208 140.394C127.196 140.337 125.769 139.266 125.709 139.267ZM50.6124 137.711C49.3937 138.158 50.148 139.375 50.9952 138.331C51.0367 138.276 50.6742 137.692 50.6124 137.711ZM127.814 134.442C127.326 134.365 127.511 135.085 128.117 135.184C128.606 135.264 128.422 134.536 127.814 134.442ZM129.257 125.359C129.43 125.249 131.092 125.978 131.078 126.078L131.074 126.076C130.869 127.586 127.95 127.549 128.429 126.544C128.509 126.334 129.265 127.101 129.548 126.858C130.072 126.324 128.314 125.937 129.257 125.359ZM89.4728 64.2684C89.6004 63.4977 88.9301 63.4827 89.1319 64.2606C89.1406 64.2913 89.4649 64.2994 89.4728 64.2684Z" fill="#FA8282"/>
</svg>
